<svg width="36" height="41" viewBox="0 0 36 41" fill="none" xmlns="http://www.w3.org/2000/svg">
<path d="M13.0003 14.6667C17.0504 14.6667 20.3337 11.3834 20.3337 7.33333C20.3337 3.28325 17.0504 0 13.0003 0C8.95024 0 5.66699 3.28325 5.66699 7.33333C5.66699 11.3834 8.95024 14.6667 13.0003 14.6667Z" fill="white"/>
<path d="M12.9998 13.4444C16.3749 13.4444 19.1109 10.7084 19.1109 7.33328C19.1109 3.95821 16.3749 1.22217 12.9998 1.22217C9.62471 1.22217 6.88867 3.95821 6.88867 7.33328C6.88867 10.7084 9.62471 13.4444 12.9998 13.4444Z" stroke="#C20000" stroke-width="2"/>
<path d="M24 7.3335H2V29.3335H24V7.3335Z" fill="white"/>
<path d="M3.22222 8.55566H22.7778L24 28.1112H2L3.22222 8.55566Z" stroke="#C20000" stroke-width="2"/>
<rect x="12.6865" y="29" width="16" height="16" transform="rotate(-45 12.6865 29)" fill="#C20000"/>
</svg>
