<svg width="360" height="202" viewBox="0 0 360 202" fill="none" xmlns="http://www.w3.org/2000/svg">
<rect width="360" height="202" fill="white"/>
<rect x="0.5" y="0.5" width="359" height="201" fill="#F7F9FC"/>
<rect x="185" y="75" width="100" height="90" rx="2" fill="#27AE60"/>
<rect x="129" y="115" width="19" height="50" fill="#27AE60"/>
<g opacity="0.25">
<circle cx="159" cy="49" r="2" fill="#27AE60"/>
<circle cx="159" cy="87" r="2" fill="#27AE60"/>
<circle cx="195" cy="49" r="2" fill="#27AE60"/>
<circle cx="195" cy="88" r="2" fill="#27AE60"/>
<circle cx="171" cy="49" r="2" fill="#27AE60"/>
<circle cx="171" cy="87" r="2" fill="#27AE60"/>
<circle cx="207" cy="49" r="2" fill="#27AE60"/>
<circle cx="207" cy="88" r="2" fill="#27AE60"/>
<circle cx="183" cy="49" r="2" fill="#27AE60"/>
<circle cx="183" cy="87" r="2" fill="#27AE60"/>
<circle cx="219" cy="49" r="2" fill="#27AE60"/>
<circle cx="219" cy="88" r="2" fill="#27AE60"/>
<circle cx="183" cy="61" r="2" fill="#27AE60"/>
<circle cx="183" cy="100" r="2" fill="#27AE60"/>
<circle cx="219" cy="62" r="2" fill="#27AE60"/>
<circle cx="219" cy="100" r="2" fill="#27AE60"/>
<circle cx="183" cy="74" r="2" fill="#27AE60"/>
<circle cx="183" cy="112" r="2" fill="#27AE60"/>
<circle cx="219" cy="75" r="2" fill="#27AE60"/>
<circle cx="219" cy="113" r="2" fill="#27AE60"/>
<circle cx="171" cy="61" r="2" fill="#27AE60"/>
<circle cx="171" cy="100" r="2" fill="#27AE60"/>
<circle cx="207" cy="62" r="2" fill="#27AE60"/>
<circle cx="207" cy="100" r="2" fill="#27AE60"/>
<circle cx="171" cy="74" r="2" fill="#27AE60"/>
<circle cx="171" cy="112" r="2" fill="#27AE60"/>
<circle cx="207" cy="75" r="2" fill="#27AE60"/>
<circle cx="207" cy="113" r="2" fill="#27AE60"/>
<circle cx="159" cy="61" r="2" fill="#27AE60"/>
<circle cx="159" cy="100" r="2" fill="#27AE60"/>
<circle cx="195" cy="62" r="2" fill="#27AE60"/>
<circle cx="195" cy="100" r="2" fill="#27AE60"/>
<circle cx="159" cy="74" r="2" fill="#27AE60"/>
<circle cx="159" cy="112" r="2" fill="#27AE60"/>
<circle cx="195" cy="75" r="2" fill="#27AE60"/>
<circle cx="195" cy="113" r="2" fill="#27AE60"/>
</g>
<circle cx="94.5" cy="145.5" r="19.5" fill="#37D279"/>
<circle cx="133.5" cy="106.5" r="19.5" fill="#37D279"/>
<rect x="79" y="133.797" width="58.4291" height="38.6302" transform="rotate(-45 79 133.797)" fill="#37D279"/>
<circle cx="95" cy="145" r="13" fill="#27AE60"/>
<circle cx="94.5" cy="145.5" r="3.5" fill="white"/>
<path d="M157 129C157 115.193 168.193 104 182 104H224C237.807 104 249 115.193 249 129V165H157V129Z" fill="#37D279"/>
<circle cx="202.5" cy="136.5" r="17.5" fill="#27AE60"/>
<circle cx="202.5" cy="136.5" r="3.5" fill="white"/>
<line x1="279.5" y1="81" x2="279.5" y2="158" stroke="white"/>
<rect x="0.5" y="0.5" width="359" height="201" stroke="#F7F9FC"/>
</svg>
