<svg width="512" height="296" viewBox="0 0 512 296" fill="none" xmlns="http://www.w3.org/2000/svg">
<g filter="url(#filter0_d)">
<path d="M147.799 290.854C109.926 290.854 73.6047 275.811 46.8247 249.034C20.0447 222.257 4.99989 185.939 4.99989 148.071C4.99989 110.202 20.0447 73.8849 46.8247 47.1078C73.6047 20.3307 110.127 5.00001 148 5L147.799 148.071L147.799 290.854Z" fill="white"/>
<path d="M147.299 148.07V148.071L147.299 290.354C109.739 290.222 73.7466 275.246 47.1783 248.681C20.4921 221.997 5.49989 185.807 5.49989 148.071C5.49989 110.335 20.492 74.1447 47.1783 47.4614C73.7477 20.8948 109.94 5.63538 147.499 5.5009L147.299 148.07Z" stroke="#27AE60"/>
</g>
<g filter="url(#filter1_d)">
<ellipse cx="146.229" cy="148.5" rx="95.1993" ry="95.1889" fill="white"/>
<path d="M240.928 148.5C240.928 200.796 198.53 243.189 146.229 243.189C93.9276 243.189 51.5293 200.796 51.5293 148.5C51.5293 96.2053 93.9276 53.8115 146.229 53.8115C198.53 53.8115 240.928 96.2053 240.928 148.5Z" stroke="#27AE60"/>
</g>
<g clip-path="url(#clip0)">
<rect width="579.772" height="295" transform="translate(146.229 1)" fill="#F7F9FC"/>
<path d="M447.895 143.404C447.995 144.43 448.062 145.466 448.096 146.51L447.596 146.526C447.613 147.039 447.621 147.554 447.621 148.071C447.621 148.588 447.613 149.103 447.596 149.616L448.096 149.632C448.062 150.676 447.995 151.712 447.895 152.738L447.398 152.69C447.297 153.719 447.164 154.738 446.999 155.747L447.492 155.828C447.323 156.858 447.121 157.877 446.887 158.884L446.4 158.771C446.167 159.776 445.901 160.768 445.605 161.747L446.083 161.892C445.781 162.89 445.447 163.873 445.082 164.842L444.614 164.666C444.251 165.63 443.857 166.58 443.433 167.513L443.888 167.72C443.458 168.667 442.998 169.599 442.509 170.512L442.068 170.276C441.582 171.183 441.067 172.073 440.524 172.944L440.948 173.208C440.398 174.091 439.82 174.954 439.215 175.797L438.809 175.505C438.209 176.34 437.583 177.155 436.931 177.949L437.317 178.266C436.657 179.069 435.972 179.85 435.262 180.607L434.897 180.265C434.195 181.015 433.468 181.742 432.717 182.445L433.059 182.81C432.302 183.519 431.521 184.205 430.718 184.864L430.401 184.478C429.607 185.13 428.792 185.756 427.956 186.356L428.248 186.762C427.405 187.367 426.542 187.945 425.659 188.495L425.395 188.07C424.524 188.613 423.634 189.128 422.727 189.614L422.963 190.055C422.05 190.544 421.118 191.004 420.171 191.434L419.964 190.979C419.031 191.402 418.081 191.796 417.117 192.159L417.293 192.627C416.324 192.992 415.34 193.326 414.343 193.628L414.198 193.15C413.219 193.446 412.226 193.712 411.222 193.945L411.335 194.432C410.328 194.666 409.309 194.868 408.278 195.037L408.197 194.543C407.189 194.709 406.169 194.842 405.14 194.942L405.189 195.44C404.162 195.54 403.127 195.607 402.082 195.64L402.066 195.141C401.553 195.157 401.038 195.166 400.522 195.166C400.005 195.166 399.49 195.157 398.977 195.141L398.961 195.64C397.916 195.607 396.881 195.54 395.854 195.44L395.903 194.942C394.874 194.842 393.854 194.709 392.846 194.543L392.765 195.037C391.734 194.868 390.715 194.666 389.708 194.432L389.822 193.945C388.817 193.712 387.824 193.446 386.845 193.15L386.7 193.628C385.703 193.326 384.719 192.992 383.75 192.627L383.926 192.159C382.962 191.796 382.012 191.402 381.079 190.979L380.872 191.434C379.925 191.004 378.994 190.544 378.08 190.055L378.316 189.614C377.409 189.128 376.519 188.613 375.648 188.07L375.384 188.495C374.501 187.945 373.638 187.367 372.795 186.762L373.087 186.356C372.251 185.756 371.436 185.13 370.643 184.478L370.325 184.864C369.522 184.205 368.741 183.519 367.984 182.81L368.326 182.445C367.576 181.742 366.849 181.015 366.146 180.265L365.781 180.607C365.071 179.85 364.386 179.069 363.726 178.266L364.112 177.949C363.46 177.155 362.834 176.34 362.234 175.505L361.828 175.797C361.223 174.954 360.645 174.091 360.095 173.208L360.519 172.944C359.976 172.073 359.461 171.183 358.975 170.276L358.534 170.512C358.045 169.599 357.585 168.667 357.155 167.72L357.61 167.513C357.186 166.58 356.792 165.63 356.429 164.666L355.961 164.842C355.596 163.873 355.262 162.89 354.96 161.892L355.438 161.747C355.142 160.768 354.876 159.776 354.643 158.771L354.156 158.884C353.922 157.877 353.72 156.858 353.551 155.828L354.044 155.747C353.879 154.738 353.746 153.719 353.645 152.69L353.148 152.738C353.048 151.712 352.981 150.676 352.947 149.632L353.447 149.616C353.43 149.103 353.422 148.588 353.422 148.071C353.422 147.554 353.43 147.039 353.447 146.526L352.947 146.51C352.981 145.466 353.048 144.43 353.148 143.404L353.645 143.452C353.746 142.423 353.879 141.404 354.044 140.395L353.551 140.314C353.72 139.284 353.922 138.265 354.156 137.258L354.643 137.371C354.876 136.366 355.142 135.374 355.438 134.395L354.96 134.25C355.262 133.252 355.596 132.269 355.961 131.3L356.429 131.476C356.792 130.512 357.186 129.562 357.61 128.629L357.155 128.422C357.585 127.475 358.045 126.544 358.534 125.63L358.975 125.866C359.461 124.959 359.976 124.069 360.519 123.198L360.095 122.934C360.645 122.051 361.223 121.188 361.828 120.346L362.234 120.637C362.834 119.802 363.46 118.987 364.112 118.193L363.726 117.876C364.386 117.073 365.071 116.292 365.781 115.535L366.146 115.877C366.848 115.127 367.576 114.4 368.326 113.697L367.984 113.332C368.741 112.623 369.522 111.937 370.325 111.278L370.643 111.664C371.436 111.012 372.251 110.386 373.087 109.786L372.795 109.38C373.638 108.775 374.501 108.197 375.384 107.647L375.648 108.072C376.519 107.529 377.409 107.014 378.316 106.528L378.08 106.087C378.993 105.598 379.925 105.138 380.872 104.708L381.079 105.163C382.012 104.74 382.962 104.346 383.926 103.983L383.75 103.515C384.719 103.15 385.703 102.816 386.7 102.514L386.845 102.993C387.824 102.696 388.817 102.43 389.822 102.197L389.708 101.71C390.715 101.476 391.734 101.274 392.765 101.105L392.846 101.599C393.854 101.433 394.874 101.3 395.903 101.2L395.854 100.702C396.881 100.603 397.916 100.535 398.961 100.502L398.977 101.001C399.49 100.985 400.005 100.977 400.522 100.977C401.038 100.977 401.553 100.985 402.066 101.001L402.082 100.502C403.127 100.535 404.162 100.603 405.189 100.702L405.14 101.2C406.169 101.3 407.189 101.433 408.197 101.599L408.278 101.105C409.309 101.274 410.328 101.476 411.335 101.71L411.221 102.197C412.226 102.43 413.219 102.696 414.198 102.993L414.343 102.514C415.34 102.816 416.324 103.15 417.293 103.515L417.117 103.983C418.081 104.346 419.031 104.74 419.964 105.163L420.171 104.708C421.118 105.138 422.05 105.598 422.963 106.087L422.727 106.528C423.634 107.014 424.524 107.529 425.395 108.072L425.659 107.647C426.542 108.197 427.405 108.775 428.248 109.38L427.956 109.786C428.792 110.386 429.607 111.012 430.401 111.664L430.718 111.278C431.521 111.937 432.302 112.623 433.059 113.332L432.717 113.697C433.468 114.4 434.195 115.127 434.897 115.877L435.262 115.535C435.972 116.292 436.657 117.073 437.317 117.876L436.931 118.193C437.583 118.987 438.209 119.802 438.809 120.637L439.215 120.346C439.82 121.188 440.398 122.051 440.948 122.934L440.524 123.198C441.067 124.069 441.582 124.959 442.068 125.866L442.509 125.63C442.998 126.544 443.458 127.475 443.888 128.422L443.433 128.629C443.857 129.562 444.251 130.512 444.614 131.476L445.082 131.3C445.447 132.269 445.781 133.252 446.083 134.25L445.605 134.395C445.901 135.374 446.167 136.366 446.4 137.371L446.887 137.258C447.121 138.265 447.323 139.284 447.492 140.314L446.999 140.395C447.164 141.404 447.297 142.423 447.398 143.452L447.895 143.404Z" stroke="#27AE60" stroke-dasharray="3 3"/>
<path d="M288.598 148.072C288.598 226.929 224.665 290.855 145.799 290.855C66.9333 290.855 3 226.929 3 148.072C3 69.2144 67.1343 5 146 5C224.866 5 288.598 69.2144 288.598 148.072Z" fill="#27AE60"/>
</g>
<defs>
<filter id="filter0_d" x="0" y="0" width="153" height="295.854" filterUnits="userSpaceOnUse" color-interpolation-filters="sRGB">
<feFlood flood-opacity="0" result="BackgroundImageFix"/>
<feColorMatrix in="SourceAlpha" type="matrix" values="0 0 0 0 0 0 0 0 0 0 0 0 0 0 0 0 0 0 127 0"/>
<feOffset/>
<feGaussianBlur stdDeviation="2.5"/>
<feColorMatrix type="matrix" values="0 0 0 0 0 0 0 0 0 0 0 0 0 0 0 0 0 0 0.07 0"/>
<feBlend mode="normal" in2="BackgroundImageFix" result="effect1_dropShadow"/>
<feBlend mode="normal" in="SourceGraphic" in2="effect1_dropShadow" result="shape"/>
</filter>
<filter id="filter1_d" x="46.0293" y="48.3115" width="200.399" height="200.378" filterUnits="userSpaceOnUse" color-interpolation-filters="sRGB">
<feFlood flood-opacity="0" result="BackgroundImageFix"/>
<feColorMatrix in="SourceAlpha" type="matrix" values="0 0 0 0 0 0 0 0 0 0 0 0 0 0 0 0 0 0 127 0"/>
<feOffset/>
<feGaussianBlur stdDeviation="2.5"/>
<feColorMatrix type="matrix" values="0 0 0 0 0 0 0 0 0 0 0 0 0 0 0 0 0 0 0.07 0"/>
<feBlend mode="normal" in2="BackgroundImageFix" result="effect1_dropShadow"/>
<feBlend mode="normal" in="SourceGraphic" in2="effect1_dropShadow" result="shape"/>
</filter>
<clipPath id="clip0">
<rect width="579.772" height="295" fill="white" transform="translate(146.229 1)"/>
</clipPath>
</defs>
</svg>
