<svg width="440" height="220" viewBox="0 0 440 220" fill="none" xmlns="http://www.w3.org/2000/svg">
<rect x="220" width="44" height="51" fill="#27AE60"/>
<rect x="132" width="44" height="51" fill="#27AE60"/>
<rect x="308" width="44" height="44" fill="#27AE60"/>
<rect x="264" y="43.7998" width="44" height="44" fill="#27AE60"/>
<rect x="220" y="44" width="53" height="44" fill="#27AE60"/>
<rect x="44" width="44" height="44" fill="#27AE60"/>
<rect y="175.2" width="44" height="44" fill="#27AE60"/>
<rect x="44" y="131.4" width="44" height="44" fill="#27AE60"/>
<rect x="176" y="131.4" width="44" height="44" fill="#27AE60"/>
<rect x="264" y="131.4" width="44" height="44" fill="#27AE60"/>
<rect x="220" y="175.2" width="44" height="44" fill="#27AE60"/>
<rect x="352" y="88" width="44" height="51" fill="#27AE60"/>
<rect x="352" y="131.8" width="44" height="44" fill="#27AE60"/>
<rect x="396" y="175.2" width="44" height="44" fill="#27AE60"/>
<rect x="308" y="175.2" width="44" height="44" fill="#27AE60"/>
<rect x="132" y="175.2" width="44" height="44" fill="#27AE60"/>
<rect x="88" y="44" width="44" height="52" fill="#27AE60"/>
<rect x="88" y="87.6001" width="44" height="44" fill="#27AE60"/>
<rect y="87.6001" width="44" height="44" fill="#27AE60"/>
<rect x="123" y="44" width="53" height="44" fill="#27AE60"/>
</svg>
