<svg width="111" height="266" viewBox="0 0 111 266" fill="none" xmlns="http://www.w3.org/2000/svg">
<circle cx="3" cy="3" r="3" transform="rotate(-90 3 3)" fill="#27AE60" fill-opacity="0.2"/>
<circle cx="3" cy="203" r="3" transform="rotate(-90 3 203)" fill="#27AE60" fill-opacity="0.2"/>
<circle cx="24" cy="3" r="3" transform="rotate(-90 24 3)" fill="#27AE60" fill-opacity="0.2"/>
<circle cx="24" cy="203" r="3" transform="rotate(-90 24 203)" fill="#27AE60" fill-opacity="0.2"/>
<circle cx="45" cy="3" r="3" transform="rotate(-90 45 3)" fill="#27AE60" fill-opacity="0.2"/>
<circle cx="45" cy="203" r="3" transform="rotate(-90 45 203)" fill="#27AE60" fill-opacity="0.2"/>
<circle cx="66" cy="3" r="3" transform="rotate(-90 66 3)" fill="#27AE60" fill-opacity="0.2"/>
<circle cx="66" cy="203" r="3" transform="rotate(-90 66 203)" fill="#27AE60" fill-opacity="0.2"/>
<circle cx="87" cy="3" r="3" transform="rotate(-90 87 3)" fill="#27AE60" fill-opacity="0.2"/>
<circle cx="87" cy="203" r="3" transform="rotate(-90 87 203)" fill="#27AE60" fill-opacity="0.2"/>
<circle cx="108" cy="3" r="3" transform="rotate(-90 108 3)" fill="#27AE60" fill-opacity="0.2"/>
<circle cx="108" cy="203" r="3" transform="rotate(-90 108 203)" fill="#27AE60" fill-opacity="0.2"/>
<circle cx="3" cy="23" r="3" transform="rotate(-90 3 23)" fill="#27AE60" fill-opacity="0.2"/>
<circle cx="3" cy="223" r="3" transform="rotate(-90 3 223)" fill="#27AE60" fill-opacity="0.2"/>
<circle cx="24" cy="23" r="3" transform="rotate(-90 24 23)" fill="#27AE60" fill-opacity="0.2"/>
<circle cx="24" cy="223" r="3" transform="rotate(-90 24 223)" fill="#27AE60" fill-opacity="0.2"/>
<circle cx="45" cy="23" r="3" transform="rotate(-90 45 23)" fill="#27AE60" fill-opacity="0.2"/>
<circle cx="45" cy="223" r="3" transform="rotate(-90 45 223)" fill="#27AE60" fill-opacity="0.2"/>
<circle cx="66" cy="23" r="3" transform="rotate(-90 66 23)" fill="#27AE60" fill-opacity="0.2"/>
<circle cx="66" cy="223" r="3" transform="rotate(-90 66 223)" fill="#27AE60" fill-opacity="0.2"/>
<circle cx="87" cy="23" r="3" transform="rotate(-90 87 23)" fill="#27AE60" fill-opacity="0.2"/>
<circle cx="87" cy="223" r="3" transform="rotate(-90 87 223)" fill="#27AE60" fill-opacity="0.2"/>
<circle cx="108" cy="23" r="3" transform="rotate(-90 108 23)" fill="#27AE60" fill-opacity="0.2"/>
<circle cx="108" cy="223" r="3" transform="rotate(-90 108 223)" fill="#27AE60" fill-opacity="0.2"/>
<circle cx="3" cy="43" r="3" transform="rotate(-90 3 43)" fill="#27AE60" fill-opacity="0.2"/>
<circle cx="3" cy="243" r="3" transform="rotate(-90 3 243)" fill="#27AE60" fill-opacity="0.2"/>
<circle cx="24" cy="43" r="3" transform="rotate(-90 24 43)" fill="#27AE60" fill-opacity="0.2"/>
<circle cx="24" cy="243" r="3" transform="rotate(-90 24 243)" fill="#27AE60" fill-opacity="0.2"/>
<circle cx="45" cy="43" r="3" transform="rotate(-90 45 43)" fill="#27AE60" fill-opacity="0.2"/>
<circle cx="45" cy="243" r="3" transform="rotate(-90 45 243)" fill="#27AE60" fill-opacity="0.2"/>
<circle cx="66" cy="43" r="3" transform="rotate(-90 66 43)" fill="#27AE60" fill-opacity="0.2"/>
<circle cx="66" cy="243" r="3" transform="rotate(-90 66 243)" fill="#27AE60" fill-opacity="0.2"/>
<circle cx="87" cy="43" r="3" transform="rotate(-90 87 43)" fill="#27AE60" fill-opacity="0.2"/>
<circle cx="87" cy="243" r="3" transform="rotate(-90 87 243)" fill="#27AE60" fill-opacity="0.2"/>
<circle cx="108" cy="43" r="3" transform="rotate(-90 108 43)" fill="#27AE60" fill-opacity="0.2"/>
<circle cx="108" cy="243" r="3" transform="rotate(-90 108 243)" fill="#27AE60" fill-opacity="0.2"/>
<circle cx="3" cy="63" r="3" transform="rotate(-90 3 63)" fill="#27AE60" fill-opacity="0.2"/>
<circle cx="3" cy="263" r="3" transform="rotate(-90 3 263)" fill="#27AE60" fill-opacity="0.2"/>
<circle cx="24" cy="63" r="3" transform="rotate(-90 24 63)" fill="#27AE60" fill-opacity="0.2"/>
<circle cx="24" cy="263" r="3" transform="rotate(-90 24 263)" fill="#27AE60" fill-opacity="0.2"/>
<circle cx="45" cy="63" r="3" transform="rotate(-90 45 63)" fill="#27AE60" fill-opacity="0.2"/>
<circle cx="45" cy="263" r="3" transform="rotate(-90 45 263)" fill="#27AE60" fill-opacity="0.2"/>
<circle cx="66" cy="63" r="3" transform="rotate(-90 66 63)" fill="#27AE60" fill-opacity="0.2"/>
<circle cx="66" cy="263" r="3" transform="rotate(-90 66 263)" fill="#27AE60" fill-opacity="0.2"/>
<circle cx="87" cy="63" r="3" transform="rotate(-90 87 63)" fill="#27AE60" fill-opacity="0.2"/>
<circle cx="87" cy="263" r="3" transform="rotate(-90 87 263)" fill="#27AE60" fill-opacity="0.2"/>
<circle cx="108" cy="63" r="3" transform="rotate(-90 108 63)" fill="#27AE60" fill-opacity="0.2"/>
<circle cx="108" cy="263" r="3" transform="rotate(-90 108 263)" fill="#27AE60" fill-opacity="0.2"/>
<circle cx="3" cy="83" r="3" transform="rotate(-90 3 83)" fill="#27AE60" fill-opacity="0.2"/>
<circle cx="24" cy="83" r="3" transform="rotate(-90 24 83)" fill="#27AE60" fill-opacity="0.2"/>
<circle cx="45" cy="83" r="3" transform="rotate(-90 45 83)" fill="#27AE60" fill-opacity="0.2"/>
<circle cx="66" cy="83" r="3" transform="rotate(-90 66 83)" fill="#27AE60" fill-opacity="0.2"/>
<circle cx="87" cy="83" r="3" transform="rotate(-90 87 83)" fill="#27AE60" fill-opacity="0.2"/>
<circle cx="108" cy="83" r="3" transform="rotate(-90 108 83)" fill="#27AE60" fill-opacity="0.2"/>
<circle cx="3" cy="103" r="3" transform="rotate(-90 3 103)" fill="#27AE60" fill-opacity="0.2"/>
<circle cx="24" cy="103" r="3" transform="rotate(-90 24 103)" fill="#27AE60" fill-opacity="0.2"/>
<circle cx="45" cy="103" r="3" transform="rotate(-90 45 103)" fill="#27AE60" fill-opacity="0.2"/>
<circle cx="66" cy="103" r="3" transform="rotate(-90 66 103)" fill="#27AE60" fill-opacity="0.2"/>
<circle cx="87" cy="103" r="3" transform="rotate(-90 87 103)" fill="#27AE60" fill-opacity="0.2"/>
<circle cx="108" cy="103" r="3" transform="rotate(-90 108 103)" fill="#27AE60" fill-opacity="0.2"/>
<circle cx="3" cy="123" r="3" transform="rotate(-90 3 123)" fill="#27AE60" fill-opacity="0.2"/>
<circle cx="24" cy="123" r="3" transform="rotate(-90 24 123)" fill="#27AE60" fill-opacity="0.2"/>
<circle cx="45" cy="123" r="3" transform="rotate(-90 45 123)" fill="#27AE60" fill-opacity="0.2"/>
<circle cx="66" cy="123" r="3" transform="rotate(-90 66 123)" fill="#27AE60" fill-opacity="0.2"/>
<circle cx="87" cy="123" r="3" transform="rotate(-90 87 123)" fill="#27AE60" fill-opacity="0.2"/>
<circle cx="108" cy="123" r="3" transform="rotate(-90 108 123)" fill="#27AE60" fill-opacity="0.2"/>
<circle cx="3" cy="143" r="3" transform="rotate(-90 3 143)" fill="#27AE60" fill-opacity="0.2"/>
<circle cx="24" cy="143" r="3" transform="rotate(-90 24 143)" fill="#27AE60" fill-opacity="0.2"/>
<circle cx="45" cy="143" r="3" transform="rotate(-90 45 143)" fill="#27AE60" fill-opacity="0.2"/>
<circle cx="66" cy="143" r="3" transform="rotate(-90 66 143)" fill="#27AE60" fill-opacity="0.2"/>
<circle cx="87" cy="143" r="3" transform="rotate(-90 87 143)" fill="#27AE60" fill-opacity="0.2"/>
<circle cx="108" cy="143" r="3" transform="rotate(-90 108 143)" fill="#27AE60" fill-opacity="0.2"/>
<circle cx="3" cy="163" r="3" transform="rotate(-90 3 163)" fill="#27AE60" fill-opacity="0.2"/>
<circle cx="24" cy="163" r="3" transform="rotate(-90 24 163)" fill="#27AE60" fill-opacity="0.2"/>
<circle cx="45" cy="163" r="3" transform="rotate(-90 45 163)" fill="#27AE60" fill-opacity="0.2"/>
<circle cx="66" cy="163" r="3" transform="rotate(-90 66 163)" fill="#27AE60" fill-opacity="0.2"/>
<circle cx="87" cy="163" r="3" transform="rotate(-90 87 163)" fill="#27AE60" fill-opacity="0.2"/>
<circle cx="108" cy="163" r="3" transform="rotate(-90 108 163)" fill="#27AE60" fill-opacity="0.2"/>
<circle cx="3" cy="183" r="3" transform="rotate(-90 3 183)" fill="#27AE60" fill-opacity="0.2"/>
<circle cx="24" cy="183" r="3" transform="rotate(-90 24 183)" fill="#27AE60" fill-opacity="0.2"/>
<circle cx="45" cy="183" r="3" transform="rotate(-90 45 183)" fill="#27AE60" fill-opacity="0.2"/>
<circle cx="66" cy="183" r="3" transform="rotate(-90 66 183)" fill="#27AE60" fill-opacity="0.2"/>
<circle cx="87" cy="183" r="3" transform="rotate(-90 87 183)" fill="#27AE60" fill-opacity="0.2"/>
<circle cx="108" cy="183" r="3" transform="rotate(-90 108 183)" fill="#27AE60" fill-opacity="0.2"/>
</svg>
