<svg width="511" height="300" viewBox="0 0 511 300" fill="none" xmlns="http://www.w3.org/2000/svg">
<rect width="579.772" height="295" transform="translate(145.229 5)" fill="#F7F9FC"/>
<path d="M446.895 147.404C446.995 148.43 447.062 149.466 447.096 150.51L446.596 150.526C446.613 151.039 446.621 151.554 446.621 152.071C446.621 152.588 446.613 153.103 446.596 153.616L447.096 153.632C447.062 154.676 446.995 155.712 446.895 156.738L446.398 156.69C446.297 157.719 446.164 158.738 445.999 159.747L446.492 159.828C446.323 160.858 446.121 161.877 445.887 162.884L445.4 162.771C445.167 163.776 444.901 164.768 444.605 165.747L445.083 165.892C444.781 166.89 444.447 167.873 444.082 168.842L443.614 168.666C443.251 169.63 442.857 170.58 442.433 171.513L442.888 171.72C442.458 172.667 441.998 173.599 441.509 174.512L441.068 174.276C440.582 175.183 440.067 176.073 439.524 176.944L439.948 177.208C439.398 178.091 438.82 178.954 438.215 179.797L437.809 179.505C437.209 180.34 436.583 181.155 435.931 181.949L436.317 182.266C435.657 183.069 434.972 183.85 434.262 184.607L433.897 184.265C433.195 185.015 432.468 185.742 431.717 186.445L432.059 186.81C431.302 187.519 430.521 188.205 429.718 188.864L429.401 188.478C428.607 189.13 427.792 189.756 426.956 190.356L427.248 190.762C426.405 191.367 425.542 191.945 424.659 192.495L424.395 192.07C423.524 192.613 422.634 193.128 421.727 193.614L421.963 194.055C421.05 194.544 420.118 195.004 419.171 195.434L418.964 194.979C418.031 195.402 417.081 195.796 416.117 196.159L416.293 196.627C415.324 196.992 414.34 197.326 413.343 197.628L413.198 197.15C412.219 197.446 411.226 197.712 410.222 197.945L410.335 198.432C409.328 198.666 408.309 198.868 407.278 199.037L407.197 198.543C406.189 198.709 405.169 198.842 404.14 198.942L404.189 199.44C403.162 199.54 402.127 199.607 401.082 199.64L401.066 199.141C400.553 199.157 400.038 199.166 399.522 199.166C399.005 199.166 398.49 199.157 397.977 199.141L397.961 199.64C396.916 199.607 395.881 199.54 394.854 199.44L394.903 198.942C393.874 198.842 392.854 198.709 391.846 198.543L391.765 199.037C390.734 198.868 389.715 198.666 388.708 198.432L388.822 197.945C387.817 197.712 386.824 197.446 385.845 197.15L385.7 197.628C384.703 197.326 383.719 196.992 382.75 196.627L382.926 196.159C381.962 195.796 381.012 195.402 380.079 194.979L379.872 195.434C378.925 195.004 377.994 194.544 377.08 194.055L377.316 193.614C376.409 193.128 375.519 192.613 374.648 192.07L374.384 192.495C373.501 191.945 372.638 191.367 371.795 190.762L372.087 190.356C371.251 189.756 370.436 189.13 369.643 188.478L369.325 188.864C368.522 188.205 367.741 187.519 366.984 186.81L367.326 186.445C366.576 185.742 365.849 185.015 365.146 184.265L364.781 184.607C364.071 183.85 363.386 183.069 362.726 182.266L363.112 181.949C362.46 181.155 361.834 180.34 361.234 179.505L360.828 179.797C360.223 178.954 359.645 178.091 359.095 177.208L359.519 176.944C358.976 176.073 358.461 175.183 357.975 174.276L357.534 174.512C357.045 173.599 356.585 172.667 356.155 171.72L356.61 171.513C356.186 170.58 355.792 169.63 355.429 168.666L354.961 168.842C354.596 167.873 354.262 166.89 353.96 165.892L354.438 165.747C354.142 164.768 353.876 163.776 353.643 162.771L353.156 162.884C352.922 161.877 352.72 160.858 352.551 159.828L353.044 159.747C352.879 158.738 352.746 157.719 352.645 156.69L352.148 156.738C352.048 155.712 351.981 154.676 351.947 153.632L352.447 153.616C352.43 153.103 352.422 152.588 352.422 152.071C352.422 151.554 352.43 151.039 352.447 150.526L351.947 150.51C351.981 149.466 352.048 148.43 352.148 147.404L352.645 147.452C352.746 146.423 352.879 145.404 353.044 144.395L352.551 144.314C352.72 143.284 352.922 142.265 353.156 141.258L353.643 141.371C353.876 140.366 354.142 139.374 354.438 138.395L353.96 138.25C354.262 137.252 354.596 136.269 354.961 135.3L355.429 135.476C355.792 134.512 356.186 133.562 356.61 132.629L356.155 132.422C356.585 131.475 357.045 130.544 357.534 129.63L357.975 129.866C358.461 128.959 358.976 128.069 359.519 127.198L359.095 126.934C359.645 126.051 360.223 125.188 360.828 124.346L361.234 124.637C361.834 123.802 362.46 122.987 363.112 122.193L362.726 121.876C363.386 121.073 364.071 120.292 364.781 119.535L365.146 119.877C365.848 119.127 366.576 118.4 367.326 117.697L366.984 117.332C367.741 116.623 368.522 115.937 369.325 115.278L369.643 115.664C370.436 115.012 371.251 114.386 372.087 113.786L371.795 113.38C372.638 112.775 373.501 112.197 374.384 111.647L374.648 112.072C375.519 111.529 376.409 111.014 377.316 110.528L377.08 110.087C377.993 109.598 378.925 109.138 379.872 108.708L380.079 109.163C381.012 108.74 381.962 108.346 382.926 107.983L382.75 107.515C383.719 107.15 384.703 106.816 385.7 106.514L385.845 106.993C386.824 106.696 387.817 106.43 388.822 106.197L388.708 105.71C389.715 105.476 390.734 105.274 391.765 105.105L391.846 105.599C392.854 105.433 393.874 105.3 394.903 105.2L394.854 104.702C395.881 104.603 396.916 104.535 397.961 104.502L397.977 105.001C398.49 104.985 399.005 104.977 399.522 104.977C400.038 104.977 400.553 104.985 401.066 105.001L401.082 104.502C402.127 104.535 403.162 104.603 404.189 104.702L404.14 105.2C405.169 105.3 406.189 105.433 407.197 105.599L407.278 105.105C408.309 105.274 409.328 105.476 410.335 105.71L410.221 106.197C411.226 106.43 412.219 106.696 413.198 106.993L413.343 106.514C414.34 106.816 415.324 107.15 416.293 107.515L416.117 107.983C417.081 108.346 418.031 108.74 418.964 109.163L419.171 108.708C420.118 109.138 421.05 109.598 421.963 110.087L421.727 110.528C422.634 111.014 423.524 111.529 424.395 112.072L424.659 111.647C425.542 112.197 426.405 112.775 427.248 113.38L426.956 113.786C427.792 114.386 428.607 115.012 429.401 115.664L429.718 115.278C430.521 115.937 431.302 116.623 432.059 117.332L431.717 117.697C432.468 118.4 433.195 119.127 433.897 119.877L434.262 119.535C434.972 120.292 435.657 121.073 436.317 121.876L435.931 122.193C436.583 122.987 437.209 123.802 437.809 124.637L438.215 124.346C438.82 125.188 439.398 126.051 439.948 126.934L439.524 127.198C440.067 128.069 440.582 128.959 441.068 129.866L441.509 129.63C441.998 130.544 442.458 131.475 442.888 132.422L442.433 132.629C442.857 133.562 443.251 134.512 443.614 135.476L444.082 135.3C444.447 136.269 444.781 137.252 445.083 138.25L444.605 138.395C444.901 139.374 445.167 140.366 445.4 141.371L445.887 141.258C446.121 142.265 446.323 143.284 446.492 144.314L445.999 144.395C446.164 145.404 446.297 146.423 446.398 147.452L446.895 147.404Z" stroke="#27AE60" stroke-dasharray="3 3"/>
<path d="M0 148.144C0 227.041 64.0233 291 143 291C221.977 291 286 227.041 286 148.144C286 69.247 221.775 5 142.799 5C63.8219 5 0 69.247 0 148.144Z" fill="#27AE60"/>
<g filter="url(#filter0_d)">
<path d="M144.2 291C181.808 291 217.875 275.949 244.468 249.158C271.06 222.368 286 186.032 286 148.144C286 110.256 271.06 73.92 244.468 47.1293C217.875 20.3385 181.608 5.00001 144 5L144.2 148.144L144.2 291Z" fill="white"/>
<path d="M144.7 148.143V148.144L144.7 290.499C181.993 290.366 217.731 275.384 244.113 248.806C270.612 222.109 285.5 185.9 285.5 148.144C285.5 110.387 270.612 74.1782 244.113 47.4815C217.73 20.9026 181.794 5.6364 144.501 5.50091L144.7 148.143Z" stroke="#27AE60"/>
</g>
<g filter="url(#filter1_d)">
<circle r="82" transform="matrix(-1 0 0 1 143 148)" fill="white"/>
<circle r="81.5" transform="matrix(-1 0 0 1 143 148)" stroke="#27AE60"/>
</g>
<circle cx="241.5" cy="247.5" r="16.5" fill="#27AE60"/>
<defs>
<filter id="filter0_d" x="139" y="0" width="152" height="296" filterUnits="userSpaceOnUse" color-interpolation-filters="sRGB">
<feFlood flood-opacity="0" result="BackgroundImageFix"/>
<feColorMatrix in="SourceAlpha" type="matrix" values="0 0 0 0 0 0 0 0 0 0 0 0 0 0 0 0 0 0 127 0"/>
<feOffset/>
<feGaussianBlur stdDeviation="2.5"/>
<feColorMatrix type="matrix" values="0 0 0 0 0 0 0 0 0 0 0 0 0 0 0 0 0 0 0.07 0"/>
<feBlend mode="normal" in2="BackgroundImageFix" result="effect1_dropShadow"/>
<feBlend mode="normal" in="SourceGraphic" in2="effect1_dropShadow" result="shape"/>
</filter>
<filter id="filter1_d" x="56" y="61" width="174" height="174" filterUnits="userSpaceOnUse" color-interpolation-filters="sRGB">
<feFlood flood-opacity="0" result="BackgroundImageFix"/>
<feColorMatrix in="SourceAlpha" type="matrix" values="0 0 0 0 0 0 0 0 0 0 0 0 0 0 0 0 0 0 127 0"/>
<feOffset/>
<feGaussianBlur stdDeviation="2.5"/>
<feColorMatrix type="matrix" values="0 0 0 0 0 0 0 0 0 0 0 0 0 0 0 0 0 0 0.07 0"/>
<feBlend mode="normal" in2="BackgroundImageFix" result="effect1_dropShadow"/>
<feBlend mode="normal" in="SourceGraphic" in2="effect1_dropShadow" result="shape"/>
</filter>
</defs>
</svg>
