<svg width="193" height="266" viewBox="0 0 193 266" fill="none" xmlns="http://www.w3.org/2000/svg">
<circle cx="1" cy="3" r="3" transform="rotate(-90 1 3)" fill="#27AE60" fill-opacity="0.2"/>
<circle cx="1" cy="203" r="3" transform="rotate(-90 1 203)" fill="#27AE60" fill-opacity="0.2"/>
<circle cx="22" cy="3" r="3" transform="rotate(-90 22 3)" fill="#27AE60" fill-opacity="0.2"/>
<circle cx="22" cy="203" r="3" transform="rotate(-90 22 203)" fill="#27AE60" fill-opacity="0.2"/>
<circle cx="43" cy="3" r="3" transform="rotate(-90 43 3)" fill="#27AE60" fill-opacity="0.2"/>
<circle cx="43" cy="203" r="3" transform="rotate(-90 43 203)" fill="#27AE60" fill-opacity="0.2"/>
<circle cx="64" cy="3" r="3" transform="rotate(-90 64 3)" fill="#27AE60" fill-opacity="0.2"/>
<circle cx="64" cy="203" r="3" transform="rotate(-90 64 203)" fill="#27AE60" fill-opacity="0.2"/>
<circle cx="85" cy="3" r="3" transform="rotate(-90 85 3)" fill="#27AE60" fill-opacity="0.2"/>
<circle cx="85" cy="203" r="3" transform="rotate(-90 85 203)" fill="#27AE60" fill-opacity="0.2"/>
<circle cx="106" cy="3" r="3" transform="rotate(-90 106 3)" fill="#27AE60" fill-opacity="0.2"/>
<circle cx="106" cy="203" r="3" transform="rotate(-90 106 203)" fill="#27AE60" fill-opacity="0.2"/>
<circle cx="127" cy="3" r="3" transform="rotate(-90 127 3)" fill="#27AE60" fill-opacity="0.2"/>
<circle cx="127" cy="203" r="3" transform="rotate(-90 127 203)" fill="#27AE60" fill-opacity="0.2"/>
<circle cx="148" cy="3" r="3" transform="rotate(-90 148 3)" fill="#27AE60" fill-opacity="0.2"/>
<circle cx="148" cy="203" r="3" transform="rotate(-90 148 203)" fill="#27AE60" fill-opacity="0.2"/>
<circle cx="169" cy="3" r="3" transform="rotate(-90 169 3)" fill="#27AE60" fill-opacity="0.2"/>
<circle cx="169" cy="203" r="3" transform="rotate(-90 169 203)" fill="#27AE60" fill-opacity="0.2"/>
<circle cx="190" cy="3" r="3" transform="rotate(-90 190 3)" fill="#27AE60" fill-opacity="0.2"/>
<circle cx="190" cy="203" r="3" transform="rotate(-90 190 203)" fill="#27AE60" fill-opacity="0.2"/>
<circle cx="1" cy="23" r="3" transform="rotate(-90 1 23)" fill="#27AE60" fill-opacity="0.2"/>
<circle cx="1" cy="223" r="3" transform="rotate(-90 1 223)" fill="#27AE60" fill-opacity="0.2"/>
<circle cx="22" cy="23" r="3" transform="rotate(-90 22 23)" fill="#27AE60" fill-opacity="0.2"/>
<circle cx="22" cy="223" r="3" transform="rotate(-90 22 223)" fill="#27AE60" fill-opacity="0.2"/>
<circle cx="43" cy="23" r="3" transform="rotate(-90 43 23)" fill="#27AE60" fill-opacity="0.2"/>
<circle cx="43" cy="223" r="3" transform="rotate(-90 43 223)" fill="#27AE60" fill-opacity="0.2"/>
<circle cx="64" cy="23" r="3" transform="rotate(-90 64 23)" fill="#27AE60" fill-opacity="0.2"/>
<circle cx="64" cy="223" r="3" transform="rotate(-90 64 223)" fill="#27AE60" fill-opacity="0.2"/>
<circle cx="85" cy="23" r="3" transform="rotate(-90 85 23)" fill="#27AE60" fill-opacity="0.2"/>
<circle cx="85" cy="223" r="3" transform="rotate(-90 85 223)" fill="#27AE60" fill-opacity="0.2"/>
<circle cx="106" cy="23" r="3" transform="rotate(-90 106 23)" fill="#27AE60" fill-opacity="0.2"/>
<circle cx="106" cy="223" r="3" transform="rotate(-90 106 223)" fill="#27AE60" fill-opacity="0.2"/>
<circle cx="127" cy="23" r="3" transform="rotate(-90 127 23)" fill="#27AE60" fill-opacity="0.2"/>
<circle cx="127" cy="223" r="3" transform="rotate(-90 127 223)" fill="#27AE60" fill-opacity="0.2"/>
<circle cx="148" cy="23" r="3" transform="rotate(-90 148 23)" fill="#27AE60" fill-opacity="0.2"/>
<circle cx="148" cy="223" r="3" transform="rotate(-90 148 223)" fill="#27AE60" fill-opacity="0.2"/>
<circle cx="169" cy="23" r="3" transform="rotate(-90 169 23)" fill="#27AE60" fill-opacity="0.2"/>
<circle cx="169" cy="223" r="3" transform="rotate(-90 169 223)" fill="#27AE60" fill-opacity="0.2"/>
<circle cx="190" cy="23" r="3" transform="rotate(-90 190 23)" fill="#27AE60" fill-opacity="0.2"/>
<circle cx="190" cy="223" r="3" transform="rotate(-90 190 223)" fill="#27AE60" fill-opacity="0.2"/>
<circle cx="1" cy="43" r="3" transform="rotate(-90 1 43)" fill="#27AE60" fill-opacity="0.2"/>
<circle cx="1" cy="243" r="3" transform="rotate(-90 1 243)" fill="#27AE60" fill-opacity="0.2"/>
<circle cx="22" cy="43" r="3" transform="rotate(-90 22 43)" fill="#27AE60" fill-opacity="0.2"/>
<circle cx="22" cy="243" r="3" transform="rotate(-90 22 243)" fill="#27AE60" fill-opacity="0.2"/>
<circle cx="43" cy="43" r="3" transform="rotate(-90 43 43)" fill="#27AE60" fill-opacity="0.2"/>
<circle cx="43" cy="243" r="3" transform="rotate(-90 43 243)" fill="#27AE60" fill-opacity="0.2"/>
<circle cx="64" cy="43" r="3" transform="rotate(-90 64 43)" fill="#27AE60" fill-opacity="0.2"/>
<circle cx="64" cy="243" r="3" transform="rotate(-90 64 243)" fill="#27AE60" fill-opacity="0.2"/>
<circle cx="85" cy="43" r="3" transform="rotate(-90 85 43)" fill="#27AE60" fill-opacity="0.2"/>
<circle cx="85" cy="243" r="3" transform="rotate(-90 85 243)" fill="#27AE60" fill-opacity="0.2"/>
<circle cx="106" cy="43" r="3" transform="rotate(-90 106 43)" fill="#27AE60" fill-opacity="0.2"/>
<circle cx="106" cy="243" r="3" transform="rotate(-90 106 243)" fill="#27AE60" fill-opacity="0.2"/>
<circle cx="127" cy="43" r="3" transform="rotate(-90 127 43)" fill="#27AE60" fill-opacity="0.2"/>
<circle cx="127" cy="243" r="3" transform="rotate(-90 127 243)" fill="#27AE60" fill-opacity="0.2"/>
<circle cx="148" cy="43" r="3" transform="rotate(-90 148 43)" fill="#27AE60" fill-opacity="0.2"/>
<circle cx="148" cy="243" r="3" transform="rotate(-90 148 243)" fill="#27AE60" fill-opacity="0.2"/>
<circle cx="169" cy="43" r="3" transform="rotate(-90 169 43)" fill="#27AE60" fill-opacity="0.2"/>
<circle cx="169" cy="243" r="3" transform="rotate(-90 169 243)" fill="#27AE60" fill-opacity="0.2"/>
<circle cx="190" cy="43" r="3" transform="rotate(-90 190 43)" fill="#27AE60" fill-opacity="0.2"/>
<circle cx="190" cy="243" r="3" transform="rotate(-90 190 243)" fill="#27AE60" fill-opacity="0.2"/>
<circle cx="1" cy="63" r="3" transform="rotate(-90 1 63)" fill="#27AE60" fill-opacity="0.2"/>
<circle cx="1" cy="263" r="3" transform="rotate(-90 1 263)" fill="#27AE60" fill-opacity="0.2"/>
<circle cx="22" cy="63" r="3" transform="rotate(-90 22 63)" fill="#27AE60" fill-opacity="0.2"/>
<circle cx="22" cy="263" r="3" transform="rotate(-90 22 263)" fill="#27AE60" fill-opacity="0.2"/>
<circle cx="43" cy="63" r="3" transform="rotate(-90 43 63)" fill="#27AE60" fill-opacity="0.2"/>
<circle cx="43" cy="263" r="3" transform="rotate(-90 43 263)" fill="#27AE60" fill-opacity="0.2"/>
<circle cx="64" cy="63" r="3" transform="rotate(-90 64 63)" fill="#27AE60" fill-opacity="0.2"/>
<circle cx="64" cy="263" r="3" transform="rotate(-90 64 263)" fill="#27AE60" fill-opacity="0.2"/>
<circle cx="85" cy="63" r="3" transform="rotate(-90 85 63)" fill="#27AE60" fill-opacity="0.2"/>
<circle cx="85" cy="263" r="3" transform="rotate(-90 85 263)" fill="#27AE60" fill-opacity="0.2"/>
<circle cx="106" cy="63" r="3" transform="rotate(-90 106 63)" fill="#27AE60" fill-opacity="0.2"/>
<circle cx="106" cy="263" r="3" transform="rotate(-90 106 263)" fill="#27AE60" fill-opacity="0.2"/>
<circle cx="127" cy="63" r="3" transform="rotate(-90 127 63)" fill="#27AE60" fill-opacity="0.2"/>
<circle cx="127" cy="263" r="3" transform="rotate(-90 127 263)" fill="#27AE60" fill-opacity="0.2"/>
<circle cx="148" cy="63" r="3" transform="rotate(-90 148 63)" fill="#27AE60" fill-opacity="0.2"/>
<circle cx="148" cy="263" r="3" transform="rotate(-90 148 263)" fill="#27AE60" fill-opacity="0.2"/>
<circle cx="169" cy="63" r="3" transform="rotate(-90 169 63)" fill="#27AE60" fill-opacity="0.2"/>
<circle cx="169" cy="263" r="3" transform="rotate(-90 169 263)" fill="#27AE60" fill-opacity="0.2"/>
<circle cx="190" cy="63" r="3" transform="rotate(-90 190 63)" fill="#27AE60" fill-opacity="0.2"/>
<circle cx="190" cy="263" r="3" transform="rotate(-90 190 263)" fill="#27AE60" fill-opacity="0.2"/>
<circle cx="1" cy="83" r="3" transform="rotate(-90 1 83)" fill="#27AE60" fill-opacity="0.2"/>
<circle cx="22" cy="83" r="3" transform="rotate(-90 22 83)" fill="#27AE60" fill-opacity="0.2"/>
<circle cx="43" cy="83" r="3" transform="rotate(-90 43 83)" fill="#27AE60" fill-opacity="0.2"/>
<circle cx="64" cy="83" r="3" transform="rotate(-90 64 83)" fill="#27AE60" fill-opacity="0.2"/>
<circle cx="85" cy="83" r="3" transform="rotate(-90 85 83)" fill="#27AE60" fill-opacity="0.2"/>
<circle cx="106" cy="83" r="3" transform="rotate(-90 106 83)" fill="#27AE60" fill-opacity="0.2"/>
<circle cx="127" cy="83" r="3" transform="rotate(-90 127 83)" fill="#27AE60" fill-opacity="0.2"/>
<circle cx="148" cy="83" r="3" transform="rotate(-90 148 83)" fill="#27AE60" fill-opacity="0.2"/>
<circle cx="169" cy="83" r="3" transform="rotate(-90 169 83)" fill="#27AE60" fill-opacity="0.2"/>
<circle cx="190" cy="83" r="3" transform="rotate(-90 190 83)" fill="#27AE60" fill-opacity="0.2"/>
<circle cx="1" cy="103" r="3" transform="rotate(-90 1 103)" fill="#27AE60" fill-opacity="0.2"/>
<circle cx="22" cy="103" r="3" transform="rotate(-90 22 103)" fill="#27AE60" fill-opacity="0.2"/>
<circle cx="43" cy="103" r="3" transform="rotate(-90 43 103)" fill="#27AE60" fill-opacity="0.2"/>
<circle cx="64" cy="103" r="3" transform="rotate(-90 64 103)" fill="#27AE60" fill-opacity="0.2"/>
<circle cx="85" cy="103" r="3" transform="rotate(-90 85 103)" fill="#27AE60" fill-opacity="0.2"/>
<circle cx="106" cy="103" r="3" transform="rotate(-90 106 103)" fill="#27AE60" fill-opacity="0.2"/>
<circle cx="127" cy="103" r="3" transform="rotate(-90 127 103)" fill="#27AE60" fill-opacity="0.2"/>
<circle cx="148" cy="103" r="3" transform="rotate(-90 148 103)" fill="#27AE60" fill-opacity="0.2"/>
<circle cx="169" cy="103" r="3" transform="rotate(-90 169 103)" fill="#27AE60" fill-opacity="0.2"/>
<circle cx="190" cy="103" r="3" transform="rotate(-90 190 103)" fill="#27AE60" fill-opacity="0.2"/>
<circle cx="1" cy="123" r="3" transform="rotate(-90 1 123)" fill="#27AE60" fill-opacity="0.2"/>
<circle cx="22" cy="123" r="3" transform="rotate(-90 22 123)" fill="#27AE60" fill-opacity="0.2"/>
<circle cx="43" cy="123" r="3" transform="rotate(-90 43 123)" fill="#27AE60" fill-opacity="0.2"/>
<circle cx="64" cy="123" r="3" transform="rotate(-90 64 123)" fill="#27AE60" fill-opacity="0.2"/>
<circle cx="85" cy="123" r="3" transform="rotate(-90 85 123)" fill="#27AE60" fill-opacity="0.2"/>
<circle cx="106" cy="123" r="3" transform="rotate(-90 106 123)" fill="#27AE60" fill-opacity="0.2"/>
<circle cx="127" cy="123" r="3" transform="rotate(-90 127 123)" fill="#27AE60" fill-opacity="0.2"/>
<circle cx="148" cy="123" r="3" transform="rotate(-90 148 123)" fill="#27AE60" fill-opacity="0.2"/>
<circle cx="169" cy="123" r="3" transform="rotate(-90 169 123)" fill="#27AE60" fill-opacity="0.2"/>
<circle cx="190" cy="123" r="3" transform="rotate(-90 190 123)" fill="#27AE60" fill-opacity="0.2"/>
<circle cx="1" cy="143" r="3" transform="rotate(-90 1 143)" fill="#27AE60" fill-opacity="0.2"/>
<circle cx="22" cy="143" r="3" transform="rotate(-90 22 143)" fill="#27AE60" fill-opacity="0.2"/>
<circle cx="43" cy="143" r="3" transform="rotate(-90 43 143)" fill="#27AE60" fill-opacity="0.2"/>
<circle cx="64" cy="143" r="3" transform="rotate(-90 64 143)" fill="#27AE60" fill-opacity="0.2"/>
<circle cx="85" cy="143" r="3" transform="rotate(-90 85 143)" fill="#27AE60" fill-opacity="0.2"/>
<circle cx="106" cy="143" r="3" transform="rotate(-90 106 143)" fill="#27AE60" fill-opacity="0.2"/>
<circle cx="127" cy="143" r="3" transform="rotate(-90 127 143)" fill="#27AE60" fill-opacity="0.2"/>
<circle cx="148" cy="143" r="3" transform="rotate(-90 148 143)" fill="#27AE60" fill-opacity="0.2"/>
<circle cx="169" cy="143" r="3" transform="rotate(-90 169 143)" fill="#27AE60" fill-opacity="0.2"/>
<circle cx="190" cy="143" r="3" transform="rotate(-90 190 143)" fill="#27AE60" fill-opacity="0.2"/>
<circle cx="1" cy="163" r="3" transform="rotate(-90 1 163)" fill="#27AE60" fill-opacity="0.2"/>
<circle cx="22" cy="163" r="3" transform="rotate(-90 22 163)" fill="#27AE60" fill-opacity="0.2"/>
<circle cx="43" cy="163" r="3" transform="rotate(-90 43 163)" fill="#27AE60" fill-opacity="0.2"/>
<circle cx="64" cy="163" r="3" transform="rotate(-90 64 163)" fill="#27AE60" fill-opacity="0.2"/>
<circle cx="85" cy="163" r="3" transform="rotate(-90 85 163)" fill="#27AE60" fill-opacity="0.2"/>
<circle cx="106" cy="163" r="3" transform="rotate(-90 106 163)" fill="#27AE60" fill-opacity="0.2"/>
<circle cx="127" cy="163" r="3" transform="rotate(-90 127 163)" fill="#27AE60" fill-opacity="0.2"/>
<circle cx="148" cy="163" r="3" transform="rotate(-90 148 163)" fill="#27AE60" fill-opacity="0.2"/>
<circle cx="169" cy="163" r="3" transform="rotate(-90 169 163)" fill="#27AE60" fill-opacity="0.2"/>
<circle cx="190" cy="163" r="3" transform="rotate(-90 190 163)" fill="#27AE60" fill-opacity="0.2"/>
<circle cx="1" cy="183" r="3" transform="rotate(-90 1 183)" fill="#27AE60" fill-opacity="0.2"/>
<circle cx="22" cy="183" r="3" transform="rotate(-90 22 183)" fill="#27AE60" fill-opacity="0.2"/>
<circle cx="43" cy="183" r="3" transform="rotate(-90 43 183)" fill="#27AE60" fill-opacity="0.2"/>
<circle cx="64" cy="183" r="3" transform="rotate(-90 64 183)" fill="#27AE60" fill-opacity="0.2"/>
<circle cx="85" cy="183" r="3" transform="rotate(-90 85 183)" fill="#27AE60" fill-opacity="0.2"/>
<circle cx="106" cy="183" r="3" transform="rotate(-90 106 183)" fill="#27AE60" fill-opacity="0.2"/>
<circle cx="127" cy="183" r="3" transform="rotate(-90 127 183)" fill="#27AE60" fill-opacity="0.2"/>
<circle cx="148" cy="183" r="3" transform="rotate(-90 148 183)" fill="#27AE60" fill-opacity="0.2"/>
<circle cx="169" cy="183" r="3" transform="rotate(-90 169 183)" fill="#27AE60" fill-opacity="0.2"/>
<circle cx="190" cy="183" r="3" transform="rotate(-90 190 183)" fill="#27AE60" fill-opacity="0.2"/>
</svg>
