<svg xmlns="http://www.w3.org/2000/svg" width="96" height="96" viewBox="0 0 96 96">
  <g id="Group_1093" data-name="Group 1093" transform="translate(-258 -310)">
    <g id="Ellipse_5" data-name="Ellipse 5" transform="translate(258 310)" fill="#fff" stroke="#707070" stroke-width="1" opacity="0.75">
      <circle cx="48" cy="48" r="48" stroke="none"/>
      <circle cx="48" cy="48" r="47.5" fill="none"/>
    </g>
    <path id="Path_197" data-name="Path 197" d="M20,.375a19.625,19.625,0,1,0,12.125,35l1.75,1.75a3.687,3.687,0,0,0,.688,4.313l9.187,9.25a3.675,3.675,0,0,0,5.188,0l1.75-1.75a3.675,3.675,0,0,0,0-5.188l-9.25-9.187a3.638,3.638,0,0,0-4.313-.625l-1.75-1.75A19.619,19.619,0,0,0,20,.375ZM20,4A16,16,0,1,1,4,20,16,16,0,0,1,20,4ZM9.875,14.938a10.948,10.948,0,0,0,9.313,16.687,11.065,11.065,0,0,0,6.312-2,13.527,13.527,0,0,1-1.5.063A14.091,14.091,0,0,1,9.875,15.563C9.875,15.352,9.867,15.148,9.875,14.938Z" transform="translate(279.625 331.625)"/>
  </g>
</svg>
