<svg width="1565" height="368" viewBox="0 0 1565 368" fill="none" xmlns="http://www.w3.org/2000/svg">
<path d="M1382.01 5.5L1388.1 11.5858C1388.88 12.3668 1390.14 12.3668 1390.92 11.5858L1398.1 4.41421C1398.88 3.63316 1400.14 3.63317 1400.92 4.41421L1408.1 11.5858C1408.88 12.3668 1410.14 12.3668 1410.92 11.5858L1418.1 4.41421C1418.88 3.63316 1420.14 3.63317 1420.92 4.41421L1428.1 11.5858C1428.88 12.3668 1430.14 12.3668 1430.92 11.5858L1438.1 4.41421C1438.88 3.63316 1440.14 3.63317 1440.92 4.41421L1448.1 11.5858C1448.88 12.3668 1450.14 12.3668 1450.92 11.5858L1458.1 4.41421C1458.88 3.63316 1460.14 3.63317 1460.92 4.41421L1466.01 9.5" stroke="#5F0E6A" stroke-width="6" stroke-linecap="round" stroke-linejoin="round"/>
<path d="M1138.01 357.5L1144.1 363.586C1144.88 364.367 1146.14 364.367 1146.92 363.586L1154.1 356.414C1154.88 355.633 1156.14 355.633 1156.92 356.414L1164.1 363.586C1164.88 364.367 1166.14 364.367 1166.92 363.586L1174.1 356.414C1174.88 355.633 1176.14 355.633 1176.92 356.414L1184.1 363.586C1184.88 364.367 1186.14 364.367 1186.92 363.586L1194.1 356.414C1194.88 355.633 1196.14 355.633 1196.92 356.414L1204.1 363.586C1204.88 364.367 1206.14 364.367 1206.92 363.586L1214.1 356.414C1214.88 355.633 1216.14 355.633 1216.92 356.414L1222.01 361.5" stroke="#5F0E6A" stroke-width="6" stroke-linecap="round" stroke-linejoin="round"/>
<rect x="20.4775" y="284.99" width="6.16667" height="37" transform="rotate(15 20.4775 284.99)" fill="#5F0E6A"/>
<rect x="37.3353" y="305.468" width="6.16667" height="37" transform="rotate(105 37.3353 305.468)" fill="#5F0E6A"/>
<circle cx="70.0099" cy="51" r="17" stroke="#5F0E6A" stroke-width="10"/>
<circle cx="1542.01" cy="216" r="17" stroke="#5F0E6A" stroke-width="10"/>
</svg>
