<svg width="1536" height="799" viewBox="0 0 1536 799" fill="none" xmlns="http://www.w3.org/2000/svg">
<rect width="1536" height="799" fill="#ECEEF0"/>
<path d="M1471 80.5L1477.09 86.5858C1477.87 87.3668 1479.13 87.3668 1479.91 86.5858L1487.09 79.4142C1487.87 78.6332 1489.13 78.6332 1489.91 79.4142L1497.09 86.5858C1497.87 87.3668 1499.13 87.3668 1499.91 86.5858L1507.09 79.4142C1507.87 78.6332 1509.13 78.6332 1509.91 79.4142L1517.09 86.5858C1517.87 87.3668 1519.13 87.3668 1519.91 86.5858L1527.09 79.4142C1527.87 78.6332 1529.13 78.6332 1529.91 79.4142L1537.09 86.5858C1537.87 87.3668 1539.13 87.3668 1539.91 86.5858L1547.09 79.4142C1547.87 78.6332 1549.13 78.6332 1549.91 79.4142L1555 84.5" stroke="#5F0E6A" stroke-width="6" stroke-linecap="round" stroke-linejoin="round"/>
<circle cx="1555.5" cy="604.5" r="58.5" stroke="#5F0E6A" stroke-width="30"/>
</svg>
