<svg width="68" height="16" viewBox="0 0 68 16" fill="none" xmlns="http://www.w3.org/2000/svg">
<path d="M3 5.5L9.08579 11.5858C9.86683 12.3668 11.1332 12.3668 11.9142 11.5858L19.0858 4.41421C19.8668 3.63316 21.1332 3.63317 21.9142 4.41421L29.0858 11.5858C29.8668 12.3668 31.1332 12.3668 31.9142 11.5858L39.0858 4.41421C39.8668 3.63316 41.1332 3.63317 41.9142 4.41421L49.0858 11.5858C49.8668 12.3668 51.1332 12.3668 51.9142 11.5858L59.0858 4.41421C59.8668 3.63316 61.1332 3.63317 61.9142 4.41421L69.0858 11.5858C69.8668 12.3668 71.1332 12.3668 71.9142 11.5858L79.0858 4.41421C79.8668 3.63316 81.1332 3.63317 81.9142 4.41421L87 9.5" stroke="#5F0E6A" stroke-width="6" stroke-linecap="round" stroke-linejoin="round"/>
</svg>
