<svg width="94" height="30" viewBox="0 0 94 30" fill="none" xmlns="http://www.w3.org/2000/svg">
<path fill-rule="evenodd" clip-rule="evenodd" d="M22.6031 13.4C23.2248 13.7721 24.0304 13.5655 24.4001 12.9388C24.7697 12.3131 24.5652 11.5037 23.9418 11.1316C18.7383 8.02568 10.5044 7.73372 5.55125 9.24553C4.85786 9.45735 4.46705 10.1936 4.67703 10.8907C4.887 11.5874 5.61973 11.9807 6.31262 11.7694C10.6275 10.4526 18.0831 10.7008 22.6031 13.4ZM22.4551 17.3978C22.7711 16.8816 22.6093 16.2047 22.0954 15.8865C17.7673 13.2119 11.4362 12.4593 6.34326 14.0132C5.76625 14.19 5.44007 14.8028 5.61438 15.3842C5.78986 15.9644 6.40053 16.2923 6.97871 16.1166C11.4369 14.7559 17.1831 15.4305 20.9514 17.7598C21.4653 18.0773 22.1381 17.9152 22.4551 17.3978ZM20.7393 21.2372C20.9913 20.823 20.8615 20.2817 20.4494 20.0286C16.7534 17.7576 12.1715 17.2291 6.83002 18.457C6.35866 18.5649 6.06497 19.0362 6.17281 19.5092C6.28014 19.982 6.74881 20.2785 7.21916 20.17C12.1002 19.0488 16.2447 19.506 19.5377 21.5296C19.9493 21.7829 20.4875 21.6526 20.7393 21.2372ZM14.3086 0.899994C22.0531 0.899994 28.3309 7.21261 28.3309 14.9998C28.3309 22.7875 22.0531 29.1 14.3086 29.1C6.56429 29.1 0.286133 22.7875 0.286133 14.9998C0.286133 7.21261 6.56429 0.899994 14.3086 0.899994ZM38.4361 13.9167C41.3858 14.638 42.5888 15.7577 42.5888 17.7822C42.5888 20.1776 40.7685 21.7255 37.9516 21.7255C35.9603 21.7255 34.1152 21.0139 32.6148 19.6671C32.5506 19.6102 32.5436 19.5119 32.5992 19.446L33.9247 17.8598C33.9518 17.827 33.9908 17.8071 34.0334 17.8036C34.0739 17.8012 34.1178 17.814 34.1497 17.8416C35.4392 18.9645 36.5921 19.4432 38.0051 19.4432C39.2776 19.4432 40.0682 18.8896 40.0682 17.999C40.0682 17.1952 39.6772 16.7458 37.3605 16.2092C34.6385 15.5477 33.0634 14.6907 33.0634 12.2703C33.0634 10.0133 34.8893 8.43583 37.5035 8.43583C39.2814 8.43583 40.8025 8.9657 42.1532 10.0556C42.2187 10.1084 42.2319 10.2034 42.1834 10.2724L41.0012 11.9481C40.9763 11.9834 40.9389 12.0067 40.8966 12.0131C40.8542 12.0198 40.8112 12.0095 40.7768 11.9838C39.6417 11.1328 38.5594 10.7195 37.4676 10.7195C36.3414 10.7195 35.5839 11.2636 35.5839 12.0727C35.5839 12.9287 36.0151 13.3361 38.4361 13.9167ZM51.0067 16.63C51.0067 14.948 49.9354 13.7276 48.46 13.7276C46.9776 13.7276 45.8595 14.9749 45.8595 16.63C45.8595 18.2853 46.9776 19.5324 48.46 19.5324C49.9595 19.5324 51.0067 18.3395 51.0067 16.63ZM48.9619 11.5157C51.2306 11.5157 53.5272 13.2723 53.5272 16.63C53.5272 19.987 51.2306 21.7431 48.9619 21.7431C47.7412 21.7431 46.7395 21.2879 45.9135 20.3557V24.2674C45.9135 24.3554 45.8425 24.4272 45.755 24.4272H43.5872C43.4997 24.4272 43.4288 24.3554 43.4288 24.2674V11.8748C43.4288 11.7868 43.4997 11.715 43.5872 11.715H45.755C45.8425 11.715 45.9135 11.7868 45.9135 11.8748V12.9901C46.7394 11.9993 47.7409 11.5157 48.9619 11.5157ZM59.4142 19.5503C60.9832 19.5503 62.122 18.338 62.122 16.6665C62.122 15.0007 60.9425 13.7451 59.3784 13.7451C57.8197 13.7451 56.6886 14.9584 56.6886 16.63C56.6886 18.2947 57.8602 19.5503 59.4142 19.5503ZM59.4142 11.5157C62.3263 11.5157 64.6065 13.7621 64.6065 16.63C64.6065 19.5075 62.3105 21.7622 59.3784 21.7622C56.4768 21.7622 54.2035 19.5237 54.2035 16.6665C54.2035 13.7779 56.4925 11.5157 59.4142 11.5157ZM70.8458 11.715C70.9334 11.715 71.0039 11.7868 71.0039 11.8748V13.7483C71.0039 13.8362 70.9334 13.9079 70.8458 13.9079H68.4603V18.4141C68.4603 19.1258 68.7707 19.4432 69.4661 19.4432C69.9174 19.4432 70.3211 19.3457 70.7387 19.1344C70.7871 19.1103 70.8458 19.1118 70.893 19.1416C70.9398 19.1706 70.9684 19.2224 70.9684 19.2775V21.0616C70.9684 21.1185 70.9376 21.172 70.8882 21.1998C70.2802 21.5465 69.635 21.7079 68.8574 21.7079C66.945 21.7079 65.9754 20.7147 65.9754 18.7557V13.9079H64.933C64.8456 13.9079 64.7751 13.8362 64.7751 13.7483V11.8748C64.7751 11.7868 64.8456 11.715 64.933 11.715H65.9754V9.26254C65.9754 9.17448 66.0467 9.10292 66.1344 9.10292H68.302C68.3896 9.10292 68.4603 9.17448 68.4603 9.26254V11.715H70.8458ZM79.1572 11.7246H82.8606C82.9264 11.7246 82.9855 11.7654 83.0086 11.8274L85.5409 18.4718L87.8528 11.8317C87.8749 11.7678 87.9355 11.7246 88.003 11.7246H90.2598C90.3124 11.7246 90.3605 11.7507 90.3903 11.7938C90.4202 11.8376 90.4258 11.893 90.407 11.9422L86.646 21.7145C85.8659 23.7316 84.9811 24.4815 83.3804 24.4815C82.5247 24.4815 81.8322 24.3032 81.0651 23.8855C80.9918 23.8458 80.962 23.7559 80.997 23.6792L81.7317 22.0583C81.7493 22.0177 81.7841 21.9869 81.8255 21.9721C81.8673 21.9592 81.9131 21.9627 81.9517 21.9841C82.363 22.2104 82.7652 22.325 83.1471 22.325C83.6196 22.325 83.9658 22.1688 84.3177 21.3833L81.2172 13.9079H79.1931V21.3853C79.1931 21.4734 79.1218 21.545 79.0342 21.545H76.8665C76.7791 21.545 76.7084 21.4734 76.7084 21.3853V13.9079H75.6669C75.5795 13.9079 75.5078 13.8362 75.5078 13.7483V11.8652C75.5078 11.7773 75.5795 11.7056 75.6669 11.7056H76.7084V11.2443C76.7084 9.1004 77.7666 7.96658 79.7691 7.96658C80.5919 7.96658 81.1415 8.09858 81.571 8.22688C81.6381 8.24759 81.683 8.30989 81.683 8.37993V10.2169C81.683 10.2681 81.6594 10.3164 81.6175 10.3465C81.5768 10.3767 81.5246 10.3846 81.4745 10.3687C81.068 10.2324 80.7049 10.1421 80.253 10.1421C79.4952 10.1421 79.1572 10.5373 79.1572 11.4234V11.7246ZM74.3389 11.715C74.4263 11.715 74.4976 11.7868 74.4976 11.8748V21.3853C74.4976 21.4734 74.4263 21.545 74.3389 21.545H72.171C72.0834 21.545 72.0122 21.4734 72.0122 21.3853V11.8748C72.0122 11.7868 72.0834 11.715 72.171 11.715H74.3389ZM73.2659 7.38468C74.1244 7.38468 74.8206 8.08393 74.8206 8.94752C74.8206 9.81143 74.1244 10.5114 73.2659 10.5114C72.4072 10.5114 71.7102 9.81143 71.7102 8.94752C71.7102 8.08393 72.4072 7.38468 73.2659 7.38468ZM92.3465 12.6611H91.9493V13.1705H92.3465C92.5448 13.1705 92.6631 13.073 92.6631 12.9155C92.6631 12.7499 92.5448 12.6611 92.3465 12.6611ZM92.604 13.3877L93.0355 13.9951H92.6717L92.2832 13.438H91.9493V13.9951H91.6448V12.385H92.3589C92.7308 12.385 92.9756 12.5763 92.9756 12.8985C92.9756 13.1625 92.8239 13.3238 92.604 13.3877ZM92.2658 11.8491C91.4843 11.8491 90.8929 12.4737 90.8929 13.2387C90.8929 14.0031 91.4802 14.6195 92.2578 14.6195C93.0391 14.6195 93.631 13.9951 93.631 13.2299C93.631 12.4653 93.0434 11.8491 92.2658 11.8491ZM92.2578 14.7729C91.3998 14.7729 90.7322 14.08 90.7322 13.2387C90.7322 12.3971 91.4085 11.6965 92.2658 11.6965C93.1236 11.6965 93.7914 12.3892 93.7914 13.2299C93.7914 14.0713 93.1156 14.7729 92.2578 14.7729Z" fill="#1ED760"/>
</svg>
