<svg width="64" height="64" viewBox="0 0 64 64" fill="none" xmlns="http://www.w3.org/2000/svg">
<circle cx="32" cy="32" r="32" fill="#F7F9FC"/>
<g clip-path="url(#clip0)">
<path d="M43.438 24.7871C43.1736 22.5689 41.2809 20.8432 38.9926 20.8432C38.5937 20.8432 38.2025 20.895 37.826 20.9963C37.6581 18.2129 35.3405 16 32.5156 16C29.582 16 27.1954 18.3866 27.1954 21.3201V21.5543H26.8621C24.3658 21.5543 22.1879 22.9422 21.0585 24.9866H16.0254V44.3072H24.2412C23.7795 45.3984 22.6941 46.1233 21.5023 46.1233H21.4433V48H33.6222V46.1233C32.4305 46.1233 31.3451 45.3984 30.8833 44.3072H38.9871V34.8059H42.9512C45.7198 34.8059 47.9723 32.5534 47.9723 29.7847C47.9723 27.1804 45.979 25.0327 43.438 24.7871ZM29.0808 44.8529C29.255 45.3173 29.4975 45.7439 29.7938 46.1234H25.3307C25.6271 45.7439 25.8696 45.3173 26.0437 44.8529L26.2484 44.3072H28.8762L29.0808 44.8529ZM17.902 42.4306V40.1998H37.1105V42.4306H17.902ZM37.1105 38.3232H17.902V26.8633H20.368C20.2818 27.2891 20.2364 27.7294 20.2364 28.1801C20.2364 31.8336 23.2087 34.8059 26.8621 34.8059H37.1105V38.3232ZM34.1521 32.9293H37.7649C37.7649 32.9293 31.2677 32.9293 27.1046 32.9293H34.1521ZM42.9512 32.9293H37.7649H34.1521H27.1046C27.0099 32.9293 26.8621 32.9293 26.8621 32.9293C24.2435 32.9293 22.1131 30.7988 22.1131 28.1802C22.1131 25.5615 24.2435 23.4311 26.8621 23.4311H29.0721V21.3201C29.0721 19.4214 30.6168 17.8766 32.5156 17.8766C34.4143 17.8766 35.9591 19.4214 35.9591 21.3201V24.3249L37.4537 23.2247C37.9023 22.8944 38.4345 22.7199 38.9926 22.7199C40.4264 22.7199 41.5928 23.8863 41.5928 25.3201C41.5928 25.8734 41.466 26.6403 41.466 26.6403H42.9512C44.6851 26.6403 46.0956 28.0509 46.0956 29.7847C46.0956 31.5186 44.6851 32.9293 42.9512 32.9293Z" fill="#2E3A59"/>
</g>
<defs>
<clipPath id="clip0">
<rect width="32" height="32" fill="white" transform="translate(16 16)"/>
</clipPath>
</defs>
</svg>
