<svg width="64" height="64" viewBox="0 0 64 64" fill="none" xmlns="http://www.w3.org/2000/svg">
<circle cx="32" cy="32" r="32" fill="#F7F9FC"/>
<path fill-rule="evenodd" clip-rule="evenodd" d="M17.875 20.8751C17.875 21.3928 17.4553 21.8126 16.9375 21.8126C16.4197 21.8126 16 21.3928 16 20.8751V16.9375C16 16.4197 16.4197 16 16.9375 16H20.8748C21.3925 16 21.8123 16.4197 21.8123 16.9375C21.8123 17.4553 21.3925 17.875 20.8748 17.875H17.875V20.8751ZM33.7027 23.9701C35.082 24.8468 36.7262 25.2561 38.3568 25.1284C37.6723 23.572 36.432 22.3113 34.8886 21.6004C34.6018 22.4583 34.1994 23.253 33.7027 23.9701ZM38.8739 26.9552C36.6202 27.2236 34.3612 26.6742 32.4822 25.4015C30.535 27.2703 27.8446 28.2549 25.0642 27.9902C25.0611 28.5281 25.1461 29.0702 24.5991 29.3909C24.1022 29.6823 23.8678 30.4482 23.8348 31.0624H40.1654C40.1357 30.5088 39.9334 29.7502 39.4524 29.4234C39.1479 29.2686 38.9392 28.9523 38.9392 28.5872C38.9392 28.0044 38.9549 27.541 38.8739 26.9552ZM39.9392 43.0312C38.4946 43.0312 37.3142 41.8509 37.3142 40.4062V38.2319C38.1997 37.4304 38.9746 36.5467 39.5761 35.5128C40.6724 35.0849 41.4209 34.0264 41.7738 32.9375H46.0938C46.6115 32.9375 47.0312 32.5177 47.0312 32C47.0312 31.4823 46.6115 31.0625 46.0938 31.0625H42.0363C41.9977 29.959 41.6084 28.8458 40.8142 28.1254C40.8142 23.1459 37.0427 19.0938 32.0016 19.0938C26.9634 19.0938 23.1891 23.1444 23.1891 28.1221C22.3931 28.8419 22.0023 29.9576 21.9637 31.0625H17.9062C17.3885 31.0625 16.9688 31.4823 16.9688 32C16.9688 32.5177 17.3885 32.9375 17.9062 32.9375H22.2258C22.5498 33.9391 23.196 34.8968 24.1509 35.3863C24.7626 36.6278 25.6317 37.6789 26.6891 38.5679V40.4062C26.6891 41.8508 25.5087 43.0312 24.0641 43.0312C23.5464 43.0312 23.1266 43.451 23.1266 43.9688C23.1266 44.4865 23.5464 44.9062 24.0641 44.9062C26.9786 44.9062 28.5641 42.6284 28.5641 39.9052C29.6308 40.5404 30.8947 41.075 31.8862 41.075C32.8478 41.075 34.2022 40.4881 35.4391 39.6809C35.4391 42.4824 36.8277 44.9062 39.9391 44.9062C40.4569 44.9062 40.8766 44.4865 40.8766 43.9688C40.8767 43.451 40.4569 43.0312 39.9392 43.0312ZM25.2943 26.1346C26.1953 22.7368 29.5469 20.4879 33.0969 21.0555C31.9784 24.3345 28.7528 26.4383 25.2943 26.1346ZM34.1246 38.2993C33.1928 38.8686 32.3719 39.2 31.8863 39.2C31.4672 39.2 30.8403 38.9939 30.122 38.6299C29.3644 38.2459 28.5426 37.6992 27.7747 37.0372C26.8771 36.2633 26.1783 35.3628 25.707 34.2938C25.5886 34.0247 25.3588 33.8393 25.0956 33.7676C24.7891 33.6659 24.4519 33.2838 24.2556 32.9375H39.7456C39.5138 33.3476 39.1579 33.7276 38.7568 33.8076C38.4585 33.867 38.2217 34.0619 38.0977 34.3156C37.2805 35.9306 35.5561 37.4247 34.1246 38.2993ZM46.125 43.125C46.125 42.6073 46.5448 42.1875 47.0625 42.1875C47.5802 42.1875 48 42.6073 48 43.125V47.0625C48 47.5802 47.5802 48 47.0625 48H43.1252C42.6075 48 42.1877 47.5802 42.1877 47.0625C42.1877 46.5448 42.6075 46.125 43.1252 46.125H46.125V43.125ZM16 43.125C16 42.6073 16.4197 42.1875 16.9375 42.1875C17.4553 42.1875 17.875 42.6073 17.875 43.125V46.125H20.8748C21.3925 46.125 21.8123 46.5448 21.8123 47.0625C21.8123 47.5802 21.3925 48 20.8748 48H16.9375C16.4197 48 16 47.5802 16 47.0625V43.125ZM48 20.8751C48 21.3928 47.5802 21.8126 47.0625 21.8126C46.5448 21.8126 46.125 21.3928 46.125 20.8751V17.875H43.1252C42.6075 17.875 42.1877 17.4553 42.1877 16.9375C42.1877 16.4197 42.6075 16 43.1252 16H47.0625C47.5802 16 48 16.4197 48 16.9375V20.8751Z" fill="#2E3A59"/>
</svg>
