<svg width="64" height="64" viewBox="0 0 64 64" fill="none" xmlns="http://www.w3.org/2000/svg">
<circle cx="32" cy="32" r="32" fill="#F7F9FC"/>
<path d="M27.2661 19.5581L26.0991 17.9331C25.4974 18.3644 24.9453 18.8611 24.4531 19.4141L25.9471 20.7441C26.3417 20.3014 26.7841 19.9036 27.2661 19.5581Z" fill="#2E3A59"/>
<path d="M24.9327 22.1914L23.1767 21.2344C22.8202 21.8882 22.5407 22.5812 22.3438 23.2994L24.2727 23.8264C24.4286 23.2576 24.6501 22.7089 24.9327 22.1914Z" fill="#2E3A59"/>
<path d="M38 39.2342C40.178 37.5172 42 35.3452 42 32.8832V25.8502C41.9379 20.3855 37.4648 16.0019 32 16.0502C30.6383 16.0478 29.2901 16.3198 28.036 16.8502L28.814 18.6922C29.8221 18.2666 30.9057 18.0482 32 18.0502C36.3608 18.0007 39.9391 21.4896 40 25.8502V32.8822C40 34.8822 37.819 37.2982 34.018 39.5072C32.7664 40.2172 31.2337 40.2172 29.982 39.5072C26.181 37.2992 24 34.8842 24 32.8832V25.8422C24 25.7502 24 25.6602 24 25.5712L22 25.4962C22 25.6172 22 25.7382 22 25.8502V32.8822C22 35.3442 23.822 37.5162 26 39.2342V44.4342L22.553 46.1552L23.447 47.9452L28 45.6682V40.6412C28.329 40.8502 28.657 41.0512 28.979 41.2412C30.8474 42.3244 33.1527 42.3244 35.021 41.2412C35.343 41.0542 35.671 40.8532 36 40.6412V45.6682L40.553 47.9502L41.447 46.1602L38 44.4322V39.2342Z" fill="#2E3A59"/>
<path d="M30 22.0503H28V24.0503H30V22.0503Z" fill="#2E3A59"/>
<path d="M36 22.0503H34V24.0503H36V22.0503Z" fill="#2E3A59"/>
<path d="M30 27.0503H28V29.0503H30V27.0503Z" fill="#2E3A59"/>
<path d="M36 27.0503H34V29.0503H36V27.0503Z" fill="#2E3A59"/>
<path d="M30 32.0503H28V34.0503H30V32.0503Z" fill="#2E3A59"/>
<path d="M36 32.0503H34V34.0503H36V32.0503Z" fill="#2E3A59"/>
<path d="M33 36.0503H31V38.0503H33V36.0503Z" fill="#2E3A59"/>
<path d="M18 18.0503H22V16.0503H16V22.0503H18V18.0503Z" fill="#2E3A59"/>
<path d="M46 40.0503H42V42.0503H48V36.0503H46V40.0503Z" fill="#2E3A59"/>
<path d="M42 16.0503V18.0503H46V22.0503H48V16.0503H42Z" fill="#2E3A59"/>
<path d="M18 36.0503H16V42.0503H22V40.0503H18V36.0503Z" fill="#2E3A59"/>
</svg>
