<svg width="64" height="64" viewBox="0 0 64 64" fill="none" xmlns="http://www.w3.org/2000/svg">
<circle cx="32" cy="32" r="32" fill="#F7F9FC"/>
<g clip-path="url(#clip0)">
<path d="M47.8597 31.5073C47.8579 31.5044 47.8564 31.5014 47.8545 31.4985L43.1045 23.9984C42.9295 23.7221 42.6273 23.5625 42.3125 23.5625H42.3097H21.6901H21.6873C21.3615 23.5625 21.064 23.7319 20.8953 23.9984C20.8471 24.0744 16.1657 31.4658 16.14 31.5073C16.1348 31.5158 16.1299 31.5245 16.1249 31.5332C15.9124 31.9027 15.9777 32.3627 16.2708 32.6593C16.272 32.6605 16.273 32.6618 16.2743 32.663L31.3369 47.7257C31.3393 47.728 31.342 47.73 31.3444 47.7324C31.7064 48.0867 32.2885 48.0914 32.6553 47.7324C32.6577 47.73 32.6604 47.7281 32.6627 47.7257L47.7254 32.663C47.7265 32.6618 47.7276 32.6605 47.7289 32.6593C48.0324 32.3523 48.0877 31.8764 47.8597 31.5073ZM40.6209 25.4376L37.5545 30.3438L33.8748 25.4376H40.6209ZM35.7499 31.0626H28.2498L31.9999 26.0626L35.7499 31.0626ZM30.1249 25.4376L26.4452 30.3438L23.3788 25.4376H30.1249ZM21.682 26.2605L24.6833 31.0626H18.6407L21.682 26.2605ZM19.2005 32.9377H25.7242L29.6124 43.3494L19.2005 32.9377ZM31.9998 44.383L27.7256 32.9376H36.274L31.9998 44.383ZM34.3873 43.3494L38.2756 32.9377H44.7991L34.3873 43.3494ZM39.3164 31.0626L42.3178 26.2605L45.3591 31.0626H39.3164Z" fill="#2E3A59"/>
<path d="M32 16C31.4822 16 31.0625 16.4197 31.0625 16.9375V20.6875C31.0625 21.2053 31.4822 21.625 32 21.625C32.5177 21.625 32.9375 21.2053 32.9375 20.6875V16.9375C32.9375 16.4197 32.5177 16 32 16Z" fill="#2E3A59"/>
<path d="M28.2096 20.2883L25.5579 18.5741C25.123 18.293 24.5427 18.4177 24.2616 18.8525C23.9805 19.2874 24.1052 19.8677 24.54 20.1488L27.1917 21.863C27.6267 22.1442 28.207 22.0193 28.488 21.5846C28.7691 21.1497 28.6444 20.5694 28.2096 20.2883Z" fill="#2E3A59"/>
<path d="M39.738 18.8525C39.4569 18.4177 38.8766 18.293 38.4417 18.5741L35.79 20.2883C35.3552 20.5694 35.2305 21.1497 35.5116 21.5846C35.7925 22.0191 36.3727 22.1442 36.8079 21.863L39.4597 20.1488C39.8945 19.8677 40.0191 19.2873 39.738 18.8525Z" fill="#2E3A59"/>
</g>
<defs>
<clipPath id="clip0">
<rect width="32" height="32" fill="white" transform="translate(16 16)"/>
</clipPath>
</defs>
</svg>
