<svg width="64" height="64" viewBox="0 0 64 64" fill="none" xmlns="http://www.w3.org/2000/svg">
<circle cx="32" cy="32" r="32" fill="#F7F9FC"/>
<path d="M44.3377 44H19.75C17.6821 44 16 42.6304 16 40.5625V23.4375C16 21.3696 17.6821 20 19.75 20H44.25C46.3179 20 48 21.3696 48 23.4375V40.5625C48 42.6304 46.4056 44 44.3377 44ZM19.75 22C19.0608 22 18 22.7483 18 23.4375V32V40.5625C18 41.2517 19.0608 42 19.75 42H44.25C44.9392 42 46 41.1892 46 40.5V32V23.5C46 22.8108 44.9392 22 44.25 22H19.75ZM43 25H36.625V27H41V31.1875H43V25ZM27.3125 37H23V32.8125H21V39H27.3125V37Z" fill="#2E3A59"/>
</svg>
