<svg width="64" height="64" viewBox="0 0 64 64" fill="none" xmlns="http://www.w3.org/2000/svg">
<circle cx="32" cy="32" r="32" fill="#F7F9FC"/>
<g clip-path="url(#clip0)">
<path d="M45.5929 24.6824L45.592 24.6575C45.578 24.3501 45.5688 24.0249 45.5631 23.6631C45.537 21.8987 44.1344 20.4393 42.3698 20.3406C38.6906 20.1353 35.8444 18.9356 33.4125 16.5652L33.3918 16.5455C32.5986 15.8182 31.4021 15.8182 30.6086 16.5455L30.5878 16.5652C28.156 18.9356 25.3098 20.1353 21.6306 20.3409C19.8662 20.4393 18.4634 21.8987 18.4372 23.6634C18.4319 24.0227 18.4224 24.3479 18.4084 24.6575L18.407 24.7154C18.3354 28.4671 18.2466 33.1362 19.8086 37.3743C20.6675 39.7048 21.9682 41.7307 23.6745 43.396C25.6179 45.2925 28.1633 46.7981 31.2399 47.8708C31.34 47.9057 31.444 47.9341 31.55 47.9553C31.6994 47.9851 31.8498 48 32.0002 48C32.1506 48 32.3012 47.9851 32.4504 47.9553C32.5563 47.9341 32.6611 47.9055 32.7617 47.8703C35.8347 46.7956 38.3774 45.2893 40.319 43.3931C42.0246 41.7273 43.3254 39.7009 44.185 37.3699C45.7528 33.1192 45.6642 28.4412 45.5929 24.6824ZM42.4233 36.7202C40.7758 41.187 37.4128 44.2546 32.142 46.0979C32.1232 46.1042 32.1032 46.1098 32.0825 46.114C32.028 46.1247 31.9726 46.1247 31.9174 46.1137C31.8969 46.1096 31.8769 46.1042 31.8583 46.0979C26.582 44.258 23.2168 41.1921 21.5705 36.7251C20.1308 32.8186 20.2124 28.5325 20.2844 24.7513L20.2849 24.7303C20.2995 24.4053 20.3093 24.065 20.3147 23.691C20.3264 22.9075 20.9504 22.2593 21.7353 22.2156C23.8174 22.0994 25.6465 21.6971 27.3271 20.9856C29.0056 20.2752 30.4963 19.2737 31.884 17.9241C31.9545 17.8646 32.0461 17.8643 32.1164 17.9241C33.5043 19.2737 34.9951 20.2752 36.6733 20.9856C38.3539 21.6971 40.183 22.0994 42.2653 22.2156C43.0502 22.2593 43.6742 22.9075 43.6857 23.6912C43.6913 24.0672 43.7011 24.4075 43.7157 24.7303C43.7875 28.5159 43.8671 32.8054 42.4233 36.7202Z" fill="#2E3A59"/>
<path d="M32.0002 24.0259C27.6028 24.0259 24.0254 27.6035 24.0254 32.0007C24.0254 36.3982 27.6028 39.9758 32.0002 39.9758C36.3975 39.9758 39.9751 36.3982 39.9751 32.0007C39.9751 27.6035 36.3975 24.0259 32.0002 24.0259ZM32.0002 38.0979C28.6382 38.0979 25.9031 35.3628 25.9031 32.0007C25.9031 28.6387 28.6382 25.9036 32.0002 25.9036C35.3621 25.9036 38.0972 28.6387 38.0972 32.0007C38.0972 35.3628 35.3621 38.0979 32.0002 38.0979Z" fill="#2E3A59"/>
<path d="M34.2927 29.5247L30.5886 33.2288L29.5832 32.2235C29.2165 31.8568 28.622 31.8568 28.2553 32.2235C27.8889 32.5902 27.8889 33.1846 28.2553 33.5511L29.9247 35.2205C30.1081 35.4039 30.3483 35.4954 30.5886 35.4954C30.8288 35.4954 31.069 35.4039 31.2524 35.2205L35.6205 30.8524C35.987 30.4857 35.987 29.8912 35.6205 29.5247C35.2538 29.1578 34.6594 29.1578 34.2927 29.5247Z" fill="#2E3A59"/>
</g>
<defs>
<clipPath id="clip0">
<rect width="32" height="32" fill="white" transform="translate(16 16)"/>
</clipPath>
</defs>
</svg>
