<svg width="48" height="48" viewBox="0 0 48 48" fill="none" xmlns="http://www.w3.org/2000/svg">
<path d="M6.75 46.5H34.5C36.884 46.5002 39.197 45.6891 41.0587 44.2001C42.9205 42.7111 44.2201 40.6329 44.7437 38.3071C45.2674 35.9814 44.984 33.5467 43.9401 31.4035C42.8962 29.2602 41.154 27.536 39 26.5145V11.25C39 11.1515 38.9806 11.054 38.9429 10.963C38.9052 10.872 38.85 10.7893 38.7803 10.7197L29.7803 1.71966C29.7107 1.65001 29.628 1.59477 29.537 1.55708C29.446 1.51939 29.3485 1.5 29.25 1.5H6.75C5.75578 1.50112 4.8026 1.89656 4.09958 2.59958C3.39656 3.3026 3.00112 4.25578 3 5.25V42.75C3.00112 43.7442 3.39656 44.6974 4.09958 45.4004C4.8026 46.1034 5.75578 46.4989 6.75 46.5ZM43.5 36C43.5 37.78 43.4889 40.02 42.5 41.5C41.5111 42.98 39.6445 43.8188 38 44.5C36.3555 45.1812 34.49 45.1743 32.7442 44.8271C30.9984 44.4798 29.3947 43.6226 28.136 42.364C26.8774 41.1053 26.0202 39.5016 25.6729 37.7558C25.3257 36.01 25.5039 34.2004 26.1851 32.5558C26.8663 30.9113 28.0198 29.5057 29.4999 28.5168C30.9799 27.5278 32.72 27 34.5 27C36.8861 27.0027 39.3128 27.8128 41 29.5C42.6872 31.1872 43.4973 33.6139 43.5 36ZM30 4.06059L36.4394 10.5H32.25C31.6535 10.4993 31.0816 10.2621 30.6597 9.84025C30.2379 9.41844 30.0007 8.84653 30 8.25V4.06059ZM4.5 5.25C4.50069 4.65348 4.73797 4.08158 5.15978 3.65978C5.58158 3.23797 6.15348 3.00069 6.75 3H28.5V8.25C28.5011 9.24422 28.8966 10.1974 29.5996 10.9004C30.3026 11.6034 31.2558 11.9989 32.25 12H37.5V25.9374C35.0495 25.2063 32.8215 25.4274 30.5 26.5C28.1785 27.5726 25.9233 29.4229 24.8918 31.763C23.8603 34.103 24.2257 36.5628 25 39C25.7743 41.4372 27.0555 43.5114 29.2484 44.8271L6.75 45C6.15348 44.9993 5.58158 44.762 5.15978 44.3402C4.73797 43.9184 4.50069 43.3465 4.5 42.75V5.25Z" fill="#151A30"/>
<path d="M15 15.75C15 15.9489 15.079 16.1397 15.2197 16.2803C15.3603 16.421 15.5511 16.5 15.75 16.5H33.75C33.9489 16.5 34.1397 16.421 34.2803 16.2803C34.421 16.1397 34.5 15.9489 34.5 15.75C34.5 15.5511 34.421 15.3603 34.2803 15.2197C34.1397 15.079 33.9489 15 33.75 15H15.75C15.5511 15 15.3603 15.079 15.2197 15.2197C15.079 15.3603 15 15.5511 15 15.75Z" fill="#151A30"/>
<path d="M8.25 21H23.25C23.4489 21 23.6397 20.921 23.7803 20.7803C23.921 20.6397 24 20.4489 24 20.25C24 20.0511 23.921 19.8603 23.7803 19.7197C23.6397 19.579 23.4489 19.5 23.25 19.5H8.25C8.05109 19.5 7.86032 19.579 7.71967 19.7197C7.57902 19.8603 7.5 20.0511 7.5 20.25C7.5 20.4489 7.57902 20.6397 7.71967 20.7803C7.86032 20.921 8.05109 21 8.25 21Z" fill="#151A30"/>
<path d="M26.25 24H20.25C20.0511 24 19.8603 24.079 19.7197 24.2197C19.579 24.3603 19.5 24.5511 19.5 24.75C19.5 24.9489 19.579 25.1397 19.7197 25.2803C19.8603 25.421 20.0511 25.5 20.25 25.5H26.25C26.4489 25.5 26.6397 25.421 26.7803 25.2803C26.921 25.1397 27 24.9489 27 24.75C27 24.5511 26.921 24.3603 26.7803 24.2197C26.6397 24.079 26.4489 24 26.25 24Z" fill="#151A30"/>
<path d="M8.25 30H21.75C21.9489 30 22.1397 29.921 22.2803 29.7803C22.421 29.6397 22.5 29.4489 22.5 29.25C22.5 29.0511 22.421 28.8603 22.2803 28.7197C22.1397 28.579 21.9489 28.5 21.75 28.5H8.25C8.05109 28.5 7.86032 28.579 7.71967 28.7197C7.57902 28.8603 7.5 29.0511 7.5 29.25C7.5 29.4489 7.57902 29.6397 7.71967 29.7803C7.86032 29.921 8.05109 30 8.25 30Z" fill="#151A30"/>
<path d="M8.25 16.5H12.75C12.9489 16.5 13.1397 16.421 13.2803 16.2803C13.421 16.1397 13.5 15.9489 13.5 15.75C13.5 15.5511 13.421 15.3603 13.2803 15.2197C13.1397 15.079 12.9489 15 12.75 15H8.25C8.05109 15 7.86032 15.079 7.71967 15.2197C7.57902 15.3603 7.5 15.5511 7.5 15.75C7.5 15.9489 7.57902 16.1397 7.71967 16.2803C7.86032 16.421 8.05109 16.5 8.25 16.5Z" fill="#151A30"/>
<path d="M33.75 19.5H26.25C26.0511 19.5 25.8603 19.579 25.7197 19.7197C25.579 19.8603 25.5 20.0511 25.5 20.25C25.5 20.4489 25.579 20.6397 25.7197 20.7803C25.8603 20.921 26.0511 21 26.25 21H33.75C33.9489 21 34.1397 20.921 34.2803 20.7803C34.421 20.6397 34.5 20.4489 34.5 20.25C34.5 20.0511 34.421 19.8603 34.2803 19.7197C34.1397 19.579 33.9489 19.5 33.75 19.5Z" fill="#151A30"/>
<path d="M8.25 25.5H17.25C17.4489 25.5 17.6397 25.421 17.7803 25.2803C17.921 25.1397 18 24.9489 18 24.75C18 24.5511 17.921 24.3603 17.7803 24.2197C17.6397 24.079 17.4489 24 17.25 24H8.25C8.05109 24 7.86032 24.079 7.71967 24.2197C7.57902 24.3603 7.5 24.5511 7.5 24.75C7.5 24.9489 7.57902 25.1397 7.71967 25.2803C7.86032 25.421 8.05109 25.5 8.25 25.5Z" fill="#151A30"/>
<path d="M20.25 37.5H17.25C17.0511 37.5 16.8603 37.579 16.7197 37.7197C16.579 37.8603 16.5 38.0511 16.5 38.25C16.5 38.4489 16.579 38.6397 16.7197 38.7803C16.8603 38.921 17.0511 39 17.25 39H20.25C20.4489 39 20.6397 38.921 20.7803 38.7803C20.921 38.6397 21 38.4489 21 38.25C21 38.0511 20.921 37.8603 20.7803 37.7197C20.6397 37.579 20.4489 37.5 20.25 37.5Z" fill="#151A30"/>
<path d="M8.25 39H14.25C14.4489 39 14.6397 38.921 14.7803 38.7803C14.921 38.6397 15 38.4489 15 38.25C15 38.0511 14.921 37.8603 14.7803 37.7197C14.6397 37.579 14.4489 37.5 14.25 37.5H8.25C8.05109 37.5 7.86032 37.579 7.71967 37.7197C7.57902 37.8603 7.5 38.0511 7.5 38.25C7.5 38.4489 7.57902 38.6397 7.71967 38.7803C7.86032 38.921 8.05109 39 8.25 39Z" fill="#151A30"/>
<path d="M8.25 34.5H12.75C12.9489 34.5 13.1397 34.421 13.2803 34.2803C13.421 34.1397 13.5 33.9489 13.5 33.75C13.5 33.5511 13.421 33.3603 13.2803 33.2197C13.1397 33.079 12.9489 33 12.75 33H8.25C8.05109 33 7.86032 33.079 7.71967 33.2197C7.57902 33.3603 7.5 33.5511 7.5 33.75C7.5 33.9489 7.57902 34.1397 7.71967 34.2803C7.86032 34.421 8.05109 34.5 8.25 34.5Z" fill="#151A30"/>
<path d="M8.25 12H17.25C17.4489 12 17.6397 11.921 17.7803 11.7803C17.921 11.6397 18 11.4489 18 11.25C18 11.0511 17.921 10.8603 17.7803 10.7197C17.6397 10.579 17.4489 10.5 17.25 10.5H8.25C8.05109 10.5 7.86032 10.579 7.71967 10.7197C7.57902 10.8603 7.5 11.0511 7.5 11.25C7.5 11.4489 7.57902 11.6397 7.71967 11.7803C7.86032 11.921 8.05109 12 8.25 12Z" fill="#151A30"/>
<path d="M20.25 33H15.75C15.5511 33 15.3603 33.079 15.2197 33.2197C15.079 33.3603 15 33.5511 15 33.75C15 33.9489 15.079 34.1397 15.2197 34.2803C15.3603 34.421 15.5511 34.5 15.75 34.5H20.25C20.4489 34.5 20.6397 34.421 20.7803 34.2803C20.921 34.1397 21 33.9489 21 33.75C21 33.5511 20.921 33.3603 20.7803 33.2197C20.6397 33.079 20.4489 33 20.25 33Z" fill="#151A30"/>
<path d="M30.5304 37.7202C30.4607 37.6506 30.378 37.5953 30.287 37.5577C30.196 37.52 30.0985 37.5006 30 37.5006C29.9015 37.5006 29.804 37.52 29.713 37.5577C29.622 37.5953 29.5393 37.6506 29.4697 37.7202C29.4 37.7899 29.3448 37.8726 29.3071 37.9636C29.2694 38.0546 29.25 38.1521 29.25 38.2506C29.25 38.3491 29.2694 38.4466 29.3071 38.5376C29.3448 38.6286 29.4 38.7113 29.4697 38.7809L32.4697 41.7809C32.5393 41.8506 32.622 41.9058 32.713 41.9435C32.804 41.9812 32.9015 42.0006 33 42.0006C33.0246 42.0006 33.0493 41.9994 33.074 41.9969C33.1844 41.986 33.291 41.9507 33.3862 41.8936C33.4813 41.8365 33.5626 41.759 33.6241 41.6666L39.6241 32.6666C39.7332 32.5011 39.7723 32.2992 39.733 32.1049C39.6936 31.9106 39.5789 31.7399 39.414 31.6299C39.2491 31.5199 39.0473 31.4797 38.8528 31.5181C38.6584 31.5564 38.487 31.6702 38.3761 31.8345L32.8836 40.0734L30.5304 37.7202Z" fill="#27AE60"/>
<path d="M44.25 36.0001C44.25 41.2634 40.2195 45.5004 34.9643 45.7509C29.4612 46.0133 24.75 41.5116 24.75 36.0001C24.75 30.4885 29.4612 25.9869 34.9643 26.2492C40.2195 26.4997 44.25 30.7367 44.25 36.0001Z" stroke="#27AE60" stroke-width="1.5"/>
</svg>
