<svg width="48" height="48" viewBox="0 0 48 48" fill="none" xmlns="http://www.w3.org/2000/svg">
<path d="M46.5 9.75C46.501 7.89797 45.8783 6.09955 44.7324 4.64457C43.5866 3.18958 41.9842 2.16278 40.1835 1.72964C38.3828 1.29649 36.4888 1.48223 34.8065 2.25692C33.1243 3.03161 31.7519 4.35013 30.9105 6H5.25C4.2558 6.00119 3.30267 6.39666 2.59966 7.09966C1.89666 7.80267 1.50119 8.7558 1.5 9.75V27.75C1.50119 28.7442 1.89666 29.6973 2.59966 30.4003C3.30267 31.1033 4.2558 31.4988 5.25 31.5H11.5958L9.675 35.8283C9.44061 36.3595 9.3322 36.9378 9.35822 37.5179C9.38424 38.0981 9.54399 38.6643 9.825 39.1725L12.471 43.9342C12.655 44.2693 12.751 44.6455 12.75 45.0278V45.75C12.75 45.9489 12.829 46.1397 12.9697 46.2803C13.1103 46.421 13.3011 46.5 13.5 46.5C13.6989 46.5 13.8897 46.421 14.0303 46.2803C14.171 46.1397 14.25 45.9489 14.25 45.75V45.0278C14.2495 44.3904 14.0871 43.7635 13.7782 43.206L11.1322 38.4443C10.9639 38.1392 10.8682 37.7993 10.8528 37.4512C10.8373 37.1031 10.9024 36.7561 11.043 36.4373L13.2375 31.5H18.75V36.75C18.75 36.9489 18.829 37.1397 18.9697 37.2803C19.1103 37.421 19.3011 37.5 19.5 37.5C19.6989 37.5 19.8897 37.421 20.0303 37.2803C20.171 37.1397 20.25 36.9489 20.25 36.75V27.75C20.25 27.1533 20.4871 26.581 20.909 26.159C21.331 25.7371 21.9033 25.5 22.5 25.5C23.0967 25.5 23.669 25.7371 24.091 26.159C24.5129 26.581 24.75 27.1533 24.75 27.75V45.75C24.75 45.9489 24.829 46.1397 24.9697 46.2803C25.1103 46.421 25.3011 46.5 25.5 46.5C25.6989 46.5 25.8897 46.421 26.0303 46.2803C26.171 46.1397 26.25 45.9489 26.25 45.75V36.345C27.0725 37.0881 28.1415 37.4997 29.25 37.5H31.5C31.6989 37.5 31.8897 37.421 32.0303 37.2803C32.171 37.1397 32.25 36.9489 32.25 36.75V31.5H39.75C40.7442 31.4988 41.6973 31.1033 42.4003 30.4003C43.1033 29.6973 43.4988 28.7442 43.5 27.75V16.1092C44.4382 15.3362 45.1937 14.3652 45.7124 13.2657C46.2311 12.1663 46.5 10.9657 46.5 9.75ZM38.25 3C39.585 3 40.89 2.7583 42 3.5C43.11 4.2417 43.9891 5.7666 44.5 7C45.0109 8.2334 45.1307 9.75749 44.8703 11.0669C44.6099 12.3762 43.967 13.579 43.023 14.523C42.079 15.467 40.8762 16.1098 39.5669 16.3703C38.2575 16.6308 36.9003 16.4971 35.6669 15.9862C34.4335 15.4753 33.3793 14.6101 32.6376 13.5001C31.8959 12.3901 31.5 11.085 31.5 9.75C31.5022 7.96046 32.214 6.24484 33.4794 4.97944C34.7448 3.71404 36.4605 3.00218 38.25 3ZM3 12H30.3195C30.6302 13.0979 31.2744 14.1194 32 15L3 15V12ZM5.25 7.5H30.3195C30.1094 8.2316 30.0019 8.98883 30 9.75C30 10.0035 30.0158 10.2525 30.0382 10.5H3V9.75C3 9.15326 3.23705 8.58096 3.65901 8.15901C4.08097 7.73705 4.65326 7.5 5.25 7.5ZM30.75 36H29.25C28.4543 36 27.6913 35.6839 27.1287 35.1213C26.5661 34.5587 26.25 33.7957 26.25 33V31.5H30.75V36ZM42 27.75C42 28.3467 41.7629 28.919 41.341 29.341C40.919 29.7629 40.3467 30 39.75 30H26.25V27.75C26.25 26.7554 25.8549 25.8016 25.1516 25.0983C24.4484 24.3951 23.4946 24 22.5 24C21.5054 24 20.5516 24.3951 19.8484 25.0983C19.1451 25.8016 18.75 26.7554 18.75 27.75V30H5.25C4.65326 30 4.08097 29.7629 3.65901 29.341C3.23705 28.919 3 28.3467 3 27.75V16.5H33.525C34.7488 17.3636 36.5058 17.3961 38 17.5C39.4942 17.6039 40.6684 17.7754 42 17.0895V27.75Z" fill="#151A30"/>
<path d="M35.9981 21C35.3172 21.0032 34.658 21.2398 34.1306 21.6705C33.6904 21.3133 33.158 21.0881 32.5951 21.0211C32.0322 20.954 31.4619 21.0478 30.9501 21.2916C30.4383 21.5354 30.0061 21.9192 29.7035 22.3985C29.4008 22.8779 29.2402 23.4331 29.2402 24C29.2402 24.5669 29.4008 25.1222 29.7035 25.6015C30.0061 26.0808 30.4383 26.4646 30.9501 26.7084C31.4619 26.9522 32.0322 27.046 32.5951 26.9789C33.158 26.9119 33.6904 26.6867 34.1306 26.3295C34.504 26.6291 34.9439 26.8347 35.4133 26.9292C35.8826 27.0236 36.3678 27.0041 36.8281 26.8723C37.2883 26.7406 37.7103 26.5003 38.0585 26.1718C38.4068 25.8432 38.6712 25.4359 38.8295 24.9841C38.9878 24.5323 39.0355 24.0491 38.9685 23.575C38.9015 23.1009 38.7218 22.6499 38.4444 22.2596C38.1671 21.8694 37.8002 21.5513 37.3745 21.3321C36.9489 21.113 36.4768 20.9991 35.9981 21ZM30.7481 24C30.7481 23.6022 30.9061 23.2206 31.1874 22.9393C31.4687 22.658 31.8503 22.5 32.2481 22.5C32.6066 22.4991 32.9531 22.6286 33.2231 22.8645C33.0736 23.2244 32.9966 23.6103 32.9966 24C32.9966 24.3897 33.0736 24.7756 33.2231 25.1355C32.9531 25.3714 32.6066 25.5009 32.2481 25.5C31.8503 25.5 31.4687 25.342 31.1874 25.0607C30.9061 24.7794 30.7481 24.3978 30.7481 24ZM35.9981 25.5C35.7014 25.5 35.4114 25.412 35.1647 25.2472C34.9181 25.0824 34.7258 24.8481 34.6123 24.574C34.4987 24.2999 34.469 23.9983 34.5269 23.7074C34.5848 23.4164 34.7276 23.1491 34.9374 22.9393C35.1472 22.7296 35.4145 22.5867 35.7054 22.5288C35.9964 22.4709 36.298 22.5007 36.5721 22.6142C36.8462 22.7277 37.0805 22.92 37.2453 23.1666C37.4101 23.4133 37.4981 23.7033 37.4981 24C37.4981 24.3978 37.34 24.7794 37.0587 25.0607C36.7774 25.342 36.3959 25.5 35.9981 25.5Z" fill="#151A30"/>
<path d="M15.75 23.25H14.25C14.0511 23.25 13.8603 23.329 13.7197 23.4697C13.579 23.6103 13.5 23.8011 13.5 24C13.5 24.1989 13.579 24.3897 13.7197 24.5303C13.8603 24.671 14.0511 24.75 14.25 24.75H15.75C15.9489 24.75 16.1397 24.671 16.2803 24.5303C16.421 24.3897 16.5 24.1989 16.5 24C16.5 23.8011 16.421 23.6103 16.2803 23.4697C16.1397 23.329 15.9489 23.25 15.75 23.25Z" fill="#151A30"/>
<path d="M11.25 23.25H9.75C9.55109 23.25 9.36032 23.329 9.21967 23.4697C9.07902 23.6103 9 23.8011 9 24C9 24.1989 9.07902 24.3897 9.21967 24.5303C9.36032 24.671 9.55109 24.75 9.75 24.75H11.25C11.4489 24.75 11.6397 24.671 11.7803 24.5303C11.921 24.3897 12 24.1989 12 24C12 23.8011 11.921 23.6103 11.7803 23.4697C11.6397 23.329 11.4489 23.25 11.25 23.25Z" fill="#151A30"/>
<path d="M6.75 23.25H5.25C5.05109 23.25 4.86032 23.329 4.71967 23.4697C4.57902 23.6103 4.5 23.8011 4.5 24C4.5 24.1989 4.57902 24.3897 4.71967 24.5303C4.86032 24.671 5.05109 24.75 5.25 24.75H6.75C6.94891 24.75 7.13968 24.671 7.28033 24.5303C7.42098 24.3897 7.5 24.1989 7.5 24C7.5 23.8011 7.42098 23.6103 7.28033 23.4697C7.13968 23.329 6.94891 23.25 6.75 23.25Z" fill="#151A30"/>
<path d="M36.2203 13.2802C36.3609 13.4208 36.5517 13.4998 36.7505 13.4998C36.9494 13.4998 37.1402 13.4208 37.2808 13.2802L42.584 7.97697C42.6557 7.90778 42.7128 7.82502 42.7521 7.73352C42.7914 7.64202 42.8121 7.5436 42.813 7.44402C42.8138 7.34443 42.7949 7.24567 42.7572 7.1535C42.7195 7.06133 42.6638 6.97759 42.5933 6.90717C42.5229 6.83675 42.4392 6.78106 42.347 6.74335C42.2548 6.70564 42.1561 6.68666 42.0565 6.68753C41.9569 6.68839 41.8585 6.70908 41.767 6.74839C41.6755 6.7877 41.5927 6.84483 41.5235 6.91647L36.7505 11.6895L35.0308 9.96972C34.8893 9.8331 34.6999 9.7575 34.5032 9.75921C34.3066 9.76092 34.1185 9.8398 33.9794 9.97885C33.8404 10.1179 33.7615 10.306 33.7598 10.5027C33.7581 10.6993 33.8337 10.8888 33.9703 11.0302L36.2203 13.2802Z" fill="#27AE60"/>
<path d="M45.7502 9.52267C45.8757 13.665 42.6194 17.1248 38.4771 17.2503C34.2167 17.3794 30.6204 13.7831 30.7495 9.52267C30.875 5.38035 34.3348 2.12409 38.4771 2.24961C42.497 2.37142 45.6283 5.50282 45.7502 9.52267Z" stroke="#27AE60" stroke-width="1.5"/>
</svg>
