<svg width="48" height="48" viewBox="0 0 48 48" fill="none" xmlns="http://www.w3.org/2000/svg">
<g clip-path="url(#clip0)">
<path d="M36.5156 23.8356L30.8208 20.9882C30.2918 20.7237 29.9632 20.192 29.9632 19.6006V16.8745C31.3875 15.3664 32.2177 13.3476 32.2177 11.2243V6.71522C32.2177 3.01247 28.531 0 23.9995 0C19.468 0 15.7813 3.01247 15.7813 6.71522V11.2243C15.7813 13.3473 16.6115 15.3662 18.0358 16.8744V19.6006C18.0358 20.1921 17.7072 20.7237 17.1781 20.9882L11.4834 23.8356C9.96239 24.5961 9.01758 26.1248 9.01758 27.8253V32.2666C9.01758 33.4831 10.0073 34.4727 11.2237 34.4727C11.612 34.4727 14 34 14 34V33C14 33 10.4238 32.7076 10.4238 32.2666V27.8253C10.4238 26.6609 11.0708 25.6141 12.1123 25.0933L17.807 22.2459C18.8155 21.7418 19.442 20.728 19.442 19.6005V18.0635C19.5868 18.1602 19.735 18.2529 19.8868 18.3408C19.9977 18.405 20.1189 18.4356 20.2384 18.4356C20.481 18.4356 20.7172 18.3097 20.8475 18.0847C21.0421 17.7486 20.9275 17.3184 20.5914 17.1238C18.4918 15.9081 17.1874 13.6474 17.1874 11.2242V6.71522C17.1875 3.78787 20.2434 1.40625 23.9995 1.40625C27.7556 1.40625 30.8115 3.78787 30.8115 6.71522V11.2243C30.8115 13.6486 29.5063 15.9098 27.4052 17.1252C27.0691 17.3197 26.9543 17.7498 27.1487 18.086C27.279 18.3113 27.5152 18.4371 27.758 18.4371C27.8775 18.4371 27.9986 18.4066 28.1095 18.3425C28.2622 18.2541 28.4113 18.1609 28.5569 18.0637V19.6006C28.5569 20.7281 29.1834 21.7417 30.1919 22.246L35.8866 25.0934C36.9281 25.6141 37.575 26.661 37.575 27.8254V32.2667C37.575 32.7078 34 33 34 33V34C34 34 36.3869 34.4728 36.7752 34.4728C37.9917 34.4728 38.9813 33.4832 38.9813 32.2667V27.8254C38.9814 26.1248 38.0366 24.5961 36.5156 23.8356Z" fill="#151A30"/>
<path d="M34.3774 29.8706L24.232 26.3418C24.0823 26.2897 23.9196 26.2897 23.77 26.3418L13.8406 29.7745C13.4739 29.9021 13.7283 30.044 13.8558 30.4109C13.9834 30.7776 13.6333 31.1276 14 31L24.001 27.7504L33.4089 31.0226C33.3251 31.931 33.0439 33.9765 32.1173 36.4021C30.9998 39.3273 28.6889 43.4124 24.001 46.4633C19.313 43.4125 17.0022 39.3273 15.8847 36.4022C14.6335 33.1269 14.559 30.5448 14.5585 30.5191C14.5499 30.1363 14.237 29.8316 13.8558 29.8316C13.8508 29.8316 13.8458 29.8316 13.8406 29.8318C13.4524 29.8399 13.1443 30.1614 13.1525 30.5496C13.1549 30.6627 13.2263 33.3575 14.5501 36.8493C15.7711 40.0697 18.3374 44.6 23.6293 47.8938C23.7431 47.9646 23.8721 47.9999 24.001 47.9999C24.1299 47.9999 24.2588 47.9646 24.3725 47.8937C29.6644 44.5999 32.2307 40.0696 33.4517 36.8492C34.7756 33.3574 34.8469 30.6626 34.8493 30.5495C34.8559 30.2449 34.6653 29.9707 34.3774 29.8706Z" fill="#27AE60"/>
<path d="M28.5776 33.8427C28.303 33.5681 27.8578 33.5681 27.5833 33.8427L23.2283 38.1976L20.6378 35.6071C20.3632 35.3325 19.9179 35.3325 19.6434 35.6071C19.3689 35.8817 19.3689 36.3269 19.6434 36.6014L22.7312 39.6892C22.8684 39.8264 23.0484 39.8951 23.2283 39.8951C23.4083 39.8951 23.5883 39.8264 23.7255 39.6891L28.5776 34.837C28.8522 34.5624 28.8522 34.1173 28.5776 33.8427Z" fill="#27AE60"/>
</g>
<defs>
<clipPath id="clip0">
<rect width="48" height="48" fill="white"/>
</clipPath>
</defs>
</svg>
