<svg width="48" height="48" viewBox="0 0 48 48" fill="none" xmlns="http://www.w3.org/2000/svg">
<path d="M39.2008 4.8H38.4008V4C38.398 1.7918 36.609 0.00273438 34.4008 0H8.80078C6.59258 0.00273438 4.80352 1.7918 4.80078 4V39.2C4.80352 41.4082 6.59258 43.1973 8.80078 43.2H9.60078V44C9.60352 46.2082 11.3926 47.9973 13.6008 48H39.2008C41.409 47.9973 43.198 46.2082 43.2008 44V8.8C43.198 6.5918 41.409 4.80273 39.2008 4.8ZM32.0008 1.6V5.26875L30.9664 4.23438C30.6539 3.92227 30.1477 3.92227 29.8352 4.23438L28.8008 5.26875V1.6H32.0008ZM6.40078 39.2V4C6.40078 2.67461 7.47539 1.6 8.80078 1.6H27.2008V7.2C27.2008 7.52344 27.3957 7.81523 27.6945 7.93906C27.9934 8.06289 28.3375 7.99414 28.5664 7.76562L30.4008 5.93125L32.2352 7.76562C32.4641 7.99414 32.8082 8.06289 33.107 7.93906C33.4059 7.81523 33.6008 7.52344 33.6008 7.2V1.6H34.4008C35.7262 1.6 36.8008 2.67461 36.8008 4V39.2C36.8008 40.5254 35.7262 41.6 34.4008 41.6H8.80078C7.47539 41.6 6.40078 40.5254 6.40078 39.2ZM41.6008 44C41.6008 45.3254 40.5262 46.4 39.2008 46.4H13.6008C12.2754 46.4 11.2008 45.3254 11.2008 44V43.2H34.4008C36.609 43.1973 38.398 41.4082 38.4008 39.2V6.4H39.2008C40.5262 6.4 41.6008 7.47461 41.6008 8.8V44Z" fill="#151A30"/>
<path d="M17.5445 7.72422C17.4293 7.41172 17.1328 7.20273 16.7996 7.20039H10.3996C9.95781 7.20039 9.59961 7.55859 9.59961 8.00039V14.4004C9.59961 14.8422 9.95781 15.2004 10.3996 15.2004H16.7996C17.2414 15.2004 17.5996 14.8422 17.5996 14.4004V9.93164L19.7652 7.76602L18.634 6.63477L17.5445 7.72422ZM15.9996 13.6004H11.1996V8.80039H15.9996V9.26914L14.3996 10.8691L13.3652 9.83477L12.234 10.966L13.834 12.566C14.1465 12.8781 14.6527 12.8781 14.9652 12.566L15.9996 11.5316V13.6004Z" fill="#27AE60"/>
<path d="M18.634 17.834L17.5445 18.9234C17.4293 18.6109 17.1328 18.402 16.7996 18.3996H10.3996C9.95781 18.3996 9.59961 18.7578 9.59961 19.1996V25.5996C9.59961 26.0414 9.95781 26.3996 10.3996 26.3996H16.7996C17.2414 26.3996 17.5996 26.0414 17.5996 25.5996V21.1309L19.7652 18.9652L18.634 17.834ZM15.9996 24.7996H11.1996V19.9996H15.9996V20.4684L14.3996 22.0684L13.3652 21.034L12.234 22.1652L13.834 23.7652C14.1465 24.0773 14.6527 24.0773 14.9652 23.7652L15.9996 22.7309V24.7996Z" fill="#27AE60"/>
<path d="M16.7996 28.7998H10.3996C9.95781 28.7998 9.59961 29.158 9.59961 29.5998V35.9998C9.59961 36.4416 9.95781 36.7998 10.3996 36.7998H16.7996C17.2414 36.7998 17.5996 36.4416 17.5996 35.9998V29.5998C17.5996 29.158 17.2414 28.7998 16.7996 28.7998ZM15.9996 35.1998H11.1996V30.3998H15.9996V35.1998Z" fill="#151A30"/>
<path d="M20.8008 12H28.8008V13.6H20.8008V12Z" fill="#151A30"/>
<path d="M20.8008 8.7998H25.6008V10.3998H20.8008V8.7998Z" fill="#151A30"/>
<path d="M20.8008 23.2002H28.8008V24.8002H20.8008V23.2002Z" fill="#151A30"/>
<path d="M20.8008 20H25.6008V21.6H20.8008V20Z" fill="#151A30"/>
<path d="M20.8008 33.5996H28.8008V35.1996H20.8008V33.5996Z" fill="#151A30"/>
<path d="M20.8008 30.4004H25.6008V32.0004H20.8008V30.4004Z" fill="#151A30"/>
<path d="M27.1992 30.4004H28.7992V32.0004H27.1992V30.4004Z" fill="#151A30"/>
</svg>
