<svg width="41" height="41" viewBox="0 0 41 41" fill="none" xmlns="http://www.w3.org/2000/svg">
<circle cx="20.5" cy="20.5" r="20.5" fill="#6D5FFF"/>
<path d="M31.5331 16.7351C31.5483 16.9429 31.5483 17.1508 31.5483 17.3586C31.5483 23.6968 26.5991 31 17.5533 31C14.7665 31 12.1777 30.2132 10 28.8477C10.396 28.8922 10.7766 28.907 11.1878 28.907C13.4873 28.907 15.6041 28.15 17.2944 26.8586C15.132 26.8141 13.3198 25.4336 12.6954 23.5336C13 23.5781 13.3046 23.6078 13.6244 23.6078C14.066 23.6078 14.5077 23.5484 14.9188 23.4445C12.665 22.9992 10.9746 21.0695 10.9746 18.7391V18.6797C11.6294 19.036 12.3909 19.2586 13.1979 19.2883C11.873 18.4273 11.0051 16.9578 11.0051 15.2953C11.0051 14.4047 11.2487 13.5883 11.6751 12.8758C14.0964 15.7851 17.736 17.6851 21.8172 17.8929C21.7411 17.5367 21.6954 17.1656 21.6954 16.7945C21.6954 14.1523 23.8883 12 26.6142 12C28.0304 12 29.3096 12.5789 30.2081 13.5141C31.3198 13.3063 32.3858 12.9055 33.33 12.3563C32.9644 13.4696 32.1878 14.4047 31.1675 14.9984C32.1574 14.8946 33.1168 14.6273 34 14.2563C33.3301 15.2062 32.4924 16.0523 31.5331 16.7351Z" fill="white"/>
</svg>
