<svg xmlns="http://www.w3.org/2000/svg" width="64.432" height="64.432" viewBox="0 0 64.432 64.432">
  <g id="Group_28" data-name="Group 28" transform="translate(-530 -654.873)">
    <path id="Path_14" data-name="Path 14" d="M581.415,719.305a1.4,1.4,0,0,1-1.4-1.4V664.678a7.012,7.012,0,0,0-7-7H554.8v37.819a1.4,1.4,0,1,1-2.8,0v-39.22a1.4,1.4,0,0,1,1.4-1.4h19.61a9.816,9.816,0,0,1,9.8,9.8V717.9A1.4,1.4,0,0,1,581.415,719.305Z" transform="translate(8.815 0)" fill="#285955"/>
    <path id="Path_15" data-name="Path 15" d="M572.408,690.674H558.4a1.4,1.4,0,0,1,0-2.8h14.007a1.4,1.4,0,0,1,0,2.8Z" transform="translate(10.819 13.223)" fill="#285955"/>
    <path id="Path_16" data-name="Path 16" d="M572.408,694.674H558.4a1.4,1.4,0,1,1,0-2.8h14.007a1.4,1.4,0,1,1,0,2.8Z" transform="translate(10.819 14.826)" fill="#285955"/>
    <path id="Path_17" data-name="Path 17" d="M572.408,682.674H558.4a1.4,1.4,0,0,1,0-2.8h14.007a1.4,1.4,0,0,1,0,2.8Z" transform="translate(10.819 10.018)" fill="#285955"/>
    <path id="Path_18" data-name="Path 18" d="M572.408,686.674H558.4a1.4,1.4,0,1,1,0-2.8h14.007a1.4,1.4,0,1,1,0,2.8Z" transform="translate(10.819 11.62)" fill="#285955"/>
    <path id="Path_19" data-name="Path 19" d="M572.408,674.674H558.4a1.4,1.4,0,0,1,0-2.8h14.007a1.4,1.4,0,0,1,0,2.8Z" transform="translate(10.819 6.812)" fill="#285955"/>
    <path id="Path_20" data-name="Path 20" d="M572.408,678.674H558.4a1.4,1.4,0,1,1,0-2.8h14.007a1.4,1.4,0,1,1,0,2.8Z" transform="translate(10.819 8.415)" fill="#285955"/>
    <path id="Path_21" data-name="Path 21" d="M572.408,666.674H558.4a1.4,1.4,0,1,1,0-2.8h14.007a1.4,1.4,0,1,1,0,2.8Z" transform="translate(10.819 3.606)" fill="#285955"/>
    <path id="Path_22" data-name="Path 22" d="M572.408,670.674H558.4a1.4,1.4,0,1,1,0-2.8h14.007a1.4,1.4,0,1,1,0,2.8Z" transform="translate(10.819 5.209)" fill="#285955"/>
    <path id="Path_23" data-name="Path 23" d="M593.032,701.674H531.4a1.4,1.4,0,1,1,0-2.8h61.631a1.4,1.4,0,1,1,0,2.8Z" transform="translate(0 17.631)" fill="#285955"/>
    <path id="Path_24" data-name="Path 24" d="M537.4,692.887a1.4,1.4,0,0,1-1.4-1.4V669.075a4.207,4.207,0,0,1,4.2-4.2h19.61a1.4,1.4,0,0,1,0,2.8H540.2a1.4,1.4,0,0,0-1.4,1.4v22.411A1.4,1.4,0,0,1,537.4,692.887Z" transform="translate(2.404 4.007)" fill="#285955"/>
    <path id="Path_25" data-name="Path 25" d="M547.4,670.281a1.4,1.4,0,0,1-1.4-1.4,11.469,11.469,0,0,1,3.381-8.163l5.433-5.433a1.4,1.4,0,0,1,1.981,1.981l-5.433,5.433a8.687,8.687,0,0,0-2.56,6.183A1.4,1.4,0,0,1,547.4,670.281Z" transform="translate(6.411 0)" fill="#285955"/>
    <path id="Path_26" data-name="Path 26" d="M541.4,692.887a1.4,1.4,0,0,1-1.4-1.4V666.274a1.4,1.4,0,1,1,2.8,0v25.213A1.4,1.4,0,0,1,541.4,692.887Z" transform="translate(4.007 4.007)" fill="#285955"/>
    <path id="Path_27" data-name="Path 27" d="M545.4,692.887a1.4,1.4,0,0,1-1.4-1.4V666.274a1.4,1.4,0,0,1,2.8,0v25.213A1.4,1.4,0,0,1,545.4,692.887Z" transform="translate(5.61 4.007)" fill="#285955"/>
    <path id="Path_28" data-name="Path 28" d="M549.4,692.887a1.4,1.4,0,0,1-1.4-1.4V666.274a1.4,1.4,0,1,1,2.8,0v25.213A1.4,1.4,0,0,1,549.4,692.887Z" transform="translate(7.213 4.007)" fill="#285955"/>
    <path id="Path_29" data-name="Path 29" d="M561.815,708.086a1.4,1.4,0,0,1-1.4-1.4V685.674H535.2a1.4,1.4,0,0,0-1.4,1.4v19.61a1.4,1.4,0,0,1-2.8,0v-19.61a4.207,4.207,0,0,1,4.2-4.2h26.613a1.4,1.4,0,0,1,1.4,1.4v22.411A1.4,1.4,0,0,1,561.815,708.086Z" transform="translate(0.401 11.22)" fill="#285955"/>
    <path id="Path_30" data-name="Path 30" d="M545.8,703.88a1.4,1.4,0,0,1-1.4-1.4v-9.8h-5.6v9.8a1.4,1.4,0,0,1-2.8,0V691.274a1.4,1.4,0,0,1,1.4-1.4h8.4a1.4,1.4,0,0,1,1.4,1.4v11.206A1.4,1.4,0,0,1,545.8,703.88Z" transform="translate(2.404 14.025)" fill="#285955"/>
  </g>
</svg>
