<svg xmlns="http://www.w3.org/2000/svg" width="129.254" height="80" viewBox="0 0 129.254 80">
  <g id="Group_1088" data-name="Group 1088" transform="translate(0 0)">
    <path id="Path_85" data-name="Path 85" d="M433.866,268.868a9.911,9.911,0,1,1-9.911,9.911,9.911,9.911,0,0,1,9.911-9.911" transform="translate(-357.437 -208.689)" fill="#ead8a9" fill-rule="evenodd"/>
    <path id="Path_86" data-name="Path 86" d="M429.769,132.549a4.074,4.074,0,1,1-4.074,4.074,4.074,4.074,0,0,1,4.074-4.074" transform="translate(-358.408 -132.549)" fill="#ead8a9" fill-rule="evenodd"/>
    <path id="Path_87" data-name="Path 87" d="M430.156,201.152h-1.265v-6.523L422,182.9h1.546l5.314,9.053a13.186,13.186,0,0,0,.7,1.321q.169-.366.7-1.293l5.314-9.082h1.462l-6.889,11.781Zm-16.391-17.094H407.58V182.9h13.636v1.153H415.03v17.094h-1.265Zm-11.3,17.094V182.9h1.294v18.247Zm-22.351,0V182.793h.618l11.977,13.777q.647.731,1.2,1.448t.577.745q-.056-.675-.056-2.643V182.9h1.293v18.359H395.1l-12.2-14-1.546-1.884q.056.562.056,2.643v13.13Zm-6.916-21.2-4.105,1.49-.956-.281,4.892-2.7Zm-7.057,21.2V182.9h8.519v1.125h-7.225v6.635h6.522v1.1h-6.522v8.21h7.507v1.181ZM354.1,192.745a3.4,3.4,0,0,0,2.362-1.462,5.039,5.039,0,0,0,1.265-3.4,3.491,3.491,0,0,0-1.322-2.952,5.485,5.485,0,0,0-3.43-1.012q-1.125,0-2.643.113v8.575Q352.362,192.745,354.1,192.745Zm-5.06,8.407V182.99q2.418-.2,4.1-.2a6.671,6.671,0,0,1,4.273,1.335,4.575,4.575,0,0,1,1.687,3.81,5.337,5.337,0,0,1-.956,3.065,9.017,9.017,0,0,1-2.165,2.277c2.231,2.962,5.1,6.6,5.634,7.166,1.055,1.117.721,2.439,1.977,2.589l-.028.228c-1.05-.019-.689-.6-1.345-.889a6.136,6.136,0,0,1-1.954-1.476c-.647-.694-3.272-4.048-5.465-7.084q-2.277,0-4.47-.14v7.479Zm-6.917-21.2-4.1,1.49-.956-.281,4.892-2.7Zm-7.057,21.2V182.9h8.519v1.125h-7.226v6.635h6.523v1.1h-6.523v8.21h7.507v1.181Z" transform="translate(-307.791 -158.194)" fill="#1e5d58"/>
    <path id="Path_88" data-name="Path 88" d="M393.158,227.345a33.982,33.982,0,0,0,4.771,4.6,21.838,21.838,0,0,0,11.575,4.323l-.039.672a23.5,23.5,0,0,1-12.792-4.63,24.836,24.836,0,0,1-4.514-4.108Z" transform="translate(-339.677 -185.497)" fill="#1e5d58"/>
    <path id="Path_89" data-name="Path 89" d="M394.853,249.906a5.4,5.4,0,1,1-5.4,5.4,5.4,5.4,0,0,1,5.4-5.4" transform="translate(-338.165 -198.098)" fill="#abc9c1" fill-rule="evenodd"/>
    <path id="Path_90" data-name="Path 90" d="M449.035,150.068a5.721,5.721,0,1,1-5.721,5.72,5.721,5.721,0,0,1,5.721-5.72" transform="translate(-368.249 -142.334)" fill="#abc9c1" fill-rule="evenodd"/>
    <path id="Path_91" data-name="Path 91" d="M293.9,190.132a3.638,3.638,0,0,0-1.357-1.51,5.7,5.7,0,0,0-2.3-.86,6.491,6.491,0,0,0-5,1.1,3.033,3.033,0,0,0-1.223,2.98c.258,1.534,2.233,2.292,4.57,3.085a14.164,14.164,0,0,1,5.167,2.53,5.336,5.336,0,0,1,1.459,2.266,4.315,4.315,0,0,1,.062,2.384,5.015,5.015,0,0,1-1.257,2.2,8.46,8.46,0,0,1-3.664,2.133,20.991,20.991,0,0,1-9.075.3,20.368,20.368,0,0,1-8.01-3.1l.33-.439c3.143,2.268,10.874,3.665,16.248,2.185a7.393,7.393,0,0,0,3.274-1.941,3.789,3.789,0,0,0,.957-1.653,3.1,3.1,0,0,0-.048-1.71,4.113,4.113,0,0,0-1.129-1.737A13.4,13.4,0,0,0,288.2,196.1c-2.692-.913-4.984-1.793-5.394-4.045a4.153,4.153,0,0,1,1.662-4.1,7.835,7.835,0,0,1,5.952-1.427,6.967,6.967,0,0,1,2.814,1.054,4.861,4.861,0,0,1,1.8,2.038Z" transform="translate(-273.275 -162.653)" fill="#1e5d58"/>
    <path id="Path_92" data-name="Path 92" d="M415.695,155.459a22.979,22.979,0,0,0-2.941-9.374,23.6,23.6,0,0,0-9.641-9.138,21.992,21.992,0,0,0-11.965-2.509,15.308,15.308,0,0,0-6.226,1.907,11.274,11.274,0,0,0-4.9,5.023,7.109,7.109,0,0,0-.047,5.93,5.387,5.387,0,0,0,2.18,2.394,4.477,4.477,0,0,0,1.854.594,3.633,3.633,0,0,0,1.845-.319,4.2,4.2,0,0,0,1.843-1.783l.593.339a4.87,4.87,0,0,1-2.148,2.06,4.3,4.3,0,0,1-2.187.384,5.169,5.169,0,0,1-2.14-.682,6.074,6.074,0,0,1-2.458-2.7,7.789,7.789,0,0,1,.042-6.5,11.938,11.938,0,0,1,5.187-5.336,15.987,15.987,0,0,1,6.5-1.994,22.672,22.672,0,0,1,12.339,2.581,24.276,24.276,0,0,1,9.919,9.405,23.659,23.659,0,0,1,3.03,9.651Z" transform="translate(-332.14 -133.179)" fill="#1e5d58"/>
    <path id="Path_93" data-name="Path 93" d="M373.16,267.171a13.409,13.409,0,0,1-7.754-2.768,9.957,9.957,0,0,1-3.25-4.5,8.244,8.244,0,0,1-.081-5.236,9.4,9.4,0,0,1,3.537-4.694,8.375,8.375,0,0,1,5.355-1.628,11.12,11.12,0,0,1,5.8,2.041c2,1.376,4.156,3.192,6.471,5.146a83.456,83.456,0,0,0,12.123,9.011,30.081,30.081,0,0,0,11.912,3.793,22.97,22.97,0,0,0,9.772-1.014,11.338,11.338,0,0,0,6.271-4.821,8.917,8.917,0,0,0,1.1-5.153c-.3-3.157-2.454-5.448-5.439-7.042a29.268,29.268,0,0,0-10.639-2.88,36.593,36.593,0,0,0-6.834-.044l-.064-.679a37.281,37.281,0,0,1,6.962.044,29.934,29.934,0,0,1,10.9,2.957c3.176,1.7,5.469,4.158,5.8,7.579a9.592,9.592,0,0,1-1.188,5.553,12,12,0,0,1-6.637,5.129,23.645,23.645,0,0,1-10.063,1.049,30.771,30.771,0,0,1-12.185-3.878,84,84,0,0,1-12.227-9.083c-2.3-1.941-4.438-3.745-6.415-5.1a10.438,10.438,0,0,0-5.436-1.923,7.7,7.7,0,0,0-4.927,1.5,8.733,8.733,0,0,0-3.292,4.353,7.569,7.569,0,0,0,.078,4.806,9.282,9.282,0,0,0,3.028,4.192,12.737,12.737,0,0,0,7.363,2.618Z" transform="translate(-322.657 -196.227)" fill="#1e5d58"/>
  </g>
</svg>
