<svg xmlns="http://www.w3.org/2000/svg" width="252.951" height="68.887" viewBox="0 0 252.951 68.887">
  <g id="Group_1093" data-name="Group 1093" transform="translate(-1597.049 105.067)">
    <g id="Group_1089" data-name="Group 1089" transform="translate(1597.049 -105.067)">
      <text id="bâtir_la_confiance" data-name="bâtir la confiance" transform="translate(84.951 42.067)" fill="#285955" font-size="24" font-family="Lato-LightItalic, Lato" font-weight="300" font-style="italic"><tspan x="0" y="0">bâtir la confiance</tspan></text>
      <g id="Group_141" data-name="Group 141" transform="translate(0)">
        <path id="Path_198" data-name="Path 198" d="M383.8,181.527V165.814a12.317,12.317,0,0,1,8.044-3.249,5.4,5.4,0,0,1,3.685,1.078,4.09,4.09,0,0,1,1.21,3.209,5.618,5.618,0,0,1-.372,2.037,7.384,7.384,0,0,1-1.123,1.887,14.775,14.775,0,0,1-1.858,1.88c-.735.629-1.581,1.29-2.554,1.982-.933.661-1.906,1.4-2.934,2.226a18.171,18.171,0,0,0-2.838,2.831,14.755,14.755,0,0,0-1.259,1.832m0-40.315H412.84v49.141H396.632a42.953,42.953,0,0,1,3.082-4.107q.892-1.033,1.762-1.934h-11.41a2.5,2.5,0,0,1,.459-1.353,7.874,7.874,0,0,1,1.257-1.463,19.772,19.772,0,0,1,1.819-1.526c.688-.511,1.4-1.031,2.143-1.557q1.637-1.121,3.171-2.336a16.521,16.521,0,0,0,2.7-2.659,12.428,12.428,0,0,0,1.882-3.233,10.96,10.96,0,0,0,.7-4.05,10.04,10.04,0,0,0-.728-3.885,8.051,8.051,0,0,0-2.119-2.957,9.664,9.664,0,0,0-3.4-1.88,14.38,14.38,0,0,0-4.523-.661,17.741,17.741,0,0,0-9.625,2.693Z" transform="translate(-363.022 -141.212)" fill="#9c9c9c" fill-rule="evenodd"/>
        <path id="Path_199" data-name="Path 199" d="M325.049,230.455V199.933h7.857v13.6h12.947v-9.782a12.358,12.358,0,0,1,7.857-3.227v11.451q-.408.306-.85.62c-.933.661-1.906,1.4-2.934,2.226a18.173,18.173,0,0,0-2.838,2.831,14.7,14.7,0,0,0-1.229,1.779H332.906v11.027Z" transform="translate(-325.049 -179.165)" fill="#134c65" fill-rule="evenodd"/>
        <path id="Path_200" data-name="Path 200" d="M393.315,249.38q-3.535,5.4-3.535,9.876,0,4.619,3.5,6.242a6.405,6.405,0,0,0,2.621.5q5.118,0,12.047-4.37t17.915-14.481q1.748-1.748,1.748,0a1.784,1.784,0,0,1-.749,1.373C416.7,257.841,410.013,263.1,404.45,265.81c-5.217,2.54-8.552,3.251-11.3,3.308-9.522.2-14.481-3.537-14.481-10.611a21.067,21.067,0,0,1,2.014-9.127Zm22.058-11.972q0-2.372-2.5-2.372a16.059,16.059,0,0,0-6.554,1.935,29.608,29.608,0,0,0-8.174,6.368h-11.4a2.5,2.5,0,0,1,.459-1.353,7.873,7.873,0,0,1,1.257-1.463A19.779,19.779,0,0,1,390.284,239c.688-.511,1.4-1.031,2.143-1.557q.825-.566,1.626-1.155a28.975,28.975,0,0,1,14.08-3.746q6.492,0,8.739,3a4.658,4.658,0,0,1,1.373,3.183,8.028,8.028,0,0,1-.874,3.5,2.925,2.925,0,0,1-2.809,1.81q-1.935,0-.562-2.434A8.892,8.892,0,0,0,415.373,237.409Z" transform="translate(-359.706 -200.239)" fill="#134c65"/>
        <path id="Path_201" data-name="Path 201" d="M475.744,143.956h1.6v-.48q0-.976-.81-.976c-.528,0-.792.328-.792.976Zm2.48,0h1.769v1.223h-5.137v-1.914q0-2.051,1.637-2.05a1.537,1.537,0,0,1,1.252.589,2.428,2.428,0,0,1,.478,1.571Zm-.455,3.394a2.03,2.03,0,0,1,2.313,2.276,1.975,1.975,0,0,1-2.26,2.209h-2.966v-1.225h2.98c.83,0,1.247-.344,1.247-1.029s-.4-1.009-1.2-1.009h-3.022V147.35Zm-2,8.942a1.255,1.255,0,0,0,.457,1.021,1.839,1.839,0,0,0,1.208.378,1.808,1.808,0,0,0,1.208-.378,1.237,1.237,0,0,0,.444-.99,1.253,1.253,0,0,0-.432-1,1.781,1.781,0,0,0-1.2-.371,1.933,1.933,0,0,0-1.244.359A1.2,1.2,0,0,0,475.766,156.292Zm4.316.053a2.6,2.6,0,0,1-.718,1.9,2.5,2.5,0,0,1-1.872.733,2.572,2.572,0,0,1-2.723-2.719,2.535,2.535,0,0,1,.72-1.878,2.576,2.576,0,0,1,1.9-.717,2.548,2.548,0,0,1,2.694,2.681Zm-4.359,7.043h1.43v-.529a.909.909,0,0,0-.215-.632.7.7,0,0,0-.54-.243q-.675,0-.674.852Zm4.27-3.328v1.4l-1.322.843c-.1.064-.19.124-.269.182a1.492,1.492,0,0,0-.2.175.7.7,0,0,0-.13.186.5.5,0,0,0-.044.209v.329h1.966v1.223h-5.137v-1.936q0-1.976,1.4-1.975a1.361,1.361,0,0,1,.908.333,1.538,1.538,0,0,1,.314.383,2.039,2.039,0,0,1,.208.5h.014a.827.827,0,0,1,.116-.235,1.6,1.6,0,0,1,.188-.219,2.725,2.725,0,0,1,.231-.2c.082-.065.163-.122.242-.176Zm-.39,6.6a4.08,4.08,0,0,1,.479,1.975,2.954,2.954,0,0,1-.686,2.063,2.427,2.427,0,0,1-1.889.754,2.565,2.565,0,0,1-1.973-.825,3.094,3.094,0,0,1-.764-2.193,3.682,3.682,0,0,1,.272-1.52h1.086a2.716,2.716,0,0,0-.39,1.535,1.7,1.7,0,0,0,.467,1.238,1.914,1.914,0,0,0,2.474.05,1.559,1.559,0,0,0,.433-1.159,1.162,1.162,0,0,0-.163-.7h-1.143l.011-1.223Z" transform="translate(-421.817 -141.213)" fill="#9c9c9c"/>
      </g>
    </g>
  </g>
</svg>
