<svg xmlns="http://www.w3.org/2000/svg" width="65.432" height="65.432" viewBox="0 0 65.432 65.432">
  <g id="Group_1094" data-name="Group 1094" transform="translate(-724 -686)">
    <g id="Group_29" data-name="Group 29" transform="translate(-189 411)">
      <path id="Path_31" data-name="Path 31" d="M978.412,330.326l-4.267-25.6a1.428,1.428,0,0,0-.309-.676l-7.112-8.535a1.423,1.423,0,0,0-2.188,1.821l6.868,8.239L975,327.127l-10.848-8.678-1.369-15.042a1.422,1.422,0,1,0-2.833.256l1.346,14.8L947.139,327.9V317.759a1.422,1.422,0,1,0-2.845,0V327.9l-14.153-9.436,1.346-14.8a1.422,1.422,0,1,0-2.833-.256l-1.369,15.042-10.847,8.678,3.592-21.556,6.868-8.239a1.423,1.423,0,0,0-2.188-1.821l-7.112,8.535a1.427,1.427,0,0,0-.309.676l-4.267,25.6a1.423,1.423,0,0,0,2.292,1.346l13.412-10.729,16.2,10.8a1.528,1.528,0,0,0,.154.073,1.453,1.453,0,0,0,.144.067,1.406,1.406,0,0,0,.486.1h.011a1.407,1.407,0,0,0,.486-.1,1.48,1.48,0,0,0,.144-.067,1.526,1.526,0,0,0,.154-.073l16.2-10.8,13.412,10.729a1.426,1.426,0,0,0,.889.312,1.424,1.424,0,0,0,1.4-1.657Z" transform="translate(0 8.449)" fill="#285955"/>
      <path id="Path_32" data-name="Path 32" d="M940.738,321.65a1.422,1.422,0,0,0,1.725,0c.735-.562,17.992-13.917,17.992-27.792a18.856,18.856,0,1,0-37.712,0C922.744,307.8,940,321.091,940.738,321.65Zm.862-43.806a16.029,16.029,0,0,1,16.011,16.011c0,10.813-12.569,21.98-16.012,24.836-3.447-2.846-16.01-13.971-16.01-24.836A16.029,16.029,0,0,1,941.6,277.845Z" transform="translate(4.116)" fill="#285955"/>
      <path id="Path_33" data-name="Path 33" d="M947.156,290.811a8.6,8.6,0,1,0-8.6,8.6A8.612,8.612,0,0,0,947.156,290.811Zm-14.358,0a5.757,5.757,0,1,1,5.757,5.755A5.764,5.764,0,0,1,932.8,290.811Z" transform="translate(7.162 3.045)" fill="#285955"/>
    </g>
  </g>
</svg>
