<svg xmlns="http://www.w3.org/2000/svg" width="46.555" height="80" viewBox="0 0 46.555 80">
  <g id="Group_1094" data-name="Group 1094" transform="translate(-384 -589)">
    <circle id="Ellipse_4" data-name="Ellipse 4" cx="11" cy="11" r="11" transform="translate(396 647)" fill="#1e5d58"/>
    <path id="Path_194" data-name="Path 194" d="M175.776,248a1.5,1.5,0,0,1-1.5-1.482v-.05c-.035-2.362-3.532-7.363-7.237-12.658-6.477-9.255-14.539-20.775-14.539-31.37a23.277,23.277,0,1,1,46.555,0c0,10.5-8.034,21.99-14.491,31.223-3.745,5.355-7.282,10.425-7.285,12.8A1.525,1.525,0,0,1,175.8,248Z" transform="translate(231.5 409.838)" fill="#1e5d58"/>
    <path id="Path_195" data-name="Path 195" d="M171.261,208.023a9.761,9.761,0,1,1,9.761-9.761A9.773,9.773,0,0,1,171.261,208.023Zm0-16.519a6.758,6.758,0,1,0,6.758,6.758A6.766,6.766,0,0,0,171.261,191.5Z" transform="translate(236.016 414.523)" fill="#fff"/>
  </g>
</svg>
