<svg xmlns="http://www.w3.org/2000/svg" width="44.877" height="40.623" viewBox="0 0 44.877 40.623">
  <path id="Path_21344" data-name="Path 21344" d="M855,314.873H827a3,3,0,0,1-3-3v-16h-3.326a2,2,0,0,1-1.313-3.509l20.286-17.64a2.048,2.048,0,0,1,2.711.08L848,280.322v-2.449a2,2,0,0,1,2-2h5a2,2,0,0,1,2,2v8.753l5.946,5.818a2,2,0,0,1-1.4,3.429H858v16A3,3,0,0,1,855,314.873Zm-30-21a1,1,0,0,1,1,1v17a1,1,0,0,0,1,1h28a1,1,0,0,0,1-1v-17a1,1,0,0,1,1-1h4.548l-6.247-6.111a1,1,0,0,1-.3-.715v-9.174h-5V282.7a1,1,0,0,1-1.7.715l-7.341-7.181-20.286,17.64Z" transform="translate(-818.672 -274.25)" fill="#1e5d58"/>
</svg>
