<svg xmlns="http://www.w3.org/2000/svg" width="40" height="42.927" viewBox="0 0 40 42.927">
  <g id="Group_41" data-name="Group 41" transform="translate(-1011 -1022)">
    <g id="Group_6" data-name="Group 6" transform="translate(1011 1022)">
      <g id="Group_5" data-name="Group 5">
        <path id="Path_4" data-name="Path 4" d="M1047.1,1064.927h-32.2a3.906,3.906,0,0,1-3.9-3.9V1025.9a3.906,3.906,0,0,1,3.9-3.9h32.2a3.906,3.906,0,0,1,3.9,3.9v35.122A3.906,3.906,0,0,1,1047.1,1064.927Zm-32.2-40.976a1.953,1.953,0,0,0-1.951,1.951v35.122a1.953,1.953,0,0,0,1.951,1.951h32.2a1.954,1.954,0,0,0,1.951-1.951V1025.9a1.954,1.954,0,0,0-1.951-1.951Z" transform="translate(-1011 -1022)" fill="#1e5d58"/>
      </g>
    </g>
    <g id="Group_8" data-name="Group 8" transform="translate(1016.854 1028.829)">
      <g id="Group_7" data-name="Group 7">
        <path id="Path_5" data-name="Path 5" d="M1025.781,1036.8h-7.8a.975.975,0,0,1-.976-.976v-5.854a.975.975,0,0,1,.976-.976h7.8a.975.975,0,0,1,.976.976v5.854A.975.975,0,0,1,1025.781,1036.8Zm-6.829-1.951h5.854v-3.9h-5.854Z" transform="translate(-1017 -1029)" fill="#1e5d58"/>
      </g>
    </g>
    <g id="Group_10" data-name="Group 10" transform="translate(1030.512 1029.805)">
      <g id="Group_9" data-name="Group 9">
        <path id="Path_6" data-name="Path 6" d="M1044.658,1031.951h-12.683a.976.976,0,0,1,0-1.951h12.683a.976.976,0,1,1,0,1.951Z" transform="translate(-1031 -1030)" fill="#1e5d58"/>
      </g>
    </g>
    <g id="Group_12" data-name="Group 12" transform="translate(1030.512 1033.707)">
      <g id="Group_11" data-name="Group 11">
        <path id="Path_7" data-name="Path 7" d="M1044.658,1035.951h-12.683a.976.976,0,0,1,0-1.951h12.683a.976.976,0,1,1,0,1.951Z" transform="translate(-1031 -1034)" fill="#1e5d58"/>
      </g>
    </g>
    <g id="Group_14" data-name="Group 14" transform="translate(1035.39 1039.561)">
      <g id="Group_13" data-name="Group 13">
        <path id="Path_8" data-name="Path 8" d="M1044.78,1047.8h-7.8a.975.975,0,0,1-.976-.976v-5.854a.975.975,0,0,1,.976-.976h7.8a.975.975,0,0,1,.976.976v5.854A.975.975,0,0,1,1044.78,1047.8Zm-6.829-1.951h5.854v-3.9h-5.854Z" transform="translate(-1036 -1040)" fill="#1e5d58"/>
      </g>
    </g>
    <g id="Group_16" data-name="Group 16" transform="translate(1016.854 1044.439)">
      <g id="Group_15" data-name="Group 15">
        <path id="Path_9" data-name="Path 9" d="M1030.658,1046.951h-12.683a.976.976,0,0,1,0-1.951h12.683a.976.976,0,0,1,0,1.951Z" transform="translate(-1017 -1045)" fill="#1e5d58"/>
      </g>
    </g>
    <g id="Group_18" data-name="Group 18" transform="translate(1016.854 1040.537)">
      <g id="Group_17" data-name="Group 17">
        <path id="Path_10" data-name="Path 10" d="M1030.658,1042.951h-12.683a.976.976,0,0,1,0-1.951h12.683a.976.976,0,0,1,0,1.951Z" transform="translate(-1017 -1041)" fill="#1e5d58"/>
      </g>
    </g>
    <g id="Group_20" data-name="Group 20" transform="translate(1016.854 1050.293)">
      <g id="Group_19" data-name="Group 19">
        <path id="Path_11" data-name="Path 11" d="M1025.781,1058.8h-7.8a.975.975,0,0,1-.976-.976v-5.854a.975.975,0,0,1,.976-.976h7.8a.975.975,0,0,1,.976.976v5.854A.975.975,0,0,1,1025.781,1058.8Zm-6.829-1.951h5.854v-3.9h-5.854Z" transform="translate(-1017 -1051)" fill="#1e5d58"/>
      </g>
    </g>
    <g id="Group_22" data-name="Group 22" transform="translate(1030.512 1051.268)">
      <g id="Group_21" data-name="Group 21">
        <path id="Path_12" data-name="Path 12" d="M1044.658,1053.951h-12.683a.976.976,0,0,1,0-1.951h12.683a.976.976,0,1,1,0,1.951Z" transform="translate(-1031 -1052)" fill="#1e5d58"/>
      </g>
    </g>
    <g id="Group_24" data-name="Group 24" transform="translate(1030.512 1055.171)">
      <g id="Group_23" data-name="Group 23">
        <path id="Path_13" data-name="Path 13" d="M1044.658,1057.951h-12.683a.976.976,0,0,1,0-1.951h12.683a.976.976,0,1,1,0,1.951Z" transform="translate(-1031 -1056)" fill="#1e5d58"/>
      </g>
    </g>
  </g>
</svg>
