<svg xmlns="http://www.w3.org/2000/svg" width="40" height="40" viewBox="0 0 40 40">
  <g id="Group_42" data-name="Group 42" transform="translate(-530 -654.873)">
    <path id="Path_14" data-name="Path 14" d="M570.261,694.873a.87.87,0,0,1-.87-.87V660.96a4.353,4.353,0,0,0-4.348-4.348h-11.3V680.09a.87.87,0,1,1-1.739,0V655.743a.87.87,0,0,1,.87-.87h12.174a6.094,6.094,0,0,1,6.087,6.087V694A.87.87,0,0,1,570.261,694.873Z" transform="translate(-2.87 0)" fill="#1e5d58"/>
    <path id="Path_15" data-name="Path 15" d="M566.565,689.612h-8.7a.87.87,0,0,1,0-1.739h8.7a.87.87,0,1,1,0,1.739Z" transform="translate(-3.522 -4.304)" fill="#1e5d58"/>
    <path id="Path_16" data-name="Path 16" d="M566.565,693.612h-8.7a.87.87,0,0,1,0-1.739h8.7a.87.87,0,1,1,0,1.739Z" transform="translate(-3.522 -4.826)" fill="#1e5d58"/>
    <path id="Path_17" data-name="Path 17" d="M566.565,681.612h-8.7a.87.87,0,0,1,0-1.739h8.7a.87.87,0,1,1,0,1.739Z" transform="translate(-3.522 -3.261)" fill="#1e5d58"/>
    <path id="Path_18" data-name="Path 18" d="M566.565,685.612h-8.7a.87.87,0,0,1,0-1.739h8.7a.87.87,0,1,1,0,1.739Z" transform="translate(-3.522 -3.783)" fill="#1e5d58"/>
    <path id="Path_19" data-name="Path 19" d="M566.565,673.612h-8.7a.87.87,0,0,1,0-1.739h8.7a.87.87,0,0,1,0,1.739Z" transform="translate(-3.522 -2.217)" fill="#1e5d58"/>
    <path id="Path_20" data-name="Path 20" d="M566.565,677.612h-8.7a.87.87,0,0,1,0-1.739h8.7a.87.87,0,1,1,0,1.739Z" transform="translate(-3.522 -2.739)" fill="#1e5d58"/>
    <path id="Path_21" data-name="Path 21" d="M566.565,665.612h-8.7a.87.87,0,0,1,0-1.739h8.7a.87.87,0,1,1,0,1.739Z" transform="translate(-3.522 -1.174)" fill="#1e5d58"/>
    <path id="Path_22" data-name="Path 22" d="M566.565,669.612h-8.7a.87.87,0,0,1,0-1.739h8.7a.87.87,0,1,1,0,1.739Z" transform="translate(-3.522 -1.696)" fill="#1e5d58"/>
    <path id="Path_23" data-name="Path 23" d="M569.13,700.612H530.87a.87.87,0,1,1,0-1.739H569.13a.87.87,0,1,1,0,1.739Z" transform="translate(0 -5.739)" fill="#1e5d58"/>
    <path id="Path_24" data-name="Path 24" d="M536.87,682.264a.87.87,0,0,1-.87-.87V667.482a2.612,2.612,0,0,1,2.609-2.609h12.174a.87.87,0,0,1,0,1.739H538.609a.871.871,0,0,0-.87.87v13.913A.87.87,0,0,1,536.87,682.264Z" transform="translate(-0.783 -1.304)" fill="#1e5d58"/>
    <path id="Path_25" data-name="Path 25" d="M546.87,664.438a.87.87,0,0,1-.87-.87,7.12,7.12,0,0,1,2.1-5.068l3.373-3.373a.869.869,0,0,1,1.229,1.229l-3.373,3.373a5.393,5.393,0,0,0-1.59,3.838A.87.87,0,0,1,546.87,664.438Z" transform="translate(-2.087 0)" fill="#1e5d58"/>
    <path id="Path_26" data-name="Path 26" d="M540.87,682.264a.87.87,0,0,1-.87-.87V665.743a.87.87,0,1,1,1.739,0v15.652A.87.87,0,0,1,540.87,682.264Z" transform="translate(-1.304 -1.304)" fill="#1e5d58"/>
    <path id="Path_27" data-name="Path 27" d="M544.87,682.264a.87.87,0,0,1-.87-.87V665.743a.87.87,0,0,1,1.739,0v15.652A.87.87,0,0,1,544.87,682.264Z" transform="translate(-1.826 -1.304)" fill="#1e5d58"/>
    <path id="Path_28" data-name="Path 28" d="M548.87,682.264a.87.87,0,0,1-.87-.87V665.743a.87.87,0,0,1,1.739,0v15.652A.87.87,0,0,1,548.87,682.264Z" transform="translate(-2.348 -1.304)" fill="#1e5d58"/>
    <path id="Path_29" data-name="Path 29" d="M550.13,698.525a.87.87,0,0,1-.87-.87V684.612H533.609a.871.871,0,0,0-.87.87v12.174a.87.87,0,1,1-1.739,0V685.482a2.612,2.612,0,0,1,2.609-2.609H550.13a.87.87,0,0,1,.87.87v13.913A.87.87,0,0,1,550.13,698.525Z" transform="translate(-0.13 -3.652)" fill="#1e5d58"/>
    <path id="Path_30" data-name="Path 30" d="M542.087,698.569a.87.87,0,0,1-.87-.87v-6.087h-3.478V697.7a.87.87,0,0,1-1.739,0v-6.957a.87.87,0,0,1,.87-.87h5.217a.87.87,0,0,1,.87.87V697.7A.87.87,0,0,1,542.087,698.569Z" transform="translate(-0.783 -4.565)" fill="#1e5d58"/>
  </g>
</svg>
