<svg xmlns="http://www.w3.org/2000/svg" width="40" height="51.52" viewBox="0 0 40 51.52">
  <g id="Group_45" data-name="Group 45" transform="translate(-724 -1311)">
    <g id="Group_44" data-name="Group 44" transform="translate(724 1311)">
      <path id="Path_95" data-name="Path 95" d="M740.67,1362.52a3.324,3.324,0,0,1-.618-.057l-15.147-2.84a1.11,1.11,0,0,1-.906-1.092v-46.394a1.037,1.037,0,0,1,.013-.193,1.071,1.071,0,0,1,.121-.363,1.107,1.107,0,0,1,.763-.559,1.3,1.3,0,0,1,.238-.021h35.531a3.337,3.337,0,0,1,3.333,3.333v30a3.318,3.318,0,0,1-.876,2.251l-10.978,11.978a3.343,3.343,0,0,1-2.458,1.08h-5.72a3.332,3.332,0,0,1-3.3,2.878Zm-14.448-4.911,14.24,2.671a1.116,1.116,0,0,0,.914-.238,1.1,1.1,0,0,0,.4-.855V1319.3a1.106,1.106,0,0,0-.779-1.061l-14.777-4.618ZM744,1357.42h5.689a1.113,1.113,0,0,0,.819-.36l10.978-11.975a1.112,1.112,0,0,0,.292-.751v-30a1.111,1.111,0,0,0-1.111-1.111H732.392l9.268,2.9A3.318,3.318,0,0,1,744,1319.3Z" transform="translate(-724 -1311)" fill="#1e5d58"/>
    </g>
  </g>
</svg>
