<svg xmlns="http://www.w3.org/2000/svg" width="40" height="40" viewBox="0 0 40 40">
  <g id="Group_49" data-name="Group 49" transform="translate(-339 -193)">
    <g id="photos" transform="translate(339 193)">
      <path id="Path_98" data-name="Path 98" d="M363.636,221.182a.909.909,0,0,1-.909-.909,5.455,5.455,0,1,0-10.909,0,.909.909,0,1,1-1.818,0,7.273,7.273,0,0,1,14.545,0A.909.909,0,0,1,363.636,221.182Z" transform="translate(-340 -194.818)" fill="#1e5d58"/>
      <path id="Path_99" data-name="Path 99" d="M357.909,211.545a.909.909,0,0,1-.909-.909v-2.727a.909.909,0,1,1,1.818,0v2.727A.909.909,0,0,1,357.909,211.545Z" transform="translate(-340.636 -194.273)" fill="#1e5d58"/>
      <path id="Path_100" data-name="Path 100" d="M364.909,214.636a.909.909,0,0,1-.643-1.552l1.818-1.818a.909.909,0,0,1,1.285,1.285l-1.818,1.818A.907.907,0,0,1,364.909,214.636Z" transform="translate(-341.273 -194.636)" fill="#1e5d58"/>
      <path id="Path_101" data-name="Path 101" d="M349.727,214.636a.907.907,0,0,1-.643-.266l-1.818-1.818a.909.909,0,1,1,1.285-1.285l1.818,1.818a.909.909,0,0,1-.643,1.552Z" transform="translate(-339.727 -194.636)" fill="#1e5d58"/>
      <path id="Path_102" data-name="Path 102" d="M370.818,233.545H341.727A2.731,2.731,0,0,1,339,230.818V201.727A2.731,2.731,0,0,1,341.727,199h29.091a2.731,2.731,0,0,1,2.727,2.727v29.091A2.731,2.731,0,0,1,370.818,233.545Zm-29.091-32.727a.911.911,0,0,0-.909.909v29.091a.911.911,0,0,0,.909.909h29.091a.911.911,0,0,0,.909-.909V201.727a.911.911,0,0,0-.909-.909Z" transform="translate(-339 -193.545)" fill="#1e5d58"/>
      <path id="Path_103" data-name="Path 103" d="M376.818,227.545h-3.636a.909.909,0,1,1,0-1.818h3.636a.911.911,0,0,0,.909-.909V195.727a.911.911,0,0,0-.909-.909H347.727a.911.911,0,0,0-.909.909v3.636a.909.909,0,0,1-1.818,0v-3.636A2.731,2.731,0,0,1,347.727,193h29.091a2.731,2.731,0,0,1,2.727,2.727v29.091A2.731,2.731,0,0,1,376.818,227.545Z" transform="translate(-339.545 -193)" fill="#1e5d58"/>
      <path id="Path_104" data-name="Path 104" d="M352.509,231.352a.909.909,0,1,1,0-1.818c2.505,0,5.183-3.066,8.017-6.313C364.3,218.9,368.58,214,373.95,215a.909.909,0,1,1-.336,1.787c-4.341-.818-8.093,3.475-11.717,7.626C358.782,227.983,355.841,231.352,352.509,231.352Z" transform="translate(-340.145 -194.988)" fill="#1e5d58"/>
      <path id="Path_105" data-name="Path 105" d="M359,226.282a.905.905,0,0,1-.5-.153c-11.685-7.79-18.1-4.534-18.158-4.5a.909.909,0,0,1-.856-1.6c.3-.159,7.444-3.8,20.024,4.591a.909.909,0,0,1-.505,1.665Z" transform="translate(-339 -195.373)" fill="#1e5d58"/>
    </g>
  </g>
</svg>
