<svg xmlns="http://www.w3.org/2000/svg" width="40" height="40" viewBox="0 0 40 40">
  <g id="Group_43" data-name="Group 43" transform="translate(-913 -275)">
    <path id="Path_31" data-name="Path 31" d="M952.988,316.6l-2.609-15.652a.873.873,0,0,0-.189-.413l-4.348-5.217a.87.87,0,0,0-1.337,1.113l4.2,5.037,2.2,13.177-6.631-5.305-.837-9.2a.87.87,0,1,0-1.732.156l.823,9.05-8.652,5.769v-6.2a.87.87,0,1,0-1.739,0v6.2l-8.652-5.769.823-9.05a.87.87,0,1,0-1.732-.156l-.837,9.2L915.1,314.64l2.2-13.177,4.2-5.037a.87.87,0,0,0-1.337-1.113l-4.348,5.217a.873.873,0,0,0-.189.413L913.012,316.6a.87.87,0,0,0,1.4.823l8.2-6.559,9.905,6.6a.929.929,0,0,0,.094.044.89.89,0,0,0,.088.041.86.86,0,0,0,.3.06H933a.86.86,0,0,0,.3-.06.89.89,0,0,0,.088-.041.915.915,0,0,0,.094-.044l9.905-6.6,8.2,6.559a.872.872,0,0,0,.544.19.87.87,0,0,0,.857-1.013Z" transform="translate(0 -2.609)" fill="#1e5d58"/>
    <path id="Path_32" data-name="Path 32" d="M933.744,303.518a.869.869,0,0,0,1.055,0c.45-.344,11-8.508,11-16.99a11.527,11.527,0,0,0-23.054,0C922.744,295.049,933.3,303.177,933.744,303.518Zm.527-26.779a9.8,9.8,0,0,1,9.788,9.788c0,6.61-7.684,13.437-9.789,15.183-2.107-1.74-9.787-8.541-9.787-15.183A9.8,9.8,0,0,1,934.271,276.739Z" transform="translate(-1.271)" fill="#1e5d58"/>
    <path id="Path_33" data-name="Path 33" d="M940.469,287.467a5.258,5.258,0,1,0-5.258,5.257A5.265,5.265,0,0,0,940.469,287.467Zm-8.777,0a3.519,3.519,0,1,1,3.519,3.518A3.524,3.524,0,0,1,931.692,287.467Z" transform="translate(-2.211 -0.94)" fill="#1e5d58"/>
  </g>
</svg>
