<svg xmlns="http://www.w3.org/2000/svg" width="60.971" height="65.432" viewBox="0 0 60.971 65.432">
  <g id="Group_25" data-name="Group 25" transform="translate(-1011 -1022)">
    <g id="Group_6" data-name="Group 6" transform="translate(1011 1022)">
      <g id="Group_5" data-name="Group 5">
        <path id="Path_4" data-name="Path 4" d="M1066.023,1087.432h-49.074a5.954,5.954,0,0,1-5.948-5.948v-53.535a5.955,5.955,0,0,1,5.948-5.949h49.074a5.955,5.955,0,0,1,5.948,5.949v53.535A5.954,5.954,0,0,1,1066.023,1087.432Zm-49.074-62.458a2.977,2.977,0,0,0-2.974,2.974v53.535a2.977,2.977,0,0,0,2.974,2.974h49.074a2.978,2.978,0,0,0,2.974-2.974v-53.535a2.978,2.978,0,0,0-2.974-2.974Z" transform="translate(-1011 -1022)" fill="#285955"/>
      </g>
    </g>
    <g id="Group_8" data-name="Group 8" transform="translate(1019.923 1032.41)">
      <g id="Group_7" data-name="Group 7">
        <path id="Path_5" data-name="Path 5" d="M1030.384,1040.9h-11.9a1.486,1.486,0,0,1-1.487-1.487v-8.923a1.486,1.486,0,0,1,1.487-1.487h11.9a1.486,1.486,0,0,1,1.487,1.487v8.923A1.486,1.486,0,0,1,1030.384,1040.9Zm-10.41-2.974h8.923v-5.948h-8.923Z" transform="translate(-1017 -1029)" fill="#285955"/>
      </g>
    </g>
    <g id="Group_10" data-name="Group 10" transform="translate(1040.742 1033.897)">
      <g id="Group_9" data-name="Group 9">
        <path id="Path_6" data-name="Path 6" d="M1051.819,1032.974h-19.332a1.487,1.487,0,0,1,0-2.974h19.332a1.487,1.487,0,1,1,0,2.974Z" transform="translate(-1031 -1030)" fill="#285955"/>
      </g>
    </g>
    <g id="Group_12" data-name="Group 12" transform="translate(1040.742 1039.845)">
      <g id="Group_11" data-name="Group 11">
        <path id="Path_7" data-name="Path 7" d="M1051.819,1036.974h-19.332a1.487,1.487,0,0,1,0-2.974h19.332a1.487,1.487,0,1,1,0,2.974Z" transform="translate(-1031 -1034)" fill="#285955"/>
      </g>
    </g>
    <g id="Group_14" data-name="Group 14" transform="translate(1048.177 1048.768)">
      <g id="Group_13" data-name="Group 13">
        <path id="Path_8" data-name="Path 8" d="M1049.384,1051.9h-11.9a1.486,1.486,0,0,1-1.487-1.487v-8.923a1.486,1.486,0,0,1,1.487-1.487h11.9a1.486,1.486,0,0,1,1.487,1.487v8.923A1.486,1.486,0,0,1,1049.384,1051.9Zm-10.41-2.974h8.923v-5.948h-8.923Z" transform="translate(-1036 -1040)" fill="#285955"/>
      </g>
    </g>
    <g id="Group_16" data-name="Group 16" transform="translate(1019.923 1056.203)">
      <g id="Group_15" data-name="Group 15">
        <path id="Path_9" data-name="Path 9" d="M1037.819,1047.974h-19.332a1.487,1.487,0,0,1,0-2.974h19.332a1.487,1.487,0,0,1,0,2.974Z" transform="translate(-1017 -1045)" fill="#285955"/>
      </g>
    </g>
    <g id="Group_18" data-name="Group 18" transform="translate(1019.923 1050.255)">
      <g id="Group_17" data-name="Group 17">
        <path id="Path_10" data-name="Path 10" d="M1037.819,1043.974h-19.332a1.487,1.487,0,0,1,0-2.974h19.332a1.487,1.487,0,0,1,0,2.974Z" transform="translate(-1017 -1041)" fill="#285955"/>
      </g>
    </g>
    <g id="Group_20" data-name="Group 20" transform="translate(1019.923 1065.126)">
      <g id="Group_19" data-name="Group 19">
        <path id="Path_11" data-name="Path 11" d="M1030.384,1062.9h-11.9a1.486,1.486,0,0,1-1.487-1.487v-8.923a1.486,1.486,0,0,1,1.487-1.487h11.9a1.486,1.486,0,0,1,1.487,1.487v8.923A1.486,1.486,0,0,1,1030.384,1062.9Zm-10.41-2.974h8.923v-5.948h-8.923Z" transform="translate(-1017 -1051)" fill="#285955"/>
      </g>
    </g>
    <g id="Group_22" data-name="Group 22" transform="translate(1040.742 1066.613)">
      <g id="Group_21" data-name="Group 21">
        <path id="Path_12" data-name="Path 12" d="M1051.819,1054.974h-19.332a1.487,1.487,0,0,1,0-2.974h19.332a1.487,1.487,0,1,1,0,2.974Z" transform="translate(-1031 -1052)" fill="#285955"/>
      </g>
    </g>
    <g id="Group_24" data-name="Group 24" transform="translate(1040.742 1072.561)">
      <g id="Group_23" data-name="Group 23">
        <path id="Path_13" data-name="Path 13" d="M1051.819,1058.974h-19.332a1.487,1.487,0,0,1,0-2.974h19.332a1.487,1.487,0,1,1,0,2.974Z" transform="translate(-1031 -1056)" fill="#285955"/>
      </g>
    </g>
  </g>
</svg>
