<svg width="45" height="31" viewBox="0 0 45 31" fill="none" xmlns="http://www.w3.org/2000/svg">
<path d="M44.457 11.9805C44.457 15.7305 43.0508 19.3242 40.2383 22.7617C37.4648 26.1992 34.3789 28.6797 30.9805 30.2031L29.8672 27.8594C34.0078 25.4766 36.8984 22.6836 38.5391 19.4805C39.3594 17.8398 39.7695 16.3359 39.7695 14.9688C39.7695 14.5391 39.6133 14.207 39.3008 13.9727C39.0273 13.6992 38.6367 13.5625 38.1289 13.5625C35.8242 13.8359 34.4961 13.9727 34.1445 13.9727C32.582 13.9727 31.0977 13.4453 29.6914 12.3906C28.3242 11.3359 27.6406 9.79297 27.6406 7.76172C27.6406 5.80859 28.2656 4.1875 29.5156 2.89844C30.7656 1.57031 32.543 0.90625 34.8477 0.90625C37.543 0.90625 39.8086 1.96094 41.6445 4.07031C43.5195 6.14062 44.457 8.77734 44.457 11.9805ZM16.9766 11.5117C16.9766 15.8086 15.5312 19.6367 12.6406 22.9961C9.78906 26.3164 6.72266 28.7188 3.44141 30.2031L2.38672 27.8594C5.16016 26.1016 7.48438 24.168 9.35938 22.0586C11.2734 19.9102 12.2305 17.6055 12.2305 15.1445C12.2305 14.7148 12.1133 14.3438 11.8789 14.0312C11.6836 13.7188 11.293 13.5625 10.707 13.5625C8.36328 13.8359 6.99609 13.9727 6.60547 13.9727C5.31641 13.9727 4.08594 13.6211 2.91406 12.918C1.07812 11.7852 0.160156 10.0273 0.160156 7.64453C0.160156 6.00391 0.746094 4.48047 1.91797 3.07422C3.08984 1.62891 4.90625 0.90625 7.36719 0.90625C10.1797 0.90625 12.4844 1.98047 14.2812 4.12891C16.0781 6.27734 16.9766 8.73828 16.9766 11.5117Z" fill="#285955"/>
</svg>
