<svg width="45" height="30" viewBox="0 0 45 30" fill="none" xmlns="http://www.w3.org/2000/svg">
<path d="M0.222656 18.3047C0.222656 14.5938 1.60938 11.0195 4.38281 7.58203C7.19531 4.14453 10.3203 1.64453 13.7578 0.0820312L14.8711 2.42578C12.1367 3.98828 9.79297 5.94141 7.83984 8.28516C5.92578 10.5898 4.96875 12.9336 4.96875 15.3164C4.96875 15.7852 5.10547 16.1367 5.37891 16.3711C5.69141 16.6055 6.08203 16.7227 6.55078 16.7227C9.08984 16.4492 10.457 16.3125 10.6523 16.3125C11.9414 16.3125 13.3281 16.7812 14.8125 17.7188C16.3359 18.6562 17.0977 20.2578 17.0977 22.5234C17.0977 24.4375 16.4727 26.0586 15.2227 27.3867C13.9727 28.7148 12.1953 29.3789 9.89062 29.3789C7.19531 29.3789 4.91016 28.3438 3.03516 26.2734C1.16016 24.1641 0.222656 21.5078 0.222656 18.3047ZM27.7617 18.7734C27.7617 14.5938 29.168 10.8242 31.9805 7.46484C34.832 4.06641 37.9375 1.60547 41.2969 0.0820312L42.4102 2.42578C39.6758 3.98828 37.332 5.92188 35.3789 8.22656C33.4648 10.4922 32.5078 12.8164 32.5078 15.1992C32.5078 15.6289 32.625 16 32.8594 16.3125C33.0938 16.5859 33.5039 16.7227 34.0898 16.7227C36.5898 16.4492 37.957 16.3125 38.1914 16.3125C39.6367 16.3125 41.0625 16.8398 42.4688 17.8945C43.9141 18.9102 44.6367 20.4336 44.6367 22.4648C44.6367 24.0664 44.0703 25.6289 42.9375 27.1523C41.8438 28.6367 39.9883 29.3789 37.3711 29.3789C34.5586 29.3789 32.2539 28.3047 30.457 26.1562C28.6602 23.9688 27.7617 21.5078 27.7617 18.7734Z" fill="#285955"/>
</svg>
