<svg xmlns="http://www.w3.org/2000/svg" width="284.762" height="176.249" viewBox="0 0 284.762 176.249">
  <g id="Group_1091" data-name="Group 1091" transform="translate(-44.253 -44.735)">
    <path id="Path_21345" data-name="Path 21345" d="M176.4,144.53a21.834,21.834,0,1,1-21.835,21.833A21.833,21.833,0,0,1,176.4,144.53" transform="translate(36.241 32.787)" fill="#e3c579" fill-rule="evenodd"/>
    <path id="Path_21346" data-name="Path 21346" d="M164.811,44.735a8.976,8.976,0,1,1-8.976,8.976,8.975,8.975,0,0,1,8.976-8.976" transform="translate(36.659)" fill="#e3c579" fill-rule="evenodd"/>
    <path id="Path_21347" data-name="Path 21347" d="M298.976,128.333h-2.787V113.962L281.013,88.134h3.406l11.707,19.944a28.991,28.991,0,0,0,1.549,2.911q.373-.8,1.548-2.848L310.93,88.134h3.222l-15.176,25.953Zm-36.112-37.66H249.237V88.134h30.042v2.539H265.652v37.66h-2.789Zm-24.9,37.66v-40.2h2.85v40.2Zm-49.244,0V87.886h1.363l26.387,30.35q1.425,1.612,2.632,3.191t1.27,1.641q-.124-1.487-.124-5.823V88.134h2.85v40.447h-1.363L194.853,97.734l-3.406-4.15q.124,1.24.124,5.823v28.926Zm-15.237-46.7-9.043,3.283-2.106-.619,10.777-5.947Zm-15.547,46.7v-40.2h18.768v2.476h-15.92V105.23h14.371v2.415H160.785v18.087h16.539v2.6Zm-26.511-18.52q2.415,0,5.2-3.222a11.1,11.1,0,0,0,2.787-7.494,7.689,7.689,0,0,0-2.911-6.5,12.085,12.085,0,0,0-7.557-2.231q-2.477,0-5.822.247V109.5Q127.587,109.813,131.426,109.813Zm-11.149,18.52V88.32q5.327-.434,9.043-.434a14.7,14.7,0,0,1,9.415,2.943,10.078,10.078,0,0,1,3.716,8.392,11.76,11.76,0,0,1-2.106,6.752,19.855,19.855,0,0,1-4.769,5.017c4.914,6.526,11.229,14.536,12.411,15.788,2.324,2.46,1.589,5.374,4.356,5.7l-.062.5c-2.312-.043-1.517-1.321-2.963-1.961a13.514,13.514,0,0,1-4.3-3.251c-1.424-1.528-7.209-8.917-12.041-15.608q-5.016,0-9.847-.31v16.477ZM105.04,81.63,96,84.913l-2.106-.619,10.778-5.947Zm-15.548,46.7v-40.2H108.26v2.476H92.342V105.23h14.369v2.415H92.342v18.087h16.538v2.6Z" transform="translate(14.863 11.043)" fill="#1e5d58"/>
    <path id="Path_21348" data-name="Path 21348" d="M133.487,114.132A74.894,74.894,0,0,0,144,124.262a48.113,48.113,0,0,0,25.5,9.524l-.086,1.481c-12.393-1.031-19.96-4.415-28.182-10.2a54.755,54.755,0,0,1-9.945-9.05Z" transform="translate(28.593 22.8)" fill="#1e5d58"/>
    <path id="Path_21349" data-name="Path 21349" d="M141.2,130.648a11.9,11.9,0,1,1-11.9,11.9,11.9,11.9,0,0,1,11.9-11.9" transform="translate(27.942 28.226)" fill="#abc9c1" fill-rule="evenodd"/>
    <path id="Path_21350" data-name="Path 21350" d="M181.337,57.56a12.6,12.6,0,1,1-12.6,12.6,12.6,12.6,0,0,1,12.6-12.6" transform="translate(40.897 4.214)" fill="#abc9c1" fill-rule="evenodd"/>
    <path id="Path_21351" data-name="Path 21351" d="M89.7,92.311a8.007,8.007,0,0,0-2.989-3.327,12.552,12.552,0,0,0-5.066-1.893c-3.85-.546-8.02,0-11.015,2.429a6.683,6.683,0,0,0-2.694,6.564c.569,3.38,4.92,5.051,10.068,6.8,4.227,1.434,8.584,2.911,11.384,5.573a11.782,11.782,0,0,1,3.214,4.993,9.5,9.5,0,0,1,.137,5.25,11.051,11.051,0,0,1-2.77,4.849,18.629,18.629,0,0,1-8.074,4.7c-5.555,1.734-13.09,1.807-19.993.671-7.011-1.153-13.8-4.035-17.647-6.821l.729-.966c6.923,5,23.955,8.075,35.795,4.813a16.285,16.285,0,0,0,7.214-4.275,8.339,8.339,0,0,0,2.107-3.642,6.82,6.82,0,0,0-.1-3.766,9.075,9.075,0,0,0-2.487-3.828c-2.362-2.245-6.431-3.626-10.381-4.966-5.932-2.011-10.98-3.95-11.884-8.912A9.151,9.151,0,0,1,68.9,87.531c3.529-2.863,8.544-3.79,13.113-3.143a15.368,15.368,0,0,1,6.2,2.321A10.716,10.716,0,0,1,92.188,91.2Z" transform="translate(0 12.963)" fill="#1e5d58"/>
    <path id="Path_21352" data-name="Path 21352" d="M202.986,93.549A50.588,50.588,0,0,0,196.506,72.9a51.977,51.977,0,0,0-21.239-20.131,48.443,48.443,0,0,0-26.36-5.528,33.737,33.737,0,0,0-13.717,4.2c-5.62,3.231-9.046,7.133-10.8,11.067a15.664,15.664,0,0,0-.1,13.066,11.866,11.866,0,0,0,4.8,5.274,9.865,9.865,0,0,0,4.085,1.309,8,8,0,0,0,4.065-.7,9.239,9.239,0,0,0,4.06-3.927l1.307.748a10.719,10.719,0,0,1-4.731,4.54,9.487,9.487,0,0,1-4.819.845,11.393,11.393,0,0,1-4.716-1.5,13.38,13.38,0,0,1-5.415-5.945,17.158,17.158,0,0,1,.093-14.314c1.877-4.2,5.5-8.351,11.427-11.756a35.232,35.232,0,0,1,14.33-4.395,49.953,49.953,0,0,1,27.185,5.687,53.5,53.5,0,0,1,21.852,20.72,52.125,52.125,0,0,1,6.675,21.263Z" transform="translate(25.348 0.271)" fill="#1e5d58"/>
    <path id="Path_21353" data-name="Path 21353" d="M134.251,173.612a29.544,29.544,0,0,1-17.081-6.1,21.944,21.944,0,0,1-7.161-9.919,18.162,18.162,0,0,1-.179-11.536,20.709,20.709,0,0,1,7.793-10.343,18.454,18.454,0,0,1,11.8-3.587,24.488,24.488,0,0,1,12.771,4.5c4.416,3.033,9.158,7.033,14.257,11.336,8,6.749,16.886,14.25,26.709,19.851a66.278,66.278,0,0,0,26.244,8.355,50.6,50.6,0,0,0,21.529-2.235c6.146-2.184,11.044-5.763,13.815-10.622a19.628,19.628,0,0,0,2.429-11.351c-.667-6.956-5.408-12-11.982-15.515-6.692-3.574-15.268-5.559-23.439-6.345A80.628,80.628,0,0,0,196.7,130l-.141-1.5a82.158,82.158,0,0,1,15.337.1c8.345.8,17.124,2.842,24.005,6.516,7,3.736,12.049,9.16,12.77,16.7a21.133,21.133,0,0,1-2.617,12.233c-2.959,5.191-8.143,9-14.622,11.3a52.067,52.067,0,0,1-22.169,2.312,67.8,67.8,0,0,1-26.846-8.544c-9.949-5.674-18.893-13.22-26.937-20.01-5.068-4.277-9.778-8.25-14.133-11.242a23,23,0,0,0-11.977-4.237,16.974,16.974,0,0,0-10.855,3.3,19.248,19.248,0,0,0-7.251,9.588,16.682,16.682,0,0,0,.173,10.588,20.45,20.45,0,0,0,6.673,9.236,28.047,28.047,0,0,0,16.221,5.769Z" transform="translate(21.264 27.42)" fill="#1e5d58"/>
  </g>
</svg>
