<svg xmlns="http://www.w3.org/2000/svg" width="292.79" height="181.219" viewBox="0 0 292.79 181.219">
  <g id="Group_39" data-name="Group 39" transform="translate(-273.275 -132.549)">
    <path id="Path_85" data-name="Path 85" d="M446.4,268.868a22.45,22.45,0,1,1-22.45,22.45,22.45,22.45,0,0,1,22.45-22.45" fill="#ead8a9" fill-rule="evenodd"/>
    <path id="Path_86" data-name="Path 86" d="M434.924,132.549a9.229,9.229,0,1,1-9.229,9.229,9.229,9.229,0,0,1,9.229-9.229" fill="#ead8a9" fill-rule="evenodd"/>
    <path id="Path_87" data-name="Path 87" d="M550.461,229.859h-2.866V215.083l-15.6-26.558h3.5l12.037,20.508a29.922,29.922,0,0,0,1.592,2.993q.383-.828,1.592-2.929l12.037-20.572h3.312l-15.6,26.686Zm-37.13-38.722H499.32v-2.612h30.889v2.612H516.2v38.722h-2.866Zm-25.6,38.722V188.525h2.93v41.334Zm-50.631,0V188.271h1.4l27.13,31.207q1.465,1.656,2.707,3.28t1.306,1.688q-.127-1.53-.127-5.987V188.525h2.929v41.588h-1.4L443.4,198.4l-3.5-4.267q.127,1.273.127,5.987v29.742Zm-15.667-48.02-9.3,3.375-2.165-.637,11.081-6.114Zm-15.986,48.02V188.525h19.3v2.548H408.375V206.1H423.15v2.484H408.375v18.6h17v2.675Zm-27.258-19.043q2.484,0,5.35-3.311A11.415,11.415,0,0,0,386.4,199.8a7.909,7.909,0,0,0-2.994-6.688,12.426,12.426,0,0,0-7.769-2.293q-2.549,0-5.987.255V210.5Q374.238,210.816,378.187,210.816Zm-11.463,19.043V188.717q5.477-.447,9.3-.446a15.111,15.111,0,0,1,9.68,3.025q3.822,3.025,3.821,8.63a12.091,12.091,0,0,1-2.165,6.942,20.422,20.422,0,0,1-4.9,5.158c5.053,6.709,11.546,14.945,12.762,16.233,2.389,2.53,1.634,5.526,4.479,5.865l-.064.517c-2.378-.042-1.56-1.356-3.046-2.014a13.9,13.9,0,0,1-4.426-3.344c-1.465-1.571-7.412-9.169-12.38-16.047q-5.158,0-10.126-.318v16.941Zm-15.668-48.02-9.3,3.375-2.166-.637,11.082-6.114Zm-15.985,48.02V188.525h19.3v2.548H338V206.1h14.776v2.484H338v18.6h17.005v2.675Z" fill="#1e5d58"/>
    <path id="Path_88" data-name="Path 88" d="M394.423,227.345a76.97,76.97,0,0,0,10.807,10.416,49.466,49.466,0,0,0,26.22,9.793l-.089,1.522c-12.742-1.059-20.523-4.539-28.976-10.487a56.258,56.258,0,0,1-10.226-9.306Z" fill="#1e5d58"/>
    <path id="Path_89" data-name="Path 89" d="M401.688,249.906a12.236,12.236,0,1,1-12.237,12.237,12.237,12.237,0,0,1,12.237-12.237" fill="#abc9c1" fill-rule="evenodd"/>
    <path id="Path_90" data-name="Path 90" d="M456.273,150.068a12.959,12.959,0,1,1-12.959,12.958,12.958,12.958,0,0,1,12.959-12.958" fill="#abc9c1" fill-rule="evenodd"/>
    <path id="Path_91" data-name="Path 91" d="M320,194.795a8.242,8.242,0,0,0-3.074-3.42,12.907,12.907,0,0,0-5.21-1.948c-3.958-.561-8.246,0-11.324,2.5a6.871,6.871,0,0,0-2.771,6.75c.584,3.474,5.059,5.193,10.351,6.988,4.348,1.475,8.827,3,11.7,5.732a12.086,12.086,0,0,1,3.305,5.132,9.772,9.772,0,0,1,.141,5.4,11.358,11.358,0,0,1-2.848,4.985,19.165,19.165,0,0,1-8.3,4.831c-5.712,1.782-13.459,1.857-20.557.689-7.209-1.186-14.193-4.148-18.144-7.013l.748-.994c7.119,5.137,24.631,8.3,36.8,4.95a16.746,16.746,0,0,0,7.417-4.4,8.584,8.584,0,0,0,2.168-3.744,7.023,7.023,0,0,0-.109-3.873,9.319,9.319,0,0,0-2.558-3.935c-2.428-2.309-6.612-3.728-10.673-5.106-6.1-2.069-11.29-4.061-12.218-9.163a9.407,9.407,0,0,1,3.765-9.278c3.629-2.943,8.785-3.9,13.482-3.232a15.782,15.782,0,0,1,6.374,2.387,11.013,11.013,0,0,1,4.085,4.617Z" fill="#1e5d58"/>
    <path id="Path_92" data-name="Path 92" d="M462.546,183.019a52.051,52.051,0,0,0-6.663-21.234,53.452,53.452,0,0,0-21.839-20.7,49.817,49.817,0,0,0-27.1-5.684,34.676,34.676,0,0,0-14.1,4.319c-5.778,3.321-9.3,7.333-11.108,11.379a16.1,16.1,0,0,0-.106,13.434,12.2,12.2,0,0,0,4.938,5.423,10.142,10.142,0,0,0,4.2,1.345,8.23,8.23,0,0,0,4.18-.723,9.511,9.511,0,0,0,4.175-4.038l1.344.769a11.032,11.032,0,0,1-4.865,4.667,9.749,9.749,0,0,1-4.955.869,11.709,11.709,0,0,1-4.848-1.545,13.76,13.76,0,0,1-5.568-6.113,17.644,17.644,0,0,1,.1-14.718c1.93-4.321,5.659-8.586,11.749-12.087a36.212,36.212,0,0,1,14.734-4.518,51.356,51.356,0,0,1,27.951,5.847,54.991,54.991,0,0,1,22.468,21.3,53.593,53.593,0,0,1,6.863,21.862Z" fill="#1e5d58"/>
    <path id="Path_93" data-name="Path 93" d="M387.675,293.253a30.374,30.374,0,0,1-17.564-6.27,22.554,22.554,0,0,1-7.362-10.2,18.675,18.675,0,0,1-.184-11.862,21.292,21.292,0,0,1,8.012-10.634,18.973,18.973,0,0,1,12.13-3.688,25.188,25.188,0,0,1,13.132,4.623c4.54,3.118,9.415,7.231,14.658,11.656,8.222,6.939,17.361,14.652,27.462,20.411a68.138,68.138,0,0,0,26.984,8.591,52.031,52.031,0,0,0,22.136-2.3c6.319-2.247,11.356-5.926,14.2-10.921a20.2,20.2,0,0,0,2.5-11.672c-.686-7.151-5.56-12.342-12.32-15.952-6.88-3.673-15.7-5.714-24.1-6.524a82.893,82.893,0,0,0-15.48-.1l-.145-1.538a84.454,84.454,0,0,1,15.77.1c8.58.826,17.606,2.921,24.681,6.7,7.195,3.842,12.389,9.419,13.131,17.169a21.729,21.729,0,0,1-2.69,12.579c-3.043,5.337-8.373,9.25-15.035,11.618a53.561,53.561,0,0,1-22.8,2.376,69.7,69.7,0,0,1-27.6-8.784c-10.231-5.834-19.426-13.594-27.7-20.575-5.21-4.4-10.053-8.483-14.531-11.559a23.644,23.644,0,0,0-12.315-4.356,17.452,17.452,0,0,0-11.16,3.391,19.784,19.784,0,0,0-7.456,9.86,17.147,17.147,0,0,0,.177,10.886,21.028,21.028,0,0,0,6.86,9.5,28.853,28.853,0,0,0,16.68,5.931Z" fill="#1e5d58"/>
  </g>
</svg>
