<svg xmlns="http://www.w3.org/2000/svg" width="62.526" height="54" viewBox="0 0 62.526 54">
  <g id="Group_1086" data-name="Group 1086" transform="translate(-531 -292)">
    <g id="movie" transform="translate(531 292)">
      <path id="Path_21330" data-name="Path 21330" d="M587.842,346H536.684A5.69,5.69,0,0,1,531,340.316V297.684A5.69,5.69,0,0,1,536.684,292h51.158a5.69,5.69,0,0,1,5.684,5.684v42.632A5.69,5.69,0,0,1,587.842,346Zm-51.158-51.158a2.845,2.845,0,0,0-2.842,2.842v42.632a2.845,2.845,0,0,0,2.842,2.842h51.158a2.845,2.845,0,0,0,2.842-2.842V297.684a2.845,2.845,0,0,0-2.842-2.842Z" transform="translate(-531 -292)" fill="#1e5d58"/>
      <path id="Path_21331" data-name="Path 21331" d="M592.105,300.842H532.421a1.421,1.421,0,0,1,0-2.842h59.684a1.421,1.421,0,0,1,0,2.842Z" transform="translate(-531 -289.474)" fill="#1e5d58"/>
      <path id="Path_21332" data-name="Path 21332" d="M592.105,324.842H532.421a1.421,1.421,0,0,1,0-2.842h59.684a1.421,1.421,0,0,1,0,2.842Z" transform="translate(-531 -279.368)" fill="#1e5d58"/>
      <path id="Path_21333" data-name="Path 21333" d="M550.421,323.9A1.419,1.419,0,0,1,549,322.474V305.421a1.421,1.421,0,0,1,2.274-1.137l11.368,8.526a1.421,1.421,0,0,1,0,2.274l-11.368,8.526A1.426,1.426,0,0,1,550.421,323.9Zm1.421-15.632v11.368l7.578-5.684Z" transform="translate(-523.421 -286.948)" fill="#1e5d58"/>
      <path id="Path_21334" data-name="Path 21334" d="M540.421,303.368A1.422,1.422,0,0,1,539,301.947v-8.526a1.421,1.421,0,1,1,2.842,0v8.526A1.422,1.422,0,0,1,540.421,303.368Z" transform="translate(-527.632 -292)" fill="#1e5d58"/>
      <path id="Path_21335" data-name="Path 21335" d="M540.421,333.368A1.422,1.422,0,0,1,539,331.947v-8.526a1.421,1.421,0,1,1,2.842,0v8.526A1.422,1.422,0,0,1,540.421,333.368Z" transform="translate(-527.632 -279.368)" fill="#1e5d58"/>
      <path id="Path_21336" data-name="Path 21336" d="M548.421,303.368A1.422,1.422,0,0,1,547,301.947v-8.526a1.421,1.421,0,1,1,2.842,0v8.526A1.422,1.422,0,0,1,548.421,303.368Z" transform="translate(-524.263 -292)" fill="#1e5d58"/>
      <path id="Path_21337" data-name="Path 21337" d="M548.421,333.368A1.422,1.422,0,0,1,547,331.947v-8.526a1.421,1.421,0,1,1,2.842,0v8.526A1.422,1.422,0,0,1,548.421,333.368Z" transform="translate(-524.263 -279.368)" fill="#1e5d58"/>
      <path id="Path_21338" data-name="Path 21338" d="M557.421,303.368A1.422,1.422,0,0,1,556,301.947v-8.526a1.421,1.421,0,1,1,2.842,0v8.526A1.422,1.422,0,0,1,557.421,303.368Z" transform="translate(-520.474 -292)" fill="#1e5d58"/>
      <path id="Path_21339" data-name="Path 21339" d="M557.421,333.368A1.422,1.422,0,0,1,556,331.947v-8.526a1.421,1.421,0,1,1,2.842,0v8.526A1.422,1.422,0,0,1,557.421,333.368Z" transform="translate(-520.474 -279.368)" fill="#1e5d58"/>
      <path id="Path_21340" data-name="Path 21340" d="M565.421,303.368A1.422,1.422,0,0,1,564,301.947v-8.526a1.421,1.421,0,1,1,2.842,0v8.526A1.422,1.422,0,0,1,565.421,303.368Z" transform="translate(-517.105 -292)" fill="#1e5d58"/>
      <path id="Path_21341" data-name="Path 21341" d="M565.421,333.368A1.422,1.422,0,0,1,564,331.947v-8.526a1.421,1.421,0,1,1,2.842,0v8.526A1.422,1.422,0,0,1,565.421,333.368Z" transform="translate(-517.105 -279.368)" fill="#1e5d58"/>
    </g>
  </g>
</svg>
