<svg width="166" height="32" viewBox="0 0 166 32" fill="none" xmlns="http://www.w3.org/2000/svg">
<path fill-rule="evenodd" clip-rule="evenodd" d="M29.6516 27.0737C29.3578 27.8193 28.6799 28.8691 27.7186 29.6085C27.1636 30.0356 26.501 30.4438 25.5908 30.7132C24.6206 31.0005 23.4256 31.0976 21.9382 31.0976H8.33845C6.8512 31.0976 5.65616 31.0005 4.68583 30.7132C3.77568 30.4438 3.11319 30.0356 2.55806 29.6085C1.59687 28.8689 0.918878 27.8193 0.625103 27.0737C0.0333486 25.5716 0.0273438 23.8672 0.0273438 22.7938V9.20574C0.0273438 8.13234 0.0333486 6.42798 0.625103 4.92582C0.918878 4.18026 1.59675 3.1305 2.55806 2.39106C3.11307 1.96398 3.77568 1.55574 4.68583 1.28634C5.65604 0.999057 6.85108 0.901978 8.33845 0.901978H21.9384C23.4256 0.901978 24.6206 0.999057 25.591 1.28634C26.5011 1.55574 27.1636 1.9641 27.7187 2.39106C28.6799 3.13062 29.3579 4.18026 29.6517 4.92582C30.2434 6.42798 30.2495 8.13234 30.2495 9.20574V22.7938C30.2493 23.8671 30.2433 25.5715 29.6516 27.0737Z" fill="url(#paint0_linear)"/>
<path d="M17.3303 18.2578C16.8767 17.7797 16.0802 17.4733 15.1399 17.4733C14.1995 17.4733 13.403 17.7797 12.9495 18.2578C12.7128 18.5073 12.5877 18.763 12.5483 19.1273C12.4719 19.8328 12.5148 20.4403 12.5975 21.4114C12.6763 22.3369 12.826 23.5709 13.0213 24.8278C13.1602 25.7223 13.2731 26.2051 13.3759 26.5508C13.5426 27.1111 14.1656 27.601 15.1399 27.601C16.1141 27.601 16.7371 27.1109 16.9038 26.5508C17.0066 26.2051 17.1195 25.7223 17.2584 24.8278C17.4537 23.5709 17.6034 22.3369 17.6822 21.4114C17.7649 20.4401 17.8078 19.8327 17.7314 19.1273C17.692 18.7631 17.5669 18.5073 17.3303 18.2578ZM12.6689 14.0011C12.6689 15.3658 13.7763 16.4722 15.1422 16.4722C16.5083 16.4722 17.6156 15.3658 17.6156 14.0011C17.6156 12.6362 16.5083 11.5298 15.1422 11.5298C13.7763 11.5298 12.6689 12.6362 12.6689 14.0011ZM15.1116 4.24866C9.32698 4.2651 4.58706 8.95386 4.51548 14.7331C4.45735 19.4146 7.44843 23.4193 11.6251 24.8871C11.7264 24.9227 11.8294 24.8386 11.8134 24.7324C11.7586 24.3689 11.707 24.0037 11.6595 23.6445C11.6427 23.5175 11.5618 23.4081 11.4444 23.3569C8.14323 21.9159 5.83807 18.608 5.87506 14.7763C5.92359 9.74778 10.0333 5.64834 15.0662 5.60766C20.2113 5.56614 24.4103 9.7359 24.4103 14.8671C24.4103 18.6604 22.1152 21.9278 18.8397 23.3572C18.7224 23.4085 18.6419 23.5183 18.6252 23.6451C18.5778 24.0041 18.5261 24.3693 18.4715 24.7324C18.4554 24.8386 18.5583 24.9227 18.6597 24.8872C22.7965 23.4334 25.7701 19.4911 25.7701 14.8672C25.7699 9.00174 20.9858 4.23186 15.1116 4.24866ZM14.9195 9.12006C18.1987 8.99322 20.9069 11.6217 20.9069 14.8703C20.9069 16.5225 20.2063 18.0141 19.0865 19.0646C18.9915 19.1536 18.9405 19.2801 18.9478 19.4101C18.9702 19.8052 18.962 20.1892 18.9357 20.6229C18.9286 20.7385 19.0583 20.8123 19.154 20.7471C21.0318 19.465 22.2668 17.3092 22.2668 14.8703C22.2668 10.8547 18.919 7.60542 14.8656 7.76238C11.0986 7.9083 8.07646 11.0114 8.02817 14.7777C7.99647 17.2547 9.23907 19.4492 11.1409 20.7473C11.2364 20.8125 11.3658 20.7386 11.3587 20.6231C11.3322 20.1892 11.3242 19.8052 11.3464 19.4101C11.3537 19.2802 11.3028 19.1537 11.2081 19.0648C10.0534 17.9817 9.34428 16.4295 9.38944 14.7159C9.46895 11.7003 11.9024 9.23682 14.9195 9.12006Z" fill="white"/>
<path d="M54.6031 17.9645H49.8612L48.7224 21.324H46.7139L51.2054 8.89345H53.2921L57.7837 21.324H55.7409L54.6031 17.9645ZM50.3522 16.4141H54.111L52.2581 10.9608H52.2062L50.3522 16.4141Z" fill="white"/>
<path d="M67.4832 16.7934C67.4832 19.6095 65.9746 21.4188 63.698 21.4188C62.4057 21.4188 61.3794 20.8412 60.8443 19.8333H60.8012V24.3219H58.9395V12.2618H60.7415V13.7691H60.7758C61.2933 12.7965 62.3969 12.167 63.6638 12.167C65.9657 12.167 67.4832 13.9851 67.4832 16.7934ZM65.5695 16.7934C65.5695 14.9587 64.6205 13.7524 63.1726 13.7524C61.7501 13.7524 60.7933 14.9841 60.7933 16.7934C60.7933 18.6193 61.7501 19.8421 63.1726 19.8421C64.6206 19.8421 65.5695 18.6448 65.5695 16.7934Z" fill="white"/>
<path d="M77.4666 16.7934C77.4666 19.6095 75.958 21.4188 73.6814 21.4188C72.3891 21.4188 71.3629 20.8412 70.8277 19.8333H70.7846V24.3219H68.9229V12.2618H70.7249V13.7691H70.7592C71.2767 12.7965 72.3803 12.167 73.6472 12.167C75.9492 12.167 77.4666 13.9851 77.4666 16.7934ZM75.553 16.7934C75.553 14.9587 74.604 13.7524 73.1561 13.7524C71.7336 13.7524 70.7768 14.9841 70.7768 16.7934C70.7768 18.6193 71.7336 19.8421 73.1561 19.8421C74.604 19.8421 75.553 18.6448 75.553 16.7934Z" fill="white"/>
<path d="M78.9736 8.89346H80.8364V21.324H78.9736V8.89346Z" fill="white"/>
<path d="M90.5304 18.6623C90.28 20.3075 88.6765 21.4364 86.625 21.4364C83.9864 21.4364 82.3486 19.6702 82.3486 16.8364C82.3486 13.9939 83.9952 12.1504 86.5466 12.1504C89.0561 12.1504 90.6341 13.8727 90.6341 16.6204V17.2577H84.228V17.3701C84.228 18.9204 85.2025 19.937 86.6679 19.937C87.702 19.937 88.5131 19.4464 88.7625 18.6624H90.5304V18.6623ZM84.2367 15.9577H88.7713C88.7283 14.5707 87.84 13.6576 86.5466 13.6576C85.2621 13.6576 84.3317 14.5882 84.2367 15.9577Z" fill="white"/>
<path d="M100.551 8.89346C102.965 8.89346 104.647 10.5561 104.647 12.9774C104.647 15.4065 102.931 17.0769 100.491 17.0769H97.8179V21.3241H95.8867V8.89346H100.551ZM97.8179 15.4582H100.034C101.715 15.4582 102.671 14.5531 102.671 12.9862C102.671 11.4183 101.715 10.5215 100.043 10.5215H97.8179V15.4582Z" fill="white"/>
<path d="M105.326 16.7934C105.326 13.9421 107.007 12.1503 109.628 12.1503C112.258 12.1503 113.931 13.942 113.931 16.7934C113.931 19.6524 112.266 21.4364 109.628 21.4364C106.99 21.4364 105.326 19.6525 105.326 16.7934ZM112.034 16.7934C112.034 14.8374 111.136 13.6831 109.628 13.6831C108.119 13.6831 107.222 14.8462 107.222 16.7934C107.222 18.7571 108.119 19.9027 109.628 19.9027C111.136 19.9027 112.034 18.7572 112.034 16.7934Z" fill="white"/>
<path d="M115.237 16.7934C115.237 13.9938 116.78 12.1669 119.03 12.1669C120.332 12.1669 121.359 12.77 121.875 13.769H121.91V8.89336H123.781V21.3239H121.97V19.7825H121.936C121.402 20.8156 120.367 21.4188 119.048 21.4188C116.78 21.4188 115.237 19.5929 115.237 16.7934ZM117.142 16.7934C117.142 18.6535 118.091 19.8421 119.539 19.8421C120.97 19.8421 121.927 18.6359 121.927 16.7934C121.927 14.9665 120.97 13.7524 119.539 13.7524C118.091 13.7525 117.142 14.9498 117.142 16.7934Z" fill="white"/>
<path d="M131.704 15.3799C131.541 14.424 130.79 13.7095 129.566 13.7095C128.135 13.7095 127.186 14.9069 127.186 16.7935C127.186 18.723 128.144 19.8853 129.583 19.8853C130.738 19.8853 131.498 19.3085 131.704 18.2577H133.497C133.291 20.1609 131.765 21.4365 129.566 21.4365C126.98 21.4365 125.29 19.6703 125.29 16.7935C125.29 13.9763 126.98 12.1504 129.549 12.1504C131.876 12.1504 133.325 13.6147 133.481 15.38H131.704V15.3799Z" fill="white"/>
<path d="M134.637 18.7484C134.637 17.1639 135.852 16.2069 138.007 16.0779L140.49 15.9401V15.2509C140.49 14.2432 139.827 13.6742 138.698 13.6742C137.663 13.6742 136.939 14.1659 136.792 14.9498H135.051C135.102 13.3126 136.628 12.1503 138.749 12.1503C140.913 12.1503 142.344 13.3301 142.344 15.1131V21.324H140.56V19.8333H140.517C139.99 20.8411 138.844 21.4794 137.654 21.4794C135.878 21.4795 134.637 20.3768 134.637 18.7484ZM140.49 17.9302V17.2323L138.258 17.3701C137.145 17.4395 136.516 17.9214 136.516 18.6966C136.516 19.4893 137.172 20.0064 138.172 20.0064C139.474 20.0064 140.49 19.11 140.49 17.9302Z" fill="white"/>
<path d="M147.542 12.1592C149.551 12.1592 150.991 13.2697 151.034 14.8718H149.283C149.206 14.0712 148.525 13.5805 147.49 13.5805C146.482 13.5805 145.809 14.0449 145.809 14.7515C145.809 15.2941 146.258 15.6557 147.198 15.8883L148.724 16.2421C150.551 16.6811 151.241 17.3526 151.241 18.6799C151.241 20.3163 149.689 21.4364 147.474 21.4364C145.335 21.4364 143.896 20.3416 143.758 18.6877H145.602C145.732 19.5577 146.43 20.023 147.56 20.023C148.672 20.023 149.37 19.5665 149.37 18.8432C149.37 18.2831 149.025 17.982 148.077 17.7405L146.456 17.3447C144.817 16.9478 143.99 16.1121 143.99 14.855C143.99 13.2529 145.43 12.1592 147.542 12.1592Z" fill="white"/>
<path d="M155.286 10.1167V12.2618H157.011V13.7349H155.286V18.7308C155.286 19.5069 155.631 19.8685 156.39 19.8685C156.579 19.8685 156.882 19.8421 157.002 19.8255V21.2898C156.796 21.3416 156.382 21.3758 155.968 21.3758C154.132 21.3758 153.415 20.6866 153.415 18.9292V13.7348H152.097V12.2618H153.415V10.1167H155.286Z" fill="white"/>
<path d="M162.016 12.1592C164.025 12.1592 165.464 13.2697 165.507 14.8718H163.757C163.68 14.0712 162.999 13.5805 161.964 13.5805C160.955 13.5805 160.283 14.0449 160.283 14.7515C160.283 15.2941 160.731 15.6557 161.671 15.8883L163.197 16.2421C165.025 16.6811 165.715 17.3526 165.715 18.6799C165.715 20.3163 164.163 21.4364 161.947 21.4364C159.808 21.4364 158.369 20.3416 158.231 18.6877H160.076C160.206 19.5577 160.903 20.023 162.033 20.023C163.146 20.023 163.844 19.5665 163.844 18.8432C163.844 18.2831 163.499 17.982 162.551 17.7405L160.93 17.3447C159.291 16.9478 158.463 16.1121 158.463 14.855C158.463 13.2529 159.903 12.1592 162.016 12.1592Z" fill="white"/>
<defs>
<linearGradient id="paint0_linear" x1="15.1384" y1="0.901978" x2="15.1384" y2="31.0976" gradientUnits="userSpaceOnUse">
<stop stop-color="#F452FF"/>
<stop offset="1" stop-color="#832BC1"/>
</linearGradient>
</defs>
</svg>
