<svg width="32" height="32" viewBox="0 0 32 32" fill="none" xmlns="http://www.w3.org/2000/svg">
<path d="M14.2179 23.5522C13.9601 23.9167 13.7161 24.0963 13.4827 24.0963C13.3272 24.0963 13.2386 24.0052 13.2105 23.8244C13.1994 23.787 13.1994 23.6452 13.1994 23.3726V18.6465H12.0371V23.7222C12.0371 24.1759 12.0756 24.4819 12.1397 24.6763C12.2556 25.0015 12.5142 25.1537 12.889 25.1537C13.3164 25.1537 13.7557 24.8956 14.2176 24.3652V25.0656H15.3817V18.6469H14.2179V23.5522Z" fill="white"/>
<path d="M7.81348 17.6638H9.18167V25.0659H10.4751V17.6638H11.8684V16.4512H7.81348V17.6638Z" fill="white"/>
<path d="M15.734 12.0514C16.1129 12.0514 16.2944 11.7514 16.2944 11.151V8.42199C16.2944 7.82234 16.1129 7.52344 15.734 7.52344C15.3547 7.52344 15.1729 7.82234 15.1729 8.42199V11.151C15.1732 11.751 15.3547 12.0514 15.734 12.0514Z" fill="white"/>
<path d="M18.7542 18.5687C18.3268 18.5687 17.9282 18.8027 17.553 19.265V16.4512H16.3896V25.0659H17.553V24.4429C17.9412 24.9241 18.3408 25.1541 18.7542 25.1541C19.2175 25.1541 19.5286 24.9104 19.6842 24.4329C19.7616 24.1607 19.8013 23.7333 19.8013 23.1396V20.5835C19.8013 19.9761 19.7616 19.5517 19.6842 19.2935C19.5283 18.8124 19.2175 18.5687 18.7542 18.5687ZM18.6382 23.2307C18.6382 23.8103 18.4675 24.0963 18.1323 24.0963C17.9412 24.0963 17.7471 24.0051 17.5527 23.8107V19.898C17.7471 19.7065 17.9408 19.6154 18.1323 19.6154C18.4679 19.6154 18.6382 19.9124 18.6382 20.4913V23.2307Z" fill="white"/>
<path d="M22.4574 18.5684C21.864 18.5684 21.4003 18.7873 21.0647 19.2269C20.8173 19.551 20.7051 20.0525 20.7051 20.7381V22.987C20.7051 23.6685 20.8318 24.1756 21.0788 24.496C21.4147 24.9341 21.8777 25.1534 22.4866 25.1534C23.0941 25.1534 23.5707 24.9234 23.893 24.4582C24.035 24.2492 24.1279 24.0108 24.1645 23.7608C24.1748 23.6441 24.1893 23.3856 24.1893 23.0115V22.8411H23.0022C23.0022 23.3078 22.9878 23.5659 22.977 23.6293C22.9107 23.94 22.7433 24.0956 22.4574 24.0956C22.0581 24.0956 21.864 23.7993 21.864 23.2052V22.0674H24.1896V20.7377C24.1896 20.0517 24.073 19.5506 23.8296 19.2265C23.5041 18.7869 23.0411 18.5684 22.4574 18.5684ZM23.0266 21.0996H21.864V20.5058C21.864 19.9125 22.0581 19.6154 22.447 19.6154C22.8318 19.6154 23.0266 19.9125 23.0266 20.5058V21.0996Z" fill="white"/>
<path d="M26.7409 2.66602H5.2587C3.83272 2.66602 2.66602 3.83272 2.66602 5.2587V26.7409C2.66602 28.1669 3.83272 29.3336 5.2587 29.3336H26.7409C28.1669 29.3336 29.3336 28.1669 29.3336 26.7409V5.2587C29.3336 3.83272 28.1669 2.66602 26.7409 2.66602ZM18.4369 6.54393H19.6085V11.3189C19.6085 11.5952 19.6085 11.7386 19.6229 11.7763C19.6488 11.9586 19.7407 12.0515 19.8985 12.0515C20.1333 12.0515 20.3803 11.8693 20.6407 11.5011V6.54393H21.8163V13.0293H20.6407V12.3219C20.1729 12.8586 19.7266 13.1193 19.2981 13.1193C18.9195 13.1193 18.6584 12.9656 18.541 12.6367C18.4762 12.4408 18.4369 12.1301 18.4369 11.6723V6.54393ZM13.9972 8.65808C13.9972 7.96509 14.1153 7.45804 14.3653 7.13025C14.6905 6.68727 15.1483 6.46541 15.7335 6.46541C16.3224 6.46541 16.7795 6.68727 17.105 7.13025C17.351 7.45804 17.4699 7.96509 17.4699 8.65808V10.9304C17.4699 11.6193 17.3513 12.1304 17.105 12.456C16.7795 12.8979 16.3228 13.1197 15.7335 13.1197C15.1479 13.1197 14.6901 12.8979 14.3653 12.456C14.1153 12.1304 13.9972 11.6193 13.9972 10.9304V8.65808ZM10.8541 4.32607L11.7797 7.7436L12.6682 4.32607H13.986L12.4186 9.50477V13.0293H11.1148V9.50477C10.997 8.87957 10.7363 7.96472 10.3185 6.75097C10.0437 5.94354 9.75738 5.1324 9.48292 4.32607H10.8541ZM25.2864 25.4513C25.0516 26.4746 24.2138 27.2295 23.2064 27.3417C20.8196 27.6084 18.4043 27.6099 15.9998 27.6084C13.5949 27.6099 11.1796 27.6084 8.79327 27.3417C7.78545 27.2291 6.94913 26.4743 6.71394 25.4513C6.37874 23.9934 6.37874 22.4023 6.37874 20.9022C6.37874 19.4007 6.38244 17.8106 6.71801 16.3524C6.95283 15.3294 7.78953 14.575 8.79734 14.4624C11.1837 14.1949 13.599 14.1942 16.0039 14.1949C18.4084 14.1942 20.8237 14.1949 23.2104 14.4624C24.2175 14.575 25.055 15.3294 25.2901 16.3524C25.6253 17.811 25.6235 19.4007 25.6235 20.9022C25.6239 22.4023 25.622 23.9934 25.2864 25.4513Z" fill="white"/>
</svg>
