<svg width="48" height="48" viewBox="0 0 48 48" fill="none" xmlns="http://www.w3.org/2000/svg">
<path d="M33.615 42.881L33.5807 42.8753C33.0701 42.7898 32.5867 43.1346 32.5013 43.6453C32.4925 43.6977 32.4883 43.7497 32.4883 43.8011C32.4883 44.2509 32.8129 44.648 33.2713 44.7246L33.3056 44.7304C33.3579 44.7391 33.41 44.7434 33.4614 44.7434C33.9111 44.7434 34.3083 44.4186 34.3849 43.9603C34.3938 43.908 34.398 43.8559 34.398 43.8045C34.398 43.3549 34.0732 42.9577 33.615 42.881Z" fill="url(#paint0_linear)"/>
<path d="M15.4982 43.6453C15.4128 43.1347 14.9295 42.7897 14.4189 42.8753L14.3846 42.8811C13.9262 42.9577 13.6016 43.3548 13.6016 43.8045C13.6016 43.856 13.6058 43.9079 13.6146 43.9603C13.6912 44.4188 14.0882 44.7434 14.538 44.7434C14.5894 44.7434 14.6415 44.7391 14.6939 44.7304L14.7283 44.7247C15.1866 44.648 15.5113 44.2509 15.5113 43.8011C15.5113 43.7497 15.5069 43.6977 15.4982 43.6453Z" fill="url(#paint1_linear)"/>
<path d="M40.4949 31.0762C41.0559 31.0762 41.6122 30.9776 42.1616 30.7801C45.9382 29.4229 47.8715 23.731 47.952 23.4894C48.0426 23.2169 48.0035 22.918 47.8458 22.6782C47.6881 22.4382 47.4292 22.2839 47.1432 22.2592C44.2335 22.0082 41.8596 22.4818 40.0734 23.6684C40.2167 22.7172 40.2989 21.8031 40.3377 20.9455C40.3528 20.9456 40.3678 20.9456 40.3829 20.9456C41.6837 20.9456 42.8019 20.5228 43.7154 19.6836C46.4307 17.189 46.1865 11.8337 46.1747 11.6069C46.1595 11.3114 46.0055 11.0405 45.7595 10.8759C45.5135 10.7116 45.2042 10.673 44.9254 10.7717C42.3256 11.6929 40.7666 12.9819 39.8366 14.2584C39.7116 13.6162 39.5872 13.0996 39.492 12.7373C40.2373 11.6513 40.5011 10.4963 40.2762 9.29447C39.6378 5.88252 35.1131 3.46611 34.9208 3.36486C34.6658 3.23061 34.3633 3.22124 34.1005 3.33917C33.8376 3.45711 33.6435 3.68924 33.5742 3.96889C32.8877 6.73649 33.1076 9.04275 34.2278 10.8233C35.3371 12.5869 37.0152 13.2926 37.7588 13.5301C37.9953 14.4985 38.3535 16.2711 38.4603 18.4656C36.4048 16.0539 33.2375 14.6405 33.1977 14.6287C32.9439 14.553 32.6699 14.5884 32.4433 14.7257C32.2169 14.8632 32.0591 15.0902 32.0093 15.3504C31.3661 18.7011 31.7687 21.4349 33.2059 23.4762C34.6409 25.5141 36.6885 26.2273 37.5388 26.4454C37.4745 26.6598 36.3462 29.5858 35.7469 30.6254C34.9779 26.8499 30.9958 23.5408 30.8079 23.3866C30.584 23.2028 30.2876 23.133 30.0051 23.1972C29.7226 23.2615 29.4857 23.4527 29.3633 23.7152C27.8757 26.9065 27.588 29.7551 28.5082 32.1818C29.2042 34.0174 30.444 35.1886 31.3597 35.8472C30.0998 36.9201 28.6767 37.8887 27.0931 38.7514C27.3746 38.1152 27.5625 37.4097 27.5625 36.6596C27.5625 33.729 24.6955 31.4784 24.5735 31.3841C24.2357 31.123 23.7642 31.123 23.4265 31.3841C23.3045 31.4784 20.4375 33.729 20.4375 36.6595C20.4375 37.4096 20.6254 38.1151 20.9069 38.7513C19.3233 37.8887 17.9002 36.92 16.6402 35.8471C17.5559 35.1885 18.7957 34.0173 19.4917 32.1816C20.4119 29.7548 20.1242 26.9063 18.6367 23.715C18.5142 23.4524 18.2773 23.2612 17.9948 23.197C17.7124 23.1328 17.416 23.2027 17.1921 23.3864C17.0041 23.5407 13.022 26.8498 12.253 30.6252C11.6537 29.5855 10.5254 26.6596 10.4611 26.4452C11.3114 26.2272 13.359 25.5139 14.794 23.476C16.2312 21.4348 16.6338 18.7009 15.9906 15.3502C15.9407 15.09 15.783 14.863 15.5566 14.7255C15.3302 14.5882 15.056 14.5528 14.8022 14.6285C14.7625 14.6403 11.5952 16.0536 9.53961 18.4654C9.64648 16.2707 10.0046 14.4983 10.2412 13.5299C10.9849 13.2924 12.6629 12.5867 13.7722 10.8232C14.8924 9.04256 15.1123 6.73631 14.4259 3.96871C14.3565 3.68914 14.1624 3.45692 13.8996 3.33899C13.6368 3.22105 13.3342 3.23052 13.0793 3.36467C12.887 3.46592 8.36229 5.88243 7.72395 9.29428C7.49904 10.4961 7.76276 11.6513 8.50807 12.7371C8.41292 13.0994 8.28851 13.616 8.16354 14.2583C7.23354 12.9818 5.67447 11.6928 3.07469 10.7715C2.79588 10.6726 2.4865 10.7113 2.24059 10.8758C1.99459 11.0403 1.84065 11.3112 1.82537 11.6067C1.81365 11.8335 1.56944 17.1888 4.28472 19.6834C5.19832 20.5227 6.31619 20.9455 7.61726 20.9455C7.63226 20.9455 7.64735 20.9454 7.66235 20.9453C7.70117 21.8029 7.78329 22.7169 7.92663 23.6682C6.14041 22.4817 3.76685 22.0078 0.85684 22.2591C0.570808 22.2838 0.31187 22.4382 0.154182 22.6781C-0.00359906 22.918 -0.0426929 23.2168 0.0480573 23.4893C0.128495 23.7309 2.06181 29.4228 5.83844 30.78C6.38791 30.9776 6.94404 31.0761 7.50513 31.0761C8.33557 31.0761 9.17661 30.8601 10.0217 30.429C10.2758 30.9405 11.5523 33.0375 11.9341 33.554C9.77192 33.2449 6.96579 33.6739 3.48709 35.7863C3.24278 35.9347 3.07947 36.1864 3.04366 36.4699C3.00775 36.7534 3.10319 37.038 3.30288 37.2424C3.50678 37.4514 8.12857 42.1306 12.6946 42.1306C12.9234 42.1306 13.1525 42.1188 13.3805 42.094C15.2244 41.8945 16.7552 40.9065 17.9347 39.156C19.0315 39.8783 20.2129 40.5428 21.4779 41.149C20.4128 41.5005 19.2994 41.8188 18.138 42.1038C17.6352 42.2272 17.3275 42.735 17.451 43.2379C17.556 43.6657 17.9391 43.952 18.3607 43.952C18.4347 43.952 18.5099 43.9432 18.585 43.9249C20.5136 43.4515 22.3193 42.8885 24.0002 42.2373C25.6811 42.8885 27.4869 43.4515 29.4154 43.9249C29.4905 43.9432 29.5657 43.952 29.6396 43.952C30.0613 43.952 30.4444 43.6655 30.5494 43.2379C30.6728 42.735 30.3652 42.2273 29.8624 42.1038C28.701 41.8188 27.5875 41.5004 26.5224 41.149C27.7875 40.5428 28.969 39.8783 30.0656 39.156C31.2452 40.9065 32.776 41.8944 34.6199 42.094C34.8483 42.1188 35.0767 42.1306 35.3058 42.1306C39.8715 42.1306 44.4935 37.4515 44.6975 37.2424C44.8972 37.0379 44.9925 36.7534 44.9567 36.4699C44.9208 36.1864 44.7575 35.9347 44.5133 35.7863C41.0346 33.6739 38.2286 33.2449 36.0663 33.554C36.4477 33.0375 37.7243 30.9405 37.9784 30.429C38.8235 30.8602 39.6643 31.0762 40.4949 31.0762ZM44.2804 13.0647C44.1689 14.7361 43.7305 17.1256 42.4446 18.3048C41.8879 18.8153 41.2104 19.0681 40.3858 19.0701C40.2335 17.8255 40.3669 14.9488 44.2804 13.0647ZM40.2991 25.889C41.6153 24.7806 43.3248 24.0682 45.6694 24.0682C45.6825 24.0682 45.6953 24.0682 45.7084 24.0683C44.9333 25.7978 43.4427 28.3274 41.5275 29.0156C40.6613 29.327 39.7711 29.2412 38.8183 28.7525C38.8434 28.582 39.4149 26.6337 40.2991 25.889ZM37.9952 11.6017C37.9881 11.6054 37.981 11.6093 37.9739 11.6131C37.3902 11.3695 36.4573 10.846 35.8149 9.82472C35.1417 8.75456 34.9178 7.37081 35.1453 5.6999C36.4399 6.59024 38.1424 8.07684 38.4336 9.64181C38.5582 10.3118 38.4147 10.9573 37.9952 11.6017ZM7.61463 19.0701C6.79001 19.0681 6.11219 18.8154 5.55541 18.3048C4.26953 17.1257 3.83116 14.7361 3.7196 13.0647C7.6361 14.9503 7.76679 17.8295 7.61463 19.0701ZM6.4751 29.0164C4.5655 28.3319 3.07159 25.7998 2.29347 24.0683C2.30575 24.0682 2.31831 24.0682 2.33059 24.0682C4.67491 24.0682 6.47801 24.6786 7.70088 25.889C8.30107 26.4831 8.6697 27.1346 8.89207 27.6974C8.93886 27.8365 9.15664 28.5819 9.18176 28.7525C8.2301 29.2408 7.3406 29.3267 6.4751 29.0164ZM9.56642 9.64181C9.85761 8.07693 11.5601 6.59024 12.8547 5.6999C13.0805 7.35871 12.8615 8.73469 12.1996 9.80166C11.5554 10.8399 10.6091 11.3698 10.021 11.6147C10.017 11.6124 10.013 11.6103 10.0089 11.6081C9.58629 10.9616 9.44136 10.3139 9.56642 9.64181ZM9.78636 21.8208C10.1889 19.7527 12.6793 17.9604 14.3412 16.9771C14.579 19.2045 14.2226 21.0156 13.2773 22.3732C12.3488 23.7065 11.0401 24.2964 10.3166 24.5341C10.0072 24.0458 9.57814 22.8907 9.78636 21.8208ZM13.1815 40.2297C10.3427 40.5373 7.09901 38.107 5.55429 36.7709C8.28214 35.3479 10.6922 35.0891 12.8292 35.6836C14.5567 36.1641 16.0487 37.9911 16.2473 38.2984C15.4071 39.4637 14.4002 40.0969 13.1815 40.2297ZM15.2354 34.5331C15.195 34.4948 14.0508 33.3868 14.0005 31.9043C13.9197 29.5185 16.1421 26.9958 17.4401 25.7064C18.2567 27.9094 18.3611 29.8508 17.7486 31.4903C17.1338 33.1356 15.9155 34.1004 15.2354 34.5331ZM24.0016 39.9272C23.3318 39.2509 22.3125 38.0012 22.3125 36.6595C22.3125 35.3083 23.3301 34.0633 23.9999 33.39C24.6702 34.0637 25.6874 35.3085 25.6874 36.6595C25.6874 38.0096 24.6714 39.2537 24.0016 39.9272ZM30.2515 31.4904C29.6389 29.8509 29.7433 27.9095 30.5599 25.7065C31.8581 26.9959 34.0336 29.5174 33.9995 31.9044C33.9867 32.794 33.6582 33.5824 32.9996 34.2953C32.9604 34.3365 32.9211 34.3778 32.8814 34.4188C32.8435 34.4571 32.8046 34.4952 32.7647 34.5331C32.0831 34.0993 30.8657 33.1347 30.2515 31.4904ZM42.4524 36.7743C40.6915 38.2968 37.4805 40.5183 34.8215 40.2299C33.6014 40.0979 32.5937 39.4647 31.7528 38.2983C31.9514 37.991 33.6564 36.1757 35.1709 35.6835C37.2822 34.9973 39.7218 35.3486 42.4524 36.7743ZM34.739 22.3964C33.7814 21.0364 33.4197 19.2173 33.6588 16.9769C35.3207 17.9603 37.6949 19.7786 38.2137 21.8207C38.4219 22.6407 37.9917 24.0484 37.6812 24.5376C36.965 24.3061 35.6769 23.7283 34.739 22.3964Z" fill="url(#paint2_linear)"/>
<defs>
<linearGradient id="paint0_linear" x1="34.398" y1="43.8028" x2="32.4883" y2="43.8028" gradientUnits="userSpaceOnUse">
<stop stop-color="#FF8424"/>
<stop offset="1" stop-color="#FF6624"/>
</linearGradient>
<linearGradient id="paint1_linear" x1="15.5113" y1="43.8029" x2="13.6016" y2="43.8029" gradientUnits="userSpaceOnUse">
<stop stop-color="#FF8424"/>
<stop offset="1" stop-color="#FF6624"/>
</linearGradient>
<linearGradient id="paint2_linear" x1="48" y1="23.6045" x2="1.48857e-09" y2="23.6045" gradientUnits="userSpaceOnUse">
<stop stop-color="#FF8424"/>
<stop offset="1" stop-color="#FF6624"/>
</linearGradient>
</defs>
</svg>
