<svg width="264" height="97" viewBox="0 0 264 97" fill="none" xmlns="http://www.w3.org/2000/svg">
<g clip-path="url(#clip0)">
<path d="M8.90918 48.5V52.311H11.8601V48.5V44.708H8.90918V48.5Z" fill="url(#paint0_linear)"/>
<path d="M13.3438 48.5003V57.8476H16.3135V48.5003V39.1719H13.3438V48.5003Z" fill="url(#paint1_linear)"/>
<path d="M17.7988 48.5004V74.9119H20.7686V48.5004V22.1079H17.7988V48.5004Z" fill="url(#paint2_linear)"/>
<path d="M0 48.5003V49.7706H2.96974V48.5003V47.23H0V48.5003Z" fill="url(#paint3_linear)"/>
<path d="M4.45508 48.4999V51.4388H7.42482V48.4999V45.5801H4.45508V48.4999Z" fill="url(#paint4_linear)"/>
<path d="M22.2539 48.5V90.0985H25.2236V48.5V6.92041H22.2539V48.5Z" fill="url(#paint5_linear)"/>
<path d="M26.709 48.5V69.2993H29.6787V48.5V27.7197H26.709V48.5Z" fill="url(#paint6_linear)"/>
<path d="M31.1455 48.4998V53.4863H34.1152V48.4998V43.5322H31.1455V48.4998Z" fill="url(#paint7_linear)"/>
<path d="M35.5996 48.5002V72.9398H38.5693V48.5002V24.0796H35.5996V48.5002Z" fill="url(#paint8_linear)"/>
<path d="M40.0527 48.4999V87.4251H43.0225V48.4999V9.59375H40.0527V48.4999Z" fill="url(#paint9_linear)"/>
<path d="M44.5078 48.5V97H47.4776V48.5V0H44.5078V48.5Z" fill="url(#paint10_linear)"/>
<path d="M48.9629 48.5001V63.9147H51.9138V48.5001V33.1045H48.9629V48.5001Z" fill="url(#paint11_linear)"/>
<path d="M53.3994 48.5001V56.1979H56.3692V48.5001V40.8022H53.3994V48.5001Z" fill="url(#paint12_linear)"/>
<path d="M57.8535 48.4998V50.4716H60.8233V48.4998V46.5469H57.8535V48.4998Z" fill="url(#paint13_linear)"/>
<path d="M62.3086 48.5001V63.9147H65.2783V48.5001V33.1045H62.3086V48.5001Z" fill="url(#paint14_linear)"/>
<path d="M66.7617 48.5003V73.9069H69.7127V48.5003V23.0938H66.7617V48.5003Z" fill="url(#paint15_linear)"/>
<path d="M71.1982 48.4999V87.4251H74.168V48.4999V9.59375H71.1982V48.4999Z" fill="url(#paint16_linear)"/>
<path d="M75.6533 27.7197V48.5V69.2993H78.6231V48.5V27.7197H75.6533Z" fill="url(#paint17_linear)"/>
<path d="M80.7852 48.5003V57.8476H83.7549V48.5003V39.1719H80.7852V48.5003Z" fill="url(#paint18_linear)"/>
<path d="M85.2383 42.3945V48.4997V54.6048H88.1892V48.4997V42.3945H85.2383Z" fill="url(#paint19_linear)"/>
<path d="M90.3525 48.5004V52.3493H93.3223V48.5004V44.6704H90.3525V48.5004Z" fill="url(#paint20_linear)"/>
<path d="M94.8066 45.5801V48.4999V51.4388H97.7764V48.4999V45.5801H94.8066Z" fill="url(#paint21_linear)"/>
<path d="M99.9375 48.5003V49.7706H102.888V48.5003V47.23H99.9375V48.5003Z" fill="url(#paint22_linear)"/>
<path d="M109.955 48.5V52.311H112.925V48.5V44.708H109.955V48.5Z" fill="url(#paint23_linear)"/>
<path d="M114.41 48.5003V57.8476H117.361V48.5003V39.1719H114.41V48.5003Z" fill="url(#paint24_linear)"/>
<path d="M118.845 48.5004V74.9119H121.814V48.5004V22.1079H118.845V48.5004Z" fill="url(#paint25_linear)"/>
<path d="M101.046 48.5003V49.7706H104.016V48.5003V47.23H101.046V48.5003Z" fill="url(#paint26_linear)"/>
<path d="M105.501 48.4999V51.4388H108.471V48.4999V45.5801H105.501V48.4999Z" fill="url(#paint27_linear)"/>
<path d="M123.3 48.5V90.0985H126.27V48.5V6.92041H123.3V48.5Z" fill="url(#paint28_linear)"/>
<path d="M127.756 48.5V69.2993H130.726V48.5V27.7197H127.756V48.5Z" fill="url(#paint29_linear)"/>
<path d="M132.21 48.4998V53.4863H135.18V48.4998V43.5322H132.21V48.4998Z" fill="url(#paint30_linear)"/>
<path d="M136.646 48.5002V72.9398H139.615V48.5002V24.0796H136.646V48.5002Z" fill="url(#paint31_linear)"/>
<path d="M141.099 48.4999V87.4251H144.068V48.4999V9.59375H141.099V48.4999Z" fill="url(#paint32_linear)"/>
<path d="M145.554 48.5V97H148.523V48.5V0H145.554V48.5Z" fill="url(#paint33_linear)"/>
<path d="M150.009 48.5001V63.9147H152.979V48.5001V33.1045H150.009V48.5001Z" fill="url(#paint34_linear)"/>
<path d="M154.464 48.5001V56.1979H157.415V48.5001V40.8022H154.464V48.5001Z" fill="url(#paint35_linear)"/>
<path d="M158.9 48.4998V50.4716H161.87V48.4998V46.5469H158.9V48.4998Z" fill="url(#paint36_linear)"/>
<path d="M163.354 48.5001V63.9147H166.324V48.5001V33.1045H163.354V48.5001Z" fill="url(#paint37_linear)"/>
<path d="M167.809 48.5003V73.9069H170.778V48.5003V23.0938H167.809V48.5003Z" fill="url(#paint38_linear)"/>
<path d="M172.263 48.4999V87.4251H175.232V48.4999V9.59375H172.263V48.4999Z" fill="url(#paint39_linear)"/>
<path d="M176.699 27.7197V48.5V69.2993H179.669V48.5V27.7197H176.699Z" fill="url(#paint40_linear)"/>
<path d="M181.831 48.5003V57.8476H184.801V48.5003V39.1719H181.831V48.5003Z" fill="url(#paint41_linear)"/>
<path d="M186.284 42.3945V48.4997V54.6048H189.254V48.4997V42.3945H186.284Z" fill="url(#paint42_linear)"/>
<path d="M191.398 48.5004V52.3493H194.368V48.5004V44.6704H191.398V48.5004Z" fill="url(#paint43_linear)"/>
<path d="M195.853 45.5801V48.4999V51.4388H198.822V48.4999V45.5801H195.853Z" fill="url(#paint44_linear)"/>
<path d="M200.983 48.5003V49.7706H203.953V48.5003V47.23H200.983V48.5003Z" fill="url(#paint45_linear)"/>
<path d="M211 48.5V52.311H213.97V48.5V44.708H211V48.5Z" fill="url(#paint46_linear)"/>
<path d="M215.456 48.5003V57.8476H218.426V48.5003V39.1719H215.456V48.5003Z" fill="url(#paint47_linear)"/>
<path d="M219.911 48.5004V74.9119H222.862V48.5004V22.1079H219.911V48.5004Z" fill="url(#paint48_linear)"/>
<path d="M202.092 48.5003V49.7706H205.062V48.5003V47.23H202.092V48.5003Z" fill="url(#paint49_linear)"/>
<path d="M206.547 48.4999V51.4388H209.517V48.4999V45.5801H206.547V48.4999Z" fill="url(#paint50_linear)"/>
<path d="M224.346 48.5V90.0985H227.315V48.5V6.92041H224.346V48.5Z" fill="url(#paint51_linear)"/>
<path d="M228.801 48.5V69.2993H231.77V48.5V27.7197H228.801V48.5Z" fill="url(#paint52_linear)"/>
<path d="M233.256 48.4998V53.4863H236.226V48.4998V43.5322H233.256V48.4998Z" fill="url(#paint53_linear)"/>
<path d="M237.71 48.5002V72.9398H240.68V48.5002V24.0796H237.71V48.5002Z" fill="url(#paint54_linear)"/>
<path d="M242.145 48.4999V87.4251H245.114V48.4999V9.59375H242.145V48.4999Z" fill="url(#paint55_linear)"/>
<path d="M246.6 48.5V97H249.569V48.5V0H246.6V48.5Z" fill="url(#paint56_linear)"/>
<path d="M251.054 48.5001V63.9147H254.023V48.5001V33.1045H251.054V48.5001Z" fill="url(#paint57_linear)"/>
<path d="M255.51 48.5001V56.1979H258.48V48.5001V40.8022H255.51V48.5001Z" fill="url(#paint58_linear)"/>
<path d="M259.964 48.4998V50.4716H262.915V48.4998V46.5469H259.964V48.4998Z" fill="url(#paint59_linear)"/>
</g>
<defs>
<linearGradient id="paint0_linear" x1="10.3852" y1="52.3102" x2="10.3852" y2="44.7075" gradientUnits="userSpaceOnUse">
<stop stop-color="#464754"/>
<stop offset="0.489583" stop-color="#5D5F72"/>
<stop offset="1" stop-color="#464754"/>
</linearGradient>
<linearGradient id="paint1_linear" x1="14.8292" y1="57.8456" x2="14.8292" y2="39.1705" gradientUnits="userSpaceOnUse">
<stop stop-color="#464754"/>
<stop offset="0.489583" stop-color="#5D5F72"/>
<stop offset="1" stop-color="#464754"/>
</linearGradient>
<linearGradient id="paint2_linear" x1="19.2843" y1="74.9062" x2="19.2843" y2="22.1041" gradientUnits="userSpaceOnUse">
<stop stop-color="#464754"/>
<stop offset="0.489583" stop-color="#5D5F72"/>
<stop offset="1" stop-color="#464754"/>
</linearGradient>
<linearGradient id="paint3_linear" x1="1.48543" y1="49.7704" x2="1.48543" y2="47.2298" gradientUnits="userSpaceOnUse">
<stop stop-color="#464754"/>
<stop offset="0.489583" stop-color="#5D5F72"/>
<stop offset="1" stop-color="#464754"/>
</linearGradient>
<linearGradient id="paint4_linear" x1="5.94051" y1="51.4381" x2="5.94051" y2="45.5797" gradientUnits="userSpaceOnUse">
<stop stop-color="#464754"/>
<stop offset="0.489583" stop-color="#5D5F72"/>
<stop offset="1" stop-color="#464754"/>
</linearGradient>
<linearGradient id="paint5_linear" x1="23.7393" y1="90.0895" x2="23.7393" y2="6.91444" gradientUnits="userSpaceOnUse">
<stop stop-color="#464754"/>
<stop offset="0.489583" stop-color="#5D5F72"/>
<stop offset="1" stop-color="#464754"/>
</linearGradient>
<linearGradient id="paint6_linear" x1="28.1944" y1="69.2948" x2="28.1944" y2="27.7167" gradientUnits="userSpaceOnUse">
<stop stop-color="#464754"/>
<stop offset="0.489583" stop-color="#5D5F72"/>
<stop offset="1" stop-color="#464754"/>
</linearGradient>
<linearGradient id="paint7_linear" x1="32.6309" y1="53.4852" x2="32.6309" y2="43.5315" gradientUnits="userSpaceOnUse">
<stop stop-color="#464754"/>
<stop offset="0.489583" stop-color="#5D5F72"/>
<stop offset="1" stop-color="#464754"/>
</linearGradient>
<linearGradient id="paint8_linear" x1="37.085" y1="72.9346" x2="37.085" y2="24.0761" gradientUnits="userSpaceOnUse">
<stop stop-color="#464754"/>
<stop offset="0.489583" stop-color="#5D5F72"/>
<stop offset="1" stop-color="#464754"/>
</linearGradient>
<linearGradient id="paint9_linear" x1="41.5382" y1="87.4167" x2="41.5382" y2="9.58816" gradientUnits="userSpaceOnUse">
<stop stop-color="#464754"/>
<stop offset="0.489583" stop-color="#5D5F72"/>
<stop offset="1" stop-color="#464754"/>
</linearGradient>
<linearGradient id="paint10_linear" x1="45.9932" y1="96.9896" x2="45.9932" y2="-0.00696664" gradientUnits="userSpaceOnUse">
<stop stop-color="#464754"/>
<stop offset="0.489583" stop-color="#5D5F72"/>
<stop offset="1" stop-color="#464754"/>
</linearGradient>
<linearGradient id="paint11_linear" x1="50.4389" y1="63.9114" x2="50.4389" y2="33.1023" gradientUnits="userSpaceOnUse">
<stop stop-color="#464754"/>
<stop offset="0.489583" stop-color="#5D5F72"/>
<stop offset="1" stop-color="#464754"/>
</linearGradient>
<linearGradient id="paint12_linear" x1="54.8848" y1="56.1962" x2="54.8848" y2="40.8011" gradientUnits="userSpaceOnUse">
<stop stop-color="#464754"/>
<stop offset="0.489583" stop-color="#5D5F72"/>
<stop offset="1" stop-color="#464754"/>
</linearGradient>
<linearGradient id="paint13_linear" x1="59.339" y1="50.4712" x2="59.339" y2="46.5466" gradientUnits="userSpaceOnUse">
<stop stop-color="#464754"/>
<stop offset="0.489583" stop-color="#5D5F72"/>
<stop offset="1" stop-color="#464754"/>
</linearGradient>
<linearGradient id="paint14_linear" x1="63.794" y1="63.9114" x2="63.794" y2="33.1023" gradientUnits="userSpaceOnUse">
<stop stop-color="#464754"/>
<stop offset="0.489583" stop-color="#5D5F72"/>
<stop offset="1" stop-color="#464754"/>
</linearGradient>
<linearGradient id="paint15_linear" x1="68.2378" y1="73.9014" x2="68.2378" y2="23.0901" gradientUnits="userSpaceOnUse">
<stop stop-color="#464754"/>
<stop offset="0.489583" stop-color="#5D5F72"/>
<stop offset="1" stop-color="#464754"/>
</linearGradient>
<linearGradient id="paint16_linear" x1="72.6837" y1="87.4167" x2="72.6837" y2="9.58816" gradientUnits="userSpaceOnUse">
<stop stop-color="#464754"/>
<stop offset="0.489583" stop-color="#5D5F72"/>
<stop offset="1" stop-color="#464754"/>
</linearGradient>
<linearGradient id="paint17_linear" x1="77.1388" y1="69.2948" x2="77.1388" y2="27.7167" gradientUnits="userSpaceOnUse">
<stop stop-color="#464754"/>
<stop offset="0.489583" stop-color="#5D5F72"/>
<stop offset="1" stop-color="#464754"/>
</linearGradient>
<linearGradient id="paint18_linear" x1="82.2706" y1="57.8456" x2="82.2706" y2="39.1705" gradientUnits="userSpaceOnUse">
<stop stop-color="#464754"/>
<stop offset="0.489583" stop-color="#5D5F72"/>
<stop offset="1" stop-color="#464754"/>
</linearGradient>
<linearGradient id="paint19_linear" x1="86.7143" y1="54.6035" x2="86.7143" y2="42.3937" gradientUnits="userSpaceOnUse">
<stop stop-color="#464754"/>
<stop offset="0.489583" stop-color="#5D5F72"/>
<stop offset="1" stop-color="#464754"/>
</linearGradient>
<linearGradient id="paint20_linear" x1="91.838" y1="52.3484" x2="91.838" y2="44.6699" gradientUnits="userSpaceOnUse">
<stop stop-color="#464754"/>
<stop offset="0.489583" stop-color="#5D5F72"/>
<stop offset="1" stop-color="#464754"/>
</linearGradient>
<linearGradient id="paint21_linear" x1="96.2921" y1="51.4381" x2="96.2921" y2="45.5797" gradientUnits="userSpaceOnUse">
<stop stop-color="#464754"/>
<stop offset="0.489583" stop-color="#5D5F72"/>
<stop offset="1" stop-color="#464754"/>
</linearGradient>
<linearGradient id="paint22_linear" x1="101.414" y1="49.7704" x2="101.414" y2="47.2298" gradientUnits="userSpaceOnUse">
<stop stop-color="#464754"/>
<stop offset="0.489583" stop-color="#5D5F72"/>
<stop offset="1" stop-color="#464754"/>
</linearGradient>
<linearGradient id="paint23_linear" x1="111.441" y1="52.3102" x2="111.441" y2="44.7075" gradientUnits="userSpaceOnUse">
<stop stop-color="#464754"/>
<stop offset="0.489583" stop-color="#5D5F72"/>
<stop offset="1" stop-color="#464754"/>
</linearGradient>
<linearGradient id="paint24_linear" x1="115.886" y1="57.8456" x2="115.886" y2="39.1705" gradientUnits="userSpaceOnUse">
<stop stop-color="#464754"/>
<stop offset="0.489583" stop-color="#5D5F72"/>
<stop offset="1" stop-color="#464754"/>
</linearGradient>
<linearGradient id="paint25_linear" x1="120.33" y1="74.9062" x2="120.33" y2="22.1041" gradientUnits="userSpaceOnUse">
<stop stop-color="#464754"/>
<stop offset="0.489583" stop-color="#5D5F72"/>
<stop offset="1" stop-color="#464754"/>
</linearGradient>
<linearGradient id="paint26_linear" x1="102.531" y1="49.7704" x2="102.531" y2="47.2298" gradientUnits="userSpaceOnUse">
<stop stop-color="#464754"/>
<stop offset="0.489583" stop-color="#5D5F72"/>
<stop offset="1" stop-color="#464754"/>
</linearGradient>
<linearGradient id="paint27_linear" x1="106.986" y1="51.4381" x2="106.986" y2="45.5797" gradientUnits="userSpaceOnUse">
<stop stop-color="#464754"/>
<stop offset="0.489583" stop-color="#5D5F72"/>
<stop offset="1" stop-color="#464754"/>
</linearGradient>
<linearGradient id="paint28_linear" x1="124.785" y1="90.0895" x2="124.785" y2="6.91444" gradientUnits="userSpaceOnUse">
<stop stop-color="#464754"/>
<stop offset="0.489583" stop-color="#5D5F72"/>
<stop offset="1" stop-color="#464754"/>
</linearGradient>
<linearGradient id="paint29_linear" x1="129.241" y1="69.2948" x2="129.241" y2="27.7167" gradientUnits="userSpaceOnUse">
<stop stop-color="#464754"/>
<stop offset="0.489583" stop-color="#5D5F72"/>
<stop offset="1" stop-color="#464754"/>
</linearGradient>
<linearGradient id="paint30_linear" x1="133.695" y1="53.4852" x2="133.695" y2="43.5315" gradientUnits="userSpaceOnUse">
<stop stop-color="#464754"/>
<stop offset="0.489583" stop-color="#5D5F72"/>
<stop offset="1" stop-color="#464754"/>
</linearGradient>
<linearGradient id="paint31_linear" x1="138.131" y1="72.9346" x2="138.131" y2="24.0761" gradientUnits="userSpaceOnUse">
<stop stop-color="#464754"/>
<stop offset="0.489583" stop-color="#5D5F72"/>
<stop offset="1" stop-color="#464754"/>
</linearGradient>
<linearGradient id="paint32_linear" x1="142.584" y1="87.4167" x2="142.584" y2="9.58816" gradientUnits="userSpaceOnUse">
<stop stop-color="#464754"/>
<stop offset="0.489583" stop-color="#5D5F72"/>
<stop offset="1" stop-color="#464754"/>
</linearGradient>
<linearGradient id="paint33_linear" x1="147.039" y1="96.9896" x2="147.039" y2="-0.00696664" gradientUnits="userSpaceOnUse">
<stop stop-color="#464754"/>
<stop offset="0.489583" stop-color="#5D5F72"/>
<stop offset="1" stop-color="#464754"/>
</linearGradient>
<linearGradient id="paint34_linear" x1="151.494" y1="63.9114" x2="151.494" y2="33.1023" gradientUnits="userSpaceOnUse">
<stop stop-color="#464754"/>
<stop offset="0.489583" stop-color="#5D5F72"/>
<stop offset="1" stop-color="#464754"/>
</linearGradient>
<linearGradient id="paint35_linear" x1="155.94" y1="56.1962" x2="155.94" y2="40.8011" gradientUnits="userSpaceOnUse">
<stop stop-color="#464754"/>
<stop offset="0.489583" stop-color="#5D5F72"/>
<stop offset="1" stop-color="#464754"/>
</linearGradient>
<linearGradient id="paint36_linear" x1="160.386" y1="50.4712" x2="160.386" y2="46.5466" gradientUnits="userSpaceOnUse">
<stop stop-color="#464754"/>
<stop offset="0.489583" stop-color="#5D5F72"/>
<stop offset="1" stop-color="#464754"/>
</linearGradient>
<linearGradient id="paint37_linear" x1="164.84" y1="63.9114" x2="164.84" y2="33.1023" gradientUnits="userSpaceOnUse">
<stop stop-color="#464754"/>
<stop offset="0.489583" stop-color="#5D5F72"/>
<stop offset="1" stop-color="#464754"/>
</linearGradient>
<linearGradient id="paint38_linear" x1="169.294" y1="73.9014" x2="169.294" y2="23.0901" gradientUnits="userSpaceOnUse">
<stop stop-color="#464754"/>
<stop offset="0.489583" stop-color="#5D5F72"/>
<stop offset="1" stop-color="#464754"/>
</linearGradient>
<linearGradient id="paint39_linear" x1="173.748" y1="87.4167" x2="173.748" y2="9.58816" gradientUnits="userSpaceOnUse">
<stop stop-color="#464754"/>
<stop offset="0.489583" stop-color="#5D5F72"/>
<stop offset="1" stop-color="#464754"/>
</linearGradient>
<linearGradient id="paint40_linear" x1="178.185" y1="69.2948" x2="178.185" y2="27.7167" gradientUnits="userSpaceOnUse">
<stop stop-color="#464754"/>
<stop offset="0.489583" stop-color="#5D5F72"/>
<stop offset="1" stop-color="#464754"/>
</linearGradient>
<linearGradient id="paint41_linear" x1="183.316" y1="57.8456" x2="183.316" y2="39.1705" gradientUnits="userSpaceOnUse">
<stop stop-color="#464754"/>
<stop offset="0.489583" stop-color="#5D5F72"/>
<stop offset="1" stop-color="#464754"/>
</linearGradient>
<linearGradient id="paint42_linear" x1="187.77" y1="54.6035" x2="187.77" y2="42.3937" gradientUnits="userSpaceOnUse">
<stop stop-color="#464754"/>
<stop offset="0.489583" stop-color="#5D5F72"/>
<stop offset="1" stop-color="#464754"/>
</linearGradient>
<linearGradient id="paint43_linear" x1="192.884" y1="52.3484" x2="192.884" y2="44.6699" gradientUnits="userSpaceOnUse">
<stop stop-color="#464754"/>
<stop offset="0.489583" stop-color="#5D5F72"/>
<stop offset="1" stop-color="#464754"/>
</linearGradient>
<linearGradient id="paint44_linear" x1="197.338" y1="51.4381" x2="197.338" y2="45.5797" gradientUnits="userSpaceOnUse">
<stop stop-color="#464754"/>
<stop offset="0.489583" stop-color="#5D5F72"/>
<stop offset="1" stop-color="#464754"/>
</linearGradient>
<linearGradient id="paint45_linear" x1="202.469" y1="49.7704" x2="202.469" y2="47.2298" gradientUnits="userSpaceOnUse">
<stop stop-color="#464754"/>
<stop offset="0.489583" stop-color="#5D5F72"/>
<stop offset="1" stop-color="#464754"/>
</linearGradient>
<linearGradient id="paint46_linear" x1="212.485" y1="52.3102" x2="212.485" y2="44.7075" gradientUnits="userSpaceOnUse">
<stop stop-color="#464754"/>
<stop offset="0.489583" stop-color="#5D5F72"/>
<stop offset="1" stop-color="#464754"/>
</linearGradient>
<linearGradient id="paint47_linear" x1="216.942" y1="57.8456" x2="216.942" y2="39.1705" gradientUnits="userSpaceOnUse">
<stop stop-color="#464754"/>
<stop offset="0.489583" stop-color="#5D5F72"/>
<stop offset="1" stop-color="#464754"/>
</linearGradient>
<linearGradient id="paint48_linear" x1="221.387" y1="74.9062" x2="221.387" y2="22.1041" gradientUnits="userSpaceOnUse">
<stop stop-color="#464754"/>
<stop offset="0.489583" stop-color="#5D5F72"/>
<stop offset="1" stop-color="#464754"/>
</linearGradient>
<linearGradient id="paint49_linear" x1="203.577" y1="49.7704" x2="203.577" y2="47.2298" gradientUnits="userSpaceOnUse">
<stop stop-color="#464754"/>
<stop offset="0.489583" stop-color="#5D5F72"/>
<stop offset="1" stop-color="#464754"/>
</linearGradient>
<linearGradient id="paint50_linear" x1="208.032" y1="51.4381" x2="208.032" y2="45.5797" gradientUnits="userSpaceOnUse">
<stop stop-color="#464754"/>
<stop offset="0.489583" stop-color="#5D5F72"/>
<stop offset="1" stop-color="#464754"/>
</linearGradient>
<linearGradient id="paint51_linear" x1="225.831" y1="90.0895" x2="225.831" y2="6.91444" gradientUnits="userSpaceOnUse">
<stop stop-color="#464754"/>
<stop offset="0.489583" stop-color="#5D5F72"/>
<stop offset="1" stop-color="#464754"/>
</linearGradient>
<linearGradient id="paint52_linear" x1="230.286" y1="69.2948" x2="230.286" y2="27.7167" gradientUnits="userSpaceOnUse">
<stop stop-color="#464754"/>
<stop offset="0.489583" stop-color="#5D5F72"/>
<stop offset="1" stop-color="#464754"/>
</linearGradient>
<linearGradient id="paint53_linear" x1="234.741" y1="53.4852" x2="234.741" y2="43.5315" gradientUnits="userSpaceOnUse">
<stop stop-color="#464754"/>
<stop offset="0.489583" stop-color="#5D5F72"/>
<stop offset="1" stop-color="#464754"/>
</linearGradient>
<linearGradient id="paint54_linear" x1="239.195" y1="72.9346" x2="239.195" y2="24.0761" gradientUnits="userSpaceOnUse">
<stop stop-color="#464754"/>
<stop offset="0.489583" stop-color="#5D5F72"/>
<stop offset="1" stop-color="#464754"/>
</linearGradient>
<linearGradient id="paint55_linear" x1="243.63" y1="87.4167" x2="243.63" y2="9.58816" gradientUnits="userSpaceOnUse">
<stop stop-color="#464754"/>
<stop offset="0.489583" stop-color="#5D5F72"/>
<stop offset="1" stop-color="#464754"/>
</linearGradient>
<linearGradient id="paint56_linear" x1="248.085" y1="96.9896" x2="248.085" y2="-0.00696664" gradientUnits="userSpaceOnUse">
<stop stop-color="#464754"/>
<stop offset="0.489583" stop-color="#5D5F72"/>
<stop offset="1" stop-color="#464754"/>
</linearGradient>
<linearGradient id="paint57_linear" x1="252.539" y1="63.9114" x2="252.539" y2="33.1023" gradientUnits="userSpaceOnUse">
<stop stop-color="#464754"/>
<stop offset="0.489583" stop-color="#5D5F72"/>
<stop offset="1" stop-color="#464754"/>
</linearGradient>
<linearGradient id="paint58_linear" x1="256.995" y1="56.1962" x2="256.995" y2="40.8011" gradientUnits="userSpaceOnUse">
<stop stop-color="#464754"/>
<stop offset="0.489583" stop-color="#5D5F72"/>
<stop offset="1" stop-color="#464754"/>
</linearGradient>
<linearGradient id="paint59_linear" x1="261.44" y1="50.4712" x2="261.44" y2="46.5466" gradientUnits="userSpaceOnUse">
<stop stop-color="#464754"/>
<stop offset="0.489583" stop-color="#5D5F72"/>
<stop offset="1" stop-color="#464754"/>
</linearGradient>
<clipPath id="clip0">
<rect width="305" height="97" fill="white"/>
</clipPath>
</defs>
</svg>
