<svg width="233" height="97" viewBox="0 0 233 97" fill="none" xmlns="http://www.w3.org/2000/svg">
<g clip-path="url(#clip0)">
<path d="M-0.801758 48.4999V87.4251H2.16798V48.4999V9.59375H-0.801758V48.4999Z" fill="url(#paint0_linear)"/>
<path d="M3.65332 27.7197V48.5V69.2993H6.62307V48.5V27.7197H3.65332Z" fill="url(#paint1_linear)"/>
<path d="M8.78516 48.5003V57.8476H11.7549V48.5003V39.1719H8.78516V48.5003Z" fill="url(#paint2_linear)"/>
<path d="M13.2383 42.3945V48.4997V54.6048H16.1892V48.4997V42.3945H13.2383Z" fill="url(#paint3_linear)"/>
<path d="M18.3525 48.5004V52.3493H21.3223V48.5004V44.6704H18.3525V48.5004Z" fill="url(#paint4_linear)"/>
<path d="M22.8066 45.5801V48.4999V51.4388H25.7764V48.4999V45.5801H22.8066Z" fill="url(#paint5_linear)"/>
<path d="M27.9375 48.5003V49.7706H30.8885V48.5003V47.23H27.9375V48.5003Z" fill="url(#paint6_linear)"/>
<path d="M37.7979 48.5V52.311H40.7676V48.5V44.708H37.7979V48.5Z" fill="url(#paint7_linear)"/>
<path d="M42.2529 48.5003V57.8476H45.2039V48.5003V39.1719H42.2529V48.5003Z" fill="url(#paint8_linear)"/>
<path d="M46.6875 48.5004V74.9119H49.6572V48.5004V22.1079H46.6875V48.5004Z" fill="url(#paint9_linear)"/>
<path d="M28.8887 48.5003V49.7706H31.8584V48.5003V47.23H28.8887V48.5003Z" fill="url(#paint10_linear)"/>
<path d="M33.3438 48.4999V51.4388H36.3135V48.4999V45.5801H33.3438V48.4999Z" fill="url(#paint11_linear)"/>
<path d="M51.1426 48.5V90.0985H54.1123V48.5V6.92041H51.1426V48.5Z" fill="url(#paint12_linear)"/>
<path d="M55.5986 48.5V69.2993H58.5684V48.5V27.7197H55.5986V48.5Z" fill="url(#paint13_linear)"/>
<path d="M60.0527 48.4998V53.4863H63.0225V48.4998V43.5322H60.0527V48.4998Z" fill="url(#paint14_linear)"/>
<path d="M64.4883 48.5002V72.9398H67.458V48.5002V24.0796H64.4883V48.5002Z" fill="url(#paint15_linear)"/>
<path d="M68.9414 48.4999V87.4251H71.9111V48.4999V9.59375H68.9414V48.4999Z" fill="url(#paint16_linear)"/>
<path d="M73.3965 48.5V97H76.3662V48.5V0H73.3965V48.5Z" fill="url(#paint17_linear)"/>
<path d="M77.8516 48.5001V63.9147H80.8213V48.5001V33.1045H77.8516V48.5001Z" fill="url(#paint18_linear)"/>
<path d="M82.3066 48.5001V56.1979H85.2576V48.5001V40.8022H82.3066V48.5001Z" fill="url(#paint19_linear)"/>
<path d="M86.7432 48.4998V50.4716H89.7129V48.4998V46.5469H86.7432V48.4998Z" fill="url(#paint20_linear)"/>
<path d="M91.1973 48.5001V63.9147H94.167V48.5001V33.1045H91.1973V48.5001Z" fill="url(#paint21_linear)"/>
<path d="M95.6514 48.5003V73.9069H98.6211V48.5003V23.0938H95.6514V48.5003Z" fill="url(#paint22_linear)"/>
<path d="M100.105 48.4999V87.4251H103.075V48.4999V9.59375H100.105V48.4999Z" fill="url(#paint23_linear)"/>
<path d="M104.542 27.7197V48.5V69.2993H107.512V48.5V27.7197H104.542Z" fill="url(#paint24_linear)"/>
<path d="M109.674 48.5003V57.8476H112.644V48.5003V39.1719H109.674V48.5003Z" fill="url(#paint25_linear)"/>
<path d="M114.127 42.3945V48.4997V54.6048H117.097V48.4997V42.3945H114.127Z" fill="url(#paint26_linear)"/>
<path d="M119.241 48.5004V52.3493H122.211V48.5004V44.6704H119.241V48.5004Z" fill="url(#paint27_linear)"/>
<path d="M123.695 45.5801V48.4999V51.4388H126.665V48.4999V45.5801H123.695Z" fill="url(#paint28_linear)"/>
<path d="M128.826 48.5003V49.7706H131.796V48.5003V47.23H128.826V48.5003Z" fill="url(#paint29_linear)"/>
<path d="M138.703 48.5V52.311H141.673V48.5V44.708H138.703V48.5Z" fill="url(#paint30_linear)"/>
<path d="M143.159 48.5003V57.8476H146.129V48.5003V39.1719H143.159V48.5003Z" fill="url(#paint31_linear)"/>
<path d="M147.614 48.5004V74.9119H150.565V48.5004V22.1079H147.614V48.5004Z" fill="url(#paint32_linear)"/>
<path d="M129.795 48.5003V49.7706H132.765V48.5003V47.23H129.795V48.5003Z" fill="url(#paint33_linear)"/>
<path d="M134.25 48.4999V51.4388H137.22V48.4999V45.5801H134.25V48.4999Z" fill="url(#paint34_linear)"/>
<path d="M152.049 48.5V90.0985H155.019V48.5V6.92041H152.049V48.5Z" fill="url(#paint35_linear)"/>
<path d="M156.504 48.5V69.2993H159.474V48.5V27.7197H156.504V48.5Z" fill="url(#paint36_linear)"/>
<path d="M160.959 48.4998V53.4863H163.929V48.4998V43.5322H160.959V48.4998Z" fill="url(#paint37_linear)"/>
<path d="M165.413 48.5002V72.9398H168.383V48.5002V24.0796H165.413V48.5002Z" fill="url(#paint38_linear)"/>
<path d="M169.848 48.4999V87.4251H172.817V48.4999V9.59375H169.848V48.4999Z" fill="url(#paint39_linear)"/>
<path d="M174.303 48.5V97H177.273V48.5V0H174.303V48.5Z" fill="url(#paint40_linear)"/>
<path d="M178.757 48.5001V63.9147H181.727V48.5001V33.1045H178.757V48.5001Z" fill="url(#paint41_linear)"/>
<path d="M183.213 48.5001V56.1979H186.183V48.5001V40.8022H183.213V48.5001Z" fill="url(#paint42_linear)"/>
<path d="M187.667 48.4998V50.4716H190.618V48.4998V46.5469H187.667V48.4998Z" fill="url(#paint43_linear)"/>
<path d="M192.104 48.5001V63.9147H195.073V48.5001V33.1045H192.104V48.5001Z" fill="url(#paint44_linear)"/>
<path d="M196.557 48.5003V73.9069H199.526V48.5003V23.0938H196.557V48.5003Z" fill="url(#paint45_linear)"/>
<path d="M201.012 48.4999V87.4251H203.981V48.4999V9.59375H201.012V48.4999Z" fill="url(#paint46_linear)"/>
<path d="M205.467 27.7197V48.5V69.2993H208.437V48.5V27.7197H205.467Z" fill="url(#paint47_linear)"/>
<path d="M210.58 48.5003V57.8476H213.55V48.5003V39.1719H210.58V48.5003Z" fill="url(#paint48_linear)"/>
<path d="M215.033 42.3945V48.4997V54.6048H218.003V48.4997V42.3945H215.033Z" fill="url(#paint49_linear)"/>
<path d="M220.165 48.5004V52.3493H223.116V48.5004V44.6704H220.165V48.5004Z" fill="url(#paint50_linear)"/>
<path d="M224.601 45.5806V48.5004V51.4392H227.57V48.5004V45.5806H224.601Z" fill="url(#paint51_linear)"/>
<path d="M229.732 48.5003V49.7706H232.702V48.5003V47.23H229.732V48.5003Z" fill="url(#paint52_linear)"/>
</g>
<defs>
<linearGradient id="paint0_linear" x1="0.683677" y1="87.4167" x2="0.683677" y2="9.58816" gradientUnits="userSpaceOnUse">
<stop stop-color="#464754"/>
<stop offset="0.489583" stop-color="#5D5F72"/>
<stop offset="1" stop-color="#464754"/>
</linearGradient>
<linearGradient id="paint1_linear" x1="5.13876" y1="69.2948" x2="5.13876" y2="27.7167" gradientUnits="userSpaceOnUse">
<stop stop-color="#464754"/>
<stop offset="0.489583" stop-color="#5D5F72"/>
<stop offset="1" stop-color="#464754"/>
</linearGradient>
<linearGradient id="paint2_linear" x1="10.2706" y1="57.8456" x2="10.2706" y2="39.1705" gradientUnits="userSpaceOnUse">
<stop stop-color="#464754"/>
<stop offset="0.489583" stop-color="#5D5F72"/>
<stop offset="1" stop-color="#464754"/>
</linearGradient>
<linearGradient id="paint3_linear" x1="14.7143" y1="54.6035" x2="14.7143" y2="42.3937" gradientUnits="userSpaceOnUse">
<stop stop-color="#464754"/>
<stop offset="0.489583" stop-color="#5D5F72"/>
<stop offset="1" stop-color="#464754"/>
</linearGradient>
<linearGradient id="paint4_linear" x1="19.838" y1="52.3484" x2="19.838" y2="44.6699" gradientUnits="userSpaceOnUse">
<stop stop-color="#464754"/>
<stop offset="0.489583" stop-color="#5D5F72"/>
<stop offset="1" stop-color="#464754"/>
</linearGradient>
<linearGradient id="paint5_linear" x1="24.2921" y1="51.4381" x2="24.2921" y2="45.5797" gradientUnits="userSpaceOnUse">
<stop stop-color="#464754"/>
<stop offset="0.489583" stop-color="#5D5F72"/>
<stop offset="1" stop-color="#464754"/>
</linearGradient>
<linearGradient id="paint6_linear" x1="29.4135" y1="49.7704" x2="29.4135" y2="47.2298" gradientUnits="userSpaceOnUse">
<stop stop-color="#464754"/>
<stop offset="0.489583" stop-color="#5D5F72"/>
<stop offset="1" stop-color="#464754"/>
</linearGradient>
<linearGradient id="paint7_linear" x1="39.2833" y1="52.3102" x2="39.2833" y2="44.7075" gradientUnits="userSpaceOnUse">
<stop stop-color="#464754"/>
<stop offset="0.489583" stop-color="#5D5F72"/>
<stop offset="1" stop-color="#464754"/>
</linearGradient>
<linearGradient id="paint8_linear" x1="43.729" y1="57.8456" x2="43.729" y2="39.1705" gradientUnits="userSpaceOnUse">
<stop stop-color="#464754"/>
<stop offset="0.489583" stop-color="#5D5F72"/>
<stop offset="1" stop-color="#464754"/>
</linearGradient>
<linearGradient id="paint9_linear" x1="48.1729" y1="74.9062" x2="48.1729" y2="22.1041" gradientUnits="userSpaceOnUse">
<stop stop-color="#464754"/>
<stop offset="0.489583" stop-color="#5D5F72"/>
<stop offset="1" stop-color="#464754"/>
</linearGradient>
<linearGradient id="paint10_linear" x1="30.3741" y1="49.7704" x2="30.3741" y2="47.2298" gradientUnits="userSpaceOnUse">
<stop stop-color="#464754"/>
<stop offset="0.489583" stop-color="#5D5F72"/>
<stop offset="1" stop-color="#464754"/>
</linearGradient>
<linearGradient id="paint11_linear" x1="34.8292" y1="51.4381" x2="34.8292" y2="45.5797" gradientUnits="userSpaceOnUse">
<stop stop-color="#464754"/>
<stop offset="0.489583" stop-color="#5D5F72"/>
<stop offset="1" stop-color="#464754"/>
</linearGradient>
<linearGradient id="paint12_linear" x1="52.628" y1="90.0895" x2="52.628" y2="6.91444" gradientUnits="userSpaceOnUse">
<stop stop-color="#464754"/>
<stop offset="0.489583" stop-color="#5D5F72"/>
<stop offset="1" stop-color="#464754"/>
</linearGradient>
<linearGradient id="paint13_linear" x1="57.0841" y1="69.2948" x2="57.0841" y2="27.7167" gradientUnits="userSpaceOnUse">
<stop stop-color="#464754"/>
<stop offset="0.489583" stop-color="#5D5F72"/>
<stop offset="1" stop-color="#464754"/>
</linearGradient>
<linearGradient id="paint14_linear" x1="61.5382" y1="53.4852" x2="61.5382" y2="43.5315" gradientUnits="userSpaceOnUse">
<stop stop-color="#464754"/>
<stop offset="0.489583" stop-color="#5D5F72"/>
<stop offset="1" stop-color="#464754"/>
</linearGradient>
<linearGradient id="paint15_linear" x1="65.9737" y1="72.9346" x2="65.9737" y2="24.0761" gradientUnits="userSpaceOnUse">
<stop stop-color="#464754"/>
<stop offset="0.489583" stop-color="#5D5F72"/>
<stop offset="1" stop-color="#464754"/>
</linearGradient>
<linearGradient id="paint16_linear" x1="70.4268" y1="87.4167" x2="70.4268" y2="9.58816" gradientUnits="userSpaceOnUse">
<stop stop-color="#464754"/>
<stop offset="0.489583" stop-color="#5D5F72"/>
<stop offset="1" stop-color="#464754"/>
</linearGradient>
<linearGradient id="paint17_linear" x1="74.8819" y1="96.9896" x2="74.8819" y2="-0.00696664" gradientUnits="userSpaceOnUse">
<stop stop-color="#464754"/>
<stop offset="0.489583" stop-color="#5D5F72"/>
<stop offset="1" stop-color="#464754"/>
</linearGradient>
<linearGradient id="paint18_linear" x1="79.337" y1="63.9114" x2="79.337" y2="33.1023" gradientUnits="userSpaceOnUse">
<stop stop-color="#464754"/>
<stop offset="0.489583" stop-color="#5D5F72"/>
<stop offset="1" stop-color="#464754"/>
</linearGradient>
<linearGradient id="paint19_linear" x1="83.7827" y1="56.1962" x2="83.7827" y2="40.8011" gradientUnits="userSpaceOnUse">
<stop stop-color="#464754"/>
<stop offset="0.489583" stop-color="#5D5F72"/>
<stop offset="1" stop-color="#464754"/>
</linearGradient>
<linearGradient id="paint20_linear" x1="88.2286" y1="50.4712" x2="88.2286" y2="46.5466" gradientUnits="userSpaceOnUse">
<stop stop-color="#464754"/>
<stop offset="0.489583" stop-color="#5D5F72"/>
<stop offset="1" stop-color="#464754"/>
</linearGradient>
<linearGradient id="paint21_linear" x1="92.6827" y1="63.9114" x2="92.6827" y2="33.1023" gradientUnits="userSpaceOnUse">
<stop stop-color="#464754"/>
<stop offset="0.489583" stop-color="#5D5F72"/>
<stop offset="1" stop-color="#464754"/>
</linearGradient>
<linearGradient id="paint22_linear" x1="97.1368" y1="73.9014" x2="97.1368" y2="23.0901" gradientUnits="userSpaceOnUse">
<stop stop-color="#464754"/>
<stop offset="0.489583" stop-color="#5D5F72"/>
<stop offset="1" stop-color="#464754"/>
</linearGradient>
<linearGradient id="paint23_linear" x1="101.591" y1="87.4167" x2="101.591" y2="9.58816" gradientUnits="userSpaceOnUse">
<stop stop-color="#464754"/>
<stop offset="0.489583" stop-color="#5D5F72"/>
<stop offset="1" stop-color="#464754"/>
</linearGradient>
<linearGradient id="paint24_linear" x1="106.027" y1="69.2948" x2="106.027" y2="27.7167" gradientUnits="userSpaceOnUse">
<stop stop-color="#464754"/>
<stop offset="0.489583" stop-color="#5D5F72"/>
<stop offset="1" stop-color="#464754"/>
</linearGradient>
<linearGradient id="paint25_linear" x1="111.159" y1="57.8456" x2="111.159" y2="39.1705" gradientUnits="userSpaceOnUse">
<stop stop-color="#464754"/>
<stop offset="0.489583" stop-color="#5D5F72"/>
<stop offset="1" stop-color="#464754"/>
</linearGradient>
<linearGradient id="paint26_linear" x1="115.612" y1="54.6035" x2="115.612" y2="42.3937" gradientUnits="userSpaceOnUse">
<stop stop-color="#464754"/>
<stop offset="0.489583" stop-color="#5D5F72"/>
<stop offset="1" stop-color="#464754"/>
</linearGradient>
<linearGradient id="paint27_linear" x1="120.727" y1="52.3484" x2="120.727" y2="44.6699" gradientUnits="userSpaceOnUse">
<stop stop-color="#464754"/>
<stop offset="0.489583" stop-color="#5D5F72"/>
<stop offset="1" stop-color="#464754"/>
</linearGradient>
<linearGradient id="paint28_linear" x1="125.181" y1="51.4381" x2="125.181" y2="45.5797" gradientUnits="userSpaceOnUse">
<stop stop-color="#464754"/>
<stop offset="0.489583" stop-color="#5D5F72"/>
<stop offset="1" stop-color="#464754"/>
</linearGradient>
<linearGradient id="paint29_linear" x1="130.312" y1="49.7704" x2="130.312" y2="47.2298" gradientUnits="userSpaceOnUse">
<stop stop-color="#464754"/>
<stop offset="0.489583" stop-color="#5D5F72"/>
<stop offset="1" stop-color="#464754"/>
</linearGradient>
<linearGradient id="paint30_linear" x1="140.189" y1="52.3102" x2="140.189" y2="44.7075" gradientUnits="userSpaceOnUse">
<stop stop-color="#464754"/>
<stop offset="0.489583" stop-color="#5D5F72"/>
<stop offset="1" stop-color="#464754"/>
</linearGradient>
<linearGradient id="paint31_linear" x1="144.645" y1="57.8456" x2="144.645" y2="39.1705" gradientUnits="userSpaceOnUse">
<stop stop-color="#464754"/>
<stop offset="0.489583" stop-color="#5D5F72"/>
<stop offset="1" stop-color="#464754"/>
</linearGradient>
<linearGradient id="paint32_linear" x1="149.09" y1="74.9062" x2="149.09" y2="22.1041" gradientUnits="userSpaceOnUse">
<stop stop-color="#464754"/>
<stop offset="0.489583" stop-color="#5D5F72"/>
<stop offset="1" stop-color="#464754"/>
</linearGradient>
<linearGradient id="paint33_linear" x1="131.28" y1="49.7704" x2="131.28" y2="47.2298" gradientUnits="userSpaceOnUse">
<stop stop-color="#464754"/>
<stop offset="0.489583" stop-color="#5D5F72"/>
<stop offset="1" stop-color="#464754"/>
</linearGradient>
<linearGradient id="paint34_linear" x1="135.735" y1="51.4381" x2="135.735" y2="45.5797" gradientUnits="userSpaceOnUse">
<stop stop-color="#464754"/>
<stop offset="0.489583" stop-color="#5D5F72"/>
<stop offset="1" stop-color="#464754"/>
</linearGradient>
<linearGradient id="paint35_linear" x1="153.534" y1="90.0895" x2="153.534" y2="6.91444" gradientUnits="userSpaceOnUse">
<stop stop-color="#464754"/>
<stop offset="0.489583" stop-color="#5D5F72"/>
<stop offset="1" stop-color="#464754"/>
</linearGradient>
<linearGradient id="paint36_linear" x1="157.989" y1="69.2948" x2="157.989" y2="27.7167" gradientUnits="userSpaceOnUse">
<stop stop-color="#464754"/>
<stop offset="0.489583" stop-color="#5D5F72"/>
<stop offset="1" stop-color="#464754"/>
</linearGradient>
<linearGradient id="paint37_linear" x1="162.444" y1="53.4852" x2="162.444" y2="43.5315" gradientUnits="userSpaceOnUse">
<stop stop-color="#464754"/>
<stop offset="0.489583" stop-color="#5D5F72"/>
<stop offset="1" stop-color="#464754"/>
</linearGradient>
<linearGradient id="paint38_linear" x1="166.899" y1="72.9346" x2="166.899" y2="24.0761" gradientUnits="userSpaceOnUse">
<stop stop-color="#464754"/>
<stop offset="0.489583" stop-color="#5D5F72"/>
<stop offset="1" stop-color="#464754"/>
</linearGradient>
<linearGradient id="paint39_linear" x1="171.333" y1="87.4167" x2="171.333" y2="9.58816" gradientUnits="userSpaceOnUse">
<stop stop-color="#464754"/>
<stop offset="0.489583" stop-color="#5D5F72"/>
<stop offset="1" stop-color="#464754"/>
</linearGradient>
<linearGradient id="paint40_linear" x1="175.788" y1="96.9896" x2="175.788" y2="-0.00696664" gradientUnits="userSpaceOnUse">
<stop stop-color="#464754"/>
<stop offset="0.489583" stop-color="#5D5F72"/>
<stop offset="1" stop-color="#464754"/>
</linearGradient>
<linearGradient id="paint41_linear" x1="180.242" y1="63.9114" x2="180.242" y2="33.1023" gradientUnits="userSpaceOnUse">
<stop stop-color="#464754"/>
<stop offset="0.489583" stop-color="#5D5F72"/>
<stop offset="1" stop-color="#464754"/>
</linearGradient>
<linearGradient id="paint42_linear" x1="184.698" y1="56.1962" x2="184.698" y2="40.8011" gradientUnits="userSpaceOnUse">
<stop stop-color="#464754"/>
<stop offset="0.489583" stop-color="#5D5F72"/>
<stop offset="1" stop-color="#464754"/>
</linearGradient>
<linearGradient id="paint43_linear" x1="189.143" y1="50.4712" x2="189.143" y2="46.5466" gradientUnits="userSpaceOnUse">
<stop stop-color="#464754"/>
<stop offset="0.489583" stop-color="#5D5F72"/>
<stop offset="1" stop-color="#464754"/>
</linearGradient>
<linearGradient id="paint44_linear" x1="193.589" y1="63.9114" x2="193.589" y2="33.1023" gradientUnits="userSpaceOnUse">
<stop stop-color="#464754"/>
<stop offset="0.489583" stop-color="#5D5F72"/>
<stop offset="1" stop-color="#464754"/>
</linearGradient>
<linearGradient id="paint45_linear" x1="198.042" y1="73.9014" x2="198.042" y2="23.0901" gradientUnits="userSpaceOnUse">
<stop stop-color="#464754"/>
<stop offset="0.489583" stop-color="#5D5F72"/>
<stop offset="1" stop-color="#464754"/>
</linearGradient>
<linearGradient id="paint46_linear" x1="202.497" y1="87.4167" x2="202.497" y2="9.58816" gradientUnits="userSpaceOnUse">
<stop stop-color="#464754"/>
<stop offset="0.489583" stop-color="#5D5F72"/>
<stop offset="1" stop-color="#464754"/>
</linearGradient>
<linearGradient id="paint47_linear" x1="206.952" y1="69.2948" x2="206.952" y2="27.7167" gradientUnits="userSpaceOnUse">
<stop stop-color="#464754"/>
<stop offset="0.489583" stop-color="#5D5F72"/>
<stop offset="1" stop-color="#464754"/>
</linearGradient>
<linearGradient id="paint48_linear" x1="212.066" y1="57.8456" x2="212.066" y2="39.1705" gradientUnits="userSpaceOnUse">
<stop stop-color="#464754"/>
<stop offset="0.489583" stop-color="#5D5F72"/>
<stop offset="1" stop-color="#464754"/>
</linearGradient>
<linearGradient id="paint49_linear" x1="216.519" y1="54.6035" x2="216.519" y2="42.3937" gradientUnits="userSpaceOnUse">
<stop stop-color="#464754"/>
<stop offset="0.489583" stop-color="#5D5F72"/>
<stop offset="1" stop-color="#464754"/>
</linearGradient>
<linearGradient id="paint50_linear" x1="221.641" y1="52.3484" x2="221.641" y2="44.6699" gradientUnits="userSpaceOnUse">
<stop stop-color="#464754"/>
<stop offset="0.489583" stop-color="#5D5F72"/>
<stop offset="1" stop-color="#464754"/>
</linearGradient>
<linearGradient id="paint51_linear" x1="226.086" y1="51.4386" x2="226.086" y2="45.5801" gradientUnits="userSpaceOnUse">
<stop stop-color="#464754"/>
<stop offset="0.489583" stop-color="#5D5F72"/>
<stop offset="1" stop-color="#464754"/>
</linearGradient>
<linearGradient id="paint52_linear" x1="231.218" y1="49.7704" x2="231.218" y2="47.2298" gradientUnits="userSpaceOnUse">
<stop stop-color="#464754"/>
<stop offset="0.489583" stop-color="#5D5F72"/>
<stop offset="1" stop-color="#464754"/>
</linearGradient>
<clipPath id="clip0">
<rect width="305" height="97" fill="white" transform="translate(-72)"/>
</clipPath>
</defs>
</svg>
