<svg width="152" height="24" viewBox="0 0 152 24" fill="none" xmlns="http://www.w3.org/2000/svg">
<path d="M12 0L14.6942 8.2918H23.4127L16.3593 13.4164L19.0534 21.7082L12 16.5836L4.94658 21.7082L7.64074 13.4164L0.587322 8.2918H9.30583L12 0Z" fill="url(#paint0_linear)"/>
<path d="M44 0L46.6942 8.2918H55.4127L48.3593 13.4164L51.0534 21.7082L44 16.5836L36.9466 21.7082L39.6407 13.4164L32.5873 8.2918H41.3058L44 0Z" fill="url(#paint1_linear)"/>
<path d="M76 0L78.6942 8.2918H87.4127L80.3593 13.4164L83.0534 21.7082L76 16.5836L68.9466 21.7082L71.6407 13.4164L64.5873 8.2918H73.3058L76 0Z" fill="url(#paint2_linear)"/>
<path d="M108 0L110.694 8.2918H119.413L112.359 13.4164L115.053 21.7082L108 16.5836L100.947 21.7082L103.641 13.4164L96.5873 8.2918H105.306L108 0Z" fill="url(#paint3_linear)"/>
<path d="M140 0L142.694 8.2918H151.413L144.359 13.4164L147.053 21.7082L140 16.5836L132.947 21.7082L135.641 13.4164L128.587 8.2918H137.306L140 0Z" fill="url(#paint4_linear)"/>
<defs>
<linearGradient id="paint0_linear" x1="24" y1="12" x2="7.44286e-10" y2="12" gradientUnits="userSpaceOnUse">
<stop stop-color="#FF8424"/>
<stop offset="1" stop-color="#FF6624"/>
</linearGradient>
<linearGradient id="paint1_linear" x1="56" y1="12" x2="32" y2="12" gradientUnits="userSpaceOnUse">
<stop stop-color="#FF8424"/>
<stop offset="1" stop-color="#FF6624"/>
</linearGradient>
<linearGradient id="paint2_linear" x1="88" y1="12" x2="64" y2="12" gradientUnits="userSpaceOnUse">
<stop stop-color="#FF8424"/>
<stop offset="1" stop-color="#FF6624"/>
</linearGradient>
<linearGradient id="paint3_linear" x1="120" y1="12" x2="96" y2="12" gradientUnits="userSpaceOnUse">
<stop stop-color="#FF8424"/>
<stop offset="1" stop-color="#FF6624"/>
</linearGradient>
<linearGradient id="paint4_linear" x1="152" y1="12" x2="128" y2="12" gradientUnits="userSpaceOnUse">
<stop stop-color="#FF8424"/>
<stop offset="1" stop-color="#FF6624"/>
</linearGradient>
</defs>
</svg>
