<svg width="817" height="378" viewBox="0 0 817 378" fill="none" xmlns="http://www.w3.org/2000/svg">
<path d="M798.224 353.852V298.531H679.451V353.852H798.224Z" fill="#D0D0D0"/>
<path d="M557.943 353.551V298.231H442.356V353.551H557.943Z" fill="#D0D0D0"/>
<path d="M438.686 299.035V354.659H322.037L322.492 290.245L396.365 291.002L395.758 299.035H438.686Z" fill="#D0D0D0"/>
<path d="M81.609 116.249V94.5758H150.173V98.3649H85.4012V116.249H81.609Z" fill="#1E1E1C"/>
<path d="M203.719 96.0914H199.927V170.812H203.719V96.0914Z" fill="#1E1E1C"/>
<path d="M230.113 299.187H175.808V302.976H230.113V299.187Z" fill="#1E1E1C"/>
<path d="M236.636 96.0914H232.844V133.679H236.636V96.0914Z" fill="#1E1E1C"/>
<path d="M242.097 98.0618H235.119V101.851H242.097V98.0618Z" fill="#1E1E1C"/>
<path d="M268.035 101.851V98.0618H321.582V153.383H317.79V101.851H268.035Z" fill="#1E1E1C"/>
<path d="M320.065 149.593H260.754V153.382H320.065V149.593Z" fill="#1E1E1C"/>
<path d="M295.643 123.979H265.76V127.768H295.643V123.979Z" fill="#1E1E1C"/>
<path d="M317.79 99.8805V94.1211H346.004V97.9102H321.582V99.8805H317.79Z" fill="#1E1E1C"/>
<path d="M438.383 297.974H422.455V302.218H438.383V297.974Z" fill="#1E1E1C"/>
<path d="M418.511 97.9102V94.1211H440.658V302.218H436.866V97.9102H418.511Z" fill="#1E1E1C"/>
<path d="M393.786 94.8789H371.639V98.668H393.786V94.8789Z" fill="#1E1E1C"/>
<path d="M440.658 302.218V94.1211H460.681V97.9102H444.45V302.218H440.658Z" fill="#1E1E1C"/>
<path d="M508.919 94.5758H487.53V98.3649H508.919V94.5758Z" fill="#1E1E1C"/>
<path d="M534.099 98.3649V94.5758H594.168V132.921H590.376V98.3649H534.099Z" fill="#1E1E1C"/>
<path d="M562.01 96.3945H558.218V170.054H562.01V96.3945Z" fill="#1E1E1C"/>
<path d="M458.406 298.429H442.934V302.218H458.406V298.429Z" fill="#1E1E1C"/>
<path d="M593.41 102.154V98.3649H680.176V153.534H676.384V102.154H593.41Z" fill="#1E1E1C"/>
<path d="M677.901 149.593H619.652V153.382H677.901V149.593Z" fill="#1E1E1C"/>
<path d="M654.237 124.282H632.546V128.071H654.237V124.282Z" fill="#1E1E1C"/>
<path d="M676.384 100.335V94.5758H704.75V98.3649H680.176V100.335H676.384Z" fill="#1E1E1C"/>
<path d="M730.689 98.668V94.8789H798.494V116.249H794.702V98.668H730.689Z" fill="#1E1E1C"/>
<path d="M798.19 140.954H794.398V193.395H798.19V140.954Z" fill="#1E1E1C"/>
<path d="M798.494 218.403H794.702V235.985H798.494V218.403Z" fill="#1E1E1C"/>
<path d="M751.318 302.521V298.732H794.398V282.06H798.191V302.521H751.318Z" fill="#1E1E1C"/>
<path d="M705.508 298.732H652.417V302.521H705.508V298.732Z" fill="#1E1E1C"/>
<path d="M636.338 298.732H604.483V302.521H636.338V298.732Z" fill="#1E1E1C"/>
<path d="M275.62 123.979V101.851" stroke="#1E1E1C" stroke-width="0.8326" stroke-miterlimit="10"/>
<path d="M280.626 123.979V101.851" stroke="#1E1E1C" stroke-width="0.8326" stroke-miterlimit="10"/>
<path d="M285.783 123.979V101.851" stroke="#1E1E1C" stroke-width="0.8326" stroke-miterlimit="10"/>
<path d="M290.182 123.979L291.851 101.851" stroke="#1E1E1C" stroke-width="0.8326" stroke-miterlimit="10"/>
<path d="M292.913 124.282L299.435 101.245" stroke="#1E1E1C" stroke-width="0.8326" stroke-miterlimit="10"/>
<path d="M295.036 124.282L308.537 101.245" stroke="#1E1E1C" stroke-width="0.8326" stroke-miterlimit="10"/>
<path d="M295.34 125.343L318.548 105.64" stroke="#1E1E1C" stroke-width="0.8326" stroke-miterlimit="10"/>
<path d="M295.34 125.949L318.245 118.22" stroke="#1E1E1C" stroke-width="0.8326" stroke-miterlimit="10"/>
<path d="M295.34 126.707L318.093 127.01" stroke="#1E1E1C" stroke-width="0.8326" stroke-miterlimit="10"/>
<path d="M295.643 127.465L318.548 136.407" stroke="#1E1E1C" stroke-width="0.8326" stroke-miterlimit="10"/>
<path d="M294.885 127.162L318.7 149.442" stroke="#1E1E1C" stroke-width="0.8326" stroke-miterlimit="10"/>
<path d="M293.823 127.162L305.958 149.897" stroke="#1E1E1C" stroke-width="0.8326" stroke-miterlimit="10"/>
<path d="M291.699 127.617L297.615 150.2" stroke="#1E1E1C" stroke-width="0.8326" stroke-miterlimit="10"/>
<path d="M288.362 127.465L290.789 150.048" stroke="#1E1E1C" stroke-width="0.8326" stroke-miterlimit="10"/>
<path d="M284.418 127.617V149.745" stroke="#1E1E1C" stroke-width="0.8326" stroke-miterlimit="10"/>
<path d="M279.716 127.314V150.2" stroke="#1E1E1C" stroke-width="0.8326" stroke-miterlimit="10"/>
<path d="M639.371 124.282V102.154" stroke="#1E1E1C" stroke-width="0.8326" stroke-miterlimit="10"/>
<path d="M644.529 124.282V102.154" stroke="#1E1E1C" stroke-width="0.8326" stroke-miterlimit="10"/>
<path d="M648.928 124.282L650.596 102.154" stroke="#1E1E1C" stroke-width="0.8326" stroke-miterlimit="10"/>
<path d="M651.658 124.585L658.181 101.396" stroke="#1E1E1C" stroke-width="0.8326" stroke-miterlimit="10"/>
<path d="M653.782 124.585L667.131 101.396" stroke="#1E1E1C" stroke-width="0.8326" stroke-miterlimit="10"/>
<path d="M654.085 125.646L677.294 105.943" stroke="#1E1E1C" stroke-width="0.8326" stroke-miterlimit="10"/>
<path d="M654.085 126.253L676.991 118.523" stroke="#1E1E1C" stroke-width="0.8326" stroke-miterlimit="10"/>
<path d="M654.085 126.859L676.839 127.314" stroke="#1E1E1C" stroke-width="0.8326" stroke-miterlimit="10"/>
<path d="M654.389 127.617L677.294 136.559" stroke="#1E1E1C" stroke-width="0.8326" stroke-miterlimit="10"/>
<path d="M653.63 127.465L677.446 149.593" stroke="#1E1E1C" stroke-width="0.8326" stroke-miterlimit="10"/>
<path d="M652.569 127.465L664.552 150.2" stroke="#1E1E1C" stroke-width="0.8326" stroke-miterlimit="10"/>
<path d="M650.293 127.768L656.361 150.503" stroke="#1E1E1C" stroke-width="0.8326" stroke-miterlimit="10"/>
<path d="M647.108 127.768L649.535 150.351" stroke="#1E1E1C" stroke-width="0.8326" stroke-miterlimit="10"/>
<path d="M643.012 127.768V150.048" stroke="#1E1E1C" stroke-width="0.8326" stroke-miterlimit="10"/>
<path d="M638.461 127.617V150.503" stroke="#1E1E1C" stroke-width="0.8326" stroke-miterlimit="10"/>
<path d="M143.043 98.0618V150.2L157.15 164.144H160.791" stroke="#1E1E1C" stroke-width="0.4163" stroke-miterlimit="10"/>
<path d="M229.203 242.199L240.276 232.044" stroke="#9E9D9C" stroke-width="0.4163" stroke-miterlimit="10"/>
<path d="M240.58 231.741C240.58 231.741 244.372 235.53 244.069 242.957" stroke="#9E9D9C" stroke-width="0.2081" stroke-miterlimit="10"/>
<path d="M135.004 165.659L125.296 154.14" stroke="#9E9D9C" stroke-width="0.4163" stroke-miterlimit="10"/>
<path d="M125.144 153.989C125.144 153.989 129.088 150.351 136.521 150.958C136.521 150.958 141.83 151.412 146.229 156.717" stroke="#9E9D9C" stroke-width="0.2081" stroke-miterlimit="10"/>
<path d="M175.808 164.447L175.657 149.29" stroke="#9E9D9C" stroke-width="0.4163" stroke-miterlimit="10"/>
<path d="M175.657 149.139C175.657 149.139 170.347 148.987 165.038 154.292C165.038 154.292 161.246 158.081 161.398 165.053" stroke="#9E9D9C" stroke-width="0.2081" stroke-miterlimit="10"/>
<path d="M137.734 170.206L127.419 181.27" stroke="#9E9D9C" stroke-width="0.4163" stroke-miterlimit="10"/>
<path d="M127.268 181.422C127.268 181.422 131.06 185.211 138.493 185.059C138.493 185.059 143.802 184.908 148.504 179.755" stroke="#9E9D9C" stroke-width="0.2081" stroke-miterlimit="10"/>
<path d="M157.15 187.636L157.454 202.792" stroke="#9E9D9C" stroke-width="0.4163" stroke-miterlimit="10"/>
<path d="M157.454 202.944C157.454 202.944 162.763 202.944 167.92 197.639C167.92 197.639 171.713 193.85 171.409 186.878" stroke="#9E9D9C" stroke-width="0.2081" stroke-miterlimit="10"/>
<path d="M374.673 147.168L374.37 162.325" stroke="#9E9D9C" stroke-width="0.4163" stroke-miterlimit="10"/>
<path d="M374.673 147.017C374.673 147.017 369.364 146.714 363.903 151.867C363.903 151.867 360.566 155.959 359.353 161.415" stroke="#9E9D9C" stroke-width="0.2081" stroke-miterlimit="10"/>
<path d="M177.628 153.989H188.398" stroke="#9E9D9C" stroke-width="0.332" stroke-miterlimit="10"/>
<path d="M187.488 154.898H199.775" stroke="#9E9D9C" stroke-width="0.332" stroke-miterlimit="10"/>
<path d="M143.65 222.041V211.28" stroke="#9E9D9C" stroke-width="0.332" stroke-miterlimit="10"/>
<path d="M144.56 212.189V199.913" stroke="#9E9D9C" stroke-width="0.332" stroke-miterlimit="10"/>
<path d="M262.423 197.184V208.703" stroke="#9E9D9C" stroke-width="0.4163" stroke-miterlimit="10"/>
<path d="M302.469 226.891L292.457 218.858V207.339C292.457 207.339 287.452 207.339 281.536 207.491C272.434 207.642 261.058 207.794 261.665 207.794V220.828" stroke="#1E1E1C" stroke-width="0.4163" stroke-miterlimit="10"/>
<path d="M162.611 98.8196H174.595" stroke="#9E9D9C" stroke-width="0.4163" stroke-miterlimit="10"/>
<path d="M149.414 98.8196H161.853" stroke="#9E9D9C" stroke-width="0.4163" stroke-miterlimit="10"/>
<path d="M86.008 128.223V116.249" stroke="#9E9D9C" stroke-width="0.4163" stroke-miterlimit="10"/>
<path d="M86.008 141.409V128.981" stroke="#9E9D9C" stroke-width="0.4163" stroke-miterlimit="10"/>
<path d="M96.6262 258.871V236.439" stroke="#9E9D9C" stroke-width="0.4163" stroke-miterlimit="10"/>
<path d="M96.6262 283.727V260.387" stroke="#9E9D9C" stroke-width="0.4163" stroke-miterlimit="10"/>
<path d="M143.802 297.974H128.026" stroke="#9E9D9C" stroke-width="0.4163" stroke-miterlimit="10"/>
<path d="M175.353 297.974H160.184" stroke="#9E9D9C" stroke-width="0.4163" stroke-miterlimit="10"/>
<path d="M159.729 297.974H144.409" stroke="#9E9D9C" stroke-width="0.4163" stroke-miterlimit="10"/>
<path d="M181.567 236.045H179.389V242.165H178.045V236.045H175.867V234.941H181.567V236.045ZM185.265 239.442V237.079C185.265 236.856 185.28 236.61 185.31 236.34L183.067 239.442H185.265ZM187.248 239.442V240.157C187.248 240.223 187.226 240.282 187.183 240.332C187.14 240.378 187.078 240.401 186.998 240.401H186.339V242.165H185.265V240.401H182.217C182.134 240.401 182.061 240.376 181.997 240.327C181.934 240.273 181.894 240.208 181.878 240.132L181.748 239.507L185.17 234.936H186.339V239.442H187.248ZM190.401 241.281C190.604 241.281 190.782 241.252 190.935 241.196C191.089 241.136 191.217 241.054 191.32 240.951C191.427 240.848 191.507 240.725 191.56 240.581C191.613 240.438 191.64 240.283 191.64 240.117C191.64 239.72 191.53 239.421 191.31 239.218C191.09 239.014 190.787 238.913 190.401 238.913C190.015 238.913 189.711 239.014 189.492 239.218C189.272 239.421 189.162 239.72 189.162 240.117C189.162 240.283 189.189 240.438 189.242 240.581C189.295 240.725 189.373 240.848 189.477 240.951C189.583 241.054 189.713 241.136 189.866 241.196C190.02 241.252 190.198 241.281 190.401 241.281ZM190.401 235.791C190.218 235.791 190.059 235.819 189.926 235.875C189.793 235.932 189.681 236.009 189.592 236.105C189.505 236.199 189.44 236.307 189.397 236.43C189.357 236.553 189.337 236.683 189.337 236.82C189.337 236.963 189.353 237.103 189.387 237.239C189.423 237.372 189.483 237.492 189.567 237.599C189.65 237.702 189.76 237.785 189.896 237.849C190.033 237.912 190.201 237.944 190.401 237.944C190.601 237.944 190.769 237.912 190.905 237.849C191.042 237.785 191.152 237.702 191.235 237.599C191.318 237.492 191.377 237.372 191.41 237.239C191.447 237.103 191.465 236.963 191.465 236.82C191.465 236.683 191.443 236.553 191.4 236.43C191.357 236.307 191.292 236.199 191.205 236.105C191.119 236.009 191.009 235.932 190.875 235.875C190.742 235.819 190.584 235.791 190.401 235.791ZM191.62 238.398C192.059 238.541 192.384 238.761 192.594 239.058C192.804 239.351 192.909 239.71 192.909 240.137C192.909 240.456 192.847 240.746 192.724 241.006C192.604 241.266 192.434 241.487 192.214 241.67C191.994 241.854 191.73 241.995 191.42 242.095C191.114 242.195 190.774 242.245 190.401 242.245C190.028 242.245 189.686 242.195 189.377 242.095C189.07 241.995 188.807 241.854 188.587 241.67C188.368 241.487 188.196 241.266 188.073 241.006C187.953 240.746 187.893 240.456 187.893 240.137C187.893 239.71 187.998 239.351 188.208 239.058C188.418 238.761 188.742 238.541 189.182 238.398C188.832 238.252 188.569 238.044 188.393 237.774C188.219 237.504 188.133 237.179 188.133 236.8C188.133 236.527 188.188 236.272 188.298 236.035C188.411 235.799 188.567 235.594 188.767 235.421C188.967 235.244 189.205 235.108 189.482 235.011C189.761 234.911 190.068 234.861 190.401 234.861C190.734 234.861 191.039 234.911 191.315 235.011C191.595 235.108 191.835 235.244 192.034 235.421C192.234 235.594 192.389 235.799 192.499 236.035C192.612 236.272 192.669 236.527 192.669 236.8C192.669 237.179 192.581 237.504 192.404 237.774C192.231 238.044 191.969 238.252 191.62 238.398ZM195.907 237.564L195.657 237.874C195.797 237.804 195.947 237.75 196.107 237.714C196.27 237.674 196.445 237.654 196.631 237.654C196.904 237.654 197.169 237.699 197.425 237.789C197.685 237.879 197.913 238.015 198.11 238.198C198.306 238.378 198.465 238.603 198.584 238.873C198.704 239.143 198.764 239.457 198.764 239.817C198.764 240.153 198.703 240.47 198.579 240.766C198.456 241.059 198.283 241.316 198.06 241.535C197.837 241.755 197.567 241.928 197.251 242.055C196.938 242.182 196.591 242.245 196.212 242.245C195.825 242.245 195.479 242.183 195.172 242.06C194.866 241.937 194.605 241.765 194.388 241.545C194.172 241.322 194.005 241.056 193.889 240.746C193.775 240.433 193.719 240.087 193.719 239.707C193.719 239.367 193.787 239.019 193.924 238.663C194.063 238.303 194.278 237.93 194.568 237.544L196.291 235.231C196.351 235.151 196.438 235.083 196.551 235.026C196.668 234.97 196.801 234.941 196.951 234.941H198.05L195.907 237.564ZM196.187 241.236C196.383 241.236 196.563 241.202 196.726 241.136C196.893 241.069 197.034 240.976 197.151 240.856C197.271 240.736 197.364 240.596 197.43 240.436C197.497 240.273 197.53 240.097 197.53 239.907C197.53 239.7 197.499 239.516 197.435 239.352C197.372 239.186 197.282 239.046 197.166 238.933C197.049 238.816 196.909 238.728 196.746 238.668C196.583 238.608 196.403 238.578 196.207 238.578C196.01 238.578 195.832 238.611 195.672 238.678C195.512 238.745 195.376 238.838 195.262 238.958C195.149 239.074 195.061 239.214 194.998 239.377C194.934 239.537 194.903 239.71 194.903 239.897C194.903 240.097 194.929 240.28 194.983 240.446C195.039 240.61 195.121 240.749 195.227 240.866C195.337 240.983 195.472 241.074 195.632 241.141C195.792 241.204 195.977 241.236 196.187 241.236ZM199.684 243.389C199.624 243.339 199.594 243.277 199.594 243.204C199.594 243.177 199.603 243.147 199.619 243.114C199.639 243.081 199.663 243.051 199.689 243.024C199.726 242.984 199.771 242.934 199.824 242.874C199.877 242.818 199.931 242.751 199.984 242.674C200.037 242.601 200.086 242.52 200.129 242.43C200.175 242.343 200.21 242.25 200.234 242.15C200.127 242.15 200.031 242.132 199.944 242.095C199.857 242.055 199.782 242.002 199.719 241.935C199.659 241.869 199.611 241.79 199.574 241.7C199.541 241.61 199.524 241.512 199.524 241.406C199.524 241.312 199.541 241.226 199.574 241.146C199.611 241.063 199.661 240.991 199.724 240.931C199.787 240.868 199.864 240.819 199.954 240.786C200.044 240.749 200.142 240.731 200.249 240.731C200.375 240.731 200.485 240.754 200.578 240.801C200.675 240.844 200.753 240.906 200.813 240.986C200.877 241.063 200.923 241.152 200.953 241.256C200.986 241.356 201.003 241.462 201.003 241.575C201.003 241.735 200.978 241.903 200.928 242.08C200.882 242.257 200.812 242.433 200.718 242.61C200.625 242.786 200.509 242.958 200.369 243.124C200.232 243.291 200.076 243.444 199.899 243.584L199.684 243.389ZM206.337 241.016C206.47 241.016 206.575 241.054 206.652 241.131C206.732 241.204 206.772 241.302 206.772 241.426V242.165H201.816V241.755C201.816 241.672 201.833 241.585 201.866 241.496C201.903 241.402 201.959 241.319 202.036 241.246L204.229 239.048C204.412 238.861 204.575 238.683 204.719 238.513C204.865 238.343 204.987 238.175 205.083 238.009C205.18 237.842 205.253 237.674 205.303 237.504C205.356 237.331 205.383 237.149 205.383 236.96C205.383 236.786 205.358 236.635 205.308 236.505C205.258 236.372 205.186 236.26 205.093 236.17C205.003 236.08 204.893 236.014 204.764 235.97C204.637 235.924 204.494 235.9 204.334 235.9C204.187 235.9 204.051 235.922 203.924 235.965C203.801 236.005 203.691 236.064 203.595 236.14C203.498 236.213 203.416 236.3 203.35 236.4C203.283 236.5 203.233 236.61 203.2 236.73C203.143 236.883 203.07 236.984 202.98 237.034C202.89 237.084 202.76 237.096 202.59 237.069L201.941 236.955C201.991 236.608 202.088 236.305 202.231 236.045C202.374 235.782 202.552 235.564 202.765 235.391C202.982 235.214 203.228 235.083 203.505 234.996C203.784 234.906 204.084 234.861 204.404 234.861C204.737 234.861 205.042 234.911 205.318 235.011C205.594 235.108 205.831 235.246 206.027 235.426C206.224 235.606 206.377 235.822 206.487 236.075C206.597 236.328 206.652 236.61 206.652 236.92C206.652 237.186 206.612 237.432 206.532 237.659C206.455 237.885 206.35 238.102 206.217 238.308C206.087 238.515 205.934 238.715 205.758 238.908C205.581 239.101 205.396 239.297 205.203 239.497L203.575 241.161C203.731 241.114 203.886 241.079 204.039 241.056C204.196 241.029 204.344 241.016 204.484 241.016H206.337ZM212.777 238.553C212.777 239.183 212.709 239.73 212.572 240.197C212.439 240.66 212.253 241.043 212.013 241.346C211.776 241.649 211.495 241.875 211.169 242.025C210.846 242.172 210.496 242.245 210.12 242.245C209.743 242.245 209.394 242.172 209.071 242.025C208.751 241.875 208.473 241.649 208.236 241.346C208 241.043 207.815 240.66 207.682 240.197C207.549 239.73 207.482 239.183 207.482 238.553C207.482 237.92 207.549 237.372 207.682 236.91C207.815 236.447 208 236.064 208.236 235.761C208.473 235.457 208.751 235.233 209.071 235.086C209.394 234.936 209.743 234.861 210.12 234.861C210.496 234.861 210.846 234.936 211.169 235.086C211.495 235.233 211.776 235.457 212.013 235.761C212.253 236.064 212.439 236.447 212.572 236.91C212.709 237.372 212.777 237.92 212.777 238.553ZM211.503 238.553C211.503 238.03 211.465 237.597 211.388 237.254C211.312 236.911 211.209 236.638 211.079 236.435C210.952 236.232 210.806 236.09 210.639 236.01C210.473 235.927 210.299 235.885 210.12 235.885C209.943 235.885 209.772 235.927 209.605 236.01C209.442 236.09 209.297 236.232 209.17 236.435C209.044 236.638 208.942 236.911 208.866 237.254C208.792 237.597 208.756 238.03 208.756 238.553C208.756 239.076 208.792 239.509 208.866 239.852C208.942 240.195 209.044 240.468 209.17 240.671C209.297 240.874 209.442 241.018 209.605 241.101C209.772 241.181 209.943 241.221 210.12 241.221C210.299 241.221 210.473 241.181 210.639 241.101C210.806 241.018 210.952 240.874 211.079 240.671C211.209 240.468 211.312 240.195 211.388 239.852C211.465 239.509 211.503 239.076 211.503 238.553ZM213.637 242.165V237.039H214.392C214.551 237.039 214.656 237.114 214.706 237.264L214.786 237.644C214.876 237.544 214.969 237.452 215.066 237.369C215.166 237.286 215.271 237.214 215.381 237.154C215.494 237.094 215.614 237.048 215.74 237.014C215.87 236.978 216.012 236.96 216.165 236.96C216.488 236.96 216.753 237.048 216.959 237.224C217.169 237.397 217.326 237.629 217.429 237.919C217.509 237.749 217.609 237.604 217.729 237.484C217.849 237.361 217.98 237.261 218.123 237.184C218.267 237.108 218.418 237.051 218.578 237.014C218.741 236.978 218.904 236.96 219.067 236.96C219.351 236.96 219.602 237.003 219.822 237.089C220.042 237.176 220.226 237.303 220.376 237.469C220.526 237.636 220.639 237.839 220.716 238.079C220.796 238.318 220.836 238.593 220.836 238.903V242.165H219.602V238.903C219.602 238.576 219.53 238.332 219.387 238.168C219.244 238.002 219.034 237.919 218.758 237.919C218.631 237.919 218.513 237.94 218.403 237.984C218.297 238.027 218.202 238.09 218.118 238.173C218.038 238.253 217.975 238.355 217.928 238.478C217.882 238.601 217.859 238.743 217.859 238.903V242.165H216.62V238.903C216.62 238.56 216.55 238.31 216.41 238.153C216.273 237.997 216.072 237.919 215.805 237.919C215.626 237.919 215.457 237.964 215.301 238.054C215.148 238.14 215.004 238.26 214.871 238.413V242.165H213.637ZM226.3 241.016C226.433 241.016 226.538 241.054 226.615 241.131C226.695 241.204 226.735 241.302 226.735 241.426V242.165H221.779V241.755C221.779 241.672 221.796 241.585 221.829 241.496C221.866 241.402 221.922 241.319 221.999 241.246L224.192 239.048C224.375 238.861 224.538 238.683 224.681 238.513C224.828 238.343 224.95 238.175 225.046 238.009C225.143 237.842 225.216 237.674 225.266 237.504C225.319 237.331 225.346 237.149 225.346 236.96C225.346 236.786 225.321 236.635 225.271 236.505C225.221 236.372 225.149 236.26 225.056 236.17C224.966 236.08 224.856 236.014 224.726 235.97C224.6 235.924 224.457 235.9 224.297 235.9C224.15 235.9 224.014 235.922 223.887 235.965C223.764 236.005 223.654 236.064 223.557 236.14C223.461 236.213 223.379 236.3 223.313 236.4C223.246 236.5 223.196 236.61 223.163 236.73C223.106 236.883 223.033 236.984 222.943 237.034C222.853 237.084 222.723 237.096 222.553 237.069L221.904 236.955C221.954 236.608 222.05 236.305 222.194 236.045C222.337 235.782 222.515 235.564 222.728 235.391C222.945 235.214 223.191 235.083 223.468 234.996C223.747 234.906 224.047 234.861 224.367 234.861C224.7 234.861 225.004 234.911 225.281 235.011C225.557 235.108 225.794 235.246 225.99 235.426C226.187 235.606 226.34 235.822 226.45 236.075C226.56 236.328 226.615 236.61 226.615 236.92C226.615 237.186 226.575 237.432 226.495 237.659C226.418 237.885 226.313 238.102 226.18 238.308C226.05 238.515 225.897 238.715 225.721 238.908C225.544 239.101 225.359 239.297 225.166 239.497L223.537 241.161C223.694 241.114 223.849 241.079 224.002 241.056C224.159 241.029 224.307 241.016 224.447 241.016H226.3Z" fill="#020203"/>
<path d="M353.554 223.846H351.376V229.966H350.032V223.846H347.854V222.742H353.554V223.846ZM357.252 227.243V224.88C357.252 224.657 357.267 224.411 357.297 224.141L355.053 227.243H357.252ZM359.235 227.243V227.958C359.235 228.024 359.213 228.082 359.17 228.132C359.127 228.179 359.065 228.202 358.985 228.202H358.326V229.966H357.252V228.202H354.204C354.121 228.202 354.048 228.177 353.984 228.127C353.921 228.074 353.881 228.009 353.865 227.933L353.735 227.308L357.157 222.737H358.326V227.243H359.235ZM362.388 229.082C362.591 229.082 362.769 229.053 362.922 228.997C363.076 228.937 363.204 228.855 363.307 228.752C363.414 228.649 363.493 228.525 363.547 228.382C363.6 228.239 363.627 228.084 363.627 227.918C363.627 227.521 363.517 227.222 363.297 227.018C363.077 226.815 362.774 226.714 362.388 226.714C362.001 226.714 361.698 226.815 361.479 227.018C361.259 227.222 361.149 227.521 361.149 227.918C361.149 228.084 361.176 228.239 361.229 228.382C361.282 228.525 361.36 228.649 361.464 228.752C361.57 228.855 361.7 228.937 361.853 228.997C362.006 229.053 362.185 229.082 362.388 229.082ZM362.388 223.591C362.205 223.591 362.046 223.62 361.913 223.676C361.78 223.733 361.668 223.81 361.579 223.906C361.492 223.999 361.427 224.108 361.384 224.231C361.344 224.354 361.324 224.484 361.324 224.621C361.324 224.764 361.34 224.904 361.374 225.04C361.41 225.173 361.47 225.293 361.554 225.4C361.637 225.503 361.747 225.586 361.883 225.65C362.02 225.713 362.188 225.745 362.388 225.745C362.588 225.745 362.756 225.713 362.892 225.65C363.029 225.586 363.139 225.503 363.222 225.4C363.305 225.293 363.364 225.173 363.397 225.04C363.434 224.904 363.452 224.764 363.452 224.621C363.452 224.484 363.43 224.354 363.387 224.231C363.344 224.108 363.279 223.999 363.192 223.906C363.106 223.81 362.996 223.733 362.862 223.676C362.729 223.62 362.571 223.591 362.388 223.591ZM363.607 226.199C364.046 226.342 364.371 226.562 364.581 226.859C364.791 227.152 364.896 227.511 364.896 227.938C364.896 228.257 364.834 228.547 364.711 228.807C364.591 229.067 364.421 229.288 364.201 229.471C363.981 229.654 363.717 229.796 363.407 229.896C363.101 229.996 362.761 230.046 362.388 230.046C362.015 230.046 361.673 229.996 361.364 229.896C361.057 229.796 360.794 229.654 360.574 229.471C360.355 229.288 360.183 229.067 360.06 228.807C359.94 228.547 359.88 228.257 359.88 227.938C359.88 227.511 359.985 227.152 360.195 226.859C360.405 226.562 360.729 226.342 361.169 226.199C360.819 226.053 360.556 225.844 360.38 225.575C360.206 225.305 360.12 224.98 360.12 224.601C360.12 224.327 360.175 224.073 360.285 223.836C360.398 223.6 360.554 223.395 360.754 223.222C360.954 223.045 361.192 222.909 361.469 222.812C361.748 222.712 362.055 222.662 362.388 222.662C362.721 222.662 363.026 222.712 363.302 222.812C363.582 222.909 363.822 223.045 364.021 223.222C364.221 223.395 364.376 223.6 364.486 223.836C364.599 224.073 364.656 224.327 364.656 224.601C364.656 224.98 364.568 225.305 364.391 225.575C364.218 225.844 363.956 226.053 363.607 226.199ZM370.741 222.742V223.277C370.741 223.437 370.725 223.566 370.691 223.666C370.658 223.763 370.625 223.845 370.591 223.911L367.854 229.546C367.797 229.663 367.717 229.763 367.614 229.846C367.511 229.926 367.373 229.966 367.199 229.966H366.305L369.098 224.446C369.161 224.332 369.223 224.229 369.283 224.136C369.346 224.039 369.416 223.948 369.492 223.861H366.035C365.959 223.861 365.892 223.833 365.836 223.776C365.779 223.72 365.751 223.653 365.751 223.576V222.742H370.741ZM371.671 231.19C371.611 231.14 371.581 231.078 371.581 231.005C371.581 230.978 371.59 230.948 371.606 230.915C371.626 230.882 371.65 230.852 371.676 230.825C371.713 230.785 371.758 230.735 371.811 230.675C371.864 230.619 371.918 230.552 371.971 230.475C372.024 230.402 372.072 230.321 372.116 230.231C372.162 230.144 372.197 230.051 372.221 229.951C372.114 229.951 372.018 229.933 371.931 229.896C371.844 229.856 371.769 229.803 371.706 229.736C371.646 229.669 371.598 229.591 371.561 229.501C371.528 229.411 371.511 229.313 371.511 229.206C371.511 229.113 371.528 229.027 371.561 228.947C371.598 228.863 371.648 228.792 371.711 228.732C371.774 228.669 371.851 228.62 371.941 228.587C372.031 228.55 372.129 228.532 372.236 228.532C372.362 228.532 372.472 228.555 372.565 228.602C372.662 228.645 372.74 228.707 372.8 228.787C372.863 228.863 372.91 228.953 372.94 229.057C372.973 229.157 372.99 229.263 372.99 229.376C372.99 229.536 372.965 229.704 372.915 229.881C372.868 230.057 372.799 230.234 372.705 230.41C372.612 230.587 372.495 230.758 372.356 230.925C372.219 231.091 372.063 231.245 371.886 231.385L371.671 231.19ZM376.321 229.082C376.524 229.082 376.702 229.053 376.855 228.997C377.009 228.937 377.137 228.855 377.24 228.752C377.347 228.649 377.427 228.525 377.48 228.382C377.533 228.239 377.56 228.084 377.56 227.918C377.56 227.521 377.45 227.222 377.23 227.018C377.01 226.815 376.707 226.714 376.321 226.714C375.935 226.714 375.631 226.815 375.412 227.018C375.192 227.222 375.082 227.521 375.082 227.918C375.082 228.084 375.109 228.239 375.162 228.382C375.215 228.525 375.293 228.649 375.397 228.752C375.503 228.855 375.633 228.937 375.786 228.997C375.94 229.053 376.118 229.082 376.321 229.082ZM376.321 223.591C376.138 223.591 375.979 223.62 375.846 223.676C375.713 223.733 375.601 223.81 375.512 223.906C375.425 223.999 375.36 224.108 375.317 224.231C375.277 224.354 375.257 224.484 375.257 224.621C375.257 224.764 375.273 224.904 375.307 225.04C375.343 225.173 375.403 225.293 375.487 225.4C375.57 225.503 375.68 225.586 375.816 225.65C375.953 225.713 376.121 225.745 376.321 225.745C376.521 225.745 376.689 225.713 376.825 225.65C376.962 225.586 377.072 225.503 377.155 225.4C377.238 225.293 377.297 225.173 377.33 225.04C377.367 224.904 377.385 224.764 377.385 224.621C377.385 224.484 377.363 224.354 377.32 224.231C377.277 224.108 377.212 223.999 377.125 223.906C377.039 223.81 376.929 223.733 376.795 223.676C376.662 223.62 376.504 223.591 376.321 223.591ZM377.54 226.199C377.979 226.342 378.304 226.562 378.514 226.859C378.724 227.152 378.829 227.511 378.829 227.938C378.829 228.257 378.767 228.547 378.644 228.807C378.524 229.067 378.354 229.288 378.134 229.471C377.914 229.654 377.65 229.796 377.34 229.896C377.034 229.996 376.694 230.046 376.321 230.046C375.948 230.046 375.606 229.996 375.297 229.896C374.99 229.796 374.727 229.654 374.507 229.471C374.288 229.288 374.116 229.067 373.993 228.807C373.873 228.547 373.813 228.257 373.813 227.938C373.813 227.511 373.918 227.152 374.128 226.859C374.338 226.562 374.662 226.342 375.102 226.199C374.752 226.053 374.489 225.844 374.313 225.575C374.139 225.305 374.053 224.98 374.053 224.601C374.053 224.327 374.108 224.073 374.218 223.836C374.331 223.6 374.487 223.395 374.687 223.222C374.887 223.045 375.125 222.909 375.402 222.812C375.681 222.712 375.988 222.662 376.321 222.662C376.654 222.662 376.959 222.712 377.235 222.812C377.515 222.909 377.755 223.045 377.954 223.222C378.154 223.395 378.309 223.6 378.419 223.836C378.532 224.073 378.589 224.327 378.589 224.601C378.589 224.98 378.501 225.305 378.324 225.575C378.151 225.844 377.889 226.053 377.54 226.199ZM384.764 226.354C384.764 226.983 384.696 227.531 384.559 227.998C384.426 228.46 384.24 228.843 384 229.147C383.763 229.45 383.482 229.676 383.156 229.826C382.833 229.972 382.483 230.046 382.107 230.046C381.73 230.046 381.381 229.972 381.057 229.826C380.738 229.676 380.46 229.45 380.223 229.147C379.987 228.843 379.802 228.46 379.669 227.998C379.535 227.531 379.469 226.983 379.469 226.354C379.469 225.721 379.535 225.173 379.669 224.71C379.802 224.248 379.987 223.865 380.223 223.561C380.46 223.258 380.738 223.034 381.057 222.887C381.381 222.737 381.73 222.662 382.107 222.662C382.483 222.662 382.833 222.737 383.156 222.887C383.482 223.034 383.763 223.258 384 223.561C384.24 223.865 384.426 224.248 384.559 224.71C384.696 225.173 384.764 225.721 384.764 226.354ZM383.49 226.354C383.49 225.831 383.452 225.398 383.375 225.055C383.299 224.712 383.196 224.439 383.066 224.236C382.939 224.033 382.793 223.891 382.626 223.811C382.46 223.728 382.286 223.686 382.107 223.686C381.93 223.686 381.759 223.728 381.592 223.811C381.429 223.891 381.284 224.033 381.157 224.236C381.031 224.439 380.929 224.712 380.853 225.055C380.779 225.398 380.743 225.831 380.743 226.354C380.743 226.877 380.779 227.31 380.853 227.653C380.929 227.996 381.031 228.269 381.157 228.472C381.284 228.675 381.429 228.818 381.592 228.902C381.759 228.982 381.93 229.022 382.107 229.022C382.286 229.022 382.46 228.982 382.626 228.902C382.793 228.818 382.939 228.675 383.066 228.472C383.196 228.269 383.299 227.996 383.375 227.653C383.452 227.31 383.49 226.877 383.49 226.354ZM385.624 229.966V224.84H386.379C386.538 224.84 386.643 224.915 386.693 225.065L386.773 225.445C386.863 225.345 386.956 225.253 387.053 225.17C387.153 225.087 387.258 225.015 387.368 224.955C387.481 224.895 387.601 224.849 387.727 224.815C387.857 224.779 387.999 224.76 388.152 224.76C388.475 224.76 388.74 224.849 388.946 225.025C389.156 225.198 389.313 225.43 389.416 225.72C389.496 225.55 389.596 225.405 389.716 225.285C389.836 225.162 389.967 225.062 390.11 224.985C390.253 224.909 390.405 224.852 390.565 224.815C390.728 224.779 390.891 224.76 391.054 224.76C391.338 224.76 391.589 224.804 391.809 224.89C392.029 224.977 392.213 225.103 392.363 225.27C392.513 225.436 392.626 225.64 392.703 225.879C392.783 226.119 392.823 226.394 392.823 226.704V229.966H391.589V226.704C391.589 226.377 391.517 226.133 391.374 225.969C391.231 225.803 391.021 225.72 390.745 225.72C390.618 225.72 390.5 225.741 390.39 225.785C390.283 225.828 390.189 225.891 390.105 225.974C390.025 226.054 389.962 226.156 389.915 226.279C389.869 226.402 389.845 226.544 389.845 226.704V229.966H388.607V226.704C388.607 226.361 388.537 226.111 388.397 225.954C388.26 225.798 388.059 225.72 387.792 225.72C387.612 225.72 387.444 225.765 387.288 225.854C387.135 225.941 386.991 226.061 386.858 226.214V229.966H385.624ZM398.287 228.817C398.42 228.817 398.525 228.855 398.602 228.932C398.682 229.005 398.722 229.103 398.722 229.226V229.966H393.766V229.556C393.766 229.473 393.783 229.386 393.816 229.296C393.853 229.203 393.909 229.12 393.986 229.047L396.179 226.849C396.362 226.662 396.525 226.484 396.668 226.314C396.815 226.144 396.936 225.976 397.033 225.809C397.13 225.643 397.203 225.475 397.253 225.305C397.306 225.132 397.333 224.95 397.333 224.76C397.333 224.587 397.308 224.436 397.258 224.306C397.208 224.173 397.136 224.061 397.043 223.971C396.953 223.881 396.843 223.815 396.713 223.771C396.587 223.725 396.444 223.701 396.284 223.701C396.137 223.701 396.001 223.723 395.874 223.766C395.751 223.806 395.641 223.865 395.544 223.941C395.448 224.014 395.366 224.101 395.3 224.201C395.233 224.301 395.183 224.411 395.15 224.531C395.093 224.684 395.02 224.785 394.93 224.835C394.84 224.885 394.71 224.897 394.54 224.87L393.891 224.755C393.941 224.409 394.037 224.106 394.181 223.846C394.324 223.583 394.502 223.365 394.715 223.192C394.932 223.015 395.178 222.884 395.454 222.797C395.734 222.707 396.034 222.662 396.354 222.662C396.687 222.662 396.991 222.712 397.268 222.812C397.544 222.909 397.781 223.047 397.977 223.227C398.174 223.407 398.327 223.623 398.437 223.876C398.547 224.129 398.602 224.411 398.602 224.72C398.602 224.987 398.562 225.233 398.482 225.46C398.405 225.686 398.3 225.903 398.167 226.109C398.037 226.316 397.884 226.516 397.707 226.709C397.531 226.902 397.346 227.098 397.153 227.298L395.524 228.962C395.681 228.915 395.836 228.88 395.989 228.857C396.146 228.83 396.294 228.817 396.434 228.817H398.287Z" fill="#020203"/>
<path d="M516.977 226.521H514.799V232.64H513.455V226.521H511.277V225.417H516.977V226.521ZM520.675 229.918V227.555C520.675 227.332 520.69 227.085 520.72 226.816L518.477 229.918H520.675ZM522.658 229.918V230.632C522.658 230.699 522.636 230.757 522.593 230.807C522.55 230.854 522.488 230.877 522.408 230.877H521.749V232.64H520.675V230.877H517.628C517.544 230.877 517.471 230.852 517.408 230.802C517.344 230.749 517.305 230.684 517.288 230.607L517.158 229.983L520.58 225.412H521.749V229.918H522.658ZM525.811 231.756C526.014 231.756 526.192 231.728 526.346 231.671C526.499 231.611 526.627 231.53 526.73 231.426C526.837 231.323 526.917 231.2 526.97 231.057C527.023 230.914 527.05 230.759 527.05 230.592C527.05 230.196 526.94 229.896 526.72 229.693C526.501 229.49 526.197 229.388 525.811 229.388C525.425 229.388 525.122 229.49 524.902 229.693C524.682 229.896 524.572 230.196 524.572 230.592C524.572 230.759 524.599 230.914 524.652 231.057C524.705 231.2 524.784 231.323 524.887 231.426C524.994 231.53 525.123 231.611 525.277 231.671C525.43 231.728 525.608 231.756 525.811 231.756ZM525.811 226.266C525.628 226.266 525.47 226.294 525.337 226.351C525.203 226.408 525.092 226.484 525.002 226.581C524.915 226.674 524.85 226.782 524.807 226.905C524.767 227.029 524.747 227.159 524.747 227.295C524.747 227.438 524.764 227.578 524.797 227.715C524.834 227.848 524.894 227.968 524.977 228.074C525.06 228.178 525.17 228.261 525.307 228.324C525.443 228.387 525.611 228.419 525.811 228.419C526.011 228.419 526.179 228.387 526.316 228.324C526.452 228.261 526.562 228.178 526.645 228.074C526.729 227.968 526.787 227.848 526.82 227.715C526.857 227.578 526.875 227.438 526.875 227.295C526.875 227.159 526.854 227.029 526.81 226.905C526.767 226.782 526.702 226.674 526.615 226.581C526.529 226.484 526.419 226.408 526.286 226.351C526.153 226.294 525.994 226.266 525.811 226.266ZM527.03 228.874C527.47 229.017 527.794 229.237 528.004 229.533C528.214 229.826 528.319 230.186 528.319 230.612C528.319 230.932 528.257 231.222 528.134 231.481C528.014 231.741 527.844 231.963 527.625 232.146C527.405 232.329 527.14 232.471 526.83 232.57C526.524 232.67 526.184 232.72 525.811 232.72C525.438 232.72 525.097 232.67 524.787 232.57C524.481 232.471 524.218 232.329 523.998 232.146C523.778 231.963 523.606 231.741 523.483 231.481C523.363 231.222 523.303 230.932 523.303 230.612C523.303 230.186 523.408 229.826 523.618 229.533C523.828 229.237 524.153 229.017 524.592 228.874C524.243 228.727 523.979 228.519 523.803 228.249C523.63 227.979 523.543 227.655 523.543 227.275C523.543 227.002 523.598 226.747 523.708 226.511C523.821 226.274 523.978 226.07 524.178 225.896C524.377 225.72 524.616 225.583 524.892 225.487C525.172 225.387 525.478 225.337 525.811 225.337C526.144 225.337 526.449 225.387 526.725 225.487C527.005 225.583 527.245 225.72 527.445 225.896C527.645 226.07 527.799 226.274 527.909 226.511C528.023 226.747 528.079 227.002 528.079 227.275C528.079 227.655 527.991 227.979 527.814 228.249C527.641 228.519 527.38 228.727 527.03 228.874ZM531.317 228.039L531.067 228.349C531.207 228.279 531.357 228.226 531.517 228.189C531.68 228.149 531.855 228.129 532.041 228.129C532.315 228.129 532.579 228.174 532.836 228.264C533.096 228.354 533.324 228.491 533.52 228.674C533.717 228.854 533.875 229.079 533.995 229.348C534.115 229.618 534.175 229.933 534.175 230.292C534.175 230.629 534.113 230.945 533.99 231.242C533.866 231.535 533.693 231.791 533.47 232.011C533.247 232.231 532.977 232.404 532.661 232.53C532.348 232.657 532.001 232.72 531.622 232.72C531.235 232.72 530.889 232.659 530.583 232.535C530.276 232.412 530.015 232.241 529.798 232.021C529.582 231.798 529.415 231.531 529.299 231.222C529.186 230.909 529.129 230.562 529.129 230.183C529.129 229.843 529.197 229.495 529.334 229.138C529.474 228.779 529.689 228.406 529.978 228.019L531.702 225.706C531.762 225.627 531.848 225.558 531.962 225.502C532.078 225.445 532.211 225.417 532.361 225.417H533.46L531.317 228.039ZM531.597 231.711C531.793 231.711 531.973 231.678 532.136 231.611C532.303 231.545 532.444 231.451 532.561 231.332C532.681 231.212 532.774 231.072 532.841 230.912C532.907 230.749 532.941 230.572 532.941 230.382C532.941 230.176 532.909 229.991 532.846 229.828C532.782 229.661 532.693 229.521 532.576 229.408C532.459 229.292 532.32 229.203 532.156 229.143C531.993 229.084 531.813 229.054 531.617 229.054C531.42 229.054 531.242 229.087 531.082 229.153C530.922 229.22 530.786 229.313 530.673 229.433C530.559 229.55 530.471 229.69 530.408 229.853C530.345 230.013 530.313 230.186 530.313 230.372C530.313 230.572 530.34 230.755 530.393 230.922C530.45 231.085 530.531 231.225 530.638 231.342C530.748 231.458 530.882 231.55 531.042 231.616C531.202 231.68 531.387 231.711 531.597 231.711ZM535.095 233.864C535.035 233.814 535.005 233.753 535.005 233.679C535.005 233.653 535.013 233.623 535.03 233.59C535.05 233.556 535.073 233.526 535.1 233.5C535.136 233.46 535.181 233.41 535.234 233.35C535.288 233.293 535.341 233.227 535.394 233.15C535.448 233.077 535.496 232.995 535.539 232.905C535.586 232.819 535.621 232.725 535.644 232.625C535.537 232.625 535.441 232.607 535.354 232.57C535.268 232.53 535.193 232.477 535.129 232.411C535.07 232.344 535.021 232.266 534.985 232.176C534.951 232.086 534.935 231.988 534.935 231.881C534.935 231.788 534.951 231.701 534.985 231.621C535.021 231.538 535.071 231.466 535.134 231.406C535.198 231.343 535.274 231.295 535.364 231.262C535.454 231.225 535.552 231.207 535.659 231.207C535.786 231.207 535.895 231.23 535.989 231.277C536.085 231.32 536.164 231.381 536.224 231.461C536.287 231.538 536.333 231.628 536.363 231.731C536.397 231.831 536.413 231.938 536.413 232.051C536.413 232.211 536.388 232.379 536.338 232.555C536.292 232.732 536.222 232.908 536.129 233.085C536.035 233.262 535.919 233.433 535.779 233.6C535.642 233.766 535.486 233.919 535.309 234.059L535.095 233.864ZM542.017 231.716V232.64H538.021V231.716H539.484V227.505C539.484 227.338 539.489 227.167 539.499 226.99L538.46 227.86C538.4 227.906 538.34 227.936 538.28 227.95C538.224 227.96 538.169 227.96 538.116 227.95C538.066 227.94 538.021 227.923 537.981 227.9C537.941 227.873 537.911 227.845 537.891 227.815L537.501 227.28L539.704 225.407H540.718V231.716H542.017ZM548.188 229.029C548.188 229.658 548.119 230.206 547.983 230.672C547.849 231.135 547.663 231.518 547.423 231.821C547.187 232.124 546.905 232.351 546.579 232.501C546.256 232.647 545.906 232.72 545.53 232.72C545.154 232.72 544.804 232.647 544.481 232.501C544.161 232.351 543.883 232.124 543.647 231.821C543.41 231.518 543.225 231.135 543.092 230.672C542.959 230.206 542.892 229.658 542.892 229.029C542.892 228.396 542.959 227.848 543.092 227.385C543.225 226.922 543.41 226.539 543.647 226.236C543.883 225.933 544.161 225.708 544.481 225.562C544.804 225.412 545.154 225.337 545.53 225.337C545.906 225.337 546.256 225.412 546.579 225.562C546.905 225.708 547.187 225.933 547.423 226.236C547.663 226.539 547.849 226.922 547.983 227.385C548.119 227.848 548.188 228.396 548.188 229.029ZM546.914 229.029C546.914 228.506 546.875 228.073 546.799 227.73C546.722 227.387 546.619 227.114 546.489 226.91C546.362 226.707 546.216 226.566 546.049 226.486C545.883 226.403 545.71 226.361 545.53 226.361C545.353 226.361 545.182 226.403 545.015 226.486C544.852 226.566 544.707 226.707 544.581 226.91C544.454 227.114 544.353 227.387 544.276 227.73C544.203 228.073 544.166 228.506 544.166 229.029C544.166 229.551 544.203 229.984 544.276 230.327C544.353 230.67 544.454 230.944 544.581 231.147C544.707 231.35 544.852 231.493 545.015 231.576C545.182 231.656 545.353 231.696 545.53 231.696C545.71 231.696 545.883 231.656 546.049 231.576C546.216 231.493 546.362 231.35 546.489 231.147C546.619 230.944 546.722 230.67 546.799 230.327C546.875 229.984 546.914 229.551 546.914 229.029ZM549.048 232.64V227.515H549.802C549.962 227.515 550.067 227.59 550.117 227.74L550.197 228.119C550.286 228.019 550.38 227.928 550.476 227.845C550.576 227.761 550.681 227.69 550.791 227.63C550.904 227.57 551.024 227.523 551.151 227.49C551.281 227.453 551.422 227.435 551.575 227.435C551.898 227.435 552.163 227.523 552.37 227.7C552.579 227.873 552.736 228.104 552.839 228.394C552.919 228.224 553.019 228.079 553.139 227.96C553.259 227.836 553.39 227.736 553.534 227.66C553.677 227.583 553.828 227.527 553.988 227.49C554.151 227.453 554.315 227.435 554.478 227.435C554.761 227.435 555.012 227.478 555.232 227.565C555.452 227.651 555.637 227.778 555.787 227.945C555.936 228.111 556.05 228.314 556.126 228.554C556.206 228.794 556.246 229.069 556.246 229.378V232.64H555.012V229.378C555.012 229.052 554.941 228.807 554.797 228.644C554.654 228.477 554.444 228.394 554.168 228.394C554.041 228.394 553.923 228.416 553.813 228.459C553.707 228.502 553.612 228.566 553.529 228.649C553.449 228.729 553.385 228.83 553.339 228.954C553.292 229.077 553.269 229.218 553.269 229.378V232.64H552.03V229.378C552.03 229.035 551.96 228.785 551.82 228.629C551.684 228.472 551.482 228.394 551.216 228.394C551.036 228.394 550.868 228.439 550.711 228.529C550.558 228.616 550.415 228.735 550.281 228.889V232.64H549.048ZM561.71 231.491C561.844 231.491 561.948 231.53 562.025 231.606C562.105 231.68 562.145 231.778 562.145 231.901V232.64H557.189V232.231C557.189 232.147 557.206 232.061 557.239 231.971C557.276 231.878 557.332 231.794 557.409 231.721L559.602 229.523C559.785 229.337 559.949 229.158 560.092 228.989C560.238 228.819 560.36 228.651 560.456 228.484C560.553 228.318 560.626 228.149 560.676 227.979C560.73 227.806 560.756 227.625 560.756 227.435C560.756 227.262 560.731 227.11 560.681 226.98C560.631 226.847 560.56 226.736 560.466 226.646C560.376 226.556 560.267 226.489 560.137 226.446C560.01 226.399 559.867 226.376 559.707 226.376C559.561 226.376 559.424 226.398 559.297 226.441C559.174 226.481 559.064 226.539 558.968 226.616C558.871 226.689 558.79 226.776 558.723 226.875C558.656 226.975 558.606 227.085 558.573 227.205C558.516 227.358 558.443 227.46 558.353 227.51C558.263 227.56 558.133 227.572 557.964 227.545L557.314 227.43C557.364 227.084 557.461 226.781 557.604 226.521C557.747 226.258 557.925 226.04 558.138 225.866C558.355 225.69 558.601 225.558 558.878 225.472C559.158 225.382 559.457 225.337 559.777 225.337C560.11 225.337 560.415 225.387 560.691 225.487C560.968 225.583 561.204 225.721 561.401 225.901C561.597 226.081 561.75 226.298 561.86 226.551C561.97 226.804 562.025 227.085 562.025 227.395C562.025 227.661 561.985 227.908 561.905 228.134C561.829 228.361 561.724 228.577 561.59 228.784C561.461 228.99 561.307 229.19 561.131 229.383C560.954 229.576 560.769 229.773 560.576 229.973L558.948 231.636C559.104 231.59 559.259 231.555 559.412 231.531C559.569 231.505 559.717 231.491 559.857 231.491H561.71Z" fill="#020203"/>
<path d="M358.291 287.062H332.807" stroke="#9E9D9C" stroke-width="0.4155" stroke-miterlimit="10"/>
<path d="M386.202 287.062H359.808" stroke="#9E9D9C" stroke-width="0.4155" stroke-miterlimit="10"/>
<path d="M519.992 287.213H494.66" stroke="#9E9D9C" stroke-width="0.4155" stroke-miterlimit="10"/>
<path d="M547.903 287.213H521.509" stroke="#9E9D9C" stroke-width="0.4155" stroke-miterlimit="10"/>
<path d="M211 223.102V207.188" stroke="#9E9D9C" stroke-width="0.5007" stroke-miterlimit="10"/>
<path d="M212.365 207.491V189.455" stroke="#9E9D9C" stroke-width="0.5007" stroke-miterlimit="10"/>
<path d="M333.565 172.934L322.189 183.695" stroke="#9E9D9C" stroke-width="0.764" stroke-miterlimit="10"/>
<path d="M333.717 172.631C333.717 172.631 330.076 168.539 322.34 168.236" stroke="#9E9D9C" stroke-width="0.2157" stroke-miterlimit="10"/>
<path d="M359.504 99.4258H371.488" stroke="#9E9D9C" stroke-width="0.4163" stroke-miterlimit="10"/>
<path d="M346.307 99.4258H358.746" stroke="#9E9D9C" stroke-width="0.4163" stroke-miterlimit="10"/>
<path d="M405.77 99.4258H417.753" stroke="#9E9D9C" stroke-width="0.4163" stroke-miterlimit="10"/>
<path d="M392.573 99.4258H405.011" stroke="#9E9D9C" stroke-width="0.4163" stroke-miterlimit="10"/>
<path d="M502.548 97.1523V163.083" stroke="#1E1E1C" stroke-width="0.4163" stroke-miterlimit="10"/>
<path d="M482.069 195.517V198.549" stroke="#1E1E1C" stroke-width="0.4163" stroke-miterlimit="10"/>
<path d="M504.823 161.87L505.126 146.865" stroke="#9E9D9C" stroke-width="0.4163" stroke-miterlimit="10"/>
<path d="M505.126 146.562C505.126 146.562 510.435 146.411 515.593 151.715C515.593 151.715 519.385 156.262 519.385 161.415" stroke="#9E9D9C" stroke-width="0.2081" stroke-miterlimit="10"/>
<path d="M558.521 156.262H540.622" stroke="#9E9D9C" stroke-width="0.4163" stroke-miterlimit="10"/>
<path d="M541.987 155.201H525.301" stroke="#9E9D9C" stroke-width="0.4163" stroke-miterlimit="10"/>
<path d="M592.348 224.769H577.179" stroke="#9E9D9C" stroke-width="0.3318" stroke-miterlimit="10"/>
<path d="M578.241 224.011H564.133" stroke="#9E9D9C" stroke-width="0.3318" stroke-miterlimit="10"/>
<path d="M500.576 162.931H504.52" stroke="#1E1E1C" stroke-width="0.4163" stroke-miterlimit="10"/>
<path d="M482.069 214.766V213.402" stroke="#1E1E1C" stroke-width="0.4163" stroke-miterlimit="10"/>
<path d="M520.295 98.668H508.464" stroke="#9E9D9C" stroke-width="0.4163" stroke-miterlimit="10"/>
<path d="M533.492 98.668H521.054" stroke="#9E9D9C" stroke-width="0.4163" stroke-miterlimit="10"/>
<path d="M474.03 98.668H462.046" stroke="#9E9D9C" stroke-width="0.4163" stroke-miterlimit="10"/>
<path d="M487.227 98.668H474.788" stroke="#9E9D9C" stroke-width="0.4163" stroke-miterlimit="10"/>
<path d="M680.934 97.1523H677.142V153.382H680.934V97.1523Z" fill="#1E1E1C"/>
<path d="M735.239 99.2743V150.806L721.739 164.144H718.098" stroke="#1E1E1C" stroke-width="0.4163" stroke-miterlimit="10"/>
<path d="M795.46 166.72H744.189L741.307 169.751" stroke="#1E1E1C" stroke-width="0.4163" stroke-miterlimit="10"/>
<path d="M702.171 154.292V163.992H680.934V153.534" stroke="#1E1E1C" stroke-width="0.4163" stroke-miterlimit="10"/>
<path d="M732.661 155.504L743.127 144.592" stroke="#9E9D9C" stroke-width="0.4163" stroke-miterlimit="10"/>
<path d="M743.279 144.44C743.279 144.44 747.223 148.078 747.375 155.504C747.375 155.504 747.526 160.809 742.521 165.811" stroke="#9E9D9C" stroke-width="0.2081" stroke-miterlimit="10"/>
<path d="M703.688 163.84L703.991 148.684" stroke="#9E9D9C" stroke-width="0.4163" stroke-miterlimit="10"/>
<path d="M703.84 148.381C703.84 148.381 709.149 148.229 714.458 153.534C714.458 153.534 718.25 157.323 718.099 164.295" stroke="#9E9D9C" stroke-width="0.2081" stroke-miterlimit="10"/>
<path d="M661.67 236.439L650.596 226.133" stroke="#9E9D9C" stroke-width="0.4163" stroke-miterlimit="10"/>
<path d="M661.973 236.591C661.973 236.591 658.484 240.683 651.052 240.986" stroke="#9E9D9C" stroke-width="0.2081" stroke-miterlimit="10"/>
<path d="M634.366 167.175L623.141 177.481" stroke="#9E9D9C" stroke-width="0.4163" stroke-miterlimit="10"/>
<path d="M634.517 167.023C634.517 167.023 638.31 170.812 638.006 178.239" stroke="#9E9D9C" stroke-width="0.2081" stroke-miterlimit="10"/>
<path d="M637.096 313.585L637.4 328.742" stroke="#9E9D9C" stroke-width="0.4163" stroke-miterlimit="10"/>
<path d="M637.096 313.282C637.096 313.282 642.405 312.979 647.866 318.132C647.866 318.132 651.203 322.225 652.417 327.681" stroke="#9E9D9C" stroke-width="0.2081" stroke-miterlimit="10"/>
<path d="M701.261 153.837H691.401" stroke="#9E9D9C" stroke-width="0.3322" stroke-miterlimit="10"/>
<path d="M692.311 154.898H681.086" stroke="#9E9D9C" stroke-width="0.3322" stroke-miterlimit="10"/>
<path d="M618.438 198.397V209.764" stroke="#9E9D9C" stroke-width="0.4163" stroke-miterlimit="10"/>
<path d="M619.197 208.855V221.889" stroke="#9E9D9C" stroke-width="0.4163" stroke-miterlimit="10"/>
<path d="M717.492 99.1227H705.508" stroke="#9E9D9C" stroke-width="0.4163" stroke-miterlimit="10"/>
<path d="M730.537 99.1227H718.098" stroke="#9E9D9C" stroke-width="0.4163" stroke-miterlimit="10"/>
<path d="M794.247 128.071V116.098" stroke="#9E9D9C" stroke-width="0.4163" stroke-miterlimit="10"/>
<path d="M794.247 141.257V128.829" stroke="#9E9D9C" stroke-width="0.4163" stroke-miterlimit="10"/>
<path d="M794.247 205.369V193.395" stroke="#9E9D9C" stroke-width="0.4163" stroke-miterlimit="10"/>
<path d="M794.247 218.403V205.975" stroke="#9E9D9C" stroke-width="0.4163" stroke-miterlimit="10"/>
<path d="M794.398 258.568V236.136" stroke="#9E9D9C" stroke-width="0.4163" stroke-miterlimit="10"/>
<path d="M794.398 283.424V259.932" stroke="#9E9D9C" stroke-width="0.4163" stroke-miterlimit="10"/>
<path d="M737.06 299.035H752.836" stroke="#9E9D9C" stroke-width="0.4163" stroke-miterlimit="10"/>
<path d="M705.508 299.035H720.677" stroke="#9E9D9C" stroke-width="0.4163" stroke-miterlimit="10"/>
<path d="M721.132 299.035H736.453" stroke="#9E9D9C" stroke-width="0.4163" stroke-miterlimit="10"/>
<path d="M596.14 330.106H618.742" stroke="#9E9D9C" stroke-width="0.4163" stroke-miterlimit="10"/>
<path d="M571.263 330.106H594.775" stroke="#9E9D9C" stroke-width="0.4163" stroke-miterlimit="10"/>
<path d="M716.766 242.759H714.588V248.879H713.244V242.759H711.066V241.655H716.766V242.759ZM720.464 246.156V243.793C720.464 243.57 720.479 243.324 720.509 243.054L718.266 246.156H720.464ZM722.447 246.156V246.87C722.447 246.937 722.425 246.995 722.382 247.045C722.339 247.092 722.277 247.115 722.197 247.115H721.538V248.879H720.464V247.115H717.416C717.333 247.115 717.26 247.09 717.197 247.04C717.133 246.987 717.093 246.922 717.077 246.845L716.947 246.221L720.369 241.65H721.538V246.156H722.447ZM724.351 243.823C724.351 244.226 724.454 244.534 724.661 244.747C724.871 244.957 725.167 245.062 725.55 245.062C725.75 245.062 725.928 245.03 726.085 244.967C726.241 244.904 726.373 244.817 726.479 244.707C726.586 244.597 726.666 244.468 726.719 244.318C726.776 244.168 726.804 244.006 726.804 243.833C726.804 243.637 726.774 243.462 726.714 243.309C726.654 243.152 726.569 243.02 726.459 242.914C726.349 242.807 726.218 242.726 726.065 242.669C725.915 242.613 725.75 242.584 725.57 242.584C725.383 242.584 725.215 242.616 725.065 242.679C724.916 242.739 724.787 242.824 724.681 242.934C724.574 243.044 724.493 243.175 724.436 243.329C724.379 243.478 724.351 243.643 724.351 243.823ZM725.99 246.076C726.046 246.006 726.1 245.938 726.149 245.871C726.199 245.805 726.248 245.738 726.294 245.671C726.128 245.778 725.945 245.86 725.745 245.916C725.545 245.97 725.335 245.996 725.115 245.996C724.866 245.996 724.621 245.953 724.381 245.866C724.141 245.78 723.928 245.65 723.742 245.477C723.555 245.3 723.404 245.084 723.287 244.827C723.174 244.567 723.117 244.264 723.117 243.918C723.117 243.595 723.177 243.292 723.297 243.009C723.417 242.726 723.585 242.478 723.802 242.264C724.018 242.051 724.278 241.883 724.581 241.76C724.884 241.637 725.219 241.575 725.585 241.575C725.955 241.575 726.286 241.633 726.579 241.75C726.876 241.867 727.127 242.03 727.333 242.24C727.543 242.449 727.703 242.701 727.813 242.994C727.926 243.287 727.983 243.608 727.983 243.958C727.983 244.181 727.963 244.393 727.923 244.592C727.886 244.792 727.833 244.985 727.763 245.172C727.693 245.355 727.608 245.535 727.508 245.711C727.408 245.888 727.297 246.063 727.174 246.236L725.52 248.594C725.463 248.674 725.378 248.742 725.265 248.799C725.152 248.852 725.024 248.879 724.881 248.879H723.747L725.99 246.076ZM734.043 245.267C734.043 245.896 733.975 246.444 733.838 246.91C733.705 247.373 733.519 247.756 733.279 248.059C733.043 248.362 732.761 248.589 732.435 248.739C732.112 248.885 731.762 248.959 731.386 248.959C731.009 248.959 730.66 248.885 730.337 248.739C730.017 248.589 729.739 248.362 729.502 248.059C729.266 247.756 729.081 247.373 728.948 246.91C728.815 246.444 728.748 245.896 728.748 245.267C728.748 244.634 728.815 244.086 728.948 243.623C729.081 243.16 729.266 242.777 729.502 242.474C729.739 242.171 730.017 241.946 730.337 241.8C730.66 241.65 731.009 241.575 731.386 241.575C731.762 241.575 732.112 241.65 732.435 241.8C732.761 241.946 733.043 242.171 733.279 242.474C733.519 242.777 733.705 243.16 733.838 243.623C733.975 244.086 734.043 244.634 734.043 245.267ZM732.769 245.267C732.769 244.744 732.731 244.311 732.655 243.968C732.578 243.625 732.475 243.352 732.345 243.149C732.218 242.946 732.072 242.804 731.905 242.724C731.739 242.641 731.565 242.599 731.386 242.599C731.209 242.599 731.038 242.641 730.871 242.724C730.708 242.804 730.563 242.946 730.436 243.149C730.31 243.352 730.208 243.625 730.132 243.968C730.058 244.311 730.022 244.744 730.022 245.267C730.022 245.79 730.058 246.223 730.132 246.566C730.208 246.909 730.31 247.182 730.436 247.385C730.563 247.588 730.708 247.731 730.871 247.815C731.038 247.895 731.209 247.934 731.386 247.934C731.565 247.934 731.739 247.895 731.905 247.815C732.072 247.731 732.218 247.588 732.345 247.385C732.475 247.182 732.578 246.909 732.655 246.566C732.731 246.223 732.769 245.79 732.769 245.267ZM734.883 250.103C734.823 250.053 734.793 249.991 734.793 249.918C734.793 249.891 734.802 249.861 734.818 249.828C734.838 249.795 734.862 249.765 734.888 249.738C734.925 249.698 734.97 249.648 735.023 249.588C735.077 249.531 735.13 249.465 735.183 249.388C735.236 249.315 735.285 249.233 735.328 249.143C735.375 249.057 735.41 248.964 735.433 248.864C735.326 248.864 735.23 248.845 735.143 248.809C735.057 248.769 734.982 248.715 734.918 248.649C734.858 248.582 734.81 248.504 734.773 248.414C734.74 248.324 734.723 248.226 734.723 248.119C734.723 248.026 734.74 247.939 734.773 247.86C734.81 247.776 734.86 247.705 734.923 247.645C734.987 247.581 735.063 247.533 735.153 247.5C735.243 247.463 735.341 247.445 735.448 247.445C735.574 247.445 735.684 247.468 735.778 247.515C735.874 247.558 735.952 247.62 736.012 247.7C736.076 247.776 736.122 247.866 736.152 247.969C736.186 248.069 736.202 248.176 736.202 248.289C736.202 248.449 736.177 248.617 736.127 248.794C736.081 248.97 736.011 249.147 735.917 249.323C735.824 249.5 735.708 249.671 735.568 249.838C735.431 250.004 735.275 250.158 735.098 250.297L734.883 250.103ZM742.091 241.655V242.19C742.091 242.349 742.074 242.479 742.041 242.579C742.007 242.676 741.974 242.757 741.941 242.824L739.203 248.459C739.147 248.576 739.067 248.676 738.964 248.759C738.86 248.839 738.722 248.879 738.549 248.879H737.655L740.447 243.359C740.51 243.245 740.572 243.142 740.632 243.049C740.695 242.952 740.765 242.861 740.842 242.774H737.385C737.308 242.774 737.242 242.746 737.185 242.689C737.128 242.632 737.1 242.566 737.1 242.489V241.655H742.091ZM747.976 245.267C747.976 245.896 747.908 246.444 747.772 246.91C747.638 247.373 747.452 247.756 747.212 248.059C746.976 248.362 746.694 248.589 746.368 248.739C746.045 248.885 745.695 248.959 745.319 248.959C744.942 248.959 744.593 248.885 744.27 248.739C743.95 248.589 743.672 248.362 743.435 248.059C743.199 247.756 743.014 247.373 742.881 246.91C742.748 246.444 742.681 245.896 742.681 245.267C742.681 244.634 742.748 244.086 742.881 243.623C743.014 243.16 743.199 242.777 743.435 242.474C743.672 242.171 743.95 241.946 744.27 241.8C744.593 241.65 744.942 241.575 745.319 241.575C745.695 241.575 746.045 241.65 746.368 241.8C746.694 241.946 746.976 242.171 747.212 242.474C747.452 242.777 747.638 243.16 747.772 243.623C747.908 244.086 747.976 244.634 747.976 245.267ZM746.702 245.267C746.702 244.744 746.664 244.311 746.588 243.968C746.511 243.625 746.408 243.352 746.278 243.149C746.151 242.946 746.005 242.804 745.838 242.724C745.672 242.641 745.499 242.599 745.319 242.599C745.142 242.599 744.971 242.641 744.804 242.724C744.641 242.804 744.496 242.946 744.37 243.149C744.243 243.352 744.141 243.625 744.065 243.968C743.992 244.311 743.955 244.744 743.955 245.267C743.955 245.79 743.992 246.223 744.065 246.566C744.141 246.909 744.243 247.182 744.37 247.385C744.496 247.588 744.641 247.731 744.804 247.815C744.971 247.895 745.142 247.934 745.319 247.934C745.499 247.934 745.672 247.895 745.838 247.815C746.005 247.731 746.151 247.588 746.278 247.385C746.408 247.182 746.511 246.909 746.588 246.566C746.664 246.223 746.702 245.79 746.702 245.267ZM748.836 248.879V243.753H749.591C749.751 243.753 749.855 243.828 749.905 243.978L749.985 244.358C750.075 244.258 750.169 244.166 750.265 244.083C750.365 244 750.47 243.928 750.58 243.868C750.693 243.808 750.813 243.762 750.94 243.728C751.069 243.692 751.211 243.673 751.364 243.673C751.687 243.673 751.952 243.762 752.158 243.938C752.368 244.111 752.525 244.343 752.628 244.632C752.708 244.463 752.808 244.318 752.928 244.198C753.048 244.075 753.179 243.975 753.322 243.898C753.466 243.821 753.617 243.765 753.777 243.728C753.94 243.692 754.103 243.673 754.267 243.673C754.55 243.673 754.801 243.717 755.021 243.803C755.241 243.89 755.426 244.016 755.575 244.183C755.725 244.349 755.839 244.552 755.915 244.792C755.995 245.032 756.035 245.307 756.035 245.617V248.879H754.801V245.617C754.801 245.29 754.73 245.045 754.586 244.882C754.443 244.716 754.233 244.632 753.957 244.632C753.83 244.632 753.712 244.654 753.602 244.697C753.496 244.741 753.401 244.804 753.317 244.887C753.237 244.967 753.174 245.069 753.128 245.192C753.081 245.315 753.058 245.457 753.058 245.617V248.879H751.819V245.617C751.819 245.274 751.749 245.024 751.609 244.867C751.472 244.711 751.271 244.632 751.004 244.632C750.825 244.632 750.656 244.677 750.5 244.767C750.347 244.854 750.203 244.974 750.07 245.127V248.879H748.836ZM761.499 247.73C761.632 247.73 761.737 247.768 761.814 247.845C761.894 247.918 761.934 248.016 761.934 248.139V248.879H756.978V248.469C756.978 248.386 756.995 248.299 757.028 248.209C757.065 248.116 757.121 248.033 757.198 247.959L759.391 245.761C759.574 245.575 759.737 245.397 759.881 245.227C760.027 245.057 760.149 244.889 760.245 244.722C760.342 244.556 760.415 244.388 760.465 244.218C760.518 244.045 760.545 243.863 760.545 243.673C760.545 243.5 760.52 243.349 760.47 243.219C760.42 243.085 760.348 242.974 760.255 242.884C760.165 242.794 760.055 242.727 759.926 242.684C759.799 242.637 759.656 242.614 759.496 242.614C759.349 242.614 759.213 242.636 759.086 242.679C758.963 242.719 758.853 242.777 758.757 242.854C758.66 242.927 758.578 243.014 758.512 243.114C758.445 243.214 758.395 243.324 758.362 243.443C758.305 243.597 758.232 243.698 758.142 243.748C758.052 243.798 757.922 243.81 757.752 243.783L757.103 243.668C757.153 243.322 757.25 243.019 757.393 242.759C757.536 242.496 757.714 242.278 757.927 242.105C758.144 241.928 758.39 241.797 758.667 241.71C758.946 241.62 759.246 241.575 759.566 241.575C759.899 241.575 760.204 241.625 760.48 241.725C760.756 241.822 760.993 241.96 761.189 242.14C761.386 242.319 761.539 242.536 761.649 242.789C761.759 243.042 761.814 243.324 761.814 243.633C761.814 243.9 761.774 244.146 761.694 244.373C761.617 244.599 761.512 244.816 761.379 245.022C761.249 245.229 761.096 245.428 760.92 245.622C760.743 245.815 760.558 246.011 760.365 246.211L758.737 247.875C758.893 247.828 759.048 247.793 759.201 247.77C759.358 247.743 759.506 247.73 759.646 247.73H761.499Z" fill="#020203"/>
<path d="M702.171 163.992H703.688" stroke="#1E1E1C" stroke-width="0.4163" stroke-miterlimit="10"/>
<path d="M731.447 154.595L732.509 155.504" stroke="#1E1E1C" stroke-width="0.4163" stroke-miterlimit="10"/>
<path d="M741.307 169.751L751.773 180.512" stroke="#9E9D9C" stroke-width="0.4163" stroke-miterlimit="10"/>
<path d="M752.077 180.816C752.077 180.816 748.436 184.605 741.004 184.605C741.004 184.605 735.694 184.605 730.84 179.452" stroke="#9E9D9C" stroke-width="0.2081" stroke-miterlimit="10"/>
<path d="M722.801 187.181L722.952 202.186" stroke="#9E9D9C" stroke-width="0.4163" stroke-miterlimit="10"/>
<path d="M722.952 202.489C722.952 202.489 717.643 202.792 712.182 197.639C712.182 197.639 708.239 194.002 708.39 187.03" stroke="#9E9D9C" stroke-width="0.2081" stroke-miterlimit="10"/>
<path d="M724.318 222.192V186.878L730.992 180.058" stroke="#1E1E1C" stroke-width="0.4163" stroke-miterlimit="10"/>
<path d="M724.318 186.878H723.104" stroke="#1E1E1C" stroke-width="0.4163" stroke-miterlimit="10"/>
<path d="M736.049 200.785V191.691H724.217V200.785H736.049Z" stroke="#1E1E1C" stroke-width="0.4163" stroke-miterlimit="10"/>
<path d="M736.149 211.128V201.731" stroke="#9E9D9C" stroke-width="0.3922" stroke-miterlimit="10"/>
<path d="M736.149 221.586V211.735" stroke="#9E9D9C" stroke-width="0.3922" stroke-miterlimit="10"/>
<path d="M794.702 222.344H667.889" stroke="#1E1E1C" stroke-width="0.4163" stroke-miterlimit="10"/>
<path d="M668.799 222.192V205.975" stroke="#9E9D9C" stroke-width="0.4289" stroke-miterlimit="10"/>
<path d="M667.738 207.339V189" stroke="#9E9D9C" stroke-width="0.4289" stroke-miterlimit="10"/>
<path d="M679.743 193.042V188.949H676.103V193.042H679.743Z" fill="#1E1E1C"/>
<path d="M651.052 297.823H636.338" stroke="#9E9D9C" stroke-width="0.4163" stroke-miterlimit="10"/>
<path d="M604.331 297.823H583.246" stroke="#9E9D9C" stroke-width="0.4163" stroke-miterlimit="10"/>
<path d="M479.491 297.52H458.406" stroke="#9E9D9C" stroke-width="0.4163" stroke-miterlimit="10"/>
<path d="M622.257 299.594V171.371H618.919V299.594H622.257Z" fill="#1E1E1C"/>
<path d="M619.73 179.481V176.753H593.032V179.481H619.73Z" fill="#1E1E1C"/>
<path d="M595.532 179.408V161.675H593.105V179.408H595.532Z" fill="#1E1E1C"/>
<path d="M595.537 164.396V161.668H590.835V164.396H595.537Z" fill="#1E1E1C"/>
<path d="M574.372 164.477V161.749H560.872V164.477H574.372Z" fill="#1E1E1C"/>
<path d="M620.865 242.35H650.597V240.683" stroke="#1E1E1C" stroke-width="0.4163" stroke-miterlimit="10"/>
<path d="M650.596 226.133V203.853H621.169" stroke="#1E1E1C" stroke-width="0.4163" stroke-miterlimit="10"/>
<path d="M707.784 186.727H705.357L700.199 182.18H679.418V188.848H668.193V184.756" stroke="#1E1E1C" stroke-width="0.4163" stroke-miterlimit="10"/>
<path d="M679.266 192.941V222.344" stroke="#1E1E1C" stroke-width="0.4163" stroke-miterlimit="10"/>
<path d="M680.934 180.361L696.103 180.209" stroke="#9E9D9C" stroke-width="0.4163" stroke-miterlimit="10"/>
<path d="M696.407 180.361C696.407 180.361 696.558 175.056 691.401 169.751C691.401 169.751 687.609 165.962 680.631 165.962" stroke="#9E9D9C" stroke-width="0.2081" stroke-miterlimit="10"/>
<path d="M680.328 180.361V182.18" stroke="#1E1E1C" stroke-width="0.4163" stroke-miterlimit="10"/>
<path d="M650.445 177.481H640.282V203.853" stroke="#1E1E1C" stroke-width="0.4163" stroke-miterlimit="10"/>
<path d="M651.658 202.944V190.819" stroke="#9E9D9C" stroke-width="0.3598" stroke-miterlimit="10"/>
<path d="M650.748 191.88V178.087" stroke="#9E9D9C" stroke-width="0.3598" stroke-miterlimit="10"/>
<path d="M620.259 154.443L637.248 154.747" stroke="#9E9D9C" stroke-width="0.4682" stroke-miterlimit="10"/>
<path d="M637.551 154.747C637.551 154.747 637.703 160.809 631.787 166.569C631.787 166.569 627.54 170.812 619.652 170.661" stroke="#9E9D9C" stroke-width="0.2341" stroke-miterlimit="10"/>
<path d="M547.448 292.063V288.274H562.01V299.187H583.246V302.976H558.218V292.063H547.448Z" fill="#1E1E1C"/>
<path d="M563.072 288.123V253.263" stroke="#1E1E1C" stroke-width="0.4163" stroke-miterlimit="10"/>
<path d="M563.223 224.618V236.439H592.955V196.578" stroke="#1E1E1C" stroke-width="0.4163" stroke-miterlimit="10"/>
<path d="M592.955 211.886H619.955" stroke="#1E1E1C" stroke-width="0.4163" stroke-miterlimit="10"/>
<path d="M569.898 207.794V192.486H561.555" stroke="#1E1E1C" stroke-width="0.4163" stroke-miterlimit="10"/>
<path d="M569.746 203.702H558.521" stroke="#1E1E1C" stroke-width="0.4163" stroke-miterlimit="10"/>
<path d="M558.673 207.794V192.789" stroke="#1E1E1C" stroke-width="0.4163" stroke-miterlimit="10"/>
<path d="M561.706 189.152H557.914V192.789H561.706V189.152Z" stroke="#1E1E1C" stroke-width="0.4163" stroke-miterlimit="10"/>
<path d="M590.224 163.992L590.073 180.967" stroke="#9E9D9C" stroke-width="0.4682" stroke-miterlimit="10"/>
<path d="M590.073 181.27C590.073 181.27 584.005 181.422 578.241 175.511C578.241 175.511 573.993 171.267 574.145 163.386" stroke="#9E9D9C" stroke-width="0.2341" stroke-miterlimit="10"/>
<path d="M557.611 183.392L542.29 183.241" stroke="#9E9D9C" stroke-width="0.4219" stroke-miterlimit="10"/>
<path d="M541.987 183.241C541.987 183.241 541.835 177.784 547.296 172.48C547.296 172.48 551.088 168.691 558.218 168.842" stroke="#9E9D9C" stroke-width="0.211" stroke-miterlimit="10"/>
<path d="M501.182 162.173L501.031 146.865" stroke="#9E9D9C" stroke-width="0.4219" stroke-miterlimit="10"/>
<path d="M501.031 146.714C501.031 146.714 495.57 146.562 490.261 152.018C490.261 152.018 486.468 155.808 486.62 162.931" stroke="#9E9D9C" stroke-width="0.211" stroke-miterlimit="10"/>
<path d="M557.914 189.152V185.059H481.614V232.044H471.755" stroke="#1E1E1C" stroke-width="0.4163" stroke-miterlimit="10"/>
<path d="M481.766 206.581H443.844" stroke="#1E1E1C" stroke-width="0.4163" stroke-miterlimit="10"/>
<path d="M443.844 221.283H454.917V232.044H443.54" stroke="#1E1E1C" stroke-width="0.4163" stroke-miterlimit="10"/>
<path d="M443.844 162.325H486.772" stroke="#1E1E1C" stroke-width="0.4163" stroke-miterlimit="10"/>
<path d="M483.89 162.325V168.842" stroke="#1E1E1C" stroke-width="0.4163" stroke-miterlimit="10"/>
<path d="M523.936 155.504C523.936 155.504 523.784 167.023 523.936 167.175C524.088 167.326 558.369 167.175 558.369 167.175" stroke="#1E1E1C" stroke-width="0.4163" stroke-miterlimit="10"/>
<path d="M523.936 162.325H519.233" stroke="#1E1E1C" stroke-width="0.4163" stroke-miterlimit="10"/>
<path d="M484.041 183.241L499.362 183.089" stroke="#9E9D9C" stroke-width="0.4219" stroke-miterlimit="10"/>
<path d="M499.514 183.089C499.514 183.089 499.665 177.633 494.205 172.328C494.205 172.328 490.412 168.539 483.283 168.69" stroke="#9E9D9C" stroke-width="0.211" stroke-miterlimit="10"/>
<path d="M455.979 231.893L467.204 242.502" stroke="#9E9D9C" stroke-width="0.4219" stroke-miterlimit="10"/>
<path d="M467.356 242.654C467.356 242.654 471.299 238.864 470.996 231.286" stroke="#9E9D9C" stroke-width="0.211" stroke-miterlimit="10"/>
<path d="M616.315 128.071H632.697V101.699" stroke="#1E1E1C" stroke-width="0.4163" stroke-miterlimit="10"/>
<path d="M593.713 127.92H601.601" stroke="#1E1E1C" stroke-width="0.4163" stroke-miterlimit="10"/>
<path d="M601.297 128.375L612.067 139.287" stroke="#9E9D9C" stroke-width="0.4219" stroke-miterlimit="10"/>
<path d="M612.219 139.439C612.219 139.439 616.163 135.801 616.315 128.223" stroke="#9E9D9C" stroke-width="0.211" stroke-miterlimit="10"/>
<path d="M479.946 298.126V288.577H493.901V291.76H483.131V298.126H479.946Z" fill="#1E1E1C"/>
<path d="M440.658 302.218L441.265 353.598" stroke="#1E1E1C" stroke-width="0.4163" stroke-miterlimit="10"/>
<path d="M355.56 155.504V167.478H321.279V153.382" stroke="#1E1E1C" stroke-width="0.4163" stroke-miterlimit="10"/>
<path d="M355.56 162.022H359.959" stroke="#1E1E1C" stroke-width="0.4163" stroke-miterlimit="10"/>
<path d="M376.19 98.5165V162.476" stroke="#1E1E1C" stroke-width="0.4163" stroke-miterlimit="10"/>
<path d="M378.01 162.325H374.067" stroke="#1E1E1C" stroke-width="0.4163" stroke-miterlimit="10"/>
<path d="M408.045 231.893H397.882V184.756H321.127V188.394V191.577H317.486V188.091L321.127 188.394" stroke="#1E1E1C" stroke-width="0.4163" stroke-miterlimit="10"/>
<path d="M397.882 206.278H437.169" stroke="#1E1E1C" stroke-width="0.4163" stroke-miterlimit="10"/>
<path d="M437.169 221.283H424.276V231.589H422.759" stroke="#1E1E1C" stroke-width="0.4163" stroke-miterlimit="10"/>
<path d="M424.276 231.589H437.018" stroke="#1E1E1C" stroke-width="0.4163" stroke-miterlimit="10"/>
<path d="M437.321 162.325H392.118" stroke="#1E1E1C" stroke-width="0.4163" stroke-miterlimit="10"/>
<path d="M395.606 162.325V168.842" stroke="#1E1E1C" stroke-width="0.4163" stroke-miterlimit="10"/>
<path d="M398.033 162.022V150.351" stroke="#1E1E1C" stroke-width="0.4163" stroke-miterlimit="10"/>
<path d="M385.898 290.245H397.882V300.854H405.163" stroke="#1E1E1C" stroke-width="2.0815" stroke-miterlimit="10"/>
<path d="M436.866 151.261H416.084" stroke="#9E9D9C" stroke-width="0.397" stroke-miterlimit="10"/>
<path d="M417.45 150.351H398.033" stroke="#9E9D9C" stroke-width="0.397" stroke-miterlimit="10"/>
<path d="M355.56 155.959H337.813" stroke="#9E9D9C" stroke-width="0.4163" stroke-miterlimit="10"/>
<path d="M339.026 154.898H322.34" stroke="#9E9D9C" stroke-width="0.4163" stroke-miterlimit="10"/>
<path d="M377.707 147.168L378.01 162.325" stroke="#9E9D9C" stroke-width="0.4163" stroke-miterlimit="10"/>
<path d="M377.707 147.017C377.707 147.017 383.016 146.714 388.477 151.867C388.477 151.867 391.814 155.959 393.028 161.415" stroke="#9E9D9C" stroke-width="0.2081" stroke-miterlimit="10"/>
<path d="M380.589 183.544L395.758 183.089" stroke="#9E9D9C" stroke-width="0.4163" stroke-miterlimit="10"/>
<path d="M380.286 183.544C380.286 183.544 379.982 178.239 384.988 172.783C384.988 172.783 389.084 169.297 394.545 168.084" stroke="#9E9D9C" stroke-width="0.2081" stroke-miterlimit="10"/>
<path d="M411.989 242.805L422.759 232.196" stroke="#9E9D9C" stroke-width="0.4163" stroke-miterlimit="10"/>
<path d="M411.837 242.957C411.837 242.957 407.893 239.319 407.893 231.893" stroke="#9E9D9C" stroke-width="0.2081" stroke-miterlimit="10"/>
<path d="M320.368 299.338H296.098V302.521H320.368V299.338Z" fill="#1E1E1C"/>
<path d="M274.71 299.49H246.647V302.673H274.71V299.49Z" fill="#1E1E1C"/>
<path d="M264.243 172.025H260.451V300.551H264.243V172.025Z" fill="#1E1E1C"/>
<path d="M231.782 164.598V160.809H237.091V176.269H262.575V180.058H233.299V164.598H231.782Z" fill="#1E1E1C"/>
<path d="M215.096 160.658H202.506V164.447H215.096V160.658Z" fill="#1E1E1C"/>
<path d="M317.183 300.854V287.82H331.897V291.002H320.368V300.854H317.183Z" fill="#1E1E1C"/>
<path d="M317.183 287.82V239.774L313.846 237.197" stroke="#1E1E1C" stroke-width="0.4163" stroke-miterlimit="10"/>
<path d="M293.064 181.119H281.536V207.491" stroke="#1E1E1C" stroke-width="0.4163" stroke-miterlimit="10"/>
<path d="M320.975 207.945V191.425C320.975 191.425 310.509 192.031 310.509 191.273V203.399V207.794" stroke="#1E1E1C" stroke-width="0.4163" stroke-miterlimit="10"/>
<path d="M320.975 203.399H310.509" stroke="#1E1E1C" stroke-width="0.4163" stroke-miterlimit="10"/>
<path d="M293.216 206.278V192.486" stroke="#9E9D9C" stroke-width="0.3156" stroke-miterlimit="10"/>
<path d="M293.974 193.395V180.361" stroke="#9E9D9C" stroke-width="0.3156" stroke-miterlimit="10"/>
<path d="M279.716 155.959L264.547 156.262" stroke="#9E9D9C" stroke-width="0.4163" stroke-miterlimit="10"/>
<path d="M279.867 155.959C279.867 155.959 280.171 161.264 275.013 166.72C275.013 166.72 270.918 170.055 265.457 171.267" stroke="#9E9D9C" stroke-width="0.2081" stroke-miterlimit="10"/>
<path d="M230.416 180.664L230.265 165.508" stroke="#9E9D9C" stroke-width="0.4163" stroke-miterlimit="10"/>
<path d="M230.568 180.816C230.568 180.816 225.259 181.119 219.798 175.966C219.798 175.966 216.461 171.873 215.247 166.417" stroke="#9E9D9C" stroke-width="0.2081" stroke-miterlimit="10"/>
<path d="M302.469 248.261L312.329 236.894" stroke="#9E9D9C" stroke-width="0.4163" stroke-miterlimit="10"/>
<path d="M302.317 248.565C302.317 248.565 298.07 245.23 297.463 237.804C297.463 237.804 297.615 232.499 300.497 227.649" stroke="#9E9D9C" stroke-width="0.2081" stroke-miterlimit="10"/>
<path d="M284.57 286.455L274.71 297.823" stroke="#9E9D9C" stroke-width="0.4163" stroke-miterlimit="10"/>
<path d="M284.721 286.152C284.721 286.152 288.817 289.487 289.424 296.913" stroke="#9E9D9C" stroke-width="0.2081" stroke-miterlimit="10"/>
<path d="M275.923 170.206L265.305 180.967" stroke="#9E9D9C" stroke-width="0.4163" stroke-miterlimit="10"/>
<path d="M276.075 170.054C276.075 170.054 280.019 173.692 280.171 181.119" stroke="#9E9D9C" stroke-width="0.2081" stroke-miterlimit="10"/>
<path d="M291.851 292.67L297.008 298.732" stroke="#9E9D9C" stroke-width="0.4163" stroke-miterlimit="10"/>
<path d="M291.699 292.518C291.699 292.518 290.334 293.731 289.272 296.004" stroke="#9E9D9C" stroke-width="0.2081" stroke-miterlimit="10"/>
<path d="M199.927 188.697H211.455V184.605" stroke="#1E1E1C" stroke-width="0.4163" stroke-miterlimit="10"/>
<path d="M228.748 242.502V211.432H261.361" stroke="#1E1E1C" stroke-width="0.4163" stroke-miterlimit="10"/>
<path d="M234.512 211.431V196.427" stroke="#1E1E1C" stroke-width="0.4163" stroke-miterlimit="10"/>
<path d="M245.737 242.502H261.209" stroke="#1E1E1C" stroke-width="0.4163" stroke-miterlimit="10"/>
<path d="M232.388 180.967L222.225 192.183" stroke="#9E9D9C" stroke-width="0.4163" stroke-miterlimit="10"/>
<path d="M222.074 192.334C222.074 192.334 225.866 196.124 233.299 195.82" stroke="#9E9D9C" stroke-width="0.2081" stroke-miterlimit="10"/>
<path d="M84.6427 141.712H81.4573V192.334H84.6427V141.712Z" fill="#1E1E1C"/>
<path d="M81.4573 226.588V211.128H84.6428V223.405H95.261V236.591H92.0755V226.588H81.4573Z" fill="#1E1E1C"/>
<path d="M92.5306 302.521V282.818H95.7161V299.338H127.874V302.521H92.5306Z" fill="#1E1E1C"/>
<path d="M94.0475 299.338H81.3056V302.521H94.0475V299.338Z" fill="#1E1E1C"/>
<path d="M199.927 164.598H176.87V155.808" stroke="#1E1E1C" stroke-width="0.4163" stroke-miterlimit="10"/>
<path d="M82.9742 166.72H134.852L136.672 169.145" stroke="#1E1E1C" stroke-width="0.4163" stroke-miterlimit="10"/>
<path d="M147.897 180.209L155.482 187.939V223.86" stroke="#1E1E1C" stroke-width="0.4163" stroke-miterlimit="10"/>
<path d="M96.0195 223.86H200.534H211.759" stroke="#1E1E1C" stroke-width="0.4163" stroke-miterlimit="10"/>
<path d="M171.713 187.03H174.443L179.297 182.028H199.927V188.697V223.86" stroke="#1E1E1C" stroke-width="0.4163" stroke-miterlimit="10"/>
<path d="M155.178 191.273H144.105V200.519H155.482L155.178 191.273Z" stroke="#1E1E1C" stroke-width="0.4163" stroke-miterlimit="10"/>
<path d="M16.6859 190.213H81.4573V226.588H92.0756V236.591V299.035H81.3056H16.9892L16.6859 190.213Z" fill="#D0D0D0"/>
<path d="M422.455 297.368H403.949" stroke="#9E9D9C" stroke-width="0.4163" stroke-miterlimit="10"/>
<path d="M247.557 297.52H229.203" stroke="#9E9D9C" stroke-width="0.4163" stroke-miterlimit="10"/>
<path d="M85.8563 209.916V191.577" stroke="#9E9D9C" stroke-width="0.4163" stroke-miterlimit="10"/>
<path d="M85.8563 140.803V116.249" stroke="#9E9D9C" stroke-width="0.4163" stroke-miterlimit="10"/>
<path d="M234.209 97.1523H174.595" stroke="#1E1E1C" stroke-width="2.0815" stroke-miterlimit="10"/>
</svg>
