<svg width="818" height="327" viewBox="0 0 818 327" fill="none" xmlns="http://www.w3.org/2000/svg">
<g clip-path="url(#clip0)">
<path d="M816.865 326.133V239.352H696.979V326.133H816.865Z" fill="#D0D0D0"/>
<path d="M693.765 325.169V269.565H578.254V325.169H693.765Z" fill="#D0D0D0"/>
<path d="M574.2 325.168V239.03H457.576V325.168H574.2Z" fill="#D0D0D0"/>
<path d="M453.813 326.132V239.03H336.055V326.132H453.813Z" fill="#D0D0D0"/>
<path d="M97.988 243.05V128.465H0.0010376V243.05H97.988Z" fill="#D0D0D0"/>
<path d="M332.162 326.133V270.548H212.745V326.133H332.162Z" fill="#D0D0D0"/>
<path d="M94.1082 243.055V223.132H97.9331V239.232H141.047V243.057L94.1082 243.055Z" fill="#1D1D1B"/>
<path d="M97.5442 175.36V80.61H93.7192V175.36H97.5442Z" fill="#1D1D1B"/>
<path d="M93.3271 55.161V33.2799L162.583 33.2799V37.1049L97.1521 37.1049V55.161H93.3271Z" fill="#1D1D1B"/>
<path d="M188.033 36.713V32.8881L246.025 32.8881V0L272.995 0V3.82495L249.85 3.82495V36.714L188.033 36.713Z" fill="#1D1D1B"/>
<path d="M216.569 110.367V34.8009H212.744V110.367H216.569Z" fill="#1D1D1B"/>
<path d="M212.744 273.981V128.422H254.201V132.247H216.569V270.156H243.631V273.981H212.744Z" fill="#1D1D1B"/>
<path d="M214.657 243.051V239.226H188.425V243.051H214.657Z" fill="#1D1D1B"/>
<path d="M214.657 273.981V270.156H210.742V273.981H214.657Z" fill="#1D1D1B"/>
<path d="M249.85 72.7799V34.8009H246.025V72.7799H249.85Z" fill="#1D1D1B"/>
<path d="M255.376 40.6288V36.8038H248.329V40.6288H255.376Z" fill="#1D1D1B"/>
<path d="M288.265 4.21594V0.390869L315.235 0.390869V5.43604H311.41V4.21594L288.265 4.21594Z" fill="#1D1D1B"/>
<path d="M281.609 40.629V36.8041H335.595V110.758H331.77V40.629H281.609Z" fill="#1D1D1B"/>
<path d="M334.074 92.7031V88.8781H279.259V92.7031H334.074Z" fill="#1D1D1B"/>
<path d="M309.408 66.862V63.037H279.26V66.862H309.408Z" fill="#1D1D1B"/>
<path d="M331.771 38.7169V32.889H360.307V36.714H335.596V38.714L331.771 38.7169Z" fill="#1D1D1B"/>
<path d="M271.816 131.856V128.033H335.986V293.651H337.986V297.476H332.158V131.856H271.816Z" fill="#1D1D1B"/>
<path d="M334.466 273.981V270.156H323.503V273.981H334.466Z" fill="#1D1D1B"/>
<path d="M276.128 274.373V270.548H260.075V274.373H276.128Z" fill="#1D1D1B"/>
<path d="M346.995 243.051V239.226H334.466V243.051H346.995Z" fill="#1D1D1B"/>
<path d="M420.211 243.051V239.226H401.809V243.051H420.211Z" fill="#1D1D1B"/>
<path d="M453.491 242.659V238.834H437.439V242.659H453.491Z" fill="#1D1D1B"/>
<path d="M433.525 36.713V32.8881H455.795V273.243H451.97V36.713H433.525Z" fill="#1D1D1B"/>
<path d="M408.465 37.497V33.672H386.148V37.497H408.465Z" fill="#1D1D1B"/>
<path d="M455.795 273.244V32.889H476.109V36.714H459.62V273.244H455.795Z" fill="#1D1D1B"/>
<path d="M524.659 37.1049V33.2799H503.125V37.1049H524.659Z" fill="#1D1D1B"/>
<path d="M550.108 37.1049V33.2799L610.75 33.2799V71.9969H606.925V37.1049H550.108Z" fill="#1D1D1B"/>
<path d="M578.254 109.584V35.193H574.429V109.584H578.254Z" fill="#1D1D1B"/>
<path d="M572.035 297.082V293.257H574.429V128.033H638.986V131.858H578.252V297.084L572.035 297.082Z" fill="#1D1D1B"/>
<path d="M576.342 242.659V238.834H564.204V242.659H576.342Z" fill="#1D1D1B"/>
<path d="M509.781 243.051V239.226H489.813V243.051H509.781Z" fill="#1D1D1B"/>
<path d="M473.76 243.051V239.226H458.099V243.051H473.76Z" fill="#1D1D1B"/>
<path d="M656.997 131.465V127.64H697.671V293.256H700.065V297.081H693.846V131.465H656.997Z" fill="#1D1D1B"/>
<path d="M695.759 273.59V269.765H669.918V273.59H695.759Z" fill="#1D1D1B"/>
<path d="M653.865 273.59V269.765H634.68V273.59H653.865Z" fill="#1D1D1B"/>
<path d="M606.923 35.1919V0.391968L634.285 0.391968V4.21692L610.748 4.21692V35.1929L606.923 35.1919Z" fill="#1D1D1B"/>
<path d="M649.167 3.82495V0L677.312 0V5.828H673.487V3.82788L649.167 3.82495Z" fill="#1D1D1B"/>
<path d="M642.902 41.0201V37.1949H697.671V109.588H693.846V41.024L642.902 41.0201Z" fill="#1D1D1B"/>
<path d="M695.367 92.7031V88.8781H640.944V92.7031H695.367Z" fill="#1D1D1B"/>
<path d="M671.484 67.1249V63.2999H641.336V67.1249H671.484Z" fill="#1D1D1B"/>
<path d="M693.847 39.1078V33.2799H722.384V37.1049H697.672V39.1049L693.847 39.1078Z" fill="#1D1D1B"/>
<path d="M748.615 37.496V33.671L817.088 33.671V55.16H813.263V37.496L748.615 37.496Z" fill="#1D1D1B"/>
<path d="M816.697 117.414V80.2189H812.872V117.414H816.697Z" fill="#1D1D1B"/>
<path d="M817.088 176.144V127.594H813.263V176.144H817.088Z" fill="#1D1D1B"/>
<path d="M769.366 243.442V239.617H812.871V222.736H816.695V243.442H769.366Z" fill="#1D1D1B"/>
<path d="M723.166 243.442V239.617H695.759V243.442H723.166Z" fill="#1D1D1B"/>
<path d="M289.173 63.0739V40.6439" stroke="#1D1D1B" stroke-width="2" stroke-miterlimit="10"/>
<path d="M294.296 63.0739V40.6439" stroke="#1D1D1B" stroke-width="2" stroke-miterlimit="10"/>
<path d="M299.419 63.0739V40.6439" stroke="#1D1D1B" stroke-width="2" stroke-miterlimit="10"/>
<path d="M303.904 63.0739L305.649 40.6439" stroke="#1D1D1B" stroke-width="2" stroke-miterlimit="10"/>
<path d="M306.67 63.3139L313.23 40.0209" stroke="#1D1D1B" stroke-width="2" stroke-miterlimit="10"/>
<path d="M308.825 63.3479L322.368 40.0209" stroke="#1D1D1B" stroke-width="2" stroke-miterlimit="10"/>
<path d="M309.128 64.3919L332.51 44.5209" stroke="#1D1D1B" stroke-width="2" stroke-miterlimit="10"/>
<path d="M309.128 65.0649L332.233 57.2589" stroke="#1D1D1B" stroke-width="2" stroke-miterlimit="10"/>
<path d="M309.128 65.705L332.095 66.121" stroke="#1D1D1B" stroke-width="2" stroke-miterlimit="10"/>
<path d="M309.431 66.4789L332.51 75.5349" stroke="#1D1D1B" stroke-width="2" stroke-miterlimit="10"/>
<path d="M308.724 66.277L332.666 88.706" stroke="#1D1D1B" stroke-width="2" stroke-miterlimit="10"/>
<path d="M307.613 66.243L319.772 89.243" stroke="#1D1D1B" stroke-width="2" stroke-miterlimit="10"/>
<path d="M305.373 66.674L311.465 89.52" stroke="#1D1D1B" stroke-width="2" stroke-miterlimit="10"/>
<path d="M302.05 66.536L304.542 89.382" stroke="#1D1D1B" stroke-width="2" stroke-miterlimit="10"/>
<path d="M298.034 66.674V89.104" stroke="#1D1D1B" stroke-width="2" stroke-miterlimit="10"/>
<path d="M293.327 66.3969V89.5198" stroke="#1D1D1B" stroke-width="2" stroke-miterlimit="10"/>
<path d="M656.436 63.3271V40.8971" stroke="#1D1D1B" stroke-width="2" stroke-miterlimit="10"/>
<path d="M661.559 63.3271V40.8971" stroke="#1D1D1B" stroke-width="2" stroke-miterlimit="10"/>
<path d="M666.044 63.3271L667.789 40.8971" stroke="#1D1D1B" stroke-width="2" stroke-miterlimit="10"/>
<path d="M668.81 63.567L675.37 40.274" stroke="#1D1D1B" stroke-width="2" stroke-miterlimit="10"/>
<path d="M670.965 63.601L684.508 40.274" stroke="#1D1D1B" stroke-width="2" stroke-miterlimit="10"/>
<path d="M671.268 64.645L694.65 44.774" stroke="#1D1D1B" stroke-width="2" stroke-miterlimit="10"/>
<path d="M671.268 65.3181L694.373 57.5121" stroke="#1D1D1B" stroke-width="2" stroke-miterlimit="10"/>
<path d="M671.268 65.958L694.235 66.374" stroke="#1D1D1B" stroke-width="2" stroke-miterlimit="10"/>
<path d="M671.571 66.7321L694.65 75.7881" stroke="#1D1D1B" stroke-width="2" stroke-miterlimit="10"/>
<path d="M670.864 66.53L694.806 88.959" stroke="#1D1D1B" stroke-width="2" stroke-miterlimit="10"/>
<path d="M669.753 66.4961L681.912 89.4961" stroke="#1D1D1B" stroke-width="2" stroke-miterlimit="10"/>
<path d="M667.513 66.927L673.605 89.773" stroke="#1D1D1B" stroke-width="2" stroke-miterlimit="10"/>
<path d="M664.19 66.7891L666.682 89.6351" stroke="#1D1D1B" stroke-width="2" stroke-miterlimit="10"/>
<path d="M660.174 66.927V89.357" stroke="#1D1D1B" stroke-width="2" stroke-miterlimit="10"/>
<path d="M655.467 66.65V89.773" stroke="#1D1D1B" stroke-width="2" stroke-miterlimit="10"/>
<path d="M157.986 36.9049V108.073" stroke="#1D1D1B" stroke-miterlimit="10"/>
<path d="M97.2031 99.3497H135.695V111.257" stroke="#1D1D1B" stroke-miterlimit="10"/>
<path d="M135.833 107.796H141.648" stroke="#1D1D1B" stroke-miterlimit="10"/>
<path d="M135.694 126.488V132.719" stroke="#1D1D1B" stroke-miterlimit="10"/>
<path d="M135.971 149.334H97.0642" stroke="#1D1D1B" stroke-miterlimit="10"/>
<path d="M135.694 131.473H96.9261" stroke="#1D1D1B" stroke-miterlimit="10"/>
<path d="M164.771 153.349H153.002V131.196H182.077V154.041H180.346" stroke="#1D1D1B" stroke-miterlimit="10"/>
<path d="M182.217 142.411H213.093" stroke="#1D1D1B" stroke-miterlimit="10"/>
<path d="M212.816 105.304H192.878V107.935" stroke="#1D1D1B" stroke-miterlimit="10"/>
<path d="M192.878 105.303V103.918H181.248V107.656H174.463" stroke="#1D1D1B" stroke-miterlimit="10"/>
<path d="M181.247 103.919V93.9498" stroke="#1D1D1B" stroke-miterlimit="10"/>
<path d="M135.694 111.258L146.598 121.954" stroke="#9D9D9C" stroke-miterlimit="10"/>
<path d="M146.803 122.116C146.803 122.116 143.153 126.108 135.666 126.233" stroke="#9D9D9C" stroke-width="0.5" stroke-miterlimit="10"/>
<path d="M252.276 147.534L263.18 158.23" stroke="#9D9D9C" stroke-miterlimit="10"/>
<path d="M263.385 158.392C263.385 158.392 259.735 162.384 252.248 162.509" stroke="#9D9D9C" stroke-width="0.5" stroke-miterlimit="10"/>
<path d="M320.005 143.443L314.081 148.571" stroke="#9D9D9C" stroke-miterlimit="10"/>
<path d="M313.99 148.669C313.99 148.669 312.101 147.369 312.35 143.536" stroke="#9D9D9C" stroke-width="0.5" stroke-miterlimit="10"/>
<path d="M212.771 127.545L200.483 115.513" stroke="#9D9D9C" stroke-width="2" stroke-miterlimit="10"/>
<path d="M200.483 115.513C200.483 115.513 204.017 111.413 211.497 111.078" stroke="#9D9D9C" stroke-width="0.5" stroke-miterlimit="10"/>
<path d="M159.509 107.034L159.72 91.7617" stroke="#9D9D9C" stroke-miterlimit="10"/>
<path d="M159.695 91.5047C159.695 91.5047 165.103 91.3898 170.362 96.7198C170.362 96.7198 174.184 100.53 173.977 107.591" stroke="#9D9D9C" stroke-width="0.5" stroke-miterlimit="10"/>
<path d="M156.264 107.034L156.053 91.7617" stroke="#9D9D9C" stroke-miterlimit="10"/>
<path d="M156.077 91.5047C156.077 91.5047 150.669 91.3898 145.41 96.7198C145.41 96.7198 141.587 100.53 141.795 107.591" stroke="#9D9D9C" stroke-width="0.5" stroke-miterlimit="10"/>
<path d="M135.694 148.711L146.598 138.015" stroke="#9D9D9C" stroke-miterlimit="10"/>
<path d="M146.803 137.854C146.803 137.854 143.153 133.861 135.666 133.737" stroke="#9D9D9C" stroke-width="0.5" stroke-miterlimit="10"/>
<path d="M164.909 153.78L175.55 164.737" stroke="#9D9D9C" stroke-miterlimit="10"/>
<path d="M175.711 164.943C175.711 164.943 179.723 161.313 179.885 153.827" stroke="#9D9D9C" stroke-width="0.5" stroke-miterlimit="10"/>
<path d="M263.207 170.393L252.138 180.918" stroke="#9D9D9C" stroke-miterlimit="10"/>
<path d="M263.414 170.235C263.414 170.235 259.827 166.185 252.343 165.944" stroke="#9D9D9C" stroke-width="0.5" stroke-miterlimit="10"/>
<path d="M260.183 254.122L259.892 269.393" stroke="#9D9D9C" stroke-miterlimit="10"/>
<path d="M260.216 253.863C260.216 253.863 254.816 253.569 249.383 258.725C247.169 261.58 245.605 264.885 244.8 268.408" stroke="#9D9D9C" stroke-width="0.5" stroke-miterlimit="10"/>
<path d="M436.094 222.554L435.803 237.825" stroke="#9D9D9C" stroke-miterlimit="10"/>
<path d="M436.127 222.295C436.127 222.295 430.727 222.001 425.294 227.156C423.08 230.011 421.516 233.316 420.711 236.839" stroke="#9D9D9C" stroke-width="0.5" stroke-miterlimit="10"/>
<path d="M256.209 194.528L267.403 184.137" stroke="#9D9D9C" stroke-miterlimit="10"/>
<path d="M256 194.684C256 194.684 259.538 198.776 267.019 199.107" stroke="#9D9D9C" stroke-width="0.5" stroke-miterlimit="10"/>
<path d="M159.717 107.865H156.117" stroke="#1D1D1B" stroke-miterlimit="10"/>
<path d="M182.216 93.3959H197.066" stroke="#9D9D9C" stroke-miterlimit="10"/>
<path d="M195.82 94.4348H212.657" stroke="#9D9D9C" stroke-miterlimit="10"/>
<path d="M275.877 137.035V148.643" stroke="#9D9D9C" stroke-miterlimit="10"/>
<path d="M275.155 147.669V160.83" stroke="#9D9D9C" stroke-miterlimit="10"/>
<path d="M175.961 36.756H188.024" stroke="#9D9D9C" stroke-miterlimit="10"/>
<path d="M162.685 36.756H175.215" stroke="#9D9D9C" stroke-miterlimit="10"/>
<path d="M182.943 131.299H197.793" stroke="#9D9D9C" stroke-miterlimit="10"/>
<path d="M196.547 130.365H212.563" stroke="#9D9D9C" stroke-miterlimit="10"/>
<path d="M97.7561 67.3139V55.2509" stroke="#9D9D9C" stroke-miterlimit="10"/>
<path d="M97.7561 80.589V68.059" stroke="#9D9D9C" stroke-miterlimit="10"/>
<path d="M98.311 197.931V175.156" stroke="#9D9D9C" stroke-miterlimit="10"/>
<path d="M98.311 222.994V199.337" stroke="#9D9D9C" stroke-miterlimit="10"/>
<path d="M156.119 238.778H140.229" stroke="#9D9D9C" stroke-miterlimit="10"/>
<path d="M188.067 238.778H172.674" stroke="#9D9D9C" stroke-miterlimit="10"/>
<path d="M172.222 238.778H156.829" stroke="#9D9D9C" stroke-miterlimit="10"/>
<path d="M157.954 182.146H154.706V191.036H153.355V182.146H150.1V181.005H157.954V182.146ZM159.072 183.721C159.137 183.264 159.263 182.86 159.45 182.51C159.636 182.155 159.872 181.859 160.157 181.621C160.446 181.383 160.775 181.203 161.144 181.082C161.517 180.956 161.918 180.893 162.348 180.893C162.772 180.893 163.164 180.954 163.524 181.075C163.883 181.196 164.191 181.369 164.448 181.593C164.709 181.817 164.912 182.088 165.057 182.405C165.201 182.722 165.274 183.075 165.274 183.462C165.274 183.779 165.232 184.064 165.148 184.316C165.068 184.563 164.952 184.78 164.798 184.967C164.648 185.154 164.466 185.312 164.252 185.443C164.037 185.574 163.797 185.681 163.531 185.765C164.184 185.933 164.674 186.222 165.001 186.633C165.332 187.039 165.498 187.548 165.498 188.159C165.498 188.621 165.409 189.036 165.232 189.405C165.059 189.774 164.821 190.089 164.518 190.35C164.214 190.607 163.86 190.805 163.454 190.945C163.052 191.08 162.621 191.148 162.159 191.148C161.627 191.148 161.172 191.083 160.794 190.952C160.416 190.817 160.096 190.632 159.835 190.399C159.573 190.166 159.359 189.89 159.191 189.573C159.023 189.251 158.88 188.903 158.764 188.53L159.303 188.306C159.443 188.245 159.578 188.229 159.709 188.257C159.844 188.285 159.942 188.362 160.003 188.488C160.063 188.619 160.138 188.775 160.227 188.957C160.32 189.139 160.446 189.314 160.605 189.482C160.763 189.65 160.964 189.792 161.207 189.909C161.454 190.026 161.767 190.084 162.145 190.084C162.495 190.084 162.8 190.028 163.062 189.916C163.328 189.799 163.547 189.65 163.72 189.468C163.897 189.286 164.03 189.083 164.119 188.859C164.207 188.635 164.252 188.413 164.252 188.194C164.252 187.923 164.217 187.676 164.147 187.452C164.077 187.228 163.946 187.034 163.755 186.871C163.563 186.708 163.3 186.579 162.964 186.486C162.632 186.393 162.205 186.346 161.683 186.346V185.443C162.112 185.438 162.476 185.392 162.775 185.303C163.078 185.214 163.323 185.093 163.51 184.939C163.701 184.785 163.839 184.601 163.923 184.386C164.011 184.171 164.056 183.933 164.056 183.672C164.056 183.383 164.009 183.131 163.916 182.916C163.827 182.701 163.703 182.524 163.545 182.384C163.386 182.244 163.197 182.139 162.978 182.069C162.763 181.999 162.53 181.964 162.278 181.964C162.026 181.964 161.79 182.001 161.571 182.076C161.356 182.151 161.165 182.256 160.997 182.391C160.833 182.522 160.696 182.678 160.584 182.86C160.472 183.042 160.392 183.243 160.346 183.462C160.285 183.625 160.208 183.735 160.115 183.791C160.026 183.842 159.895 183.856 159.723 183.833L159.072 183.721ZM169.937 184.589L169.587 185.023C169.783 184.925 169.993 184.85 170.217 184.799C170.445 184.743 170.69 184.715 170.952 184.715C171.334 184.715 171.705 184.778 172.065 184.904C172.429 185.03 172.748 185.221 173.024 185.478C173.299 185.73 173.521 186.045 173.689 186.423C173.857 186.801 173.941 187.242 173.941 187.746C173.941 188.217 173.854 188.661 173.682 189.076C173.509 189.487 173.266 189.846 172.954 190.154C172.641 190.462 172.263 190.705 171.82 190.882C171.381 191.059 170.896 191.148 170.364 191.148C169.822 191.148 169.337 191.062 168.908 190.889C168.478 190.716 168.112 190.476 167.809 190.168C167.505 189.855 167.272 189.482 167.109 189.048C166.95 188.609 166.871 188.124 166.871 187.592C166.871 187.116 166.966 186.628 167.158 186.129C167.354 185.625 167.655 185.102 168.061 184.561L170.476 181.32C170.56 181.208 170.681 181.112 170.84 181.033C171.003 180.954 171.19 180.914 171.4 180.914H172.94L169.937 184.589ZM170.329 189.734C170.604 189.734 170.856 189.687 171.085 189.594C171.318 189.501 171.516 189.37 171.68 189.202C171.848 189.034 171.978 188.838 172.072 188.614C172.165 188.385 172.212 188.138 172.212 187.872C172.212 187.583 172.167 187.324 172.079 187.095C171.99 186.862 171.864 186.666 171.701 186.507C171.537 186.344 171.341 186.22 171.113 186.136C170.884 186.052 170.632 186.01 170.357 186.01C170.081 186.01 169.832 186.057 169.608 186.15C169.384 186.243 169.192 186.374 169.034 186.542C168.875 186.705 168.751 186.901 168.663 187.13C168.574 187.354 168.53 187.597 168.53 187.858C168.53 188.138 168.567 188.395 168.642 188.628C168.721 188.857 168.835 189.053 168.985 189.216C169.139 189.379 169.328 189.508 169.552 189.601C169.776 189.69 170.035 189.734 170.329 189.734ZM178.058 184.589L177.708 185.023C177.904 184.925 178.114 184.85 178.338 184.799C178.566 184.743 178.811 184.715 179.073 184.715C179.455 184.715 179.826 184.778 180.186 184.904C180.55 185.03 180.869 185.221 181.145 185.478C181.42 185.73 181.642 186.045 181.81 186.423C181.978 186.801 182.062 187.242 182.062 187.746C182.062 188.217 181.975 188.661 181.803 189.076C181.63 189.487 181.387 189.846 181.075 190.154C180.762 190.462 180.384 190.705 179.941 190.882C179.502 191.059 179.017 191.148 178.485 191.148C177.943 191.148 177.458 191.062 177.029 190.889C176.599 190.716 176.233 190.476 175.93 190.168C175.626 189.855 175.393 189.482 175.23 189.048C175.071 188.609 174.992 188.124 174.992 187.592C174.992 187.116 175.087 186.628 175.279 186.129C175.475 185.625 175.776 185.102 176.182 184.561L178.597 181.32C178.681 181.208 178.802 181.112 178.961 181.033C179.124 180.954 179.311 180.914 179.521 180.914H181.061L178.058 184.589ZM178.45 189.734C178.725 189.734 178.977 189.687 179.206 189.594C179.439 189.501 179.637 189.37 179.801 189.202C179.969 189.034 180.099 188.838 180.193 188.614C180.286 188.385 180.333 188.138 180.333 187.872C180.333 187.583 180.288 187.324 180.2 187.095C180.111 186.862 179.985 186.666 179.822 186.507C179.658 186.344 179.462 186.22 179.234 186.136C179.005 186.052 178.753 186.01 178.478 186.01C178.202 186.01 177.953 186.057 177.729 186.15C177.505 186.243 177.313 186.374 177.155 186.542C176.996 186.705 176.872 186.901 176.784 187.13C176.695 187.354 176.651 187.597 176.651 187.858C176.651 188.138 176.688 188.395 176.763 188.628C176.842 188.857 176.956 189.053 177.106 189.216C177.26 189.379 177.449 189.508 177.673 189.601C177.897 189.69 178.156 189.734 178.45 189.734ZM183.351 192.751C183.267 192.681 183.225 192.595 183.225 192.492C183.225 192.455 183.237 192.413 183.26 192.366C183.288 192.319 183.321 192.277 183.358 192.24C183.409 192.184 183.472 192.114 183.547 192.03C183.622 191.951 183.696 191.857 183.771 191.75C183.846 191.647 183.913 191.533 183.974 191.407C184.039 191.286 184.088 191.155 184.121 191.015C183.972 191.015 183.836 190.989 183.715 190.938C183.594 190.882 183.489 190.807 183.4 190.714C183.316 190.621 183.248 190.511 183.197 190.385C183.15 190.259 183.127 190.121 183.127 189.972C183.127 189.841 183.15 189.72 183.197 189.608C183.248 189.491 183.318 189.391 183.407 189.307C183.496 189.218 183.603 189.151 183.729 189.104C183.855 189.053 183.993 189.027 184.142 189.027C184.319 189.027 184.473 189.06 184.604 189.125C184.739 189.186 184.849 189.272 184.933 189.384C185.022 189.491 185.087 189.617 185.129 189.762C185.176 189.902 185.199 190.051 185.199 190.21C185.199 190.434 185.164 190.67 185.094 190.917C185.029 191.164 184.931 191.412 184.8 191.659C184.669 191.906 184.506 192.147 184.31 192.38C184.119 192.613 183.899 192.828 183.652 193.024L183.351 192.751ZM193.051 189.741V191.036H187.451V189.741H189.502V183.84C189.502 183.607 189.509 183.366 189.523 183.119L188.067 184.337C187.983 184.402 187.899 184.444 187.815 184.463C187.736 184.477 187.659 184.477 187.584 184.463C187.514 184.449 187.451 184.426 187.395 184.393C187.339 184.356 187.297 184.316 187.269 184.274L186.723 183.525L189.81 180.9H191.231V189.741H193.051ZM201.697 185.975C201.697 186.857 201.602 187.625 201.41 188.278C201.224 188.927 200.962 189.463 200.626 189.888C200.295 190.313 199.901 190.63 199.443 190.84C198.991 191.045 198.501 191.148 197.973 191.148C197.446 191.148 196.956 191.045 196.503 190.84C196.055 190.63 195.666 190.313 195.334 189.888C195.003 189.463 194.744 188.927 194.557 188.278C194.371 187.625 194.277 186.857 194.277 185.975C194.277 185.088 194.371 184.321 194.557 183.672C194.744 183.023 195.003 182.487 195.334 182.062C195.666 181.637 196.055 181.322 196.503 181.117C196.956 180.907 197.446 180.802 197.973 180.802C198.501 180.802 198.991 180.907 199.443 181.117C199.901 181.322 200.295 181.637 200.626 182.062C200.962 182.487 201.224 183.023 201.41 183.672C201.602 184.321 201.697 185.088 201.697 185.975ZM199.912 185.975C199.912 185.242 199.859 184.636 199.751 184.155C199.644 183.674 199.499 183.292 199.317 183.007C199.14 182.722 198.935 182.524 198.701 182.412C198.468 182.295 198.225 182.237 197.973 182.237C197.726 182.237 197.486 182.295 197.252 182.412C197.024 182.524 196.821 182.722 196.643 183.007C196.466 183.292 196.324 183.674 196.216 184.155C196.114 184.636 196.062 185.242 196.062 185.975C196.062 186.708 196.114 187.314 196.216 187.795C196.324 188.276 196.466 188.658 196.643 188.943C196.821 189.228 197.024 189.428 197.252 189.545C197.486 189.657 197.726 189.713 197.973 189.713C198.225 189.713 198.468 189.657 198.701 189.545C198.935 189.428 199.14 189.228 199.317 188.943C199.499 188.658 199.644 188.276 199.751 187.795C199.859 187.314 199.912 186.708 199.912 185.975ZM202.902 191.036V183.854H203.959C204.183 183.854 204.33 183.959 204.4 184.169L204.512 184.701C204.638 184.561 204.769 184.433 204.904 184.316C205.044 184.199 205.191 184.099 205.345 184.015C205.504 183.931 205.672 183.866 205.849 183.819C206.031 183.768 206.23 183.742 206.444 183.742C206.897 183.742 207.268 183.866 207.557 184.113C207.851 184.356 208.071 184.68 208.215 185.086C208.327 184.848 208.467 184.645 208.635 184.477C208.803 184.304 208.988 184.164 209.188 184.057C209.389 183.95 209.601 183.87 209.825 183.819C210.054 183.768 210.283 183.742 210.511 183.742C210.908 183.742 211.26 183.803 211.568 183.924C211.876 184.045 212.135 184.223 212.345 184.456C212.555 184.689 212.714 184.974 212.821 185.31C212.933 185.646 212.989 186.031 212.989 186.465V191.036H211.26V186.465C211.26 186.008 211.16 185.665 210.959 185.436C210.759 185.203 210.465 185.086 210.077 185.086C209.9 185.086 209.734 185.116 209.58 185.177C209.431 185.238 209.298 185.326 209.181 185.443C209.069 185.555 208.981 185.697 208.915 185.87C208.85 186.043 208.817 186.241 208.817 186.465V191.036H207.081V186.465C207.081 185.984 206.983 185.634 206.787 185.415C206.596 185.196 206.314 185.086 205.94 185.086C205.688 185.086 205.453 185.149 205.233 185.275C205.019 185.396 204.818 185.564 204.631 185.779V191.036H202.902ZM220.646 189.426C220.832 189.426 220.979 189.48 221.087 189.587C221.199 189.69 221.255 189.827 221.255 190V191.036H214.311V190.462C214.311 190.345 214.334 190.224 214.381 190.098C214.432 189.967 214.511 189.851 214.619 189.748L217.692 186.668C217.948 186.407 218.177 186.157 218.378 185.919C218.583 185.681 218.753 185.445 218.889 185.212C219.024 184.979 219.127 184.743 219.197 184.505C219.271 184.262 219.309 184.008 219.309 183.742C219.309 183.499 219.274 183.287 219.204 183.105C219.134 182.918 219.033 182.762 218.903 182.636C218.777 182.51 218.623 182.417 218.441 182.356C218.263 182.291 218.063 182.258 217.839 182.258C217.633 182.258 217.442 182.288 217.265 182.349C217.092 182.405 216.938 182.487 216.803 182.594C216.667 182.697 216.553 182.818 216.46 182.958C216.366 183.098 216.296 183.252 216.25 183.42C216.17 183.635 216.068 183.777 215.942 183.847C215.816 183.917 215.634 183.933 215.396 183.896L214.486 183.735C214.556 183.25 214.691 182.825 214.892 182.461C215.092 182.092 215.342 181.787 215.641 181.544C215.944 181.297 216.289 181.112 216.677 180.991C217.069 180.865 217.489 180.802 217.937 180.802C218.403 180.802 218.83 180.872 219.218 181.012C219.605 181.147 219.936 181.341 220.212 181.593C220.487 181.845 220.702 182.148 220.856 182.503C221.01 182.858 221.087 183.252 221.087 183.686C221.087 184.059 221.031 184.405 220.919 184.722C220.811 185.039 220.664 185.343 220.478 185.632C220.296 185.921 220.081 186.201 219.834 186.472C219.586 186.743 219.327 187.018 219.057 187.298L216.775 189.629C216.994 189.564 217.211 189.515 217.426 189.482C217.645 189.445 217.853 189.426 218.049 189.426H220.646Z" fill="black"/>
<path d="M400.949 192.738H397.701V201.628H396.35V192.738H393.095V191.597H400.949V192.738ZM402.066 194.313C402.132 193.856 402.258 193.452 402.444 193.102C402.631 192.747 402.867 192.451 403.151 192.213C403.441 191.975 403.77 191.795 404.138 191.674C404.512 191.548 404.913 191.485 405.342 191.485C405.767 191.485 406.159 191.546 406.518 191.667C406.878 191.788 407.186 191.961 407.442 192.185C407.704 192.409 407.907 192.68 408.051 192.997C408.196 193.314 408.268 193.667 408.268 194.054C408.268 194.371 408.226 194.656 408.142 194.908C408.063 195.155 407.946 195.372 407.792 195.559C407.643 195.746 407.461 195.904 407.246 196.035C407.032 196.166 406.791 196.273 406.525 196.357C407.179 196.525 407.669 196.814 407.995 197.225C408.327 197.631 408.492 198.14 408.492 198.751C408.492 199.213 408.404 199.628 408.226 199.997C408.054 200.366 407.816 200.681 407.512 200.942C407.209 201.199 406.854 201.397 406.448 201.537C406.047 201.672 405.615 201.74 405.153 201.74C404.621 201.74 404.166 201.675 403.788 201.544C403.41 201.409 403.091 201.224 402.829 200.991C402.568 200.758 402.353 200.482 402.185 200.165C402.017 199.843 401.875 199.495 401.758 199.122L402.297 198.898C402.437 198.837 402.573 198.821 402.703 198.849C402.839 198.877 402.937 198.954 402.997 199.08C403.058 199.211 403.133 199.367 403.221 199.549C403.315 199.731 403.441 199.906 403.599 200.074C403.758 200.242 403.959 200.384 404.201 200.501C404.449 200.618 404.761 200.676 405.139 200.676C405.489 200.676 405.795 200.62 406.056 200.508C406.322 200.391 406.542 200.242 406.714 200.06C406.892 199.878 407.025 199.675 407.113 199.451C407.202 199.227 407.246 199.005 407.246 198.786C407.246 198.515 407.211 198.268 407.141 198.044C407.071 197.82 406.941 197.626 406.749 197.463C406.558 197.3 406.294 197.171 405.958 197.078C405.627 196.985 405.2 196.938 404.677 196.938V196.035C405.107 196.03 405.471 195.984 405.769 195.895C406.073 195.806 406.318 195.685 406.504 195.531C406.696 195.377 406.833 195.193 406.917 194.978C407.006 194.763 407.05 194.525 407.05 194.264C407.05 193.975 407.004 193.723 406.91 193.508C406.822 193.293 406.698 193.116 406.539 192.976C406.381 192.836 406.192 192.731 405.972 192.661C405.758 192.591 405.524 192.556 405.272 192.556C405.02 192.556 404.785 192.593 404.565 192.668C404.351 192.743 404.159 192.848 403.991 192.983C403.828 193.114 403.69 193.27 403.578 193.452C403.466 193.634 403.387 193.835 403.34 194.054C403.28 194.217 403.203 194.327 403.109 194.383C403.021 194.434 402.89 194.448 402.717 194.425L402.066 194.313ZM412.932 195.181L412.582 195.615C412.778 195.517 412.988 195.442 413.212 195.391C413.44 195.335 413.685 195.307 413.947 195.307C414.329 195.307 414.7 195.37 415.06 195.496C415.424 195.622 415.743 195.813 416.019 196.07C416.294 196.322 416.516 196.637 416.684 197.015C416.852 197.393 416.936 197.834 416.936 198.338C416.936 198.809 416.849 199.253 416.677 199.668C416.504 200.079 416.261 200.438 415.949 200.746C415.636 201.054 415.258 201.297 414.815 201.474C414.376 201.651 413.891 201.74 413.359 201.74C412.817 201.74 412.332 201.654 411.903 201.481C411.473 201.308 411.107 201.068 410.804 200.76C410.5 200.447 410.267 200.074 410.104 199.64C409.945 199.201 409.866 198.716 409.866 198.184C409.866 197.708 409.961 197.22 410.153 196.721C410.349 196.217 410.65 195.694 411.056 195.153L413.471 191.912C413.555 191.8 413.676 191.704 413.835 191.625C413.998 191.546 414.185 191.506 414.395 191.506H415.935L412.932 195.181ZM413.324 200.326C413.599 200.326 413.851 200.279 414.08 200.186C414.313 200.093 414.511 199.962 414.675 199.794C414.843 199.626 414.973 199.43 415.067 199.206C415.16 198.977 415.207 198.73 415.207 198.464C415.207 198.175 415.162 197.916 415.074 197.687C414.985 197.454 414.859 197.258 414.696 197.099C414.532 196.936 414.336 196.812 414.108 196.728C413.879 196.644 413.627 196.602 413.352 196.602C413.076 196.602 412.827 196.649 412.603 196.742C412.379 196.835 412.187 196.966 412.029 197.134C411.87 197.297 411.746 197.493 411.658 197.722C411.569 197.946 411.525 198.189 411.525 198.45C411.525 198.73 411.562 198.987 411.637 199.22C411.716 199.449 411.83 199.645 411.98 199.808C412.134 199.971 412.323 200.1 412.547 200.193C412.771 200.282 413.03 200.326 413.324 200.326ZM421.053 195.181L420.703 195.615C420.899 195.517 421.109 195.442 421.333 195.391C421.561 195.335 421.806 195.307 422.068 195.307C422.45 195.307 422.821 195.37 423.181 195.496C423.545 195.622 423.864 195.813 424.14 196.07C424.415 196.322 424.637 196.637 424.805 197.015C424.973 197.393 425.057 197.834 425.057 198.338C425.057 198.809 424.97 199.253 424.798 199.668C424.625 200.079 424.382 200.438 424.07 200.746C423.757 201.054 423.379 201.297 422.936 201.474C422.497 201.651 422.012 201.74 421.48 201.74C420.938 201.74 420.453 201.654 420.024 201.481C419.594 201.308 419.228 201.068 418.925 200.76C418.621 200.447 418.388 200.074 418.225 199.64C418.066 199.201 417.987 198.716 417.987 198.184C417.987 197.708 418.082 197.22 418.274 196.721C418.47 196.217 418.771 195.694 419.177 195.153L421.592 191.912C421.676 191.8 421.797 191.704 421.956 191.625C422.119 191.546 422.306 191.506 422.516 191.506H424.056L421.053 195.181ZM421.445 200.326C421.72 200.326 421.972 200.279 422.201 200.186C422.434 200.093 422.632 199.962 422.796 199.794C422.964 199.626 423.094 199.43 423.188 199.206C423.281 198.977 423.328 198.73 423.328 198.464C423.328 198.175 423.283 197.916 423.195 197.687C423.106 197.454 422.98 197.258 422.817 197.099C422.653 196.936 422.457 196.812 422.229 196.728C422 196.644 421.748 196.602 421.473 196.602C421.197 196.602 420.948 196.649 420.724 196.742C420.5 196.835 420.308 196.966 420.15 197.134C419.991 197.297 419.867 197.493 419.779 197.722C419.69 197.946 419.646 198.189 419.646 198.45C419.646 198.73 419.683 198.987 419.758 199.22C419.837 199.449 419.951 199.645 420.101 199.808C420.255 199.971 420.444 200.1 420.668 200.193C420.892 200.282 421.151 200.326 421.445 200.326ZM426.346 203.343C426.262 203.273 426.22 203.187 426.22 203.084C426.22 203.047 426.231 203.005 426.255 202.958C426.283 202.911 426.315 202.869 426.353 202.832C426.404 202.776 426.467 202.706 426.542 202.622C426.616 202.543 426.691 202.449 426.766 202.342C426.84 202.239 426.908 202.125 426.969 201.999C427.034 201.878 427.083 201.747 427.116 201.607C426.966 201.607 426.831 201.581 426.71 201.53C426.588 201.474 426.483 201.399 426.395 201.306C426.311 201.213 426.243 201.103 426.192 200.977C426.145 200.851 426.122 200.713 426.122 200.564C426.122 200.433 426.145 200.312 426.192 200.2C426.243 200.083 426.313 199.983 426.402 199.899C426.49 199.81 426.598 199.743 426.724 199.696C426.85 199.645 426.987 199.619 427.137 199.619C427.314 199.619 427.468 199.652 427.599 199.717C427.734 199.778 427.844 199.864 427.928 199.976C428.016 200.083 428.082 200.209 428.124 200.354C428.17 200.494 428.194 200.643 428.194 200.802C428.194 201.026 428.159 201.262 428.089 201.509C428.023 201.756 427.925 202.004 427.795 202.251C427.664 202.498 427.501 202.739 427.305 202.972C427.113 203.205 426.894 203.42 426.647 203.616L426.346 203.343ZM436.571 196.567C436.571 197.449 436.475 198.217 436.284 198.87C436.097 199.519 435.836 200.055 435.5 200.48C435.169 200.905 434.774 201.222 434.317 201.432C433.864 201.637 433.374 201.74 432.847 201.74C432.32 201.74 431.83 201.637 431.377 201.432C430.929 201.222 430.539 200.905 430.208 200.48C429.877 200.055 429.618 199.519 429.431 198.87C429.244 198.217 429.151 197.449 429.151 196.567C429.151 195.68 429.244 194.913 429.431 194.264C429.618 193.615 429.877 193.079 430.208 192.654C430.539 192.229 430.929 191.914 431.377 191.709C431.83 191.499 432.32 191.394 432.847 191.394C433.374 191.394 433.864 191.499 434.317 191.709C434.774 191.914 435.169 192.229 435.5 192.654C435.836 193.079 436.097 193.615 436.284 194.264C436.475 194.913 436.571 195.68 436.571 196.567ZM434.786 196.567C434.786 195.834 434.732 195.228 434.625 194.747C434.518 194.266 434.373 193.884 434.191 193.599C434.014 193.314 433.808 193.116 433.575 193.004C433.342 192.887 433.099 192.829 432.847 192.829C432.6 192.829 432.359 192.887 432.126 193.004C431.897 193.116 431.694 193.314 431.517 193.599C431.34 193.884 431.197 194.266 431.09 194.747C430.987 195.228 430.936 195.834 430.936 196.567C430.936 197.3 430.987 197.906 431.09 198.387C431.197 198.868 431.34 199.25 431.517 199.535C431.694 199.82 431.897 200.02 432.126 200.137C432.359 200.249 432.6 200.305 432.847 200.305C433.099 200.305 433.342 200.249 433.575 200.137C433.808 200.02 434.014 199.82 434.191 199.535C434.373 199.25 434.518 198.868 434.625 198.387C434.732 197.906 434.786 197.3 434.786 196.567ZM444.692 196.567C444.692 197.449 444.596 198.217 444.405 198.87C444.218 199.519 443.957 200.055 443.621 200.48C443.29 200.905 442.895 201.222 442.438 201.432C441.985 201.637 441.495 201.74 440.968 201.74C440.441 201.74 439.951 201.637 439.498 201.432C439.05 201.222 438.66 200.905 438.329 200.48C437.998 200.055 437.739 199.519 437.552 198.87C437.365 198.217 437.272 197.449 437.272 196.567C437.272 195.68 437.365 194.913 437.552 194.264C437.739 193.615 437.998 193.079 438.329 192.654C438.66 192.229 439.05 191.914 439.498 191.709C439.951 191.499 440.441 191.394 440.968 191.394C441.495 191.394 441.985 191.499 442.438 191.709C442.895 191.914 443.29 192.229 443.621 192.654C443.957 193.079 444.218 193.615 444.405 194.264C444.596 194.913 444.692 195.68 444.692 196.567ZM442.907 196.567C442.907 195.834 442.853 195.228 442.746 194.747C442.639 194.266 442.494 193.884 442.312 193.599C442.135 193.314 441.929 193.116 441.696 193.004C441.463 192.887 441.22 192.829 440.968 192.829C440.721 192.829 440.48 192.887 440.247 193.004C440.018 193.116 439.815 193.314 439.638 193.599C439.461 193.884 439.318 194.266 439.211 194.747C439.108 195.228 439.057 195.834 439.057 196.567C439.057 197.3 439.108 197.906 439.211 198.387C439.318 198.868 439.461 199.25 439.638 199.535C439.815 199.82 440.018 200.02 440.247 200.137C440.48 200.249 440.721 200.305 440.968 200.305C441.22 200.305 441.463 200.249 441.696 200.137C441.929 200.02 442.135 199.82 442.312 199.535C442.494 199.25 442.639 198.868 442.746 198.387C442.853 197.906 442.907 197.3 442.907 196.567ZM445.897 201.628V194.446H446.954C447.178 194.446 447.325 194.551 447.395 194.761L447.507 195.293C447.633 195.153 447.764 195.025 447.899 194.908C448.039 194.791 448.186 194.691 448.34 194.607C448.499 194.523 448.667 194.458 448.844 194.411C449.026 194.36 449.225 194.334 449.439 194.334C449.892 194.334 450.263 194.458 450.552 194.705C450.846 194.948 451.066 195.272 451.21 195.678C451.322 195.44 451.462 195.237 451.63 195.069C451.798 194.896 451.983 194.756 452.183 194.649C452.384 194.542 452.596 194.462 452.82 194.411C453.049 194.36 453.278 194.334 453.506 194.334C453.903 194.334 454.255 194.395 454.563 194.516C454.871 194.637 455.13 194.815 455.34 195.048C455.55 195.281 455.709 195.566 455.816 195.902C455.928 196.238 455.984 196.623 455.984 197.057V201.628H454.255V197.057C454.255 196.6 454.155 196.257 453.954 196.028C453.754 195.795 453.46 195.678 453.072 195.678C452.895 195.678 452.729 195.708 452.575 195.769C452.426 195.83 452.293 195.918 452.176 196.035C452.064 196.147 451.976 196.289 451.91 196.462C451.845 196.635 451.812 196.833 451.812 197.057V201.628H450.076V197.057C450.076 196.576 449.978 196.226 449.782 196.007C449.591 195.788 449.309 195.678 448.935 195.678C448.683 195.678 448.448 195.741 448.228 195.867C448.014 195.988 447.813 196.156 447.626 196.371V201.628H445.897ZM463.641 200.018C463.827 200.018 463.974 200.072 464.082 200.179C464.194 200.282 464.25 200.419 464.25 200.592V201.628H457.306V201.054C457.306 200.937 457.329 200.816 457.376 200.69C457.427 200.559 457.506 200.443 457.614 200.34L460.687 197.26C460.943 196.999 461.172 196.749 461.373 196.511C461.578 196.273 461.748 196.037 461.884 195.804C462.019 195.571 462.122 195.335 462.192 195.097C462.266 194.854 462.304 194.6 462.304 194.334C462.304 194.091 462.269 193.879 462.199 193.697C462.129 193.51 462.028 193.354 461.898 193.228C461.772 193.102 461.618 193.009 461.436 192.948C461.258 192.883 461.058 192.85 460.834 192.85C460.628 192.85 460.437 192.88 460.26 192.941C460.087 192.997 459.933 193.079 459.798 193.186C459.662 193.289 459.548 193.41 459.455 193.55C459.361 193.69 459.291 193.844 459.245 194.012C459.165 194.227 459.063 194.369 458.937 194.439C458.811 194.509 458.629 194.525 458.391 194.488L457.481 194.327C457.551 193.842 457.686 193.417 457.887 193.053C458.087 192.684 458.337 192.379 458.636 192.136C458.939 191.889 459.284 191.704 459.672 191.583C460.064 191.457 460.484 191.394 460.932 191.394C461.398 191.394 461.825 191.464 462.213 191.604C462.6 191.739 462.931 191.933 463.207 192.185C463.482 192.437 463.697 192.74 463.851 193.095C464.005 193.45 464.082 193.844 464.082 194.278C464.082 194.651 464.026 194.997 463.914 195.314C463.806 195.631 463.659 195.935 463.473 196.224C463.291 196.513 463.076 196.793 462.829 197.064C462.581 197.335 462.322 197.61 462.052 197.89L459.77 200.221C459.989 200.156 460.206 200.107 460.421 200.074C460.64 200.037 460.848 200.018 461.044 200.018H463.641Z" fill="black"/>
<path d="M523.901 192.738H520.653V201.628H519.302V192.738H516.047V191.597H523.901V192.738ZM525.019 194.313C525.084 193.856 525.21 193.452 525.397 193.102C525.583 192.747 525.819 192.451 526.104 192.213C526.393 191.975 526.722 191.795 527.091 191.674C527.464 191.548 527.865 191.485 528.295 191.485C528.719 191.485 529.111 191.546 529.471 191.667C529.83 191.788 530.138 191.961 530.395 192.185C530.656 192.409 530.859 192.68 531.004 192.997C531.148 193.314 531.221 193.667 531.221 194.054C531.221 194.371 531.179 194.656 531.095 194.908C531.015 195.155 530.899 195.372 530.745 195.559C530.595 195.746 530.413 195.904 530.199 196.035C529.984 196.166 529.744 196.273 529.478 196.357C530.131 196.525 530.621 196.814 530.948 197.225C531.279 197.631 531.445 198.14 531.445 198.751C531.445 199.213 531.356 199.628 531.179 199.997C531.006 200.366 530.768 200.681 530.465 200.942C530.161 201.199 529.807 201.397 529.401 201.537C528.999 201.672 528.568 201.74 528.106 201.74C527.574 201.74 527.119 201.675 526.741 201.544C526.363 201.409 526.043 201.224 525.782 200.991C525.52 200.758 525.306 200.482 525.138 200.165C524.97 199.843 524.827 199.495 524.711 199.122L525.25 198.898C525.39 198.837 525.525 198.821 525.656 198.849C525.791 198.877 525.889 198.954 525.95 199.08C526.01 199.211 526.085 199.367 526.174 199.549C526.267 199.731 526.393 199.906 526.552 200.074C526.71 200.242 526.911 200.384 527.154 200.501C527.401 200.618 527.714 200.676 528.092 200.676C528.442 200.676 528.747 200.62 529.009 200.508C529.275 200.391 529.494 200.242 529.667 200.06C529.844 199.878 529.977 199.675 530.066 199.451C530.154 199.227 530.199 199.005 530.199 198.786C530.199 198.515 530.164 198.268 530.094 198.044C530.024 197.82 529.893 197.626 529.702 197.463C529.51 197.3 529.247 197.171 528.911 197.078C528.579 196.985 528.152 196.938 527.63 196.938V196.035C528.059 196.03 528.423 195.984 528.722 195.895C529.025 195.806 529.27 195.685 529.457 195.531C529.648 195.377 529.786 195.193 529.87 194.978C529.958 194.763 530.003 194.525 530.003 194.264C530.003 193.975 529.956 193.723 529.863 193.508C529.774 193.293 529.65 193.116 529.492 192.976C529.333 192.836 529.144 192.731 528.925 192.661C528.71 192.591 528.477 192.556 528.225 192.556C527.973 192.556 527.737 192.593 527.518 192.668C527.303 192.743 527.112 192.848 526.944 192.983C526.78 193.114 526.643 193.27 526.531 193.452C526.419 193.634 526.339 193.835 526.293 194.054C526.232 194.217 526.155 194.327 526.062 194.383C525.973 194.434 525.842 194.448 525.67 194.425L525.019 194.313ZM535.884 195.181L535.534 195.615C535.73 195.517 535.94 195.442 536.164 195.391C536.392 195.335 536.637 195.307 536.899 195.307C537.281 195.307 537.652 195.37 538.012 195.496C538.376 195.622 538.695 195.813 538.971 196.07C539.246 196.322 539.468 196.637 539.636 197.015C539.804 197.393 539.888 197.834 539.888 198.338C539.888 198.809 539.801 199.253 539.629 199.668C539.456 200.079 539.213 200.438 538.901 200.746C538.588 201.054 538.21 201.297 537.767 201.474C537.328 201.651 536.843 201.74 536.311 201.74C535.769 201.74 535.284 201.654 534.855 201.481C534.425 201.308 534.059 201.068 533.756 200.76C533.452 200.447 533.219 200.074 533.056 199.64C532.897 199.201 532.818 198.716 532.818 198.184C532.818 197.708 532.913 197.22 533.105 196.721C533.301 196.217 533.602 195.694 534.008 195.153L536.423 191.912C536.507 191.8 536.628 191.704 536.787 191.625C536.95 191.546 537.137 191.506 537.347 191.506H538.887L535.884 195.181ZM536.276 200.326C536.551 200.326 536.803 200.279 537.032 200.186C537.265 200.093 537.463 199.962 537.627 199.794C537.795 199.626 537.925 199.43 538.019 199.206C538.112 198.977 538.159 198.73 538.159 198.464C538.159 198.175 538.114 197.916 538.026 197.687C537.937 197.454 537.811 197.258 537.648 197.099C537.484 196.936 537.288 196.812 537.06 196.728C536.831 196.644 536.579 196.602 536.304 196.602C536.028 196.602 535.779 196.649 535.555 196.742C535.331 196.835 535.139 196.966 534.981 197.134C534.822 197.297 534.698 197.493 534.61 197.722C534.521 197.946 534.477 198.189 534.477 198.45C534.477 198.73 534.514 198.987 534.589 199.22C534.668 199.449 534.782 199.645 534.932 199.808C535.086 199.971 535.275 200.1 535.499 200.193C535.723 200.282 535.982 200.326 536.276 200.326ZM544.005 195.181L543.655 195.615C543.851 195.517 544.061 195.442 544.285 195.391C544.513 195.335 544.758 195.307 545.02 195.307C545.402 195.307 545.773 195.37 546.133 195.496C546.497 195.622 546.816 195.813 547.092 196.07C547.367 196.322 547.589 196.637 547.757 197.015C547.925 197.393 548.009 197.834 548.009 198.338C548.009 198.809 547.922 199.253 547.75 199.668C547.577 200.079 547.334 200.438 547.022 200.746C546.709 201.054 546.331 201.297 545.888 201.474C545.449 201.651 544.964 201.74 544.432 201.74C543.89 201.74 543.405 201.654 542.976 201.481C542.546 201.308 542.18 201.068 541.877 200.76C541.573 200.447 541.34 200.074 541.177 199.64C541.018 199.201 540.939 198.716 540.939 198.184C540.939 197.708 541.034 197.22 541.226 196.721C541.422 196.217 541.723 195.694 542.129 195.153L544.544 191.912C544.628 191.8 544.749 191.704 544.908 191.625C545.071 191.546 545.258 191.506 545.468 191.506H547.008L544.005 195.181ZM544.397 200.326C544.672 200.326 544.924 200.279 545.153 200.186C545.386 200.093 545.584 199.962 545.748 199.794C545.916 199.626 546.046 199.43 546.14 199.206C546.233 198.977 546.28 198.73 546.28 198.464C546.28 198.175 546.235 197.916 546.147 197.687C546.058 197.454 545.932 197.258 545.769 197.099C545.605 196.936 545.409 196.812 545.181 196.728C544.952 196.644 544.7 196.602 544.425 196.602C544.149 196.602 543.9 196.649 543.676 196.742C543.452 196.835 543.26 196.966 543.102 197.134C542.943 197.297 542.819 197.493 542.731 197.722C542.642 197.946 542.598 198.189 542.598 198.45C542.598 198.73 542.635 198.987 542.71 199.22C542.789 199.449 542.903 199.645 543.053 199.808C543.207 199.971 543.396 200.1 543.62 200.193C543.844 200.282 544.103 200.326 544.397 200.326ZM549.298 203.343C549.214 203.273 549.172 203.187 549.172 203.084C549.172 203.047 549.184 203.005 549.207 202.958C549.235 202.911 549.268 202.869 549.305 202.832C549.356 202.776 549.419 202.706 549.494 202.622C549.569 202.543 549.643 202.449 549.718 202.342C549.793 202.239 549.86 202.125 549.921 201.999C549.986 201.878 550.035 201.747 550.068 201.607C549.919 201.607 549.783 201.581 549.662 201.53C549.541 201.474 549.436 201.399 549.347 201.306C549.263 201.213 549.195 201.103 549.144 200.977C549.097 200.851 549.074 200.713 549.074 200.564C549.074 200.433 549.097 200.312 549.144 200.2C549.195 200.083 549.265 199.983 549.354 199.899C549.443 199.81 549.55 199.743 549.676 199.696C549.802 199.645 549.94 199.619 550.089 199.619C550.266 199.619 550.42 199.652 550.551 199.717C550.686 199.778 550.796 199.864 550.88 199.976C550.969 200.083 551.034 200.209 551.076 200.354C551.123 200.494 551.146 200.643 551.146 200.802C551.146 201.026 551.111 201.262 551.041 201.509C550.976 201.756 550.878 202.004 550.747 202.251C550.616 202.498 550.453 202.739 550.257 202.972C550.066 203.205 549.846 203.42 549.599 203.616L549.298 203.343ZM559.523 196.567C559.523 197.449 559.428 198.217 559.236 198.87C559.05 199.519 558.788 200.055 558.452 200.48C558.121 200.905 557.727 201.222 557.269 201.432C556.817 201.637 556.327 201.74 555.799 201.74C555.272 201.74 554.782 201.637 554.329 201.432C553.881 201.222 553.492 200.905 553.16 200.48C552.829 200.055 552.57 199.519 552.383 198.87C552.197 198.217 552.103 197.449 552.103 196.567C552.103 195.68 552.197 194.913 552.383 194.264C552.57 193.615 552.829 193.079 553.16 192.654C553.492 192.229 553.881 191.914 554.329 191.709C554.782 191.499 555.272 191.394 555.799 191.394C556.327 191.394 556.817 191.499 557.269 191.709C557.727 191.914 558.121 192.229 558.452 192.654C558.788 193.079 559.05 193.615 559.236 194.264C559.428 194.913 559.523 195.68 559.523 196.567ZM557.738 196.567C557.738 195.834 557.685 195.228 557.577 194.747C557.47 194.266 557.325 193.884 557.143 193.599C556.966 193.314 556.761 193.116 556.527 193.004C556.294 192.887 556.051 192.829 555.799 192.829C555.552 192.829 555.312 192.887 555.078 193.004C554.85 193.116 554.647 193.314 554.469 193.599C554.292 193.884 554.15 194.266 554.042 194.747C553.94 195.228 553.888 195.834 553.888 196.567C553.888 197.3 553.94 197.906 554.042 198.387C554.15 198.868 554.292 199.25 554.469 199.535C554.647 199.82 554.85 200.02 555.078 200.137C555.312 200.249 555.552 200.305 555.799 200.305C556.051 200.305 556.294 200.249 556.527 200.137C556.761 200.02 556.966 199.82 557.143 199.535C557.325 199.25 557.47 198.868 557.577 198.387C557.685 197.906 557.738 197.3 557.738 196.567ZM567.644 196.567C567.644 197.449 567.549 198.217 567.357 198.87C567.171 199.519 566.909 200.055 566.573 200.48C566.242 200.905 565.848 201.222 565.39 201.432C564.938 201.637 564.448 201.74 563.92 201.74C563.393 201.74 562.903 201.637 562.45 201.432C562.002 201.222 561.613 200.905 561.281 200.48C560.95 200.055 560.691 199.519 560.504 198.87C560.318 198.217 560.224 197.449 560.224 196.567C560.224 195.68 560.318 194.913 560.504 194.264C560.691 193.615 560.95 193.079 561.281 192.654C561.613 192.229 562.002 191.914 562.45 191.709C562.903 191.499 563.393 191.394 563.92 191.394C564.448 191.394 564.938 191.499 565.39 191.709C565.848 191.914 566.242 192.229 566.573 192.654C566.909 193.079 567.171 193.615 567.357 194.264C567.549 194.913 567.644 195.68 567.644 196.567ZM565.859 196.567C565.859 195.834 565.806 195.228 565.698 194.747C565.591 194.266 565.446 193.884 565.264 193.599C565.087 193.314 564.882 193.116 564.648 193.004C564.415 192.887 564.172 192.829 563.92 192.829C563.673 192.829 563.433 192.887 563.199 193.004C562.971 193.116 562.768 193.314 562.59 193.599C562.413 193.884 562.271 194.266 562.163 194.747C562.061 195.228 562.009 195.834 562.009 196.567C562.009 197.3 562.061 197.906 562.163 198.387C562.271 198.868 562.413 199.25 562.59 199.535C562.768 199.82 562.971 200.02 563.199 200.137C563.433 200.249 563.673 200.305 563.92 200.305C564.172 200.305 564.415 200.249 564.648 200.137C564.882 200.02 565.087 199.82 565.264 199.535C565.446 199.25 565.591 198.868 565.698 198.387C565.806 197.906 565.859 197.3 565.859 196.567ZM568.849 201.628V194.446H569.906C570.13 194.446 570.277 194.551 570.347 194.761L570.459 195.293C570.585 195.153 570.716 195.025 570.851 194.908C570.991 194.791 571.138 194.691 571.292 194.607C571.451 194.523 571.619 194.458 571.796 194.411C571.978 194.36 572.177 194.334 572.391 194.334C572.844 194.334 573.215 194.458 573.504 194.705C573.798 194.948 574.018 195.272 574.162 195.678C574.274 195.44 574.414 195.237 574.582 195.069C574.75 194.896 574.935 194.756 575.135 194.649C575.336 194.542 575.548 194.462 575.772 194.411C576.001 194.36 576.23 194.334 576.458 194.334C576.855 194.334 577.207 194.395 577.515 194.516C577.823 194.637 578.082 194.815 578.292 195.048C578.502 195.281 578.661 195.566 578.768 195.902C578.88 196.238 578.936 196.623 578.936 197.057V201.628H577.207V197.057C577.207 196.6 577.107 196.257 576.906 196.028C576.706 195.795 576.412 195.678 576.024 195.678C575.847 195.678 575.681 195.708 575.527 195.769C575.378 195.83 575.245 195.918 575.128 196.035C575.016 196.147 574.928 196.289 574.862 196.462C574.797 196.635 574.764 196.833 574.764 197.057V201.628H573.028V197.057C573.028 196.576 572.93 196.226 572.734 196.007C572.543 195.788 572.261 195.678 571.887 195.678C571.635 195.678 571.4 195.741 571.18 195.867C570.966 195.988 570.765 196.156 570.578 196.371V201.628H568.849ZM586.593 200.018C586.779 200.018 586.926 200.072 587.034 200.179C587.146 200.282 587.202 200.419 587.202 200.592V201.628H580.258V201.054C580.258 200.937 580.281 200.816 580.328 200.69C580.379 200.559 580.458 200.443 580.566 200.34L583.639 197.26C583.895 196.999 584.124 196.749 584.325 196.511C584.53 196.273 584.7 196.037 584.836 195.804C584.971 195.571 585.074 195.335 585.144 195.097C585.218 194.854 585.256 194.6 585.256 194.334C585.256 194.091 585.221 193.879 585.151 193.697C585.081 193.51 584.98 193.354 584.85 193.228C584.724 193.102 584.57 193.009 584.388 192.948C584.21 192.883 584.01 192.85 583.786 192.85C583.58 192.85 583.389 192.88 583.212 192.941C583.039 192.997 582.885 193.079 582.75 193.186C582.614 193.289 582.5 193.41 582.407 193.55C582.313 193.69 582.243 193.844 582.197 194.012C582.117 194.227 582.015 194.369 581.889 194.439C581.763 194.509 581.581 194.525 581.343 194.488L580.433 194.327C580.503 193.842 580.638 193.417 580.839 193.053C581.039 192.684 581.289 192.379 581.588 192.136C581.891 191.889 582.236 191.704 582.624 191.583C583.016 191.457 583.436 191.394 583.884 191.394C584.35 191.394 584.777 191.464 585.165 191.604C585.552 191.739 585.883 191.933 586.159 192.185C586.434 192.437 586.649 192.74 586.803 193.095C586.957 193.45 587.034 193.844 587.034 194.278C587.034 194.651 586.978 194.997 586.866 195.314C586.758 195.631 586.611 195.935 586.425 196.224C586.243 196.513 586.028 196.793 585.781 197.064C585.533 197.335 585.274 197.61 585.004 197.89L582.722 200.221C582.941 200.156 583.158 200.107 583.373 200.074C583.592 200.037 583.8 200.018 583.996 200.018H586.593Z" fill="black"/>
<path d="M611.129 202.914H607.881V211.804H606.53V202.914H603.275V201.773H611.129V202.914ZM618.246 210.621C618.381 210.621 618.488 210.66 618.568 210.74C618.647 210.819 618.687 210.922 618.687 211.048V211.804H611.995V211.377C611.995 211.288 612.013 211.197 612.051 211.104C612.088 211.01 612.146 210.924 612.226 210.845L615.439 207.618C615.705 207.347 615.947 207.088 616.167 206.841C616.386 206.589 616.573 206.337 616.727 206.085C616.881 205.833 617 205.578 617.084 205.322C617.168 205.06 617.21 204.783 617.21 204.489C617.21 204.195 617.163 203.938 617.07 203.719C616.976 203.495 616.848 203.31 616.685 203.166C616.526 203.021 616.337 202.914 616.118 202.844C615.898 202.769 615.663 202.732 615.411 202.732C615.154 202.732 614.918 202.769 614.704 202.844C614.489 202.918 614.298 203.023 614.13 203.159C613.966 203.289 613.829 203.446 613.717 203.628C613.605 203.81 613.525 204.01 613.479 204.23C613.423 204.393 613.346 204.503 613.248 204.559C613.154 204.61 613.021 204.624 612.849 204.601L612.198 204.489C612.263 204.031 612.389 203.628 612.576 203.278C612.767 202.923 613.005 202.627 613.29 202.389C613.579 202.151 613.908 201.971 614.277 201.85C614.645 201.724 615.044 201.661 615.474 201.661C615.898 201.661 616.295 201.724 616.664 201.85C617.032 201.976 617.352 202.16 617.623 202.403C617.893 202.641 618.106 202.932 618.26 203.278C618.414 203.623 618.491 204.015 618.491 204.454C618.491 204.827 618.435 205.175 618.323 205.497C618.211 205.814 618.059 206.117 617.868 206.407C617.676 206.696 617.455 206.978 617.203 207.254C616.955 207.529 616.692 207.807 616.412 208.087L613.766 210.789C613.952 210.737 614.141 210.698 614.333 210.67C614.524 210.637 614.708 210.621 614.886 210.621H618.246ZM624.442 207.989V204.678C624.442 204.365 624.463 204.02 624.505 203.642L621.362 207.989H624.442ZM627.221 207.989V208.99C627.221 209.083 627.19 209.165 627.13 209.235C627.069 209.3 626.983 209.333 626.871 209.333H625.947V211.804H624.442V209.333H620.172C620.055 209.333 619.952 209.298 619.864 209.228C619.775 209.153 619.719 209.062 619.696 208.955L619.514 208.08L624.309 201.675H625.947V207.989H627.221ZM630.421 205.357C630.645 205.31 630.86 205.277 631.065 205.259C631.27 205.235 631.469 205.224 631.66 205.224C632.192 205.224 632.661 205.303 633.067 205.462C633.473 205.62 633.814 205.84 634.089 206.12C634.364 206.4 634.572 206.729 634.712 207.107C634.852 207.48 634.922 207.884 634.922 208.318C634.922 208.854 634.826 209.344 634.635 209.788C634.448 210.231 634.187 210.611 633.851 210.929C633.515 211.241 633.116 211.484 632.654 211.657C632.197 211.829 631.697 211.916 631.156 211.916C630.839 211.916 630.538 211.883 630.253 211.818C629.968 211.752 629.7 211.666 629.448 211.559C629.201 211.447 628.97 211.321 628.755 211.181C628.545 211.036 628.356 210.884 628.188 210.726L628.72 209.991C628.832 209.832 628.979 209.753 629.161 209.753C629.278 209.753 629.397 209.79 629.518 209.865C629.639 209.939 629.777 210.021 629.931 210.11C630.09 210.198 630.274 210.28 630.484 210.355C630.699 210.429 630.955 210.467 631.254 210.467C631.571 210.467 631.851 210.415 632.094 210.313C632.337 210.21 632.537 210.068 632.696 209.886C632.859 209.699 632.981 209.48 633.06 209.228C633.144 208.971 633.186 208.693 633.186 208.395C633.186 207.844 633.025 207.415 632.703 207.107C632.386 206.794 631.914 206.638 631.289 206.638C630.808 206.638 630.316 206.726 629.812 206.904L628.734 206.596L629.574 201.682H634.572V202.417C634.572 202.664 634.495 202.865 634.341 203.019C634.187 203.173 633.926 203.25 633.557 203.25H630.778L630.421 205.357ZM636.526 213.519C636.442 213.449 636.4 213.362 636.4 213.26C636.4 213.222 636.412 213.18 636.435 213.134C636.463 213.087 636.496 213.045 636.533 213.008C636.584 212.952 636.647 212.882 636.722 212.798C636.797 212.718 636.871 212.625 636.946 212.518C637.021 212.415 637.088 212.301 637.149 212.175C637.214 212.053 637.263 211.923 637.296 211.783C637.147 211.783 637.011 211.757 636.89 211.706C636.769 211.65 636.664 211.575 636.575 211.482C636.491 211.388 636.423 211.279 636.372 211.153C636.325 211.027 636.302 210.889 636.302 210.74C636.302 210.609 636.325 210.488 636.372 210.376C636.423 210.259 636.493 210.159 636.582 210.075C636.671 209.986 636.778 209.918 636.904 209.872C637.03 209.82 637.168 209.795 637.317 209.795C637.494 209.795 637.648 209.827 637.779 209.893C637.914 209.953 638.024 210.04 638.108 210.152C638.197 210.259 638.262 210.385 638.304 210.53C638.351 210.67 638.374 210.819 638.374 210.978C638.374 211.202 638.339 211.437 638.269 211.685C638.204 211.932 638.106 212.179 637.975 212.427C637.844 212.674 637.681 212.914 637.485 213.148C637.294 213.381 637.074 213.596 636.827 213.792L636.526 213.519ZM641.823 205.357C642.047 205.31 642.262 205.277 642.467 205.259C642.673 205.235 642.871 205.224 643.062 205.224C643.594 205.224 644.063 205.303 644.469 205.462C644.875 205.62 645.216 205.84 645.491 206.12C645.767 206.4 645.974 206.729 646.114 207.107C646.254 207.48 646.324 207.884 646.324 208.318C646.324 208.854 646.229 209.344 646.037 209.788C645.851 210.231 645.589 210.611 645.253 210.929C644.917 211.241 644.518 211.484 644.056 211.657C643.599 211.829 643.1 211.916 642.558 211.916C642.241 211.916 641.94 211.883 641.655 211.818C641.371 211.752 641.102 211.666 640.85 211.559C640.603 211.447 640.372 211.321 640.157 211.181C639.947 211.036 639.758 210.884 639.59 210.726L640.122 209.991C640.234 209.832 640.381 209.753 640.563 209.753C640.68 209.753 640.799 209.79 640.92 209.865C641.042 209.939 641.179 210.021 641.333 210.11C641.492 210.198 641.676 210.28 641.886 210.355C642.101 210.429 642.358 210.467 642.656 210.467C642.974 210.467 643.254 210.415 643.496 210.313C643.739 210.21 643.94 210.068 644.098 209.886C644.262 209.699 644.383 209.48 644.462 209.228C644.546 208.971 644.588 208.693 644.588 208.395C644.588 207.844 644.427 207.415 644.105 207.107C643.788 206.794 643.317 206.638 642.691 206.638C642.211 206.638 641.718 206.726 641.214 206.904L640.136 206.596L640.976 201.682H645.974V202.417C645.974 202.664 645.897 202.865 645.743 203.019C645.589 203.173 645.328 203.25 644.959 203.25H642.18L641.823 205.357ZM654.872 206.743C654.872 207.625 654.777 208.392 654.585 209.046C654.399 209.694 654.137 210.231 653.801 210.656C653.47 211.08 653.076 211.398 652.618 211.608C652.166 211.813 651.676 211.916 651.148 211.916C650.621 211.916 650.131 211.813 649.678 211.608C649.23 211.398 648.841 211.08 648.509 210.656C648.178 210.231 647.919 209.694 647.732 209.046C647.546 208.392 647.452 207.625 647.452 206.743C647.452 205.856 647.546 205.088 647.732 204.44C647.919 203.791 648.178 203.254 648.509 202.83C648.841 202.405 649.23 202.09 649.678 201.885C650.131 201.675 650.621 201.57 651.148 201.57C651.676 201.57 652.166 201.675 652.618 201.885C653.076 202.09 653.47 202.405 653.801 202.83C654.137 203.254 654.399 203.791 654.585 204.44C654.777 205.088 654.872 205.856 654.872 206.743ZM653.087 206.743C653.087 206.01 653.034 205.403 652.926 204.923C652.819 204.442 652.674 204.059 652.492 203.775C652.315 203.49 652.11 203.292 651.876 203.18C651.643 203.063 651.4 203.005 651.148 203.005C650.901 203.005 650.661 203.063 650.427 203.18C650.199 203.292 649.996 203.49 649.818 203.775C649.641 204.059 649.499 204.442 649.391 204.923C649.289 205.403 649.237 206.01 649.237 206.743C649.237 207.475 649.289 208.082 649.391 208.563C649.499 209.043 649.641 209.426 649.818 209.711C649.996 209.995 650.199 210.196 650.427 210.313C650.661 210.425 650.901 210.481 651.148 210.481C651.4 210.481 651.643 210.425 651.876 210.313C652.11 210.196 652.315 209.995 652.492 209.711C652.674 209.426 652.819 209.043 652.926 208.563C653.034 208.082 653.087 207.475 653.087 206.743ZM656.077 211.804V204.622H657.134C657.358 204.622 657.505 204.727 657.575 204.937L657.687 205.469C657.813 205.329 657.944 205.2 658.079 205.084C658.219 204.967 658.366 204.867 658.52 204.783C658.679 204.699 658.847 204.633 659.024 204.587C659.206 204.535 659.405 204.51 659.619 204.51C660.072 204.51 660.443 204.633 660.732 204.881C661.026 205.123 661.246 205.448 661.39 205.854C661.502 205.616 661.642 205.413 661.81 205.245C661.978 205.072 662.163 204.932 662.363 204.825C662.564 204.717 662.776 204.638 663 204.587C663.229 204.535 663.458 204.51 663.686 204.51C664.083 204.51 664.435 204.57 664.743 204.692C665.051 204.813 665.31 204.99 665.52 205.224C665.73 205.457 665.889 205.742 665.996 206.078C666.108 206.414 666.164 206.799 666.164 207.233V211.804H664.435V207.233C664.435 206.775 664.335 206.432 664.134 206.204C663.934 205.97 663.64 205.854 663.252 205.854C663.075 205.854 662.909 205.884 662.755 205.945C662.606 206.005 662.473 206.094 662.356 206.211C662.244 206.323 662.156 206.465 662.09 206.638C662.025 206.81 661.992 207.009 661.992 207.233V211.804H660.256V207.233C660.256 206.752 660.158 206.402 659.962 206.183C659.771 205.963 659.489 205.854 659.115 205.854C658.863 205.854 658.628 205.917 658.408 206.043C658.194 206.164 657.993 206.332 657.806 206.547V211.804H656.077ZM673.821 210.194C674.008 210.194 674.155 210.247 674.262 210.355C674.374 210.457 674.43 210.595 674.43 210.768V211.804H667.486V211.23C667.486 211.113 667.509 210.992 667.556 210.866C667.607 210.735 667.687 210.618 667.794 210.516L670.867 207.436C671.124 207.174 671.352 206.925 671.553 206.687C671.758 206.449 671.929 206.213 672.064 205.98C672.199 205.746 672.302 205.511 672.372 205.273C672.447 205.03 672.484 204.776 672.484 204.51C672.484 204.267 672.449 204.055 672.379 203.873C672.309 203.686 672.209 203.53 672.078 203.404C671.952 203.278 671.798 203.184 671.616 203.124C671.439 203.058 671.238 203.026 671.014 203.026C670.809 203.026 670.617 203.056 670.44 203.117C670.267 203.173 670.113 203.254 669.978 203.362C669.843 203.464 669.728 203.586 669.635 203.726C669.542 203.866 669.472 204.02 669.425 204.188C669.346 204.402 669.243 204.545 669.117 204.615C668.991 204.685 668.809 204.701 668.571 204.664L667.661 204.503C667.731 204.017 667.866 203.593 668.067 203.229C668.268 202.86 668.517 202.554 668.816 202.312C669.119 202.064 669.465 201.88 669.852 201.759C670.244 201.633 670.664 201.57 671.112 201.57C671.579 201.57 672.006 201.64 672.393 201.78C672.78 201.915 673.112 202.109 673.387 202.361C673.662 202.613 673.877 202.916 674.031 203.271C674.185 203.625 674.262 204.02 674.262 204.454C674.262 204.827 674.206 205.172 674.094 205.49C673.987 205.807 673.84 206.11 673.653 206.4C673.471 206.689 673.256 206.969 673.009 207.24C672.762 207.51 672.503 207.786 672.232 208.066L669.95 210.397C670.169 210.331 670.386 210.282 670.601 210.25C670.82 210.212 671.028 210.194 671.224 210.194H673.821Z" fill="black"/>
<path d="M293.703 202.914H290.455V211.804H289.104V202.914H285.849V201.773H293.703V202.914ZM300.82 210.621C300.955 210.621 301.062 210.66 301.142 210.74C301.221 210.819 301.261 210.922 301.261 211.048V211.804H294.569V211.377C294.569 211.288 294.587 211.197 294.625 211.104C294.662 211.01 294.72 210.924 294.8 210.845L298.013 207.618C298.279 207.347 298.521 207.088 298.741 206.841C298.96 206.589 299.147 206.337 299.301 206.085C299.455 205.833 299.574 205.578 299.658 205.322C299.742 205.06 299.784 204.783 299.784 204.489C299.784 204.195 299.737 203.938 299.644 203.719C299.55 203.495 299.422 203.31 299.259 203.166C299.1 203.021 298.911 202.914 298.692 202.844C298.472 202.769 298.237 202.732 297.985 202.732C297.728 202.732 297.492 202.769 297.278 202.844C297.063 202.918 296.872 203.023 296.704 203.159C296.54 203.289 296.403 203.446 296.291 203.628C296.179 203.81 296.099 204.01 296.053 204.23C295.997 204.393 295.92 204.503 295.822 204.559C295.728 204.61 295.595 204.624 295.423 204.601L294.772 204.489C294.837 204.031 294.963 203.628 295.15 203.278C295.341 202.923 295.579 202.627 295.864 202.389C296.153 202.151 296.482 201.971 296.851 201.85C297.219 201.724 297.618 201.661 298.048 201.661C298.472 201.661 298.869 201.724 299.238 201.85C299.606 201.976 299.926 202.16 300.197 202.403C300.467 202.641 300.68 202.932 300.834 203.278C300.988 203.623 301.065 204.015 301.065 204.454C301.065 204.827 301.009 205.175 300.897 205.497C300.785 205.814 300.633 206.117 300.442 206.407C300.25 206.696 300.029 206.978 299.777 207.254C299.529 207.529 299.266 207.807 298.986 208.087L296.34 210.789C296.526 210.737 296.715 210.698 296.907 210.67C297.098 210.637 297.282 210.621 297.46 210.621H300.82ZM307.016 207.989V204.678C307.016 204.365 307.037 204.02 307.079 203.642L303.936 207.989H307.016ZM309.795 207.989V208.99C309.795 209.083 309.764 209.165 309.704 209.235C309.643 209.3 309.557 209.333 309.445 209.333H308.521V211.804H307.016V209.333H302.746C302.629 209.333 302.526 209.298 302.438 209.228C302.349 209.153 302.293 209.062 302.27 208.955L302.088 208.08L306.883 201.675H308.521V207.989H309.795ZM312.995 205.357C313.219 205.31 313.433 205.277 313.639 205.259C313.844 205.235 314.042 205.224 314.234 205.224C314.766 205.224 315.235 205.303 315.641 205.462C316.047 205.62 316.387 205.84 316.663 206.12C316.938 206.4 317.146 206.729 317.286 207.107C317.426 207.48 317.496 207.884 317.496 208.318C317.496 208.854 317.4 209.344 317.209 209.788C317.022 210.231 316.761 210.611 316.425 210.929C316.089 211.241 315.69 211.484 315.228 211.657C314.77 211.829 314.271 211.916 313.73 211.916C313.412 211.916 313.111 211.883 312.827 211.818C312.542 211.752 312.274 211.666 312.022 211.559C311.774 211.447 311.543 211.321 311.329 211.181C311.119 211.036 310.93 210.884 310.762 210.726L311.294 209.991C311.406 209.832 311.553 209.753 311.735 209.753C311.851 209.753 311.97 209.79 312.092 209.865C312.213 209.939 312.351 210.021 312.505 210.11C312.663 210.198 312.848 210.28 313.058 210.355C313.272 210.429 313.529 210.467 313.828 210.467C314.145 210.467 314.425 210.415 314.668 210.313C314.91 210.21 315.111 210.068 315.27 209.886C315.433 209.699 315.554 209.48 315.634 209.228C315.718 208.971 315.76 208.693 315.76 208.395C315.76 207.844 315.599 207.415 315.277 207.107C314.959 206.794 314.488 206.638 313.863 206.638C313.382 206.638 312.89 206.726 312.386 206.904L311.308 206.596L312.148 201.682H317.146V202.417C317.146 202.664 317.069 202.865 316.915 203.019C316.761 203.173 316.499 203.25 316.131 203.25H313.352L312.995 205.357ZM319.1 213.519C319.016 213.449 318.974 213.362 318.974 213.26C318.974 213.222 318.986 213.18 319.009 213.134C319.037 213.087 319.07 213.045 319.107 213.008C319.158 212.952 319.221 212.882 319.296 212.798C319.371 212.718 319.445 212.625 319.52 212.518C319.595 212.415 319.662 212.301 319.723 212.175C319.788 212.053 319.837 211.923 319.87 211.783C319.721 211.783 319.585 211.757 319.464 211.706C319.343 211.65 319.238 211.575 319.149 211.482C319.065 211.388 318.997 211.279 318.946 211.153C318.899 211.027 318.876 210.889 318.876 210.74C318.876 210.609 318.899 210.488 318.946 210.376C318.997 210.259 319.067 210.159 319.156 210.075C319.245 209.986 319.352 209.918 319.478 209.872C319.604 209.82 319.742 209.795 319.891 209.795C320.068 209.795 320.222 209.827 320.353 209.893C320.488 209.953 320.598 210.04 320.682 210.152C320.771 210.259 320.836 210.385 320.878 210.53C320.925 210.67 320.948 210.819 320.948 210.978C320.948 211.202 320.913 211.437 320.843 211.685C320.778 211.932 320.68 212.179 320.549 212.427C320.418 212.674 320.255 212.914 320.059 213.148C319.868 213.381 319.648 213.596 319.401 213.792L319.1 213.519ZM324.397 205.357C324.621 205.31 324.836 205.277 325.041 205.259C325.247 205.235 325.445 205.224 325.636 205.224C326.168 205.224 326.637 205.303 327.043 205.462C327.449 205.62 327.79 205.84 328.065 206.12C328.341 206.4 328.548 206.729 328.688 207.107C328.828 207.48 328.898 207.884 328.898 208.318C328.898 208.854 328.803 209.344 328.611 209.788C328.425 210.231 328.163 210.611 327.827 210.929C327.491 211.241 327.092 211.484 326.63 211.657C326.173 211.829 325.674 211.916 325.132 211.916C324.815 211.916 324.514 211.883 324.229 211.818C323.945 211.752 323.676 211.666 323.424 211.559C323.177 211.447 322.946 211.321 322.731 211.181C322.521 211.036 322.332 210.884 322.164 210.726L322.696 209.991C322.808 209.832 322.955 209.753 323.137 209.753C323.254 209.753 323.373 209.79 323.494 209.865C323.616 209.939 323.753 210.021 323.907 210.11C324.066 210.198 324.25 210.28 324.46 210.355C324.675 210.429 324.932 210.467 325.23 210.467C325.548 210.467 325.828 210.415 326.07 210.313C326.313 210.21 326.514 210.068 326.672 209.886C326.836 209.699 326.957 209.48 327.036 209.228C327.12 208.971 327.162 208.693 327.162 208.395C327.162 207.844 327.001 207.415 326.679 207.107C326.362 206.794 325.891 206.638 325.265 206.638C324.785 206.638 324.292 206.726 323.788 206.904L322.71 206.596L323.55 201.682H328.548V202.417C328.548 202.664 328.471 202.865 328.317 203.019C328.163 203.173 327.902 203.25 327.533 203.25H324.754L324.397 205.357ZM337.446 206.743C337.446 207.625 337.351 208.392 337.159 209.046C336.973 209.694 336.711 210.231 336.375 210.656C336.044 211.08 335.65 211.398 335.192 211.608C334.74 211.813 334.25 211.916 333.722 211.916C333.195 211.916 332.705 211.813 332.252 211.608C331.804 211.398 331.415 211.08 331.083 210.656C330.752 210.231 330.493 209.694 330.306 209.046C330.12 208.392 330.026 207.625 330.026 206.743C330.026 205.856 330.12 205.088 330.306 204.44C330.493 203.791 330.752 203.254 331.083 202.83C331.415 202.405 331.804 202.09 332.252 201.885C332.705 201.675 333.195 201.57 333.722 201.57C334.25 201.57 334.74 201.675 335.192 201.885C335.65 202.09 336.044 202.405 336.375 202.83C336.711 203.254 336.973 203.791 337.159 204.44C337.351 205.088 337.446 205.856 337.446 206.743ZM335.661 206.743C335.661 206.01 335.608 205.403 335.5 204.923C335.393 204.442 335.248 204.059 335.066 203.775C334.889 203.49 334.684 203.292 334.45 203.18C334.217 203.063 333.974 203.005 333.722 203.005C333.475 203.005 333.235 203.063 333.001 203.18C332.773 203.292 332.57 203.49 332.392 203.775C332.215 204.059 332.073 204.442 331.965 204.923C331.863 205.403 331.811 206.01 331.811 206.743C331.811 207.475 331.863 208.082 331.965 208.563C332.073 209.043 332.215 209.426 332.392 209.711C332.57 209.995 332.773 210.196 333.001 210.313C333.235 210.425 333.475 210.481 333.722 210.481C333.974 210.481 334.217 210.425 334.45 210.313C334.684 210.196 334.889 209.995 335.066 209.711C335.248 209.426 335.393 209.043 335.5 208.563C335.608 208.082 335.661 207.475 335.661 206.743ZM338.651 211.804V204.622H339.708C339.932 204.622 340.079 204.727 340.149 204.937L340.261 205.469C340.387 205.329 340.518 205.2 340.653 205.084C340.793 204.967 340.94 204.867 341.094 204.783C341.253 204.699 341.421 204.633 341.598 204.587C341.78 204.535 341.979 204.51 342.193 204.51C342.646 204.51 343.017 204.633 343.306 204.881C343.6 205.123 343.82 205.448 343.964 205.854C344.076 205.616 344.216 205.413 344.384 205.245C344.552 205.072 344.737 204.932 344.937 204.825C345.138 204.717 345.35 204.638 345.574 204.587C345.803 204.535 346.032 204.51 346.26 204.51C346.657 204.51 347.009 204.57 347.317 204.692C347.625 204.813 347.884 204.99 348.094 205.224C348.304 205.457 348.463 205.742 348.57 206.078C348.682 206.414 348.738 206.799 348.738 207.233V211.804H347.009V207.233C347.009 206.775 346.909 206.432 346.708 206.204C346.508 205.97 346.214 205.854 345.826 205.854C345.649 205.854 345.483 205.884 345.329 205.945C345.18 206.005 345.047 206.094 344.93 206.211C344.818 206.323 344.73 206.465 344.664 206.638C344.599 206.81 344.566 207.009 344.566 207.233V211.804H342.83V207.233C342.83 206.752 342.732 206.402 342.536 206.183C342.345 205.963 342.063 205.854 341.689 205.854C341.437 205.854 341.202 205.917 340.982 206.043C340.768 206.164 340.567 206.332 340.38 206.547V211.804H338.651ZM356.395 210.194C356.581 210.194 356.728 210.247 356.836 210.355C356.948 210.457 357.004 210.595 357.004 210.768V211.804H350.06V211.23C350.06 211.113 350.083 210.992 350.13 210.866C350.181 210.735 350.26 210.618 350.368 210.516L353.441 207.436C353.697 207.174 353.926 206.925 354.127 206.687C354.332 206.449 354.502 206.213 354.638 205.98C354.773 205.746 354.876 205.511 354.946 205.273C355.02 205.03 355.058 204.776 355.058 204.51C355.058 204.267 355.023 204.055 354.953 203.873C354.883 203.686 354.782 203.53 354.652 203.404C354.526 203.278 354.372 203.184 354.19 203.124C354.012 203.058 353.812 203.026 353.588 203.026C353.382 203.026 353.191 203.056 353.014 203.117C352.841 203.173 352.687 203.254 352.552 203.362C352.416 203.464 352.302 203.586 352.209 203.726C352.115 203.866 352.045 204.02 351.999 204.188C351.919 204.402 351.817 204.545 351.691 204.615C351.565 204.685 351.383 204.701 351.145 204.664L350.235 204.503C350.305 204.017 350.44 203.593 350.641 203.229C350.841 202.86 351.091 202.554 351.39 202.312C351.693 202.064 352.038 201.88 352.426 201.759C352.818 201.633 353.238 201.57 353.686 201.57C354.152 201.57 354.579 201.64 354.967 201.78C355.354 201.915 355.685 202.109 355.961 202.361C356.236 202.613 356.451 202.916 356.605 203.271C356.759 203.625 356.836 204.02 356.836 204.454C356.836 204.827 356.78 205.172 356.668 205.49C356.56 205.807 356.413 206.11 356.227 206.4C356.045 206.689 355.83 206.969 355.583 207.24C355.335 207.51 355.076 207.786 354.806 208.066L352.524 210.397C352.743 210.331 352.96 210.282 353.175 210.25C353.394 210.212 353.602 210.194 353.798 210.194H356.395Z" fill="black"/>
<path d="M252.207 130.988V148.018" stroke="#1D1D1B" stroke-miterlimit="10"/>
<path d="M216.277 182.287H267.784V183.741" stroke="#1D1D1B" stroke-miterlimit="10"/>
<path d="M247.223 182.702V194.54" stroke="#1D1D1B" stroke-miterlimit="10"/>
<path d="M267.576 199.525V269.723" stroke="#1D1D1B" stroke-miterlimit="10"/>
<path d="M276.091 131.818V136.387H287.514V131.61" stroke="#1D1D1B" stroke-miterlimit="10"/>
<path d="M287.514 136.388V165.672" stroke="#1D1D1B" stroke-miterlimit="10"/>
<path d="M275.883 165.88V161.309H287.513" stroke="#1D1D1B" stroke-miterlimit="10"/>
<path d="M298.416 270.139H275.641" stroke="#9D9D9C" stroke-miterlimit="10"/>
<path d="M323.479 270.139H299.822" stroke="#9D9D9C" stroke-miterlimit="10"/>
<path d="M372.631 238.584H346.994" stroke="#9D9D9C" stroke-width="0.998" stroke-miterlimit="10"/>
<path d="M400.844 238.584H374.214" stroke="#9D9D9C" stroke-width="0.998" stroke-miterlimit="10"/>
<path d="M535.934 238.584H510.297" stroke="#9D9D9C" stroke-width="0.998" stroke-miterlimit="10"/>
<path d="M564.147 238.584H537.517" stroke="#9D9D9C" stroke-width="0.998" stroke-miterlimit="10"/>
<path d="M216.139 164.703H252.415" stroke="#1D1D1B" stroke-miterlimit="10"/>
<path d="M252.276 163.179V166.225" stroke="#1D1D1B" stroke-miterlimit="10"/>
<path d="M216.122 193.566H230.972" stroke="#9D9D9C" stroke-miterlimit="10"/>
<path d="M229.726 194.604H246.563" stroke="#9D9D9C" stroke-miterlimit="10"/>
<path d="M310.775 130.988V143.63H311.953" stroke="#1D1D1B" stroke-miterlimit="10"/>
<path d="M332.167 143.241H321.575V131.403" stroke="#1D1D1B" stroke-miterlimit="10"/>
<path d="M321.575 143.241H320.329" stroke="#1D1D1B" stroke-miterlimit="10"/>
<path d="M391.843 36.6281V105.857" stroke="#1D1D1B" stroke-miterlimit="10"/>
<path d="M451.934 105.304H408.458" stroke="#1D1D1B" stroke-miterlimit="10"/>
<path d="M412.611 105.304V120.811" stroke="#1D1D1B" stroke-miterlimit="10"/>
<path d="M334.797 105.304H375.781" stroke="#1D1D1B" stroke-miterlimit="10"/>
<path d="M369.689 105.305V93.674" stroke="#1D1D1B" stroke-miterlimit="10"/>
<path d="M335.629 140.749H368.029V128.842H390.182" stroke="#1D1D1B" stroke-miterlimit="10"/>
<path d="M386.858 128.842V141.303H390.181" stroke="#1D1D1B" stroke-miterlimit="10"/>
<path d="M452.349 137.426H412.611" stroke="#1D1D1B" stroke-miterlimit="10"/>
<path d="M412.611 135.903V138.949" stroke="#1D1D1B" stroke-miterlimit="10"/>
<path d="M412.611 166.78V155.426H452.764" stroke="#1D1D1B" stroke-miterlimit="10"/>
<path d="M439.334 155.288V166.088H452.627" stroke="#1D1D1B" stroke-miterlimit="10"/>
<path d="M335.213 163.595H389.627V157.364" stroke="#1D1D1B" stroke-miterlimit="10"/>
<path d="M390.181 104.554L389.876 89.2828" stroke="#9D9D9C" stroke-miterlimit="10"/>
<path d="M389.898 89.0228C389.898 89.0228 384.489 88.9408 379.263 94.3028C379.263 94.3028 375.473 98.934 375.473 104.057" stroke="#9D9D9C" stroke-width="0.5" stroke-miterlimit="10"/>
<path d="M393.776 104.554L394.081 89.2828" stroke="#9D9D9C" stroke-miterlimit="10"/>
<path d="M394.058 89.0228C394.058 89.0228 399.467 88.9408 404.693 94.3028C404.693 94.3028 408.484 98.934 408.484 104.057" stroke="#9D9D9C" stroke-width="0.5" stroke-miterlimit="10"/>
<path d="M346.867 115.865L334.369 127.748" stroke="#9D9D9C" stroke-width="2" stroke-miterlimit="10"/>
<path d="M347.101 115.686C347.101 115.686 343.05 111.114 334.601 110.842" stroke="#9D9D9C" stroke-width="0.565" stroke-miterlimit="10"/>
<path d="M335.404 94.344H353.357" stroke="#9D9D9C" stroke-miterlimit="10"/>
<path d="M352.111 93.306H368.948" stroke="#9D9D9C" stroke-miterlimit="10"/>
<path d="M336.459 129.312H352.884" stroke="#9D9D9C" stroke-width="0.859" stroke-miterlimit="10"/>
<path d="M351.744 128.475H367.148" stroke="#9D9D9C" stroke-width="0.859" stroke-miterlimit="10"/>
<path d="M393.92 105.581H389.905" stroke="#1D1D1B" stroke-miterlimit="10"/>
<path d="M389.986 142.157L400.89 152.853" stroke="#9D9D9C" stroke-miterlimit="10"/>
<path d="M401.095 153.014C401.095 153.014 397.445 157.007 389.959 157.132" stroke="#9D9D9C" stroke-width="0.5" stroke-miterlimit="10"/>
<path d="M412.283 153.532L401.379 142.836" stroke="#9D9D9C" stroke-miterlimit="10"/>
<path d="M401.174 142.674C401.174 142.674 404.824 138.682 412.311 138.557" stroke="#9D9D9C" stroke-width="0.5" stroke-miterlimit="10"/>
<path d="M412.283 135.809L401.379 125.113" stroke="#9D9D9C" stroke-miterlimit="10"/>
<path d="M401.174 124.951C401.174 124.951 404.824 120.958 412.311 120.833" stroke="#9D9D9C" stroke-width="0.5" stroke-miterlimit="10"/>
<path d="M412.611 155.426V154.056" stroke="#1D1D1B" stroke-miterlimit="10"/>
<path d="M373.895 38.152H385.958" stroke="#9D9D9C" stroke-miterlimit="10"/>
<path d="M360.62 38.152H373.15" stroke="#9D9D9C" stroke-miterlimit="10"/>
<path d="M420.625 38.152H432.688" stroke="#9D9D9C" stroke-miterlimit="10"/>
<path d="M407.35 38.152H419.88" stroke="#9D9D9C" stroke-miterlimit="10"/>
<path d="M440.954 137.623V155.148" stroke="#1D1D1B" stroke-miterlimit="10"/>
<path d="M474.075 221.916L474.366 237.187" stroke="#9D9D9C" stroke-miterlimit="10"/>
<path d="M474.042 221.657C474.042 221.657 479.442 221.363 484.875 226.518C487.089 229.374 488.653 232.679 489.458 236.202" stroke="#9D9D9C" stroke-width="0.5" stroke-miterlimit="10"/>
<path d="M518.326 35.9908V105.22" stroke="#1D1D1B" stroke-miterlimit="10"/>
<path d="M458.235 104.666H501.711" stroke="#1D1D1B" stroke-miterlimit="10"/>
<path d="M497.558 104.666V120.173" stroke="#1D1D1B" stroke-miterlimit="10"/>
<path d="M575.371 104.666H534.387" stroke="#1D1D1B" stroke-miterlimit="10"/>
<path d="M540.48 104.667V93.036" stroke="#1D1D1B" stroke-miterlimit="10"/>
<path d="M574.541 140.112H542.141V128.205H519.988" stroke="#1D1D1B" stroke-miterlimit="10"/>
<path d="M523.311 128.205V140.666H519.988" stroke="#1D1D1B" stroke-miterlimit="10"/>
<path d="M457.82 136.789H497.558" stroke="#1D1D1B" stroke-miterlimit="10"/>
<path d="M497.558 135.266V138.312" stroke="#1D1D1B" stroke-miterlimit="10"/>
<path d="M497.558 166.142V154.788H457.405" stroke="#1D1D1B" stroke-miterlimit="10"/>
<path d="M470.835 154.65V165.45H457.543" stroke="#1D1D1B" stroke-miterlimit="10"/>
<path d="M574.956 162.957H520.542V156.727" stroke="#1D1D1B" stroke-miterlimit="10"/>
<path d="M519.988 103.917L520.293 88.6459" stroke="#9D9D9C" stroke-miterlimit="10"/>
<path d="M520.27 88.3858C520.27 88.3858 525.679 88.3038 530.905 93.6658C530.905 93.6658 534.696 98.297 534.696 103.42" stroke="#9D9D9C" stroke-width="0.5" stroke-miterlimit="10"/>
<path d="M516.393 103.917L516.088 88.6459" stroke="#9D9D9C" stroke-miterlimit="10"/>
<path d="M516.11 88.3858C516.11 88.3858 510.701 88.3038 505.475 93.6658C505.475 93.6658 501.684 98.297 501.684 103.42" stroke="#9D9D9C" stroke-width="0.5" stroke-miterlimit="10"/>
<path d="M563.302 115.228L575.8 127.111" stroke="#9D9D9C" stroke-width="2" stroke-miterlimit="10"/>
<path d="M563.068 115.049C563.068 115.049 567.118 110.477 575.568 110.205" stroke="#9D9D9C" stroke-width="0.565" stroke-miterlimit="10"/>
<path d="M574.765 93.7068H556.812" stroke="#9D9D9C" stroke-miterlimit="10"/>
<path d="M558.058 92.6688H541.221" stroke="#9D9D9C" stroke-miterlimit="10"/>
<path d="M573.71 128.674H557.285" stroke="#9D9D9C" stroke-width="0.859" stroke-miterlimit="10"/>
<path d="M558.425 127.837H543.021" stroke="#9D9D9C" stroke-width="0.859" stroke-miterlimit="10"/>
<path d="M516.25 104.943H520.265" stroke="#1D1D1B" stroke-miterlimit="10"/>
<path d="M520.181 141.519L509.277 152.215" stroke="#9D9D9C" stroke-miterlimit="10"/>
<path d="M509.073 152.376C509.073 152.376 512.723 156.369 520.21 156.494" stroke="#9D9D9C" stroke-width="0.5" stroke-miterlimit="10"/>
<path d="M497.886 152.895L508.79 142.199" stroke="#9D9D9C" stroke-miterlimit="10"/>
<path d="M508.995 142.037C508.995 142.037 505.345 138.045 497.858 137.92" stroke="#9D9D9C" stroke-width="0.5" stroke-miterlimit="10"/>
<path d="M497.886 135.172L508.79 124.476" stroke="#9D9D9C" stroke-miterlimit="10"/>
<path d="M508.995 124.314C508.995 124.314 505.345 120.322 497.858 120.197" stroke="#9D9D9C" stroke-width="0.5" stroke-miterlimit="10"/>
<path d="M497.558 154.789V153.419" stroke="#1D1D1B" stroke-miterlimit="10"/>
<path d="M536.274 37.514H524.211" stroke="#9D9D9C" stroke-miterlimit="10"/>
<path d="M549.549 37.514H537.019" stroke="#9D9D9C" stroke-miterlimit="10"/>
<path d="M489.544 37.514H477.481" stroke="#9D9D9C" stroke-miterlimit="10"/>
<path d="M502.819 37.514H490.289" stroke="#9D9D9C" stroke-miterlimit="10"/>
<path d="M469.215 136.986V154.511" stroke="#1D1D1B" stroke-miterlimit="10"/>
<path d="M698.447 111.482V35.9159H694.622V111.482H698.447Z" fill="#1D1D1B"/>
<path d="M753.205 38.0209V109.189" stroke="#1D1D1B" stroke-miterlimit="10"/>
<path d="M813.989 100.465H775.498V112.372" stroke="#1D1D1B" stroke-miterlimit="10"/>
<path d="M775.359 108.912H769.543" stroke="#1D1D1B" stroke-miterlimit="10"/>
<path d="M775.497 127.603V133.834" stroke="#1D1D1B" stroke-miterlimit="10"/>
<path d="M775.22 150.449H814.127" stroke="#1D1D1B" stroke-miterlimit="10"/>
<path d="M775.497 132.588H814.265" stroke="#1D1D1B" stroke-miterlimit="10"/>
<path d="M746.421 154.464H758.19V132.311H729.114V155.157H730.845" stroke="#1D1D1B" stroke-miterlimit="10"/>
<path d="M728.975 143.526H698.099" stroke="#1D1D1B" stroke-miterlimit="10"/>
<path d="M698.376 106.423H718.314V109.054" stroke="#1D1D1B" stroke-miterlimit="10"/>
<path d="M718.314 106.419V105.034H729.944V108.772H736.728" stroke="#1D1D1B" stroke-miterlimit="10"/>
<path d="M729.944 105.035V95.066" stroke="#1D1D1B" stroke-miterlimit="10"/>
<path d="M775.497 112.373L764.593 123.069" stroke="#9D9D9C" stroke-miterlimit="10"/>
<path d="M764.389 123.23C764.389 123.23 768.038 127.223 775.526 127.348" stroke="#9D9D9C" stroke-width="0.5" stroke-miterlimit="10"/>
<path d="M658.915 148.649L648.011 159.345" stroke="#9D9D9C" stroke-miterlimit="10"/>
<path d="M647.803 159.506C647.803 159.506 651.453 163.499 658.94 163.624" stroke="#9D9D9C" stroke-width="0.5" stroke-miterlimit="10"/>
<path d="M591.185 144.559L597.109 149.687" stroke="#9D9D9C" stroke-miterlimit="10"/>
<path d="M597.202 149.782C597.202 149.782 599.09 148.482 598.841 144.649" stroke="#9D9D9C" stroke-width="0.5" stroke-miterlimit="10"/>
<path d="M698.421 128.66L710.709 116.628" stroke="#9D9D9C" stroke-width="2" stroke-miterlimit="10"/>
<path d="M710.709 116.628C710.709 116.628 707.175 112.528 699.694 112.192" stroke="#9D9D9C" stroke-width="0.5" stroke-miterlimit="10"/>
<path d="M751.682 108.15L751.471 92.8782" stroke="#9D9D9C" stroke-miterlimit="10"/>
<path d="M751.495 92.6182C751.495 92.6182 746.087 92.5021 740.828 97.8331C740.828 97.8331 737.006 101.643 737.213 108.704" stroke="#9D9D9C" stroke-width="0.5" stroke-miterlimit="10"/>
<path d="M754.928 108.15L755.139 92.8782" stroke="#9D9D9C" stroke-miterlimit="10"/>
<path d="M755.114 92.6182C755.114 92.6182 760.522 92.5021 765.781 97.8331C765.781 97.8331 769.603 101.643 769.396 108.704" stroke="#9D9D9C" stroke-width="0.5" stroke-miterlimit="10"/>
<path d="M775.497 149.826L764.593 139.13" stroke="#9D9D9C" stroke-miterlimit="10"/>
<path d="M764.389 138.969C764.389 138.969 768.038 134.976 775.526 134.851" stroke="#9D9D9C" stroke-width="0.5" stroke-miterlimit="10"/>
<path d="M746.282 154.896L735.641 165.853" stroke="#9D9D9C" stroke-miterlimit="10"/>
<path d="M735.48 166.058C735.48 166.058 731.468 162.428 731.307 154.942" stroke="#9D9D9C" stroke-width="0.5" stroke-miterlimit="10"/>
<path d="M647.984 171.509L659.053 182.034" stroke="#9D9D9C" stroke-miterlimit="10"/>
<path d="M647.777 171.351C647.777 171.351 651.364 167.301 658.848 167.06" stroke="#9D9D9C" stroke-width="0.5" stroke-miterlimit="10"/>
<path d="M651.009 255.237L651.3 270.508" stroke="#9D9D9C" stroke-miterlimit="10"/>
<path d="M650.976 254.979C650.976 254.979 656.376 254.685 661.809 259.84C664.023 262.696 665.587 266.001 666.392 269.524" stroke="#9D9D9C" stroke-width="0.5" stroke-miterlimit="10"/>
<path d="M654.983 195.644L643.789 185.253" stroke="#9D9D9C" stroke-miterlimit="10"/>
<path d="M655.192 195.796C655.192 195.796 651.654 199.888 644.173 200.219" stroke="#9D9D9C" stroke-width="0.5" stroke-miterlimit="10"/>
<path d="M751.474 108.981H755.074" stroke="#1D1D1B" stroke-miterlimit="10"/>
<path d="M728.975 94.5118H714.125" stroke="#9D9D9C" stroke-miterlimit="10"/>
<path d="M715.371 95.5498H698.534" stroke="#9D9D9C" stroke-miterlimit="10"/>
<path d="M635.315 138.15V149.758" stroke="#9D9D9C" stroke-miterlimit="10"/>
<path d="M636.037 148.784V161.945" stroke="#9D9D9C" stroke-miterlimit="10"/>
<path d="M735.231 37.871H723.168" stroke="#9D9D9C" stroke-miterlimit="10"/>
<path d="M748.506 37.871H735.976" stroke="#9D9D9C" stroke-miterlimit="10"/>
<path d="M728.248 132.415H713.398" stroke="#9D9D9C" stroke-miterlimit="10"/>
<path d="M714.644 131.48H698.628" stroke="#9D9D9C" stroke-miterlimit="10"/>
<path d="M813.435 68.4288V56.3658" stroke="#9D9D9C" stroke-miterlimit="10"/>
<path d="M813.435 81.7039V69.174" stroke="#9D9D9C" stroke-miterlimit="10"/>
<path d="M812.88 199.046V176.271" stroke="#9D9D9C" stroke-miterlimit="10"/>
<path d="M812.88 224.109V200.452" stroke="#9D9D9C" stroke-miterlimit="10"/>
<path d="M755.073 239.893H770.963" stroke="#9D9D9C" stroke-miterlimit="10"/>
<path d="M723.126 239.893H738.519" stroke="#9D9D9C" stroke-miterlimit="10"/>
<path d="M738.971 239.893H754.364" stroke="#9D9D9C" stroke-miterlimit="10"/>
<path d="M658.984 132.103V149.133" stroke="#1D1D1B" stroke-miterlimit="10"/>
<path d="M694.914 183.402H643.407V184.856" stroke="#1D1D1B" stroke-miterlimit="10"/>
<path d="M663.968 183.818V195.656" stroke="#1D1D1B" stroke-miterlimit="10"/>
<path d="M643.615 200.64V270.838" stroke="#1D1D1B" stroke-miterlimit="10"/>
<path d="M635.1 132.934V137.503H623.677V132.726" stroke="#1D1D1B" stroke-miterlimit="10"/>
<path d="M623.677 137.503V166.787" stroke="#1D1D1B" stroke-miterlimit="10"/>
<path d="M635.308 166.995V162.426H623.678" stroke="#1D1D1B" stroke-miterlimit="10"/>
<path d="M612.775 271.254H635.55" stroke="#9D9D9C" stroke-miterlimit="10"/>
<path d="M587.712 271.254H611.369" stroke="#9D9D9C" stroke-miterlimit="10"/>
<path d="M695.052 165.818H658.776" stroke="#1D1D1B" stroke-miterlimit="10"/>
<path d="M658.915 164.295V167.341" stroke="#1D1D1B" stroke-miterlimit="10"/>
<path d="M695.069 194.681H680.219" stroke="#9D9D9C" stroke-miterlimit="10"/>
<path d="M681.465 195.719H664.628" stroke="#9D9D9C" stroke-miterlimit="10"/>
<path d="M600.416 132.103V144.745H599.238" stroke="#1D1D1B" stroke-miterlimit="10"/>
<path d="M579.026 144.357H589.616V132.519" stroke="#1D1D1B" stroke-miterlimit="10"/>
<path d="M589.616 144.357H590.862" stroke="#1D1D1B" stroke-miterlimit="10"/>
<path d="M761.73 175.499H758.482V184.389H757.131V175.499H753.876V174.358H761.73V175.499ZM762.848 177.074C762.913 176.617 763.039 176.213 763.226 175.863C763.412 175.508 763.648 175.212 763.933 174.974C764.222 174.736 764.551 174.556 764.92 174.435C765.293 174.309 765.694 174.246 766.124 174.246C766.548 174.246 766.94 174.307 767.3 174.428C767.659 174.549 767.967 174.722 768.224 174.946C768.485 175.17 768.688 175.441 768.833 175.758C768.977 176.075 769.05 176.428 769.05 176.815C769.05 177.132 769.008 177.417 768.924 177.669C768.844 177.916 768.728 178.133 768.574 178.32C768.424 178.507 768.242 178.665 768.028 178.796C767.813 178.927 767.573 179.034 767.307 179.118C767.96 179.286 768.45 179.575 768.777 179.986C769.108 180.392 769.274 180.901 769.274 181.512C769.274 181.974 769.185 182.389 769.007 182.758C768.835 183.127 768.597 183.442 768.294 183.703C767.99 183.96 767.636 184.158 767.23 184.298C766.828 184.433 766.397 184.501 765.935 184.501C765.403 184.501 764.948 184.436 764.57 184.305C764.192 184.17 763.872 183.985 763.611 183.752C763.349 183.519 763.135 183.243 762.966 182.926C762.799 182.604 762.656 182.256 762.54 181.883L763.079 181.659C763.219 181.598 763.354 181.582 763.485 181.61C763.62 181.638 763.718 181.715 763.779 181.841C763.839 181.972 763.914 182.128 764.003 182.31C764.096 182.492 764.222 182.667 764.381 182.835C764.539 183.003 764.74 183.145 764.983 183.262C765.23 183.379 765.543 183.437 765.921 183.437C766.271 183.437 766.576 183.381 766.838 183.269C767.104 183.152 767.323 183.003 767.496 182.821C767.673 182.639 767.806 182.436 767.895 182.212C767.983 181.988 768.028 181.766 768.028 181.547C768.028 181.276 767.993 181.029 767.923 180.805C767.853 180.581 767.722 180.387 767.531 180.224C767.339 180.061 767.076 179.932 766.74 179.839C766.408 179.746 765.981 179.699 765.459 179.699V178.796C765.888 178.791 766.252 178.745 766.551 178.656C766.854 178.567 767.099 178.446 767.286 178.292C767.477 178.138 767.615 177.954 767.699 177.739C767.787 177.524 767.832 177.286 767.832 177.025C767.832 176.736 767.785 176.484 767.692 176.269C767.603 176.054 767.479 175.877 767.321 175.737C767.162 175.597 766.973 175.492 766.754 175.422C766.539 175.352 766.306 175.317 766.053 175.317C765.802 175.317 765.566 175.354 765.347 175.429C765.132 175.504 764.941 175.609 764.773 175.744C764.609 175.875 764.472 176.031 764.36 176.213C764.248 176.395 764.168 176.596 764.122 176.815C764.061 176.978 763.984 177.088 763.891 177.144C763.802 177.195 763.671 177.209 763.499 177.186L762.848 177.074ZM773.713 177.942L773.363 178.376C773.559 178.278 773.769 178.203 773.993 178.152C774.221 178.096 774.466 178.068 774.728 178.068C775.11 178.068 775.481 178.131 775.841 178.257C776.205 178.383 776.524 178.574 776.8 178.831C777.075 179.083 777.297 179.398 777.465 179.776C777.633 180.154 777.717 180.595 777.717 181.099C777.717 181.57 777.63 182.014 777.458 182.429C777.285 182.84 777.042 183.199 776.73 183.507C776.417 183.815 776.039 184.058 775.596 184.235C775.157 184.412 774.672 184.501 774.14 184.501C773.598 184.501 773.113 184.415 772.684 184.242C772.254 184.069 771.888 183.829 771.585 183.521C771.281 183.208 771.048 182.835 770.885 182.401C770.726 181.962 770.647 181.477 770.647 180.945C770.647 180.469 770.742 179.981 770.934 179.482C771.13 178.978 771.431 178.455 771.837 177.914L774.252 174.673C774.336 174.561 774.457 174.465 774.616 174.386C774.779 174.307 774.966 174.267 775.176 174.267H776.716L773.713 177.942ZM774.105 183.087C774.38 183.087 774.632 183.04 774.861 182.947C775.094 182.854 775.292 182.723 775.456 182.555C775.624 182.387 775.754 182.191 775.848 181.967C775.941 181.738 775.988 181.491 775.988 181.225C775.988 180.936 775.943 180.677 775.855 180.448C775.766 180.215 775.64 180.019 775.477 179.86C775.313 179.697 775.117 179.573 774.889 179.489C774.66 179.405 774.408 179.363 774.133 179.363C773.857 179.363 773.608 179.41 773.384 179.503C773.16 179.596 772.968 179.727 772.81 179.895C772.651 180.058 772.527 180.254 772.439 180.483C772.35 180.707 772.306 180.95 772.306 181.211C772.306 181.491 772.343 181.748 772.418 181.981C772.497 182.21 772.611 182.406 772.761 182.569C772.915 182.732 773.104 182.861 773.328 182.954C773.552 183.043 773.811 183.087 774.105 183.087ZM781.834 177.942L781.484 178.376C781.68 178.278 781.89 178.203 782.114 178.152C782.342 178.096 782.587 178.068 782.849 178.068C783.231 178.068 783.602 178.131 783.962 178.257C784.326 178.383 784.645 178.574 784.921 178.831C785.196 179.083 785.418 179.398 785.586 179.776C785.754 180.154 785.838 180.595 785.838 181.099C785.838 181.57 785.751 182.014 785.579 182.429C785.406 182.84 785.163 183.199 784.851 183.507C784.538 183.815 784.16 184.058 783.717 184.235C783.278 184.412 782.793 184.501 782.261 184.501C781.719 184.501 781.234 184.415 780.805 184.242C780.375 184.069 780.009 183.829 779.706 183.521C779.402 183.208 779.169 182.835 779.006 182.401C778.847 181.962 778.768 181.477 778.768 180.945C778.768 180.469 778.863 179.981 779.055 179.482C779.251 178.978 779.552 178.455 779.958 177.914L782.373 174.673C782.457 174.561 782.578 174.465 782.737 174.386C782.9 174.307 783.087 174.267 783.297 174.267H784.837L781.834 177.942ZM782.226 183.087C782.501 183.087 782.753 183.04 782.982 182.947C783.215 182.854 783.413 182.723 783.577 182.555C783.745 182.387 783.875 182.191 783.969 181.967C784.062 181.738 784.109 181.491 784.109 181.225C784.109 180.936 784.064 180.677 783.976 180.448C783.887 180.215 783.761 180.019 783.598 179.86C783.434 179.697 783.238 179.573 783.01 179.489C782.781 179.405 782.529 179.363 782.254 179.363C781.978 179.363 781.729 179.41 781.505 179.503C781.281 179.596 781.089 179.727 780.931 179.895C780.772 180.058 780.648 180.254 780.56 180.483C780.471 180.707 780.427 180.95 780.427 181.211C780.427 181.491 780.464 181.748 780.539 181.981C780.618 182.21 780.732 182.406 780.882 182.569C781.036 182.732 781.225 182.861 781.449 182.954C781.673 183.043 781.932 183.087 782.226 183.087ZM787.127 186.104C787.043 186.034 787.001 185.948 787.001 185.845C787.001 185.808 787.012 185.766 787.036 185.719C787.064 185.672 787.096 185.63 787.134 185.593C787.185 185.537 787.248 185.467 787.323 185.383C787.397 185.304 787.472 185.21 787.547 185.103C787.621 185 787.689 184.886 787.75 184.76C787.815 184.639 787.864 184.508 787.897 184.368C787.747 184.368 787.612 184.342 787.491 184.291C787.369 184.235 787.264 184.16 787.176 184.067C787.092 183.974 787.024 183.864 786.973 183.738C786.926 183.612 786.903 183.474 786.903 183.325C786.903 183.194 786.926 183.073 786.973 182.961C787.024 182.844 787.094 182.744 787.183 182.66C787.271 182.571 787.379 182.504 787.505 182.457C787.631 182.406 787.768 182.38 787.918 182.38C788.095 182.38 788.249 182.413 788.38 182.478C788.515 182.539 788.625 182.625 788.709 182.737C788.797 182.844 788.863 182.97 788.905 183.115C788.951 183.255 788.975 183.404 788.975 183.563C788.975 183.787 788.94 184.023 788.87 184.27C788.804 184.517 788.706 184.765 788.576 185.012C788.445 185.259 788.282 185.5 788.086 185.733C787.894 185.966 787.675 186.181 787.428 186.377L787.127 186.104ZM796.827 183.094V184.389H791.227V183.094H793.278V177.193C793.278 176.96 793.285 176.719 793.299 176.472L791.843 177.69C791.759 177.755 791.675 177.797 791.591 177.816C791.512 177.83 791.435 177.83 791.36 177.816C791.29 177.802 791.227 177.779 791.171 177.746C791.115 177.709 791.073 177.669 791.045 177.627L790.499 176.878L793.586 174.253H795.007V183.094H796.827ZM805.473 179.328C805.473 180.21 805.377 180.978 805.186 181.631C804.999 182.28 804.738 182.816 804.402 183.241C804.071 183.666 803.676 183.983 803.219 184.193C802.766 184.398 802.276 184.501 801.749 184.501C801.222 184.501 800.732 184.398 800.279 184.193C799.831 183.983 799.441 183.666 799.11 183.241C798.779 182.816 798.52 182.28 798.333 181.631C798.146 180.978 798.053 180.21 798.053 179.328C798.053 178.441 798.146 177.674 798.333 177.025C798.52 176.376 798.779 175.84 799.11 175.415C799.441 174.99 799.831 174.675 800.279 174.47C800.732 174.26 801.222 174.155 801.749 174.155C802.276 174.155 802.766 174.26 803.219 174.47C803.676 174.675 804.071 174.99 804.402 175.415C804.738 175.84 804.999 176.376 805.186 177.025C805.377 177.674 805.473 178.441 805.473 179.328ZM803.688 179.328C803.688 178.595 803.634 177.989 803.527 177.508C803.42 177.027 803.275 176.645 803.093 176.36C802.916 176.075 802.71 175.877 802.477 175.765C802.244 175.648 802.001 175.59 801.749 175.59C801.502 175.59 801.261 175.648 801.028 175.765C800.799 175.877 800.596 176.075 800.419 176.36C800.242 176.645 800.099 177.027 799.992 177.508C799.889 177.989 799.838 178.595 799.838 179.328C799.838 180.061 799.889 180.667 799.992 181.148C800.099 181.629 800.242 182.011 800.419 182.296C800.596 182.581 800.799 182.781 801.028 182.898C801.261 183.01 801.502 183.066 801.749 183.066C802.001 183.066 802.244 183.01 802.477 182.898C802.71 182.781 802.916 182.581 803.093 182.296C803.275 182.011 803.42 181.629 803.527 181.148C803.634 180.667 803.688 180.061 803.688 179.328ZM806.678 184.389V177.207H807.735C807.959 177.207 808.106 177.312 808.176 177.522L808.288 178.054C808.414 177.914 808.545 177.786 808.68 177.669C808.82 177.552 808.967 177.452 809.121 177.368C809.28 177.284 809.448 177.219 809.625 177.172C809.807 177.121 810.006 177.095 810.22 177.095C810.673 177.095 811.044 177.219 811.333 177.466C811.627 177.709 811.847 178.033 811.991 178.439C812.103 178.201 812.243 177.998 812.411 177.83C812.579 177.657 812.764 177.517 812.964 177.41C813.165 177.303 813.377 177.223 813.601 177.172C813.83 177.121 814.059 177.095 814.287 177.095C814.684 177.095 815.036 177.156 815.344 177.277C815.652 177.398 815.911 177.576 816.121 177.809C816.331 178.042 816.49 178.327 816.597 178.663C816.709 178.999 816.765 179.384 816.765 179.818V184.389H815.036V179.818C815.036 179.361 814.936 179.018 814.735 178.789C814.535 178.556 814.241 178.439 813.853 178.439C813.676 178.439 813.51 178.469 813.356 178.53C813.207 178.591 813.074 178.679 812.957 178.796C812.845 178.908 812.757 179.05 812.691 179.223C812.626 179.396 812.593 179.594 812.593 179.818V184.389H810.857V179.818C810.857 179.337 810.759 178.987 810.563 178.768C810.372 178.549 810.09 178.439 809.716 178.439C809.464 178.439 809.229 178.502 809.009 178.628C808.795 178.749 808.594 178.917 808.407 179.132V184.389H806.678ZM824.422 182.779C824.608 182.779 824.755 182.833 824.863 182.94C824.975 183.043 825.031 183.18 825.031 183.353V184.389H818.087V183.815C818.087 183.698 818.11 183.577 818.157 183.451C818.208 183.32 818.287 183.204 818.395 183.101L821.468 180.021C821.724 179.76 821.953 179.51 822.154 179.272C822.359 179.034 822.529 178.798 822.665 178.565C822.8 178.332 822.903 178.096 822.973 177.858C823.047 177.615 823.085 177.361 823.085 177.095C823.085 176.852 823.05 176.64 822.98 176.458C822.91 176.271 822.809 176.115 822.679 175.989C822.553 175.863 822.399 175.77 822.217 175.709C822.039 175.644 821.839 175.611 821.615 175.611C821.409 175.611 821.218 175.641 821.041 175.702C820.868 175.758 820.714 175.84 820.579 175.947C820.443 176.05 820.329 176.171 820.236 176.311C820.142 176.451 820.072 176.605 820.026 176.773C819.946 176.988 819.844 177.13 819.718 177.2C819.592 177.27 819.41 177.286 819.172 177.249L818.262 177.088C818.332 176.603 818.467 176.178 818.668 175.814C818.868 175.445 819.118 175.14 819.417 174.897C819.72 174.65 820.065 174.465 820.453 174.344C820.845 174.218 821.265 174.155 821.713 174.155C822.179 174.155 822.606 174.225 822.994 174.365C823.381 174.5 823.712 174.694 823.988 174.946C824.263 175.198 824.478 175.501 824.632 175.856C824.786 176.211 824.863 176.605 824.863 177.039C824.863 177.412 824.807 177.758 824.695 178.075C824.587 178.392 824.44 178.696 824.254 178.985C824.072 179.274 823.857 179.554 823.61 179.825C823.362 180.096 823.103 180.371 822.833 180.651L820.551 182.982C820.77 182.917 820.987 182.868 821.202 182.835C821.421 182.798 821.629 182.779 821.825 182.779H824.422Z" fill="black"/>
</g>
<defs>
<clipPath id="clip0">
<rect width="817.088" height="326.133" fill="white"/>
</clipPath>
</defs>
</svg>
