<svg xmlns="http://www.w3.org/2000/svg" width="444.266" height="274.973" viewBox="0 0 444.266 274.973">
  <g id="Group_1092" data-name="Group 1092" transform="translate(-273.275 -132.549)">
    <path id="Path_85" data-name="Path 85" d="M458.019,268.868a34.064,34.064,0,1,1-34.064,34.064,34.064,34.064,0,0,1,34.064-34.064" transform="translate(77.955 70.525)" fill="#ead8a9" fill-rule="evenodd"/>
    <path id="Path_86" data-name="Path 86" d="M439.7,132.549a14,14,0,1,1-14,14,14,14,0,0,1,14-14" transform="translate(78.855 0)" fill="#ead8a9" fill-rule="evenodd"/>
    <path id="Path_87" data-name="Path 87" d="M661.893,256.449h-4.349v-22.42l-23.675-40.3h5.315l18.264,31.118a45.332,45.332,0,0,0,2.416,4.541q.58-1.256,2.416-4.444l18.264-31.215h5.026l-23.677,40.492Zm-56.339-58.755h-21.26v-3.963h46.87v3.963H609.9v58.755h-4.349Zm-38.847,58.755V193.731h4.446v62.718Zm-76.825,0v-63.1h2.126L533.173,240.7q2.224,2.513,4.107,4.977t1.982,2.561q-.194-2.322-.193-9.084v-45.42h4.444v63.1h-2.126L499.449,208.71l-5.315-6.475q.194,1.932.193,9.084v45.129ZM466.11,183.586,452,188.707l-3.285-.967,16.814-9.277Zm-24.256,72.863V193.731h29.28V197.6H446.3V220.4h22.419v3.769H446.3V252.39h25.8v4.059Zm-41.36-28.9q3.769,0,8.118-5.024a17.32,17.32,0,0,0,4.349-11.693q0-6.669-4.543-10.148t-11.788-3.479q-3.866,0-9.084.387v29.475Q394.5,227.554,400.493,227.554Zm-17.393,28.9V194.022q8.31-.678,14.108-.677,8.89,0,14.688,4.59t5.8,13.095a18.345,18.345,0,0,1-3.285,10.533,30.991,30.991,0,0,1-7.441,7.826c7.667,10.18,17.52,22.677,19.364,24.631,3.625,3.839,2.479,8.385,6.8,8.9l-.1.784c-3.609-.064-2.367-2.058-4.622-3.056a21.09,21.09,0,0,1-6.716-5.074c-2.223-2.384-11.246-13.913-18.785-24.349q-7.827,0-15.365-.482v25.705Zm-23.774-72.863-14.108,5.121-3.286-.967,16.815-9.277Zm-24.255,72.863V193.731h29.28V197.6H339.515V220.4h22.42v3.769h-22.42V252.39h25.8v4.059Z" transform="translate(31.97 23.754)" fill="#1e5d58"/>
    <path id="Path_88" data-name="Path 88" d="M395.594,227.345a116.8,116.8,0,0,0,16.4,15.8,75.061,75.061,0,0,0,39.785,14.859l-.135,2.309c-19.334-1.607-31.141-6.887-43.967-15.913a85.365,85.365,0,0,1-15.516-14.12Z" transform="translate(61.505 49.043)" fill="#1e5d58"/>
    <path id="Path_89" data-name="Path 89" d="M408.019,249.906a18.567,18.567,0,1,1-18.568,18.568,18.569,18.569,0,0,1,18.568-18.568" transform="translate(60.104 60.715)" fill="#abc9c1" fill-rule="evenodd"/>
    <path id="Path_90" data-name="Path 90" d="M462.977,150.068a19.663,19.663,0,1,1-19.663,19.662,19.662,19.662,0,0,1,19.663-19.662" transform="translate(87.97 9.063)" fill="#abc9c1" fill-rule="evenodd"/>
    <path id="Path_91" data-name="Path 91" d="M344.176,199.114a12.5,12.5,0,0,0-4.664-5.189,19.582,19.582,0,0,0-7.905-2.956c-6.006-.851-12.512,0-17.183,3.79a10.425,10.425,0,0,0-4.2,10.242c.886,5.271,7.676,7.88,15.706,10.6,6.6,2.238,13.394,4.544,17.76,8.7a18.342,18.342,0,0,1,5.015,7.787,14.833,14.833,0,0,1,.214,8.194,17.237,17.237,0,0,1-4.321,7.564,29.081,29.081,0,0,1-12.6,7.33c-8.667,2.7-20.422,2.818-31.192,1.045-10.939-1.8-21.536-6.294-27.531-10.641l1.135-1.508c10.8,7.795,37.374,12.6,55.846,7.511a25.412,25.412,0,0,0,11.254-6.67,13.023,13.023,0,0,0,3.289-5.681,10.651,10.651,0,0,0-.165-5.877,14.138,14.138,0,0,0-3.881-5.971c-3.684-3.5-10.033-5.657-16.195-7.747-9.254-3.139-17.131-6.162-18.539-13.9a14.274,14.274,0,0,1,5.713-14.078c5.506-4.466,13.33-5.915,20.457-4.9a23.947,23.947,0,0,1,9.672,3.622,16.709,16.709,0,0,1,6.2,7.005Z" transform="translate(0 27.884)" fill="#1e5d58"/>
    <path id="Path_92" data-name="Path 92" d="M505.942,208.546a78.981,78.981,0,0,0-10.11-32.219,81.105,81.105,0,0,0-33.137-31.408c-13.227-6.834-27.78-9.875-41.125-8.625a52.616,52.616,0,0,0-21.4,6.553c-8.767,5.039-14.111,11.127-16.855,17.266a24.434,24.434,0,0,0-.161,20.384,18.517,18.517,0,0,0,7.493,8.229,15.387,15.387,0,0,0,6.373,2.041,12.486,12.486,0,0,0,6.342-1.1,14.429,14.429,0,0,0,6.335-6.127l2.039,1.167a16.74,16.74,0,0,1-7.382,7.082,14.793,14.793,0,0,1-7.518,1.319,17.766,17.766,0,0,1-7.356-2.344,20.879,20.879,0,0,1-8.449-9.275,26.773,26.773,0,0,1,.144-22.332c2.928-6.557,8.587-13.028,17.827-18.34a54.949,54.949,0,0,1,22.357-6.855c13.785-1.291,28.795,1.835,42.411,8.872a83.44,83.44,0,0,1,34.092,32.327,81.318,81.318,0,0,1,10.414,33.172Z" transform="translate(54.524 0.584)" fill="#1e5d58"/>
    <path id="Path_93" data-name="Path 93" d="M401.12,317.411c-10.949-.575-20-4.2-26.651-9.514A34.224,34.224,0,0,1,363.3,292.424a28.334,28.334,0,0,1-.279-18,32.305,32.305,0,0,1,12.157-16.136,28.787,28.787,0,0,1,18.405-5.6,38.221,38.221,0,0,1,19.926,7.015c6.889,4.731,14.286,10.972,22.241,17.686,12.476,10.529,26.343,22.232,41.669,30.971A103.393,103.393,0,0,0,518.363,321.4c12.234,1.179,23.894-.043,33.588-3.487,9.588-3.409,17.231-8.992,21.554-16.571a30.649,30.649,0,0,0,3.789-17.71c-1.041-10.851-8.436-18.727-18.694-24.2-10.44-5.573-23.821-8.67-36.568-9.9a125.776,125.776,0,0,0-23.488-.15l-.22-2.334a128.142,128.142,0,0,1,23.929.152c13.019,1.253,26.714,4.432,37.45,10.165,10.917,5.83,18.8,14.292,19.924,26.052a32.97,32.97,0,0,1-4.082,19.087c-4.617,8.1-12.7,14.036-22.813,17.629-10,3.555-22.011,4.818-34.59,3.605a105.765,105.765,0,0,1-41.88-13.328c-15.524-8.852-29.476-20.627-42.028-31.22-7.905-6.67-15.254-12.872-22.049-17.539a35.878,35.878,0,0,0-18.686-6.61,26.48,26.48,0,0,0-16.934,5.145,30.017,30.017,0,0,0-11.313,14.961,26.016,26.016,0,0,0,.268,16.518,31.9,31.9,0,0,0,10.409,14.41c6.29,5.026,14.879,8.45,25.309,9Z" transform="translate(45.74 58.982)" fill="#1e5d58"/>
  </g>
</svg>
