<svg width="332" height="65" viewBox="0 0 332 65" fill="none" xmlns="http://www.w3.org/2000/svg">
<g clip-path="url(#clip0)">
<path d="M10.6264 0V19.5286H10.8501C12.1928 17.3491 13.9127 15.7719 16.0099 14.7784C18.107 13.7849 20.1402 13.2881 22.1414 13.2881C24.9866 13.2881 27.3139 13.6731 29.1426 14.412C30.9584 15.1634 32.3906 16.2065 33.4391 17.5416C34.4813 18.8704 35.2166 20.491 35.6386 22.4035C36.0669 24.316 36.2779 26.4272 36.2779 28.7557V51.8547H25.658V30.6496C25.658 27.5511 25.1657 25.2412 24.1682 23.7199C23.1644 22.1862 21.3998 21.4224 18.8551 21.4224C15.9523 21.4224 13.868 22.2607 12.5764 23.9248C11.2785 25.5952 10.6264 28.3459 10.6264 32.1771V51.8609H0V0H10.6264Z" fill="black"/>
<path d="M43.9056 25.8563C44.059 23.4222 44.6664 21.4227 45.7726 19.8207C46.8723 18.2249 48.2661 16.9334 49.9604 15.9647C51.6612 15.0084 53.5729 14.3192 55.6828 13.897C57.8119 13.4871 59.941 13.2822 62.0765 13.2822C64.0394 13.2822 65.9959 13.4126 67.9907 13.6796C69.9919 13.9466 71.8078 14.4682 73.4509 15.2444C75.1005 16.0206 76.4368 17.0948 77.4854 18.4733C78.534 19.858 79.0518 21.6835 79.0518 23.9624V43.5034C79.0518 45.1861 79.1605 46.813 79.3587 48.3653C79.5505 49.9177 79.9022 51.0726 80.4073 51.8488H69.6403C69.4357 51.2589 69.2822 50.669 69.148 50.0729C69.0265 49.4644 68.9434 48.8497 68.8858 48.2163C67.1979 49.9239 65.1967 51.1037 62.9013 51.7805C60.606 52.4635 58.2659 52.7988 55.8682 52.7988C54.0204 52.7988 52.3069 52.5815 50.7085 52.1531C49.1229 51.706 47.7162 51.0354 46.5206 50.1102C45.3378 49.1974 44.3915 48.03 43.7202 46.6267C43.0424 45.2234 42.71 43.553 42.71 41.6095C42.71 39.4797 43.1 37.7286 43.88 36.3501C44.6409 34.9654 45.6383 33.8664 46.8595 33.0405C48.0743 32.2209 49.4873 31.6062 51.0474 31.1901C52.6202 30.7865 54.2059 30.4512 55.7915 30.209C57.3899 29.9669 58.9628 29.7806 60.5101 29.6316C62.0446 29.4825 63.4192 29.2652 64.6212 28.9734C65.8232 28.6815 66.7695 28.2655 67.46 27.7067C68.1506 27.1478 68.4766 26.3344 68.4319 25.2726C68.4319 24.1549 68.2465 23.2794 67.8628 22.6212C67.4856 21.963 66.9869 21.4538 66.3731 21.0937C65.7529 20.7273 65.0304 20.4851 64.2056 20.3672C63.3872 20.2554 62.5113 20.1933 61.565 20.1933C59.4679 20.1933 57.8183 20.6217 56.6227 21.4911C55.4207 22.3666 54.7365 23.8196 54.5255 25.8563H43.9056ZM68.4383 33.4814C67.9907 33.8726 67.4281 34.1706 66.7567 34.388C66.079 34.6053 65.3565 34.7854 64.5829 34.9344C63.8092 35.071 62.9972 35.2014 62.1532 35.3008C61.3029 35.3939 60.4653 35.5119 59.6086 35.6609C58.8157 35.8099 58.0229 35.9962 57.2557 36.2384C56.482 36.4805 55.8171 36.8158 55.248 37.2195C54.6598 37.6293 54.2059 38.1633 53.8606 38.778C53.4962 39.4114 53.3299 40.2062 53.3299 41.1748C53.3299 42.1063 53.4962 42.8824 53.8606 43.5096C54.2123 44.1367 54.6854 44.6273 55.2864 44.9936C55.8746 45.3538 56.5715 45.6084 57.3771 45.7574C58.1636 45.9002 58.9948 45.9747 59.8387 45.9747C61.9295 45.9747 63.5663 45.627 64.7043 44.9564C65.8488 44.2795 66.7056 43.4723 67.249 42.5223C67.7989 41.5785 68.1314 40.616 68.2529 39.6473C68.3743 38.6787 68.4383 37.9087 68.4383 37.3312V33.4814Z" fill="black"/>
<path d="M87.5874 8.49446V0H98.201V8.49446H87.5874ZM98.201 14.3065V51.8609H87.5874V14.3065H98.201Z" fill="black"/>
<path d="M116.673 14.3068V21.2799H116.826C117.325 20.1126 118.002 19.0445 118.846 18.0448C119.697 17.0513 120.656 16.2069 121.768 15.5052C122.868 14.8035 124.032 14.2571 125.278 13.8659C126.525 13.4747 127.83 13.2822 129.159 13.2822C129.856 13.2822 130.649 13.4064 131.48 13.6486V23.2421C130.994 23.1365 130.381 23.062 129.697 22.9751C129 22.913 128.309 22.8757 127.676 22.8757C125.726 22.8757 124.083 23.1924 122.747 23.8134C121.391 24.4405 120.311 25.3036 119.486 26.3903C118.667 27.4831 118.073 28.756 117.727 30.2028C117.376 31.6558 117.216 33.2268 117.216 34.9282V51.8488H106.583V14.3068H116.673Z" fill="black"/>
<path d="M169.325 0V19.8949H190.948V0H202.681V51.8547H190.948V29.4822H169.325V51.8547H157.592V0H169.325Z" fill="black"/>
<path d="M223.256 42.851C224.848 44.3537 227.149 45.0988 230.135 45.0988C232.277 45.0988 234.119 44.571 235.666 43.5403C237.213 42.4971 238.166 41.3918 238.498 40.2369H247.852C246.363 44.7387 244.061 47.9552 240.973 49.8987C237.878 51.8298 234.144 52.7985 229.758 52.7985C226.715 52.7985 223.978 52.3328 221.536 51.389C219.093 50.4513 217.022 49.1039 215.321 47.3591C213.62 45.6142 212.316 43.5403 211.389 41.1062C210.475 38.6845 210.021 36.0269 210.021 33.1209C210.021 30.3143 210.487 27.7001 211.434 25.2784C212.38 22.8568 213.723 20.758 215.475 18.9883C217.22 17.2248 219.311 15.8339 221.715 14.8156C224.144 13.7973 226.817 13.2881 229.765 13.2881C233.064 13.2881 235.922 13.9028 238.358 15.1447C240.819 16.3804 242.814 18.0383 244.393 20.1184C245.953 22.2048 247.085 24.5768 247.788 27.2406C248.485 29.9044 248.728 32.6925 248.53 35.5922H220.634C220.781 38.9205 221.664 41.3546 223.256 42.851ZM235.257 23.0989C233.991 21.7391 232.053 21.0623 229.464 21.0623C227.763 21.0623 226.363 21.3417 225.231 21.9005C224.112 22.4594 223.224 23.1424 222.546 23.9683C221.875 24.7941 221.395 25.6634 221.127 26.5824C220.845 27.5014 220.685 28.3273 220.634 29.0475H237.916C237.418 26.4334 236.529 24.4464 235.257 23.0989Z" fill="black"/>
<path d="M265.742 0V51.8547H255.109V0H265.742Z" fill="black"/>
<path d="M284.207 14.3064V19.1063H284.354C285.652 17.0696 287.302 15.5918 289.284 14.6728C291.285 13.7476 293.472 13.2881 295.882 13.2881C298.919 13.2881 301.534 13.8469 303.727 14.9584C305.926 16.0761 307.749 17.5477 309.187 19.3919C310.632 21.2361 311.706 23.3784 312.41 25.8249C313.094 28.2714 313.452 30.8234 313.452 33.4811C313.452 35.9959 313.094 38.4237 312.41 40.746C311.706 43.0746 310.639 45.1237 309.232 46.9244C307.806 48.7065 306.035 50.1409 303.912 51.1965C301.79 52.2645 299.315 52.7985 296.483 52.7985C294.073 52.7985 291.86 52.3328 289.853 51.389C287.845 50.4513 286.176 49.0542 284.885 47.21H284.738V65H274.111V14.3064H284.207ZM298.005 44.0867C299.175 43.4161 300.115 42.5281 300.837 41.4353C301.56 40.3424 302.071 39.0695 302.378 37.6165C302.672 36.1759 302.813 34.6919 302.813 33.1892C302.813 31.6927 302.666 30.2149 302.34 28.7619C302.02 27.3089 301.483 26.0111 300.722 24.8748C299.987 23.7385 299.021 22.8195 297.864 22.1179C296.675 21.4162 295.255 21.0623 293.555 21.0623C291.809 21.0623 290.339 21.4162 289.175 22.1179C288.011 22.8195 287.059 23.7199 286.336 24.8376C285.607 25.949 285.102 27.2344 284.808 28.6812C284.507 30.1342 284.36 31.6431 284.36 33.1892C284.36 34.6919 284.52 36.1759 284.846 37.6165C285.166 39.0695 285.697 40.3424 286.419 41.4353C287.129 42.5281 288.101 43.4099 289.29 44.0867C290.492 44.7635 291.924 45.105 293.625 45.105C295.37 45.105 296.835 44.7635 298.005 44.0867Z" fill="black"/>
<path d="M332 40.6719V51.8612H320.261V40.6719H332Z" fill="black"/>
</g>
<defs>
<clipPath id="clip0">
<rect width="332" height="65" fill="white"/>
</clipPath>
</defs>
</svg>
