<svg width="53" height="53" viewBox="0 0 53 53" fill="none" xmlns="http://www.w3.org/2000/svg">
<path d="M23.1737 35.8057C22.9436 35.8057 22.7136 35.7182 22.5387 35.5421C22.1876 35.1922 22.1876 34.6219 22.5387 34.2709L30.6811 26.1189L22.5387 17.9681C22.1888 17.617 22.1888 17.0467 22.5387 16.6969C22.8897 16.3458 23.4588 16.3458 23.8099 16.6969L32.5861 25.4827C32.9372 25.8337 32.9372 26.4028 32.5861 26.7539L23.8099 35.5397C23.6338 35.7182 23.4037 35.8057 23.1737 35.8057Z" fill="black"/>
<path d="M26.5 53C11.8877 53 0 41.1123 0 26.5C0 11.8877 11.8877 0 26.5 0C41.1123 0 53 11.8877 53 26.5C53 41.1123 41.1123 53 26.5 53ZM26.5 1.79718C12.8798 1.79718 1.79718 12.8786 1.79718 26.5C1.79718 40.1202 12.8798 51.2028 26.5 51.2028C40.1226 51.2028 51.2028 40.1202 51.2028 26.5C51.2028 12.8786 40.1226 1.79718 26.5 1.79718Z" fill="black"/>
</svg>
