<svg width="53" height="53" viewBox="0 0 53 53" fill="none" xmlns="http://www.w3.org/2000/svg">
<path d="M26.5 6.09703e-07C41.1123 6.09703e-07 53 11.8877 53 26.5C53 41.1123 41.1123 53 26.5 53C11.8877 53 6.09703e-07 41.1123 6.09703e-07 26.5C6.09703e-07 11.8877 11.8877 6.09703e-07 26.5 6.09703e-07ZM26.5 51.2028C40.1202 51.2028 51.2028 40.1214 51.2028 26.5C51.2028 12.8798 40.1202 1.79718 26.5 1.79718C12.8774 1.79718 1.79718 12.8798 1.79718 26.5C1.79718 40.1214 12.8774 51.2028 26.5 51.2028Z" fill="black"/>
<path d="M29.8263 17.1943C30.0564 17.1943 30.2864 17.2818 30.4613 17.4579C30.8124 17.8078 30.8124 18.3781 30.4613 18.7291L22.3189 26.8811L30.4613 35.0319C30.8112 35.383 30.8112 35.9533 30.4613 36.3031C30.1103 36.6542 29.5412 36.6542 29.1901 36.3031L20.4139 27.5173C20.0628 27.1663 20.0628 26.5972 20.4139 26.2461L29.1901 17.4603C29.3662 17.2818 29.5963 17.1943 29.8263 17.1943Z" fill="black"/>
</svg>
