<svg width="68" height="58" viewBox="0 0 68 58" fill="none" xmlns="http://www.w3.org/2000/svg">
<path d="M46.2356 25.9745C47.9104 25.4879 49.5853 25.241 51.2145 25.241C53.7304 25.241 55.8296 25.8212 57.4574 26.5317C55.8881 20.7337 52.1183 10.7293 44.6085 9.60268C43.913 9.49829 43.3431 8.99077 43.1534 8.30759L41.512 2.38285C41.3736 1.88181 41.4557 1.34548 41.7389 0.910667C42.022 0.475851 42.4771 0.185733 42.9872 0.115183C43.5414 0.0388742 44.1063 0 44.6663 0C53.6804 0 62.6076 9.49541 66.3746 23.0913C68.5858 31.0678 69.2342 43.0598 63.7874 50.6079C60.7394 54.8315 56.2926 57.0869 50.5704 57.3123C50.5469 57.313 50.524 57.3137 50.5005 57.3137C43.4401 57.3137 37.1794 52.5149 35.2748 45.6449C34.1371 41.5379 34.6514 37.2308 36.7243 33.514C38.775 29.8389 42.1526 27.1602 46.2356 25.9745Z" fill="#F7F2EF"/>
<path d="M2.04134 33.5146C4.09211 29.8388 7.46964 27.1601 11.5526 25.9744C13.2275 25.4878 14.9024 25.2409 16.5309 25.2409C19.0467 25.2409 21.1467 25.8211 22.7745 26.5316C21.2052 20.7336 17.4353 10.7293 9.92487 9.60265C9.22939 9.49826 8.66017 8.99074 8.46971 8.30756L6.82838 2.38284C6.68999 1.8818 6.77203 1.34548 7.05521 0.910664C7.33768 0.475849 7.79278 0.185732 8.30351 0.115183C8.85704 0.0388741 9.42199 0 9.98265 0C18.9968 0 27.9239 9.49538 31.6916 23.0913C33.9022 31.0677 34.5506 43.0597 29.103 50.6092C26.0557 54.8321 21.6082 57.0882 15.8867 57.3128C15.8632 57.3135 15.8404 57.3143 15.8161 57.3143C8.75646 57.3143 2.495 52.5154 0.590462 45.6455C-0.545849 41.5385 -0.030838 37.2307 2.04134 33.5146Z" fill="#F7F2EF"/>
</svg>
