<svg width="94" height="79" viewBox="0 0 94 79" fill="none" xmlns="http://www.w3.org/2000/svg">
<path d="M29.8538 35.7593C27.5564 35.1026 25.259 34.7695 23.0243 34.7695C19.5734 34.7695 16.6938 35.5524 14.461 36.5112C16.6136 28.6877 21.7846 15.1884 32.0856 13.6682C33.0396 13.5273 33.8213 12.8425 34.0816 11.9207L36.333 3.92621C36.5228 3.25013 36.4103 2.52645 36.0219 1.93973C35.6334 1.35302 35.0092 0.961553 34.3096 0.866358C33.5493 0.763392 32.7744 0.710938 32.0063 0.710938C19.6418 0.710938 7.39671 13.5234 2.22958 31.8689C-0.803571 42.6318 -1.69297 58.8131 5.77837 68.998C9.95923 74.6971 16.0588 77.7404 23.9078 78.0444C23.9401 78.0454 23.9714 78.0464 24.0037 78.0464C33.6883 78.0464 42.276 71.5712 44.8884 62.3013C46.449 56.7596 45.7436 50.9478 42.9003 45.9326C40.0873 40.9737 35.4544 37.3592 29.8538 35.7593Z" fill="#F7F2EF"/>
<path d="M90.4736 45.9334C87.6606 40.9735 83.0277 37.3591 77.4271 35.7592C75.1297 35.1025 72.8324 34.7694 70.5986 34.7694C67.1476 34.7694 64.2671 35.5523 62.0343 36.511C64.1869 28.6876 69.3579 15.1883 79.6599 13.6681C80.6139 13.5273 81.3947 12.8425 81.6559 11.9206L83.9073 3.9262C84.0971 3.25012 83.9846 2.52644 83.5961 1.93973C83.2087 1.35302 82.5844 0.961553 81.8839 0.866358C81.1246 0.763392 80.3497 0.710938 79.5806 0.710938C67.2161 0.710938 54.971 13.5234 49.8029 31.8688C46.7707 42.6317 45.8813 58.8129 53.3537 68.9997C57.5335 74.6978 63.6341 77.7421 71.4821 78.0452C71.5144 78.0462 71.5457 78.0471 71.579 78.0471C81.2626 78.0471 89.8513 71.5719 92.4637 62.3021C94.0223 56.7604 93.3159 50.9476 90.4736 45.9334Z" fill="#F7F2EF"/>
</svg>
