<svg width="52" height="60" viewBox="0 0 52 60" fill="none" xmlns="http://www.w3.org/2000/svg">
<path d="M25.9996 18.5693C19.6957 18.5693 14.5674 23.6977 14.5674 30.0011C14.5674 36.3049 19.6957 41.4333 25.9996 41.4333C32.303 41.4333 37.4313 36.3049 37.4313 30.0011C37.4313 23.6977 32.303 18.5693 25.9996 18.5693ZM32.7868 27.8482L24.597 36.0381C24.2532 36.3818 23.8023 36.554 23.3519 36.554C22.9014 36.554 22.451 36.3823 22.1072 36.0381L18.9775 32.9083C18.2899 32.2212 18.2899 31.1066 18.9775 30.419C19.6646 29.7314 20.7792 29.7314 21.4668 30.419L23.3519 32.3041L30.2975 25.3589C30.9846 24.6713 32.0993 24.6713 32.7868 25.3589C33.4744 26.046 33.4744 27.1606 32.7868 27.8482Z" fill="#FFC500"/>
<path d="M51.4868 16.2795L51.4849 16.2328C51.4588 15.6565 51.4414 15.0468 51.4309 14.3684C51.3819 11.0601 48.7521 8.32361 45.4434 8.13867C38.5449 7.75369 33.2083 5.50425 28.6485 1.05983L28.6096 1.02276C27.1223 -0.340919 24.8789 -0.340919 23.3911 1.02276L23.3522 1.05983C18.7924 5.50425 13.4558 7.75369 6.55737 8.13913C3.24912 8.32361 0.618814 11.0601 0.569833 14.3688C0.559762 15.0426 0.54191 15.6524 0.515817 16.2328L0.513071 16.3413C0.378946 23.3757 0.212321 32.1305 3.14108 40.0768C4.75149 44.4466 7.19045 48.2451 10.3898 51.3675C14.0335 54.9234 18.8062 57.7464 24.5749 59.7578C24.7626 59.8232 24.9576 59.8763 25.1563 59.9162C25.4364 59.972 25.7184 59.9999 26.0004 59.9999C26.2823 59.9999 26.5648 59.972 26.8445 59.9162C27.0432 59.8763 27.2395 59.8228 27.4281 59.7569C33.19 57.7418 37.9576 54.9174 41.5982 51.362C44.7961 48.2387 47.2351 44.4392 48.8468 40.0685C51.7866 32.0984 51.6204 23.3272 51.4868 16.2795ZM25.9995 44.9538C17.7542 44.9538 11.0466 38.2462 11.0466 30.0009C11.0466 21.7557 17.7542 15.0481 25.9995 15.0481C34.2442 15.0481 40.9523 21.7557 40.9523 30.0009C40.9523 38.2462 34.2442 44.9538 25.9995 44.9538Z" fill="#FFC500"/>
</svg>
