<svg width="78" height="78" viewBox="0 0 78 78" fill="none" xmlns="http://www.w3.org/2000/svg">
<path d="M44.4092 8.01625L46.5517 6.72875L47.8392 8.87125L45.6967 10.1588L44.4092 8.01625Z" fill="#FFC500"/>
<path d="M48.6953 5.44356L50.8378 4.15606L52.1253 6.29856L49.9828 7.58606L48.6953 5.44356Z" fill="#FFC500"/>
<path d="M40.125 10.5902L42.2675 9.30271L43.555 11.4452L41.4125 12.7327L40.125 10.5902Z" fill="#FFC500"/>
<path d="M12.7499 24.5175L14.3386 26.1062C17.0111 28.7787 20.5624 30.25 24.3411 30.25C26.7874 30.25 29.2049 29.6112 31.3311 28.4012L32.7499 27.5937V36.9837L38.7174 34.995L43.4811 21.895L60.2499 10.9262V8.38125C60.2499 3.8975 56.6024 0.25 52.1186 0.25C50.6736 0.25 49.2524 0.63625 48.0061 1.36625L37.9549 7.25875L22.5949 1.35125L16.8149 5.20375L27.7949 13.2137L20.4274 17.5325L11.7774 10.09L5.84863 12.0662L12.7499 23.1087V24.5175ZM36.7824 33.005L35.2499 33.5162V23.475L41.4999 19.9037L36.7824 33.005ZM21.1849 5.29625L22.9049 4.14875L35.1961 8.875L30.1486 11.8337L21.1849 5.29625ZM49.2699 3.52375C50.1324 3.0175 51.1174 2.75 52.1186 2.75C55.2236 2.75 57.7499 5.27625 57.7499 8.38125V9.57375L43.9999 18.5687V15.5962L32.7499 22.025V24.7175L30.0949 26.2287C28.3449 27.2237 26.3549 27.75 24.3411 27.75C21.2311 27.75 18.3061 26.5387 16.1074 24.3387L15.2499 23.4825L49.2699 3.52375ZM9.65113 13.4337L11.2224 12.91L18.1486 18.87L14.4161 21.0575L9.65113 13.4337Z" fill="#FFC500"/>
<path d="M66.5 57.75V50.25H68.6513L72.75 37.9525V35.25H47.75V37.9525L51.8487 50.25H54V57.75H43.68L45.0437 50.25H45.25C46.6287 50.25 47.75 49.1287 47.75 47.75V45.25C47.75 43.8713 46.6287 42.75 45.25 42.75H2.75C1.37125 42.75 0.25 43.8713 0.25 45.25V47.75C0.25 49.1287 1.37125 50.25 2.75 50.25H2.95625L7.95625 77.75H77.75V57.75H66.5ZM53.6513 47.75L50.3175 37.75H70.1825L66.8487 47.75H64V40.25H56.5V47.75H53.6513ZM64 50.25V57.75H56.5V50.25H64ZM59 47.75V42.75H61.5V47.75H59ZM2.75 47.75V45.25H45.25L45.2513 47.75H2.75ZM11.5 75.25H10.0425L7.9975 64H11.5V75.25ZM11.5 61.5H7.54375L5.49875 50.25H11.5V61.5ZM19 75.25H14V64H19V75.25ZM19 61.5H14V50.25H19V61.5ZM26.5 75.25H21.5V64H26.5V75.25ZM26.5 61.5H21.5V50.25H26.5V61.5ZM34 75.25H29V64H34V75.25ZM34 61.5H29V50.25H34V61.5ZM37.9563 75.25H36.5V64H40.0025L37.9563 75.25ZM36.5 61.5V50.25H42.5025L40.4575 61.5H36.5ZM50.25 75.25H47.75V67.75H50.25V75.25ZM60.25 75.25H57.75V67.75H60.25V75.25ZM70.25 75.25H67.75V67.75H70.25V75.25ZM75.25 75.25H72.75V65.25H65.25V75.25H62.75V65.25H55.25V75.25H52.75V65.25H45.25V75.25H40.4975L43.225 60.25H75.25V75.25Z" fill="#FFC500"/>
</svg>
