<svg width="132" height="20" viewBox="0 0 132 20" fill="none" xmlns="http://www.w3.org/2000/svg">
<path d="M6.91803 19.9874C5.94663 19.9874 5.03436 19.8656 4.18122 19.6219C3.33653 19.3867 2.59743 19.017 1.96391 18.5129C1.34728 18.0172 0.865809 17.3955 0.519486 16.6478C0.173162 15.9 0 15.0347 0 14.0517C0 12.783 0.240737 11.6068 0.722212 10.523C1.21213 9.43079 1.89633 8.47721 2.77481 7.66226C3.6364 6.8641 4.68804 6.23398 5.92974 5.7719C7.17143 5.30141 8.51449 5.06616 9.95892 5.06616C10.8289 5.06616 11.6905 5.16278 12.5437 5.35602C13.4053 5.54925 14.2035 5.83071 14.9384 6.20038L13.9754 10.0693H13.3292C12.8309 9.4728 12.2649 9.03172 11.6314 8.74606C11.0063 8.45201 10.301 8.30498 9.51545 8.30498C8.07948 8.30498 6.92647 8.81327 6.05644 9.82987C5.18641 10.8381 4.75139 12.0983 4.75139 13.6106C4.75139 14.6608 5.01747 15.4463 5.54963 15.9672C6.09023 16.4881 6.92647 16.7486 8.05836 16.7486C8.93684 16.7486 9.73507 16.5721 10.4531 16.2193C11.1795 15.858 11.8003 15.4589 12.3156 15.0221H12.9618L11.9988 18.891C11.0866 19.2859 10.2841 19.5673 9.59148 19.7353C8.90728 19.9034 8.01613 19.9874 6.91803 19.9874Z" fill="#2E2E2E"/>
<path d="M25.024 12.9301C24.2131 12.9973 23.4529 13.0771 22.7433 13.1695C22.0338 13.2619 21.4298 13.3963 20.9315 13.5728C20.4162 13.7576 20.0234 14.0181 19.7531 14.3541C19.4828 14.6902 19.3477 15.1355 19.3477 15.69C19.3477 16.1773 19.5251 16.5217 19.8798 16.7234C20.243 16.9166 20.7668 17.0132 21.451 17.0132C21.8986 17.0132 22.3759 16.9124 22.8827 16.7108C23.398 16.5007 23.8794 16.2361 24.3271 15.9168L25.024 12.9301ZM23.8203 18.1096C23.5331 18.2945 23.1868 18.5171 22.7813 18.7776C22.3759 19.038 22 19.2439 21.6537 19.3951C21.1806 19.5883 20.7372 19.7353 20.3233 19.8362C19.9094 19.937 19.335 19.9874 18.6001 19.9874C17.4175 19.9874 16.4504 19.6597 15.6986 19.0044C14.9553 18.3407 14.5836 17.4795 14.5836 16.4209C14.5836 15.3035 14.8497 14.3583 15.3818 13.5854C15.914 12.804 16.7038 12.1823 17.7512 11.7202C18.731 11.2833 19.8967 10.9683 21.2482 10.775C22.6082 10.5818 24.0779 10.439 25.6575 10.3466C25.666 10.2962 25.6829 10.2163 25.7082 10.1071C25.7335 9.9895 25.7462 9.85927 25.7462 9.71645C25.7462 9.11993 25.4675 8.70405 24.91 8.46881C24.3525 8.22516 23.5204 8.10334 22.4139 8.10334C21.6621 8.10334 20.8301 8.22936 19.9178 8.48141C19.014 8.73346 18.334 8.9435 17.8779 9.11153H17.4598L18.1313 5.75929C18.6635 5.62487 19.487 5.47364 20.602 5.30561C21.717 5.13758 22.8278 5.05356 23.9343 5.05356C26.1643 5.05356 27.7988 5.34342 28.8378 5.92313C29.8852 6.50284 30.4089 7.40181 30.4089 8.62004C30.4089 8.78807 30.392 9.00651 30.3582 9.27536C30.3329 9.54421 30.2949 9.77946 30.2442 9.9811L28.0142 19.6093H23.4782L23.8203 18.1096Z" fill="#2E2E2E"/>
<path d="M37.669 20C36.4527 20 35.2743 19.8866 34.134 19.6597C32.9937 19.4329 32.1194 19.1682 31.5112 18.8658L32.3855 15.1355H32.8036C32.9894 15.2951 33.2217 15.4715 33.5005 15.6648C33.7877 15.858 34.1931 16.0597 34.7168 16.2697C35.1645 16.4629 35.684 16.631 36.2753 16.7738C36.8666 16.9082 37.5043 16.9754 38.1885 16.9754C39.2106 16.9754 39.975 16.8578 40.4819 16.6226C40.9971 16.3873 41.2548 16.0513 41.2548 15.6144C41.2548 15.2783 41.0731 15.0221 40.7099 14.8456C40.3467 14.6692 39.5949 14.4507 38.4546 14.1903C36.5203 13.745 35.1941 13.2073 34.4761 12.5772C33.7666 11.9471 33.4118 11.1615 33.4118 10.2205C33.4118 8.62424 34.1298 7.3682 35.5658 6.45243C37.0017 5.52825 38.9445 5.06616 41.3941 5.06616C42.4584 5.06616 43.5228 5.17538 44.5871 5.39383C45.6514 5.60386 46.4327 5.83071 46.9311 6.07435L46.0948 9.65343H45.7021C45.1023 9.19135 44.3759 8.81748 43.5228 8.53182C42.6781 8.23777 41.808 8.09074 40.9127 8.09074C39.9413 8.09074 39.1937 8.20836 38.67 8.4436C38.1547 8.67045 37.8971 9.02331 37.8971 9.50221C37.8971 9.87188 38.1209 10.1575 38.5686 10.3592C39.0163 10.5524 39.7216 10.754 40.6846 10.9641C42.4753 11.3506 43.7635 11.8378 44.549 12.426C45.3431 13.0141 45.7401 13.8374 45.7401 14.896C45.7401 16.4755 45.0136 17.7232 43.5608 18.6389C42.1079 19.5463 40.144 20 37.669 20Z" fill="#2E2E2E"/>
<path d="M59.1073 10.712C59.1327 10.5608 59.1495 10.4222 59.158 10.2962C59.1749 10.1701 59.1833 10.0399 59.1833 9.90548C59.1833 9.24176 58.9764 8.73346 58.5625 8.38059C58.1486 8.02773 57.5531 7.85129 56.776 7.85129C55.8384 7.85129 55.0486 8.10334 54.4066 8.60744C53.7731 9.11153 53.2916 9.81306 52.9622 10.712H59.1073ZM55.623 19.9874C53.1987 19.9874 51.3277 19.4539 50.01 18.3869C48.6923 17.3199 48.0334 15.8454 48.0334 13.9635C48.0334 12.678 48.2488 11.4976 48.6796 10.4222C49.1104 9.34678 49.7312 8.4016 50.5421 7.58664C51.3193 6.79689 52.2906 6.17097 53.4563 5.70888C54.622 5.2468 55.9017 5.01575 57.2955 5.01575C59.4156 5.01575 61.0121 5.44423 62.0849 6.3012C63.1661 7.14976 63.7067 8.4058 63.7067 10.0693C63.7067 10.6406 63.6475 11.1993 63.5293 11.7454C63.4195 12.2915 63.2716 12.8334 63.0858 13.3711H52.5187C52.5187 13.4216 52.5187 13.472 52.5187 13.5224C52.5187 13.5644 52.5187 13.6106 52.5187 13.661C52.5187 14.644 52.865 15.4127 53.5577 15.9672C54.2503 16.5217 55.3104 16.799 56.738 16.799C57.7347 16.799 58.6765 16.631 59.5634 16.2949C60.4588 15.9588 61.2359 15.585 61.8948 15.1733H62.4016L61.5527 18.8154C60.6658 19.2018 59.7324 19.4917 58.7525 19.6849C57.7727 19.8866 56.7295 19.9874 55.623 19.9874Z" fill="#2E2E2E"/>
<path d="M75.6422 5.53245L75.2114 7.44802H70.2953L68.7748 13.9382C68.6903 14.2659 68.6143 14.644 68.5467 15.0725C68.4792 15.4925 68.4454 15.8286 68.4454 16.0807C68.4454 16.694 68.6017 17.1519 68.9142 17.4543C69.2267 17.7484 69.8053 17.8954 70.65 17.8954C70.9964 17.8954 71.406 17.8366 71.8791 17.719C72.3605 17.6013 72.6857 17.5089 72.8547 17.4417H72.9814L72.5379 19.4833C72.0649 19.6009 71.5581 19.6975 71.0175 19.7732C70.4853 19.8488 70.0123 19.8866 69.5984 19.8866C68.4327 19.8866 67.5289 19.6345 66.8869 19.1304C66.2534 18.6179 65.9366 17.8114 65.9366 16.7108C65.9366 16.4419 65.9535 16.1773 65.9873 15.9168C66.0296 15.648 66.0845 15.3455 66.152 15.0095L67.9132 7.44802H66.3041L66.7349 5.53245H68.344L69.2943 1.48708H71.6763L70.7261 5.53245H75.6422Z" fill="#2E2E2E"/>
<path d="M86.6907 8.02773H86.564C86.2262 7.94371 85.9094 7.8849 85.6137 7.85129C85.3266 7.80928 84.976 7.78828 84.5621 7.78828C83.7681 7.78828 82.9783 7.96891 82.1927 8.33018C81.4156 8.68305 80.6681 9.11153 79.9501 9.61563L77.6694 19.6093H75.262L78.493 5.53245H80.9004L80.4189 7.61185C81.5423 6.8305 82.4926 6.28859 83.2697 5.98614C84.0553 5.68368 84.8071 5.53245 85.5251 5.53245C85.9389 5.53245 86.2388 5.54505 86.4247 5.57026C86.6105 5.58706 86.8808 5.62487 87.2356 5.68368L86.6907 8.02773Z" fill="#2E2E2E"/>
<path d="M96.7003 12.1865C95.3995 12.2369 94.2423 12.3377 93.2286 12.489C92.2235 12.6318 91.3914 12.8418 90.7326 13.1191C90.0484 13.3963 89.5289 13.7744 89.1741 14.2533C88.8194 14.7238 88.642 15.3119 88.642 16.0176C88.642 16.6226 88.8489 17.0846 89.2628 17.4039C89.6767 17.7232 90.3187 17.8828 91.1887 17.8828C91.9574 17.8828 92.7387 17.7148 93.5327 17.3787C94.3352 17.0342 95.0827 16.6226 95.7754 16.1437L96.7003 12.1865ZM95.3193 18.1096C95.0912 18.2441 94.7787 18.4373 94.3816 18.6894C93.9931 18.933 93.5961 19.143 93.1906 19.3195C92.7598 19.5127 92.2784 19.6723 91.7462 19.7984C91.2141 19.9328 90.6017 20 89.909 20C88.7856 20 87.8733 19.6765 87.1722 19.0296C86.4711 18.3743 86.1206 17.5215 86.1206 16.4713C86.1206 15.3539 86.3655 14.4129 86.8554 13.6484C87.3538 12.8754 88.0887 12.2453 89.0601 11.758C90.0146 11.2791 91.1634 10.9347 92.5064 10.7246C93.8579 10.5062 95.3953 10.3718 97.1184 10.3214C97.1691 10.0861 97.2114 9.88448 97.2452 9.71645C97.2789 9.54001 97.2958 9.35938 97.2958 9.17454C97.2958 8.77127 97.2156 8.4436 97.0551 8.19156C96.8946 7.93951 96.6665 7.73787 96.3709 7.58664C96.0753 7.43541 95.7289 7.33459 95.3319 7.28418C94.9434 7.22537 94.5126 7.19597 94.0396 7.19597C93.3216 7.19597 92.5022 7.31359 91.5815 7.54883C90.6608 7.77568 89.9132 8.00252 89.3388 8.22936H89.2121L89.6809 5.86011C90.1624 5.73409 90.8677 5.59126 91.7969 5.43163C92.7261 5.272 93.6172 5.19219 94.4703 5.19219C96.2273 5.19219 97.545 5.46524 98.4235 6.01134C99.302 6.55745 99.7412 7.42281 99.7412 8.60744C99.7412 8.83428 99.7201 9.07792 99.6779 9.33837C99.6441 9.59042 99.6018 9.82987 99.5512 10.0567L97.3338 19.6093H94.9645L95.3193 18.1096Z" fill="#2E2E2E"/>
<path d="M117.961 0L113.4 19.6093H111.018L111.36 18.1348C110.287 18.8658 109.421 19.3573 108.763 19.6093C108.112 19.8698 107.403 20 106.634 20C105.299 20 104.239 19.5799 103.454 18.7398C102.677 17.8996 102.288 16.6772 102.288 15.0725C102.288 13.7198 102.499 12.4428 102.921 11.2413C103.344 10.0315 103.918 8.97291 104.645 8.06553C105.363 7.16656 106.212 6.45663 107.191 5.93573C108.171 5.40643 109.21 5.14178 110.308 5.14178C111.06 5.14178 111.753 5.22159 112.386 5.38122C113.02 5.54085 113.611 5.7803 114.16 6.09956L115.579 0H117.961ZM113.704 8.06553C113.138 7.77148 112.581 7.55724 112.031 7.42281C111.491 7.27998 110.912 7.20857 110.296 7.20857C109.417 7.20857 108.632 7.41861 107.939 7.83869C107.255 8.25877 106.668 8.83428 106.178 9.56522C105.73 10.2289 105.384 11.0271 105.139 11.9597C104.902 12.8923 104.784 13.7954 104.784 14.6692C104.784 15.6942 105.004 16.4797 105.443 17.0258C105.891 17.5635 106.613 17.8324 107.61 17.8324C108.319 17.8324 109.041 17.656 109.776 17.3031C110.519 16.9502 111.204 16.5637 111.829 16.1437L113.704 8.06553Z" fill="#2E2E2E"/>
<path d="M129.542 11.0397C129.584 10.7961 129.614 10.5902 129.631 10.4222C129.648 10.2541 129.656 10.0693 129.656 9.86767C129.656 8.9687 129.407 8.26717 128.908 7.76308C128.419 7.25898 127.629 7.00693 126.539 7.00693C125.34 7.00693 124.275 7.3766 123.346 8.11594C122.417 8.85528 121.788 9.82987 121.458 11.0397H129.542ZM124.778 19.937C122.818 19.937 121.281 19.4791 120.166 18.5633C119.051 17.6476 118.493 16.3075 118.493 14.5432C118.493 11.9639 119.313 9.75425 120.951 7.9143C122.59 6.06595 124.617 5.14178 127.033 5.14178C128.638 5.14178 129.867 5.54085 130.72 6.339C131.573 7.12875 132 8.24197 132 9.67864C132 9.93069 131.962 10.3298 131.886 10.8759C131.818 11.422 131.704 12.0563 131.544 12.7788H121.116C121.065 13.0225 121.027 13.2619 121.002 13.4972C120.985 13.7324 120.977 13.9509 120.977 14.1525C120.977 15.3371 121.34 16.2697 122.066 16.9502C122.793 17.6223 123.823 17.9584 125.158 17.9584C126.087 17.9584 127.042 17.7778 128.021 17.4165C129.01 17.0552 129.838 16.6478 130.505 16.1941H130.644L130.125 18.7524C129.702 18.9036 129.322 19.0422 128.984 19.1682C128.647 19.2943 128.216 19.4203 127.692 19.5463C127.168 19.6723 126.704 19.769 126.298 19.8362C125.893 19.9034 125.386 19.937 124.778 19.937Z" fill="#2E2E2E"/>
</svg>
