<svg width="188" height="28" viewBox="0 0 188 28" fill="none" xmlns="http://www.w3.org/2000/svg">
<path d="M9.85295 27.9824C8.46944 27.9824 7.17015 27.8118 5.95508 27.4707C4.75203 27.1414 3.69937 26.6238 2.79708 25.9181C1.91886 25.2241 1.23312 24.3537 0.739873 23.3069C0.246624 22.26 0 21.0485 0 19.6723C0 17.8962 0.342868 16.2495 1.0286 14.7322C1.72637 13.2031 2.70084 11.8681 3.95201 10.7272C5.17911 9.60975 6.67691 8.72758 8.44538 8.08066C10.2139 7.42197 12.1267 7.09263 14.1839 7.09263C15.423 7.09263 16.6502 7.22789 17.8652 7.49843C19.0923 7.76896 20.2292 8.16299 21.2759 8.68053L19.9044 14.097H18.9841C18.2743 13.2619 17.4682 12.6444 16.5659 12.2445C15.6757 11.8328 14.6711 11.627 13.5523 11.627C11.5071 11.627 9.86498 12.3386 8.62584 13.7618C7.3867 15.1733 6.76713 16.9376 6.76713 19.0548C6.76713 20.5251 7.14609 21.6249 7.90401 22.3541C8.67396 23.0834 9.86498 23.448 11.4771 23.448C12.7282 23.448 13.8651 23.201 14.8877 22.707C15.9223 22.2012 16.8066 21.6425 17.5404 21.0309H18.4607L17.0893 26.4474C15.79 27.0002 14.6471 27.3942 13.6606 27.6295C12.6861 27.8647 11.4169 27.9824 9.85295 27.9824Z" fill="#2E2E2E"/>
<path d="M35.6402 18.1021C34.4853 18.1962 33.4026 18.3079 32.392 18.4373C31.3815 18.5667 30.5213 18.7549 29.8115 19.0019C29.0776 19.2607 28.5182 19.6253 28.1332 20.0958C27.7483 20.5663 27.5558 21.1897 27.5558 21.966C27.5558 22.6482 27.8084 23.1304 28.3137 23.4127C28.831 23.6833 29.5769 23.8185 30.5514 23.8185C31.189 23.8185 31.8687 23.6774 32.5905 23.3951C33.3244 23.101 34.0101 22.7305 34.6477 22.2836L35.6402 18.1021ZM33.9259 25.3535C33.5169 25.6123 33.0236 25.924 32.4462 26.2886C31.8687 26.6532 31.3333 26.9414 30.8401 27.1531C30.1664 27.4237 29.5348 27.6295 28.9453 27.7706C28.3558 27.9118 27.5377 27.9824 26.4911 27.9824C24.8068 27.9824 23.4293 27.5236 22.3586 26.6062C21.2999 25.677 20.7706 24.4713 20.7706 22.9893C20.7706 21.4249 21.1495 20.1017 21.9075 19.0195C22.6654 17.9256 23.7902 17.0552 25.282 16.4083C26.6775 15.7967 28.3377 15.3556 30.2626 15.0851C32.1995 14.8145 34.2928 14.6146 36.5425 14.4852C36.5546 14.4146 36.5786 14.3029 36.6147 14.15C36.6508 13.9853 36.6688 13.803 36.6688 13.603C36.6688 12.7679 36.2718 12.1857 35.4778 11.8563C34.6838 11.5152 33.4988 11.3447 31.9228 11.3447C30.8521 11.3447 29.6671 11.5211 28.3678 11.874C27.0806 12.2268 26.1121 12.5209 25.4625 12.7561H24.867L25.8234 8.06301C26.5813 7.87482 27.7543 7.6631 29.3423 7.42785C30.9303 7.19261 32.5123 7.07498 34.0883 7.07498C37.2644 7.07498 39.5922 7.48078 41.072 8.29238C42.5638 9.10397 43.3097 10.3625 43.3097 12.0681C43.3097 12.3033 43.2856 12.6091 43.2375 12.9855C43.2014 13.3619 43.1472 13.6912 43.0751 13.9735L39.899 27.4531H33.4387L33.9259 25.3535Z" fill="#2E2E2E"/>
<path d="M53.6498 28C51.9175 28 50.2392 27.8412 48.6151 27.5236C46.991 27.2061 45.7458 26.8355 44.8796 26.4121L46.1248 21.1897H46.7203C46.985 21.4131 47.3158 21.6602 47.7128 21.9307C48.1218 22.2012 48.6993 22.4835 49.4452 22.7776C50.0828 23.0481 50.8227 23.2833 51.6648 23.4833C52.5069 23.6715 53.4152 23.7656 54.3897 23.7656C55.8454 23.7656 56.9342 23.6009 57.656 23.2716C58.3898 22.9422 58.7568 22.4718 58.7568 21.8601C58.7568 21.3896 58.4981 21.0309 57.9808 20.7839C57.4635 20.5369 56.3928 20.231 54.7687 19.8664C52.0137 19.243 50.1249 18.4902 49.1023 17.6081C48.0918 16.7259 47.5865 15.6261 47.5865 14.3088C47.5865 12.0739 48.6091 10.3155 50.6543 9.0334C52.6994 7.73955 55.4664 7.09263 58.9553 7.09263C60.4711 7.09263 61.9869 7.24554 63.5028 7.55135C65.0186 7.84541 66.1314 8.16299 66.8412 8.5041L65.6502 13.5148H65.0908C64.2366 12.8679 63.202 12.3445 61.9869 11.9445C60.7839 11.5329 59.5448 11.327 58.2695 11.327C56.886 11.327 55.8213 11.4917 55.0754 11.821C54.3416 12.1386 53.9747 12.6326 53.9747 13.3031C53.9747 13.8206 54.2935 14.2205 54.9311 14.5028C55.5687 14.7734 56.5732 15.0557 57.9447 15.3497C60.4952 15.8908 62.3298 16.573 63.4486 17.3963C64.5795 18.2197 65.1449 19.3724 65.1449 20.8544C65.1449 23.0657 64.1103 24.8124 62.0411 26.0945C59.9718 27.3648 57.1748 28 53.6498 28Z" fill="#2E2E2E"/>
<path d="M84.1831 14.9969C84.2192 14.7851 84.2433 14.5911 84.2553 14.4146C84.2794 14.2382 84.2914 14.0559 84.2914 13.8677C84.2914 12.9385 83.9967 12.2268 83.4072 11.7328C82.8177 11.2388 81.9695 10.9918 80.8627 10.9918C79.5274 10.9918 78.4025 11.3447 77.4882 12.0504C76.5859 12.7561 75.9002 13.7383 75.431 14.9969H84.1831ZM79.2206 27.9824C75.7678 27.9824 73.1031 27.2355 71.2263 25.7417C69.3496 24.2478 68.4112 22.1836 68.4112 19.5488C68.4112 17.7492 68.718 16.0966 69.3315 14.5911C69.9451 13.0855 70.8293 11.7622 71.9843 10.6213C73.0911 9.51565 74.4746 8.63936 76.1348 7.99244C77.795 7.34552 79.6176 7.02205 81.6026 7.02205C84.6223 7.02205 86.896 7.62193 88.4239 8.82168C89.9638 10.0097 90.7337 11.7681 90.7337 14.097C90.7337 14.8969 90.6495 15.6791 90.4811 16.4436C90.3247 17.2082 90.1142 17.9668 89.8495 18.7196H74.7994C74.7994 18.7902 74.7994 18.8607 74.7994 18.9313C74.7994 18.9901 74.7994 19.0548 74.7994 19.1254C74.7994 20.5016 75.2926 21.5778 76.2791 22.3541C77.2656 23.1304 78.7755 23.5186 80.8086 23.5186C82.2282 23.5186 83.5696 23.2833 84.8328 22.8129C86.108 22.3424 87.2148 21.8189 88.1532 21.2426H88.875L87.666 26.3415C86.4028 26.8826 85.0734 27.2884 83.6779 27.5589C82.2823 27.8412 80.7966 27.9824 79.2206 27.9824Z" fill="#2E2E2E"/>
<path d="M107.733 7.74543L107.119 10.4272H100.117L97.952 19.5135C97.8317 19.9723 97.7234 20.5016 97.6272 21.1014C97.5309 21.6896 97.4828 22.1601 97.4828 22.5129C97.4828 23.3716 97.7054 24.0126 98.1505 24.436C98.5956 24.8477 99.4197 25.0536 100.623 25.0536C101.116 25.0536 101.699 24.9712 102.373 24.8066C103.059 24.6419 103.522 24.5125 103.763 24.4184H103.943L103.312 27.2766C102.638 27.4413 101.916 27.5766 101.146 27.6824C100.388 27.7883 99.7145 27.8412 99.125 27.8412C97.4648 27.8412 96.1775 27.4883 95.2632 26.7826C94.3609 26.0651 93.9098 24.9359 93.9098 23.3951C93.9098 23.0187 93.9338 22.6482 93.982 22.2836C94.0421 21.9072 94.1203 21.4837 94.2166 21.0132L96.7249 10.4272H94.4331L95.0467 7.74543H97.3385L98.6919 2.08192H102.084L100.731 7.74543H107.733Z" fill="#2E2E2E"/>
<path d="M123.469 11.2388H123.288C122.807 11.1212 122.356 11.0389 121.935 10.9918C121.526 10.933 121.026 10.9036 120.437 10.9036C119.306 10.9036 118.181 11.1565 117.062 11.6623C115.956 12.1563 114.891 12.7561 113.868 13.4619L110.62 27.4531H107.191L111.793 7.74543H115.222L114.536 10.6566C116.136 9.5627 117.489 8.80403 118.596 8.38059C119.715 7.95715 120.786 7.74543 121.808 7.74543C122.398 7.74543 122.825 7.76308 123.09 7.79836C123.354 7.82189 123.739 7.87482 124.245 7.95715L123.469 11.2388Z" fill="#2E2E2E"/>
<path d="M137.725 17.0611C135.872 17.1317 134.224 17.2728 132.78 17.4846C131.349 17.6845 130.164 17.9786 129.225 18.3667C128.251 18.7549 127.511 19.2842 127.006 19.9546C126.5 20.6133 126.248 21.4367 126.248 22.4247C126.248 23.2716 126.542 23.9185 127.132 24.3655C127.721 24.8124 128.636 25.0359 129.875 25.0359C130.97 25.0359 132.082 24.8007 133.213 24.3302C134.356 23.8479 135.421 23.2716 136.407 22.6011L137.725 17.0611ZM135.758 25.3535C135.433 25.5417 134.988 25.8122 134.422 26.1651C133.869 26.5062 133.304 26.8003 132.726 27.0473C132.113 27.3178 131.427 27.5413 130.669 27.7177C129.911 27.9059 129.039 28 128.052 28C126.452 28 125.153 27.5472 124.154 26.6415C123.156 25.724 122.657 24.5301 122.657 23.0599C122.657 21.4955 123.005 20.1781 123.703 19.1078C124.413 18.0256 125.46 17.1435 126.843 16.4612C128.203 15.7908 129.839 15.3085 131.752 15.0145C133.676 14.7087 135.866 14.5205 138.32 14.4499C138.392 14.1206 138.453 13.8383 138.501 13.603C138.549 13.356 138.573 13.1031 138.573 12.8444C138.573 12.2798 138.459 11.821 138.23 11.4682C138.001 11.1153 137.677 10.833 137.256 10.6213C136.834 10.4096 136.341 10.2684 135.776 10.1979C135.222 10.1155 134.609 10.0744 133.935 10.0744C132.913 10.0744 131.746 10.239 130.434 10.5684C129.123 10.8859 128.058 11.2035 127.24 11.5211H127.06L127.727 8.20416C128.413 8.02773 129.418 7.82777 130.741 7.60429C132.064 7.3808 133.334 7.26906 134.549 7.26906C137.051 7.26906 138.928 7.65133 140.179 8.41588C141.43 9.18042 142.056 10.3919 142.056 12.0504C142.056 12.368 142.026 12.7091 141.965 13.0737C141.917 13.4266 141.857 13.7618 141.785 14.0794L138.627 27.4531H135.252L135.758 25.3535Z" fill="#2E2E2E"/>
<path d="M168.005 0L161.509 27.4531H158.116L158.604 25.3888C157.076 26.4121 155.843 27.1002 154.904 27.4531C153.978 27.8177 152.967 28 151.873 28C149.972 28 148.462 27.4119 147.343 26.2357C146.236 25.0594 145.683 23.348 145.683 21.1014C145.683 19.2077 145.984 17.4199 146.585 15.7379C147.187 14.0441 148.005 12.5621 149.039 11.2917C150.062 10.0332 151.271 9.03928 152.667 8.31002C154.062 7.569 155.542 7.19849 157.106 7.19849C158.176 7.19849 159.163 7.31023 160.065 7.53371C160.968 7.75719 161.81 8.09242 162.592 8.53938L164.613 0H168.005ZM161.942 11.2917C161.136 10.8801 160.342 10.5801 159.56 10.3919C158.79 10.192 157.966 10.092 157.088 10.092C155.837 10.092 154.718 10.3861 153.731 10.9742C152.757 11.5623 151.921 12.368 151.223 13.3913C150.585 14.3205 150.092 15.4379 149.743 16.7435C149.406 18.0492 149.238 19.3136 149.238 20.5369C149.238 21.9719 149.551 23.0716 150.176 23.8362C150.814 24.589 151.842 24.9653 153.262 24.9653C154.273 24.9653 155.301 24.7183 156.348 24.2243C157.407 23.7303 158.381 23.1892 159.271 22.6011L161.942 11.2917Z" fill="#2E2E2E"/>
<path d="M184.499 15.4556C184.559 15.1145 184.601 14.8263 184.625 14.5911C184.65 14.3558 184.662 14.097 184.662 13.8147C184.662 12.5562 184.307 11.574 183.597 10.8683C182.899 10.1626 181.774 9.8097 180.222 9.8097C178.514 9.8097 176.998 10.3272 175.675 11.3623C174.351 12.3974 173.455 13.7618 172.986 15.4556H184.499ZM177.714 27.9118C174.923 27.9118 172.733 27.2707 171.145 25.9887C169.557 24.7066 168.763 22.8305 168.763 20.3604C168.763 16.7494 169.93 13.656 172.264 11.08C174.598 8.49233 177.485 7.19849 180.926 7.19849C183.212 7.19849 184.962 7.75719 186.177 8.87461C187.392 9.98026 188 11.5388 188 13.5501C188 13.903 187.946 14.4617 187.838 15.2262C187.741 15.9908 187.579 16.8788 187.35 17.8904H172.499C172.427 18.2315 172.372 18.5667 172.336 18.896C172.312 19.2254 172.3 19.5312 172.3 19.8135C172.3 21.472 172.818 22.7776 173.852 23.7303C174.887 24.6713 176.355 25.1418 178.255 25.1418C179.579 25.1418 180.938 24.8889 182.334 24.3831C183.741 23.8773 184.92 23.3069 185.871 22.6717H186.069L185.329 26.2533C184.728 26.465 184.186 26.6591 183.705 26.8355C183.224 27.012 182.61 27.1884 181.864 27.3648C181.119 27.5413 180.457 27.6765 179.879 27.7706C179.302 27.8647 178.58 27.9118 177.714 27.9118Z" fill="#2E2E2E"/>
</svg>
