<svg width="343" height="109" viewBox="0 0 343 109" fill="none" xmlns="http://www.w3.org/2000/svg">
<g opacity="0.4" clip-path="url(#clip0)">
<path d="M10.0195 54.4999V58.7824H13.3381V54.4999V50.2388H10.0195V54.4999Z" fill="#464754"/>
<path d="M15.0068 54.5005V65.0042H18.3466V54.5005V44.0181H15.0068V54.5005Z" fill="#464754"/>
<path d="M20.0166 54.5003V84.1792H23.3563V54.5003V24.8428H20.0166V54.5003Z" fill="#464754"/>
<path d="M0 54.5002V55.9277H3.33974V54.5002V53.0728H0V54.5002Z" fill="#464754"/>
<path d="M5.00977 54.5003V57.8027H8.34951V54.5003V51.2192H5.00977V54.5003Z" fill="#464754"/>
<path d="M25.0264 54.4998V101.245H28.3661V54.4998V7.77637H25.0264V54.4998Z" fill="#464754"/>
<path d="M30.0361 54.5005V77.8728H33.3759V54.5005V31.1494H30.0361V54.5005Z" fill="#464754"/>
<path d="M35.0254 54.5001V60.1035H38.3651V54.5001V48.918H35.0254V54.5001Z" fill="#464754"/>
<path d="M40.0352 54.5003V81.9634H43.3749V54.5003V27.0586H40.0352V54.5003Z" fill="#464754"/>
<path d="M45.043 54.5001V98.2407H48.3827V54.5001V10.7808H45.043V54.5001Z" fill="#464754"/>
<path d="M50.0527 54.5V109H53.3925V54.5V0H50.0527V54.5Z" fill="#464754"/>
<path d="M55.0635 54.4999V71.8215H58.3821V54.4999V37.1997H55.0635V54.4999Z" fill="#464754"/>
<path d="M60.0518 54.5002V63.1503H63.3915V54.5002V45.8501H60.0518V54.5002Z" fill="#464754"/>
<path d="M65.0615 54.4997V56.7155H68.4013V54.4997V52.3052H65.0615V54.4997Z" fill="#464754"/>
<path d="M70.0723 54.4999V71.8215H73.412V54.4999V37.1997H70.0723V54.4999Z" fill="#464754"/>
<path d="M75.0801 54.5003V83.05H78.3987V54.5003V25.9507H75.0801V54.5003Z" fill="#464754"/>
<path d="M80.0693 54.5001V98.2407H83.4091V54.5001V10.7808H80.0693V54.5001Z" fill="#464754"/>
<path d="M85.0791 31.1494V54.5005V77.8728H88.4189V54.5005V31.1494H85.0791Z" fill="#464754"/>
<path d="M90.8506 54.5005V65.0042H94.1903V54.5005V44.0181H90.8506V54.5005Z" fill="#464754"/>
<path d="M95.8584 47.6392V54.4996V61.36H99.177V54.4996V47.6392H95.8584Z" fill="#464754"/>
<path d="M101.609 54.5V58.8251H104.949V54.5V50.1963H101.609V54.5Z" fill="#464754"/>
<path d="M106.619 51.2192V54.5003V57.8027H109.959V54.5003V51.2192H106.619Z" fill="#464754"/>
<path d="M112.389 54.5002V55.9277H115.707V54.5002V53.0728H112.389V54.5002Z" fill="#464754"/>
<path d="M123.478 54.4999V58.7824H126.817V54.4999V50.2388H123.478V54.4999Z" fill="#464754"/>
<path d="M128.487 54.5005V65.0042H131.806V54.5005V44.0181H128.487V54.5005Z" fill="#464754"/>
<path d="M133.475 54.5003V84.1792H136.814V54.5003V24.8428H133.475V54.5003Z" fill="#464754"/>
<path d="M113.458 54.5002V55.9277H116.798V54.5002V53.0728H113.458V54.5002Z" fill="#464754"/>
<path d="M118.468 54.5003V57.8027H121.808V54.5003V51.2192H118.468V54.5003Z" fill="#464754"/>
<path d="M138.484 54.4998V101.245H141.824V54.4998V7.77637H138.484V54.4998Z" fill="#464754"/>
<path d="M143.495 54.5V77.8723H146.835V54.5V31.1489H143.495V54.5Z" fill="#464754"/>
<path d="M148.504 54.5001V60.1035H151.844V54.5001V48.918H148.504V54.5001Z" fill="#464754"/>
<path d="M153.493 54.5003V81.9634H156.833V54.5003V27.0586H153.493V54.5003Z" fill="#464754"/>
<path d="M158.501 54.5001V98.2407H161.841V54.5001V10.7808H158.501V54.5001Z" fill="#464754"/>
<path d="M163.511 54.5V109H166.85V54.5V0H163.511V54.5Z" fill="#464754"/>
<path d="M168.521 54.4999V71.8215H171.861V54.4999V37.1997H168.521V54.4999Z" fill="#464754"/>
<path d="M173.531 54.5002V63.1503H176.85V54.5002V45.8501H173.531V54.5002Z" fill="#464754"/>
<path d="M178.521 54.4997V56.7155H181.86V54.4997V52.3052H178.521V54.4997Z" fill="#464754"/>
<path d="M183.53 54.4999V71.8215H186.87V54.4999V37.1997H183.53V54.4999Z" fill="#464754"/>
<path d="M188.539 54.5003V83.05H191.879V54.5003V25.9507H188.539V54.5003Z" fill="#464754"/>
<path d="M193.548 54.5001V98.2407H196.888V54.5001V10.7808H193.548V54.5001Z" fill="#464754"/>
<path d="M198.537 31.1494V54.5005V77.8728H201.877V54.5005V31.1494H198.537Z" fill="#464754"/>
<path d="M204.309 54.5005V65.0042H207.648V54.5005V44.0181H204.309V54.5005Z" fill="#464754"/>
<path d="M209.316 47.6392V54.4996V61.36H212.656V54.4996V47.6392H209.316Z" fill="#464754"/>
<path d="M215.067 54.5V58.8251H218.407V54.5V50.1963H215.067V54.5Z" fill="#464754"/>
<path d="M220.077 51.2192V54.5003V57.8027H223.417V54.5003V51.2192H220.077Z" fill="#464754"/>
<path d="M225.847 54.5002V55.9277H229.186V54.5002V53.0728H225.847V54.5002Z" fill="#464754"/>
<path d="M236.955 54.4999V58.7824H240.295V54.4999V50.2388H236.955V54.4999Z" fill="#464754"/>
<path d="M241.966 54.5005V65.0042H245.306V54.5005V44.0181H241.966V54.5005Z" fill="#464754"/>
<path d="M246.977 54.5003V84.1792H250.295V54.5003V24.8428H246.977V54.5003Z" fill="#464754"/>
<path d="M226.937 54.5002V55.9277H230.276V54.5002V53.0728H226.937V54.5002Z" fill="#464754"/>
<path d="M231.946 54.5003V57.8027H235.286V54.5003V51.2192H231.946V54.5003Z" fill="#464754"/>
<path d="M251.963 54.4998V101.245H255.303V54.4998V7.77637H251.963V54.4998Z" fill="#464754"/>
<path d="M256.973 54.5005V77.8728H260.312V54.5005V31.1494H256.973V54.5005Z" fill="#464754"/>
<path d="M261.982 54.5001V60.1035H265.322V54.5001V48.918H261.982V54.5001Z" fill="#464754"/>
<path d="M266.993 54.5003V81.9634H270.333V54.5003V27.0586H266.993V54.5003Z" fill="#464754"/>
<path d="M271.979 54.5001V98.2407H275.319V54.5001V10.7808H271.979V54.5001Z" fill="#464754"/>
<path d="M276.989 54.5V109H280.329V54.5V0H276.989V54.5Z" fill="#464754"/>
<path d="M281.998 54.4999V71.8215H285.338V54.4999V37.1997H281.998V54.4999Z" fill="#464754"/>
<path d="M287.01 54.5002V63.1503H290.35V54.5002V45.8501H287.01V54.5002Z" fill="#464754"/>
<path d="M292.02 54.4997V56.7155H295.338V54.4997V52.3052H292.02V54.4997Z" fill="#464754"/>
<path d="M297.009 54.4999V71.8215H300.349V54.4999V37.1997H297.009V54.4999Z" fill="#464754"/>
<path d="M302.017 54.5003V83.05H305.356V54.5003V25.9507H302.017V54.5003Z" fill="#464754"/>
<path d="M307.026 54.5001V98.2407H310.366V54.5001V10.7808H307.026V54.5001Z" fill="#464754"/>
<path d="M312.036 31.1494V54.5005V77.8728H315.376V54.5005V31.1494H312.036Z" fill="#464754"/>
<path d="M317.787 54.5005V65.0042H321.127V54.5005V44.0181H317.787V54.5005Z" fill="#464754"/>
<path d="M322.795 47.6392V54.4996V61.36H326.135V54.4996V47.6392H322.795Z" fill="#464754"/>
<path d="M328.566 54.5V58.8251H331.885V54.5V50.1963H328.566V54.5Z" fill="#464754"/>
<path d="M333.555 51.2192V54.5003V57.8027H336.894V54.5003V51.2192H333.555Z" fill="#464754"/>
<path d="M339.325 54.5002V55.9277H342.665V54.5002V53.0728H339.325V54.5002Z" fill="#464754"/>
</g>
<defs>
<clipPath id="clip0">
<rect width="343" height="109" fill="white"/>
</clipPath>
</defs>
</svg>
