<svg width="26" height="26" viewBox="0 0 26 26" fill="none" xmlns="http://www.w3.org/2000/svg">
<g clip-path="url(#clip0)">
<path d="M13 0C11.6739 0 10.4021 0.526784 9.46447 1.46447C8.52678 2.40215 8 3.67392 8 5V13C8 14.3261 8.52678 15.5979 9.46447 16.5355C10.4021 17.4732 11.6739 18 13 18C13.173 18 13.332 17.986 13.5 17.969C14.232 17.8928 14.9386 17.6575 15.5701 17.2795C16.2016 16.9016 16.7429 16.3901 17.156 15.781C17.696 14.983 18 14.036 18 13V5C18 3.67392 17.4732 2.40215 16.5355 1.46447C15.5979 0.526784 14.3261 0 13 0V0ZM13 2C14.3 2 15.396 2.842 15.813 4H15C14.449 4 14 4.448 14 5C14 5.965 15 6 15 6H16V7H15C14.449 7 14 7.448 14 8C14 8.965 15 9 15 9H16V10H10V9H11C11 9 12 8.965 12 8C12 7.448 11.551 7 11 7H10V6H11C11 6 12 5.965 12 5C12 4.448 11.551 4 11 4H10.187C10.604 2.842 11.701 2 13 2ZM5 11C4.109 11 4 12 4 12V13C4 17.275 6.998 20.837 11 21.75V24H8C7.041 24 7 25 7 25V26H19V25C19 24.449 18.552 24 18 24H15V21.75C19.002 20.837 22 17.275 22 13V12C22 12 21.906 11 21 11C20.094 11 20 12 20 12V13C20 16.859 16.859 20 13 20C9.141 20 6 16.859 6 13V12C6 12 5.891 11 5 11Z" fill="#767788"/>
</g>
<defs>
<clipPath id="clip0">
<rect width="26" height="26" fill="white"/>
</clipPath>
</defs>
</svg>
