<svg width="172" height="32" viewBox="0 0 172 32" fill="none" xmlns="http://www.w3.org/2000/svg">
<path d="M22.822 14.5882C21.7491 14.5882 20.8809 15.4565 20.8809 16.5294V23.4118C20.8809 24.4847 21.7491 25.3529 22.822 25.3529C23.895 25.3529 24.7632 24.4847 24.7632 23.4118V16.5294C24.7632 15.4565 23.895 14.5882 22.822 14.5882Z" fill="#34A853"/>
<path d="M2.35231 13C1.27937 13 0.411133 13.8682 0.411133 14.9412V17.0588C0.411133 18.1318 1.27937 19 2.35231 19C3.42525 19 4.29349 18.1318 4.29349 17.0588V14.9412C4.29349 13.8682 3.42525 13 2.35231 13Z" fill="#0066D9"/>
<path d="M29.5291 13C28.4561 13 27.5879 13.8682 27.5879 14.9412V17.0588C27.5879 18.1318 28.4561 19 29.5291 19C30.602 19 31.4702 18.1318 31.4702 17.0588V14.9412C31.4702 13.8682 30.602 13 29.5291 13Z" fill="#4285F4"/>
<path d="M9.05836 19.3529C7.98542 19.3529 7.11719 20.2212 7.11719 21.2941V23.4118C7.11719 24.4847 7.98542 25.3529 9.05836 25.3529C10.1313 25.3529 10.9995 24.4847 10.9995 23.4118V21.2941C10.9995 20.2212 10.1313 19.3529 9.05836 19.3529Z" fill="#EA4335"/>
<path d="M9.05836 6.64705C7.98542 6.64705 7.11719 7.51528 7.11719 8.58822V15.5147H7.11895C7.14366 16.5665 8.00131 17.4118 9.05836 17.4118C10.1154 17.4118 10.9731 16.5665 10.9978 15.5147H10.9995V8.58822C10.9995 7.51528 10.1313 6.64705 9.05836 6.64705Z" fill="#EA4335"/>
<path d="M22.822 6.64705C21.7491 6.64705 20.8809 7.51528 20.8809 8.58823V10.7059C20.8809 11.7788 21.7491 12.647 22.822 12.647C23.895 12.647 24.7632 11.7788 24.7632 10.7059V8.58823C24.7632 7.51528 23.895 6.64705 22.822 6.64705Z" fill="#34A853"/>
<path d="M15.9412 0.470581C14.8682 0.470581 14 1.33882 14 2.41176V4.52941C14 5.60235 14.8682 6.47058 15.9412 6.47058C17.0141 6.47058 17.8824 5.60235 17.8824 4.52941V2.41176C17.8824 1.33882 17.0141 0.470581 15.9412 0.470581Z" fill="#FAB908"/>
<path d="M15.9412 25.5294C14.8682 25.5294 14 26.3976 14 27.4706V29.5882C14 30.6612 14.8682 31.5294 15.9412 31.5294C17.0141 31.5294 17.8824 30.6612 17.8824 29.5882V27.4706C17.8824 26.3976 17.0141 25.5294 15.9412 25.5294Z" fill="#FAB908"/>
<path d="M17.8824 10.3529C17.8824 9.27999 17.0141 8.41176 15.9412 8.41176C14.8682 8.41176 14 9.27999 14 10.3529V15.0594V16.9423V21.6471C14 22.72 14.8682 23.5882 15.9412 23.5882C17.0141 23.5882 17.8824 22.72 17.8824 21.6471V16.9406V15.0594V10.3529Z" fill="#FAB908"/>
<path d="M103.955 22.6353V17.4824H106.726C107.431 17.4824 108.084 17.3235 108.684 17.0059C109.284 16.6882 109.764 16.2441 110.123 15.6735C110.481 15.1029 110.661 14.4588 110.661 13.7412C110.661 13.0235 110.481 12.3794 110.123 11.8088C109.764 11.2382 109.284 10.7941 108.684 10.4765C108.084 10.1588 107.431 10 106.726 10H102.473V22.6353H103.955ZM106.761 16.0529H103.955V11.4294H106.761C107.231 11.4294 107.646 11.5412 108.005 11.7647C108.364 11.9882 108.643 12.2765 108.843 12.6294C109.043 12.9824 109.143 13.3529 109.143 13.7412C109.143 14.1294 109.043 14.5 108.843 14.8529C108.643 15.2059 108.364 15.4941 108.005 15.7176C107.646 15.9412 107.231 16.0529 106.761 16.0529ZM115.62 22.9176C116.502 22.9176 117.296 22.7059 118.002 22.2823C118.708 21.8588 119.258 21.2823 119.652 20.5529C120.046 19.8235 120.243 19.0176 120.243 18.1353C120.243 17.2529 120.046 16.4471 119.652 15.7176C119.258 14.9882 118.708 14.4118 118.002 13.9882C117.296 13.5647 116.502 13.3529 115.62 13.3529C114.737 13.3529 113.943 13.5647 113.237 13.9882C112.531 14.4118 111.981 14.9882 111.587 15.7176C111.193 16.4471 110.996 17.2529 110.996 18.1353C110.996 19.0176 111.193 19.8235 111.587 20.5529C111.981 21.2823 112.531 21.8588 113.237 22.2823C113.943 22.7059 114.737 22.9176 115.62 22.9176ZM115.62 21.5588C115.067 21.5588 114.549 21.4206 114.067 21.1441C113.584 20.8676 113.199 20.4706 112.911 19.9529C112.623 19.4353 112.479 18.8294 112.479 18.1353C112.479 17.4412 112.623 16.8353 112.911 16.3176C113.199 15.8 113.584 15.4029 114.067 15.1265C114.549 14.85 115.067 14.7118 115.62 14.7118C116.173 14.7118 116.687 14.85 117.164 15.1265C117.64 15.4029 118.023 15.8 118.311 16.3176C118.599 16.8353 118.743 17.4412 118.743 18.1353C118.743 18.8294 118.599 19.4353 118.311 19.9529C118.023 20.4706 117.64 20.8676 117.164 21.1441C116.687 21.4206 116.173 21.5588 115.62 21.5588ZM125.555 22.9176C126.249 22.9176 126.867 22.7618 127.408 22.45C127.949 22.1382 128.361 21.7588 128.643 21.3118H128.714V22.6353H130.143V10H128.643V13.7235L128.714 14.9765H128.643C128.361 14.5176 127.949 14.1324 127.408 13.8206C126.867 13.5088 126.249 13.3529 125.555 13.3529C124.755 13.3529 124.029 13.5588 123.376 13.9706C122.723 14.3824 122.208 14.9529 121.831 15.6824C121.455 16.4118 121.267 17.2294 121.267 18.1353C121.267 19.0529 121.455 19.8735 121.831 20.5971C122.208 21.3206 122.723 21.8882 123.376 22.3C124.029 22.7118 124.755 22.9176 125.555 22.9176ZM125.731 21.5588C125.214 21.5588 124.726 21.4176 124.267 21.1353C123.808 20.8529 123.44 20.45 123.164 19.9265C122.887 19.4029 122.749 18.8059 122.749 18.1353C122.749 17.4647 122.887 16.8676 123.164 16.3441C123.44 15.8206 123.808 15.4176 124.267 15.1353C124.726 14.8529 125.214 14.7118 125.731 14.7118C126.261 14.7118 126.752 14.8529 127.205 15.1353C127.658 15.4176 128.023 15.8176 128.299 16.3353C128.576 16.8529 128.714 17.4529 128.714 18.1353C128.714 18.8176 128.576 19.4176 128.299 19.9353C128.023 20.4529 127.658 20.8529 127.205 21.1353C126.752 21.4176 126.261 21.5588 125.731 21.5588ZM136.108 22.9176C137.073 22.9176 137.893 22.6882 138.57 22.2294C139.246 21.7706 139.737 21.1706 140.043 20.4294L138.702 19.8647C138.479 20.4059 138.137 20.8235 137.679 21.1176C137.22 21.4118 136.673 21.5588 136.037 21.5588C135.508 21.5588 135.014 21.4147 134.555 21.1265C134.096 20.8382 133.729 20.4353 133.452 19.9176C133.176 19.4 133.037 18.8059 133.037 18.1353C133.037 17.4647 133.176 16.8706 133.452 16.3529C133.729 15.8353 134.096 15.4324 134.555 15.1441C135.014 14.8559 135.508 14.7118 136.037 14.7118C136.661 14.7118 137.193 14.8559 137.634 15.1441C138.076 15.4324 138.408 15.8529 138.631 16.4059L139.99 15.8412C139.708 15.0882 139.234 14.4853 138.57 14.0324C137.905 13.5794 137.084 13.3529 136.108 13.3529C135.237 13.3529 134.455 13.5588 133.761 13.9706C133.067 14.3824 132.526 14.9529 132.137 15.6824C131.749 16.4118 131.555 17.2294 131.555 18.1353C131.555 19.0412 131.749 19.8559 132.137 20.5794C132.526 21.3029 133.067 21.8735 133.761 22.2912C134.455 22.7088 135.237 22.9176 136.108 22.9176ZM144.208 22.9176C144.855 22.9176 145.437 22.7647 145.955 22.4588C146.473 22.1529 146.861 21.7823 147.12 21.3471H147.19V22.6353H148.62V16.9353C148.62 15.8294 148.27 14.9559 147.57 14.3147C146.87 13.6735 145.908 13.3529 144.684 13.3529C143.931 13.3529 143.246 13.5059 142.629 13.8118C142.011 14.1176 141.526 14.5412 141.173 15.0824L142.302 15.9294C142.549 15.5412 142.884 15.2382 143.308 15.0206C143.731 14.8029 144.196 14.6941 144.702 14.6941C145.42 14.6941 146.014 14.8971 146.484 15.3029C146.955 15.7088 147.19 16.2471 147.19 16.9176V17.4647C146.943 17.3118 146.587 17.1765 146.123 17.0588C145.658 16.9412 145.155 16.8824 144.614 16.8824C143.52 16.8824 142.614 17.15 141.896 17.6853C141.179 18.2206 140.82 18.9647 140.82 19.9176C140.82 20.4941 140.961 21.0088 141.243 21.4618C141.526 21.9147 141.926 22.2706 142.443 22.5294C142.961 22.7882 143.549 22.9176 144.208 22.9176ZM144.349 21.5941C143.773 21.5941 143.296 21.4412 142.92 21.1353C142.543 20.8294 142.355 20.4294 142.355 19.9353C142.355 19.3941 142.564 18.9529 142.981 18.6118C143.399 18.2706 144.02 18.1 144.843 18.1C145.302 18.1 145.737 18.1588 146.149 18.2765C146.561 18.3941 146.908 18.5471 147.19 18.7353C147.19 19.2529 147.061 19.7294 146.802 20.1647C146.543 20.6 146.196 20.9471 145.761 21.2059C145.326 21.4647 144.855 21.5941 144.349 21.5941ZM153.508 22.9176C154.167 22.9176 154.767 22.8059 155.308 22.5823C155.849 22.3588 156.279 22.0382 156.596 21.6206C156.914 21.2029 157.073 20.7176 157.073 20.1647C157.073 19.5294 156.849 18.9912 156.402 18.55C155.955 18.1088 155.29 17.7765 154.408 17.5529L153.102 17.2176C152.584 17.0882 152.196 16.9206 151.937 16.7147C151.679 16.5088 151.549 16.2412 151.549 15.9118C151.549 15.5588 151.734 15.2676 152.105 15.0382C152.476 14.8088 152.908 14.6941 153.402 14.6941C154.426 14.6941 155.137 15.0941 155.537 15.8941L156.843 15.2941C156.584 14.6824 156.146 14.2059 155.529 13.8647C154.911 13.5235 154.208 13.3529 153.42 13.3529C152.82 13.3529 152.261 13.4588 151.743 13.6706C151.226 13.8824 150.811 14.1853 150.499 14.5794C150.187 14.9735 150.031 15.4294 150.031 15.9471C150.031 16.6176 150.261 17.1647 150.72 17.5882C151.179 18.0118 151.767 18.3118 152.484 18.4882L153.579 18.7706C154.261 18.9353 154.761 19.1323 155.079 19.3618C155.396 19.5912 155.555 19.8941 155.555 20.2706C155.555 20.6941 155.355 21.0206 154.955 21.25C154.555 21.4794 154.073 21.5941 153.508 21.5941C152.979 21.5941 152.493 21.4471 152.052 21.1529C151.611 20.8588 151.279 20.4412 151.055 19.9L149.714 20.5C149.984 21.2059 150.443 21.7853 151.09 22.2382C151.737 22.6912 152.543 22.9176 153.508 22.9176ZM161.837 22.7765C162.12 22.7765 162.352 22.7588 162.534 22.7235C162.717 22.6882 162.896 22.6294 163.073 22.5471V21.0823C162.755 21.2823 162.426 21.3823 162.084 21.3823C161.661 21.3823 161.337 21.2529 161.114 20.9941C160.926 20.7588 160.831 20.3941 160.831 19.9V14.9941H163.02V13.6353H160.831V11.0941H159.331V13.6353H157.761V14.9941H159.331V20.2706C159.331 20.6941 159.39 21.0529 159.508 21.3471C159.626 21.6412 159.802 21.9 160.037 22.1235C160.249 22.3235 160.511 22.4823 160.823 22.6C161.134 22.7176 161.473 22.7765 161.837 22.7765ZM167.908 22.9176C168.567 22.9176 169.167 22.8059 169.708 22.5823C170.249 22.3588 170.679 22.0382 170.996 21.6206C171.314 21.2029 171.473 20.7176 171.473 20.1647C171.473 19.5294 171.249 18.9912 170.802 18.55C170.355 18.1088 169.69 17.7765 168.808 17.5529L167.502 17.2176C166.984 17.0882 166.596 16.9206 166.337 16.7147C166.079 16.5088 165.949 16.2412 165.949 15.9118C165.949 15.5588 166.134 15.2676 166.505 15.0382C166.876 14.8088 167.308 14.6941 167.802 14.6941C168.826 14.6941 169.537 15.0941 169.937 15.8941L171.243 15.2941C170.984 14.6824 170.546 14.2059 169.929 13.8647C169.311 13.5235 168.608 13.3529 167.82 13.3529C167.22 13.3529 166.661 13.4588 166.143 13.6706C165.626 13.8824 165.211 14.1853 164.899 14.5794C164.587 14.9735 164.431 15.4294 164.431 15.9471C164.431 16.6176 164.661 17.1647 165.12 17.5882C165.579 18.0118 166.167 18.3118 166.884 18.4882L167.979 18.7706C168.661 18.9353 169.161 19.1323 169.479 19.3618C169.796 19.5912 169.955 19.8941 169.955 20.2706C169.955 20.6941 169.755 21.0206 169.355 21.25C168.955 21.4794 168.473 21.5941 167.908 21.5941C167.379 21.5941 166.893 21.4471 166.452 21.1529C166.011 20.8588 165.679 20.4412 165.455 19.9L164.114 20.5C164.384 21.2059 164.843 21.7853 165.49 22.2382C166.137 22.6912 166.943 22.9176 167.908 22.9176Z" fill="#3C4043"/>
<path d="M80.3543 12.507C81.4661 12.507 82.3445 13.0011 82.7974 13.5501H82.8661V12.7952H84.8151V21.1266C84.8151 24.558 82.7974 25.958 80.4092 25.958C78.1582 25.958 76.7994 24.4482 76.2915 23.2129L78.0621 22.4717C78.3778 23.2266 79.1465 24.1188 80.3955 24.1188C81.919 24.1188 82.8661 23.1717 82.8661 21.4011V20.7286H82.7974C82.3445 21.2913 81.4661 21.7854 80.3543 21.7854C78.0347 21.7854 75.9072 19.7541 75.9072 17.1599C75.9072 14.5384 78.0347 12.507 80.3543 12.507ZM60.2464 12.6443C62.8131 12.6443 64.8994 14.5933 64.8994 17.2835C64.8994 19.9599 62.8131 21.9227 60.2464 21.9227C57.6798 21.9227 55.5935 19.9599 55.5935 17.2835C55.5935 14.5933 57.6798 12.6443 60.2464 12.6443ZM70.4033 12.6443C72.97 12.6443 75.0563 14.5933 75.0563 17.2835C75.0563 19.9599 72.97 21.9227 70.4033 21.9227C67.8366 21.9227 65.7504 19.9599 65.7504 17.2835C65.7504 14.5933 67.8366 12.6443 70.4033 12.6443ZM93.5994 12.6443C96.0013 12.6443 97.1817 14.5521 97.5661 15.5952L97.7719 16.1168L91.568 18.6835C92.0484 19.6031 92.7759 20.0835 93.819 20.0835C94.8621 20.0835 95.5759 19.5756 96.1112 18.807L97.6896 19.8639C97.168 20.6188 95.9464 21.9227 93.819 21.9227C91.1837 21.9227 89.221 19.8776 89.221 17.2835C89.221 14.5247 91.2112 12.6443 93.5994 12.6443ZM48.2229 7.42857C50.419 7.42857 51.9837 8.29328 53.1641 9.41877L51.7641 10.805C50.9268 10.009 49.7876 9.39132 48.2229 9.39132C45.3268 9.39132 43.0621 11.7247 43.0621 14.6207C43.0621 17.5168 45.3268 19.8501 48.2229 19.8501C50.1033 19.8501 51.1739 19.0952 51.8602 18.409C52.4229 17.8462 52.7935 17.0364 52.9308 15.9384H48.2229V13.9756H54.8523C54.921 14.3325 54.9621 14.7443 54.9621 15.2109C54.9621 16.6933 54.5641 18.5188 53.2602 19.809C51.9837 21.1266 50.3641 21.8266 48.2229 21.8266C44.2425 21.8266 40.9072 18.6011 40.9072 14.6345C40.9072 10.6541 44.2425 7.42857 48.2229 7.42857ZM88.2327 7.97759V21.607H86.2013V7.97759H88.2327ZM60.2464 14.456C58.8327 14.456 57.6249 15.5952 57.6249 17.2698C57.6249 18.9305 58.8464 20.0835 60.2464 20.0835C61.6464 20.0835 62.868 18.9305 62.868 17.2698C62.868 15.5952 61.6464 14.456 60.2464 14.456ZM70.4033 14.456C68.9896 14.456 67.7817 15.5952 67.7817 17.2698C67.7817 18.9305 69.0033 20.0835 70.4033 20.0835C71.8033 20.0835 73.0249 18.9305 73.0249 17.2698C73.0249 15.5952 71.817 14.456 70.4033 14.456ZM80.5327 14.3325C79.1327 14.3325 77.9523 15.5266 77.9523 17.1599C77.9523 18.7796 79.1327 19.9599 80.5327 19.9599C81.919 19.9599 83.017 18.7933 83.0033 17.1599C83.0033 15.5266 81.919 14.3325 80.5327 14.3325ZM93.668 14.4286C92.6249 14.4286 91.1837 15.3482 91.2386 17.1325L95.3837 15.4168C95.1641 14.8266 94.4778 14.4286 93.668 14.4286Z" fill="#3C4043"/>
</svg>
