<svg width="80" height="80" viewBox="0 0 80 80" fill="none" xmlns="http://www.w3.org/2000/svg">
<circle cx="40" cy="40" r="31.5" stroke="#2E3A59"/>
<path d="M55 35.9995C55.552 35.9995 56 35.5515 56 34.9995V32.9995C56 32.6295 55.796 32.2915 55.47 32.1175L40.47 24.1175C40.176 23.9615 39.824 23.9615 39.528 24.1175L24.528 32.1175C24.204 32.2915 24 32.6295 24 32.9995V34.9995C24 35.5515 24.448 35.9995 25 35.9995H26V49.9995C24.898 49.9995 24 50.8955 24 51.9995V54.9995C24 55.5515 24.448 55.9995 25 55.9995H55C55.552 55.9995 56 55.5515 56 54.9995V51.9995C56 50.8955 55.102 49.9995 54 49.9995V35.9995H55ZM54 53.9995H26V51.9995H54V53.9995ZM28 49.9995V35.9995H30V49.9995H28ZM32 49.9995V35.9995H40H48V49.9995H40H32ZM50 49.9995V35.9995H52V49.9995H50ZM26 33.9995V33.5995L40 26.1335L54 33.5995V33.9995H26Z" fill="#2E3A59"/>
<path d="M40 41.9995C39.448 41.9995 39 41.5495 39 40.9995C39 40.4495 39.448 39.9995 40 39.9995H42C42.552 39.9995 43 39.5515 43 38.9995C43 38.4475 42.552 37.9995 42 37.9995H41V36.9995C41 36.4475 40.552 35.9995 40 35.9995C39.448 35.9995 39 36.4475 39 36.9995V38.1835C37.838 38.5975 37 39.6975 37 40.9995C37 42.6535 38.346 43.9995 40 43.9995C40.552 43.9995 41 44.4495 41 44.9995C41 45.5495 40.552 45.9995 40 45.9995H38C37.448 45.9995 37 46.4475 37 46.9995C37 47.5515 37.448 47.9995 38 47.9995H39V48.9995C39 49.5515 39.448 49.9995 40 49.9995C40.552 49.9995 41 49.5515 41 48.9995V47.8155C42.162 47.4015 43 46.3015 43 44.9995C43 43.3455 41.654 41.9995 40 41.9995Z" fill="#2E3A59"/>
<circle opacity="0.5" cx="40" cy="40" r="39.5" stroke="#8F9BB3" stroke-dasharray="2 2"/>
</svg>
