<svg width="81" height="80" viewBox="0 0 81 80" fill="none" xmlns="http://www.w3.org/2000/svg">
<circle cx="40.5" cy="40" r="31.5" stroke="#2E3A59"/>
<g clip-path="url(#clip0)">
<path d="M40.5 36.9375C43.4983 36.9375 45.9375 34.4983 45.9375 31.5C45.9375 28.5017 43.4983 26.0625 40.5 26.0625C37.5017 26.0625 35.0625 28.5017 35.0625 31.5C35.0625 34.4983 37.5017 36.9375 40.5 36.9375ZM40.5 27.9375C42.4644 27.9375 44.0625 29.5356 44.0625 31.5C44.0625 33.4644 42.4644 35.0625 40.5 35.0625C38.5356 35.0625 36.9375 33.4644 36.9375 31.5C36.9375 29.5356 38.5356 27.9375 40.5 27.9375Z" fill="#2E3A59"/>
<path d="M51.5 36.9375C53.3954 36.9375 54.9375 35.3954 54.9375 33.5C54.9375 31.6046 53.3954 30.0625 51.5 30.0625C49.6046 30.0625 48.0625 31.6046 48.0625 33.5C48.0625 35.3954 49.6046 36.9375 51.5 36.9375ZM51.5 31.9375C52.3616 31.9375 53.0625 32.6384 53.0625 33.5C53.0625 34.3616 52.3616 35.0625 51.5 35.0625C50.6384 35.0625 49.9375 34.3616 49.9375 33.5C49.9375 32.6384 50.6384 31.9375 51.5 31.9375Z" fill="#2E3A59"/>
<path d="M52.2563 39.0625H50.8062C49.0976 39.0625 47.6226 40.072 46.9504 41.522C45.5666 40.0114 43.5789 39.0625 41.3737 39.0625H39.6264C37.4211 39.0625 35.4334 40.0114 34.0496 41.522C33.3774 40.072 31.9024 39.0625 30.1937 39.0625H28.7438C26.4038 39.0625 24.5 40.9547 24.5 43.2806V50.1063C24.5 51.116 25.3246 51.9375 26.3383 51.9375H32.0712C32.1673 53.0562 33.1081 53.9375 34.2514 53.9375H46.7487C47.8919 53.9375 48.8327 53.0562 48.9289 51.9375H54.5963C55.6461 51.9375 56.5001 51.0869 56.5001 50.0413V43.2806C56.5 40.9547 54.5963 39.0625 52.2563 39.0625ZM26.375 43.2806C26.375 41.9886 27.4376 40.9375 28.7438 40.9375H30.1937C31.4999 40.9375 32.5625 41.9886 32.5625 43.2806V43.9226C31.9321 45.5641 32.0625 46.5478 32.0625 50.0625H26.375V43.2806ZM47.0625 51.7487C47.0625 51.9218 46.9218 52.0625 46.7487 52.0625H34.2513C34.0782 52.0625 33.9375 51.9217 33.9375 51.7487V46.6264C33.9375 43.4895 36.4895 40.9375 39.6263 40.9375H41.3736C44.5105 40.9375 47.0625 43.4895 47.0625 46.6263V51.7487ZM54.625 50.0413C54.625 50.0736 54.9745 50.0625 48.9375 50.0625C48.9375 46.5218 49.0669 45.5614 48.4375 43.9226V43.2806C48.4375 41.9886 49.5001 40.9375 50.8062 40.9375H52.2563C53.5624 40.9375 54.625 41.9886 54.625 43.2806V50.0413Z" fill="#2E3A59"/>
<path d="M29.5 36.9375C31.3954 36.9375 32.9375 35.3954 32.9375 33.5C32.9375 31.6046 31.3954 30.0625 29.5 30.0625C27.6046 30.0625 26.0625 31.6046 26.0625 33.5C26.0625 35.3954 27.6046 36.9375 29.5 36.9375ZM29.5 31.9375C30.3616 31.9375 31.0625 32.6384 31.0625 33.5C31.0625 34.3616 30.3616 35.0625 29.5 35.0625C28.6384 35.0625 27.9375 34.3616 27.9375 33.5C27.9375 32.6384 28.6384 31.9375 29.5 31.9375Z" fill="#2E3A59"/>
</g>
<circle opacity="0.5" cx="40.5" cy="40" r="39.5" stroke="#8F9BB3" stroke-dasharray="2 2"/>
<defs>
<clipPath id="clip0">
<rect width="32" height="32" fill="white" transform="translate(24.5 24)"/>
</clipPath>
</defs>
</svg>
