<svg width="80" height="80" viewBox="0 0 80 80" fill="none" xmlns="http://www.w3.org/2000/svg">
<circle cx="40" cy="40" r="31.5" stroke="#2E3A59"/>
<path d="M55.0625 26.5625H43.6399C42.634 25.7795 41.3706 25.3125 40 25.3125C38.6294 25.3125 37.366 25.7795 36.3601 26.5625H24.9375C24.4197 26.5625 24 26.9822 24 27.5V53.75C24 54.2678 24.4197 54.6875 24.9375 54.6875H55.0625C55.5803 54.6875 56 54.2678 56 53.75V27.5C56 26.9822 55.5803 26.5625 55.0625 26.5625ZM43.9534 30.3125H36.0466C36.4709 28.5227 38.0825 27.1875 40 27.1875C41.9175 27.1875 43.5291 28.5227 43.9534 30.3125ZM25.875 28.4375H34.772C34.4614 29.0125 34.2432 29.644 34.1367 30.3125H33.4375C32.9197 30.3125 32.5 30.7322 32.5 31.25C32.5 31.7678 32.9197 32.1875 33.4375 32.1875H46.5625C47.0803 32.1875 47.5 31.7678 47.5 31.25C47.5 30.7322 47.0803 30.3125 46.5625 30.3125H45.8633C45.7568 29.644 45.5383 29.0125 45.228 28.4375H54.125V34.0625H25.875V28.4375ZM54.125 52.8125H25.875V35.9375H54.125V52.8125Z" fill="#2E3A59"/>
<path d="M40 45.3125C40.5168 45.3125 40.9375 45.7332 40.9375 46.25C40.9375 46.7668 40.5168 47.1875 40 47.1875H38.3223C37.8047 47.1875 37.3848 47.6072 37.3848 48.125C37.3848 48.6428 37.8047 49.0625 38.3223 49.0625H39.0625V49.375C39.0625 49.8928 39.4822 50.3125 40 50.3125C40.5178 50.3125 40.9375 49.8928 40.9375 49.375V48.9014C42.0288 48.5142 42.8125 47.4722 42.8125 46.25C42.8125 44.6992 41.5508 43.4375 40 43.4375C39.4832 43.4375 39.0625 43.0168 39.0625 42.5C39.0625 41.9832 39.4832 41.5625 40 41.5625H41.875C42.3928 41.5625 42.8125 41.1428 42.8125 40.625C42.8125 40.1072 42.3928 39.6875 41.875 39.6875H40.9375V39.375C40.9375 38.8572 40.5178 38.4375 40 38.4375C39.4822 38.4375 39.0625 38.8572 39.0625 39.375V39.8486C37.9712 40.2358 37.1875 41.2778 37.1875 42.5C37.1875 44.0508 38.4492 45.3125 40 45.3125Z" fill="#2E3A59"/>
<circle opacity="0.5" cx="40" cy="40" r="39.5" stroke="#8F9BB3" stroke-dasharray="2 2"/>
</svg>
