<svg width="80" height="80" viewBox="0 0 80 80" fill="none" xmlns="http://www.w3.org/2000/svg">
<circle cx="40" cy="40" r="31.5" stroke="#2E3A59"/>
<g clip-path="url(#clip0)">
<path d="M29.9394 30.5698C30.0868 30.5698 30.2364 30.535 30.3759 30.4617L31.8205 29.7018C32.2791 29.4605 32.4551 28.8936 32.2136 28.4355C31.9722 27.9773 31.4045 27.8015 30.946 28.0427L29.5014 28.8026C29.0428 29.0439 28.8668 29.6108 29.1082 30.0689C29.2762 30.3878 29.6022 30.5698 29.9394 30.5698Z" fill="#2E3A59"/>
<path d="M55.9934 54.9513L54.7941 44.9293L55.8962 36.7378C55.9243 36.5289 55.8804 36.3216 55.7791 36.1457C55.9235 35.7635 55.9997 35.3553 55.9997 34.9381C55.9997 34.0354 55.6385 33.1823 55.0276 32.5534C55.39 32.0019 55.5914 31.3499 55.5914 30.6762C55.5914 29.0545 54.4556 27.6928 52.937 27.3431C52.8958 25.4928 51.3762 24 49.5143 24C47.6523 24 46.1327 25.4928 46.0915 27.3432C44.5729 27.6929 43.4373 29.0546 43.4373 30.6763C43.4373 30.9352 43.4681 31.1933 43.5261 31.4448C43.3752 31.4801 43.2264 31.5234 43.08 31.5739C42.9637 31.4631 42.8416 31.3583 42.7139 31.2603C42.786 30.5977 42.9058 29.8371 43.0135 29.3833C43.1903 28.6387 43.0195 27.8676 42.545 27.2679C42.0715 26.6697 41.3621 26.3266 40.5984 26.3266C39.517 26.3266 38.5673 27.0174 38.2344 28.0486L37.1943 31.3066C37.0879 31.3911 36.9854 31.4803 36.8871 31.5739C36.5432 31.4546 36.1878 31.3778 35.8243 31.3451V28.9849C35.8243 26.2363 33.5858 24 30.8343 24C28.0828 24 25.8444 26.2363 25.8444 28.9849V36.0194L25.4746 35.8035C25.165 35.6226 24.7792 35.6339 24.4807 35.8326C24.1822 36.0313 24.0231 36.3826 24.0709 36.7377L25.1732 44.9307L24.0063 54.9542C23.9754 55.2199 24.0595 55.4862 24.2376 55.6859C24.4156 55.8857 24.6706 56 24.9384 56H55.0615C55.3298 56 55.5854 55.8853 55.7634 55.6848C55.9415 55.4844 56.0252 55.2174 55.9934 54.9513ZM46.8609 29.1311C46.92 29.1311 46.9811 29.135 47.0475 29.1429C47.3666 29.1811 47.6841 29.053 47.8872 28.8034C48.0902 28.5539 48.151 28.2178 48.0484 27.913C47.9947 27.7538 47.9675 27.5879 47.9675 27.4202C47.9675 26.5681 48.6614 25.875 49.5143 25.875C50.3672 25.875 51.0609 26.5681 51.0609 27.4202C51.0609 27.5879 51.0337 27.7538 50.9801 27.913C50.8774 28.2178 50.9382 28.5539 51.1413 28.8034C51.3444 29.053 51.6614 29.1813 51.9809 29.143C52.0474 29.1351 52.1085 29.1312 52.1677 29.1312C53.0205 29.1312 53.7144 29.8243 53.7144 30.6764C53.7144 31.1696 53.4749 31.6376 53.0735 31.9282C52.8043 32.1233 52.6585 32.446 52.6902 32.7767C52.7219 33.1074 52.9265 33.3966 53.2279 33.537C53.7714 33.7901 54.1227 34.3401 54.1227 34.9382C54.1227 35.325 53.9788 35.695 53.7176 35.98C53.6089 36.0986 53.5367 36.2376 53.4999 36.3833L52.8256 36.7771L51.1589 35.8036C50.8662 35.6328 50.5042 35.6328 50.2116 35.8036L49.044 36.4856V35.8133C49.044 33.6662 47.5262 31.8673 45.5065 31.4289C45.5003 31.4156 45.4949 31.4021 45.488 31.3889C45.3725 31.1681 45.314 30.9283 45.314 30.6764C45.3142 29.8242 46.008 29.1311 46.8609 29.1311ZM35.4147 33.2009C35.5397 33.2009 35.6633 33.2099 35.7851 33.2271C35.5962 33.7225 35.4917 34.2591 35.4917 34.8199V36.6536L34.036 35.8035C33.7434 35.6327 33.3814 35.6327 33.0888 35.8035L32.7998 35.9722V35.8131C32.7998 34.3727 33.9729 33.2009 35.4147 33.2009ZM37.3686 34.82C37.3686 33.3796 38.5417 32.2077 39.9835 32.2077C40.7694 32.2077 41.4749 32.5563 41.9547 33.1063C41.966 33.1311 41.9779 33.1558 41.9915 33.18C42.0456 33.2759 42.1147 33.3576 42.1934 33.426C42.4495 33.8298 42.5985 34.3077 42.5985 34.82V35.8041L42.5975 35.8036C42.3049 35.6327 41.9428 35.6327 41.6502 35.8036L39.9835 36.777L38.3168 35.8036C38.0242 35.6327 37.6621 35.6327 37.3695 35.8036L37.3686 35.8041V34.82ZM44.1823 33.228C44.3045 33.2106 44.428 33.2009 44.5522 33.2009C45.9941 33.2009 47.1672 34.3728 47.1672 35.8132V35.9724L46.8782 35.8036C46.5855 35.6328 46.2235 35.6328 45.9309 35.8036L44.4753 36.6538V34.82C44.4754 34.2595 44.371 33.7231 44.1823 33.228ZM40.0215 28.6212C40.1026 28.3702 40.3344 28.2016 40.5984 28.2016C40.8532 28.2016 41.0049 28.3451 41.0726 28.4307C41.141 28.5172 41.2469 28.6996 41.1873 28.9506C41.0951 29.3389 41.0005 29.8807 40.9248 30.4326C40.6211 30.3676 40.3064 30.3326 39.9835 30.3326C39.8082 30.3326 39.6355 30.3438 39.4654 30.3634L40.0215 28.6212ZM30.8344 25.875C32.5509 25.875 33.9474 27.2701 33.9474 28.9849V31.5731C33.3327 31.786 32.7787 32.1285 32.3174 32.5681C32.31 32.4382 32.2762 32.3078 32.2115 32.1852C31.9702 31.7271 31.4025 31.5512 30.944 31.7924L29.4994 32.5524C29.0407 32.7936 28.8647 33.3606 29.1062 33.8187C29.2742 34.1375 29.6001 34.3196 29.9374 34.3196C30.0847 34.3196 30.2344 34.2847 30.3738 34.2114L31.4983 33.6199C31.1327 34.2689 30.923 35.0169 30.923 35.8132V36.4855L29.7554 35.8036C29.4627 35.6328 29.1007 35.6328 28.8082 35.8036L27.7212 36.4383V28.9849C27.7212 27.2701 29.1178 25.875 30.8344 25.875ZM25.9924 54.125L27.0512 45.0306C27.0602 44.9531 27.0595 44.8748 27.0491 44.7974L26.1872 38.3916L26.6678 38.6722C26.9604 38.8431 27.3225 38.8431 27.615 38.6722L29.2817 37.6988L30.9485 38.6722C31.2411 38.8431 31.6032 38.8431 31.8957 38.6722L33.5624 37.6988L35.2292 38.6722C35.5218 38.8431 35.8839 38.8431 36.1764 38.6722L37.8431 37.6988L39.5099 38.6722C39.8025 38.8431 40.1645 38.8431 40.4571 38.6722L42.1238 37.6988L43.7905 38.6722C44.0832 38.8431 44.4452 38.8431 44.7378 38.6722L46.4045 37.6988L48.0712 38.6722C48.3639 38.8431 48.7259 38.8431 49.0185 38.6722L50.6852 37.6988L52.3519 38.6722C52.6445 38.8431 53.0066 38.8431 53.2992 38.6722L53.7797 38.3916L52.9179 44.7975C52.9073 44.8758 52.9067 44.9552 52.9162 45.0336L54.0042 54.125H25.9924Z" fill="#2E3A59"/>
<path d="M44.9168 42.1045H35.0478C34.5295 42.1045 34.1094 42.5242 34.1094 43.042V46.8032C34.1094 47.3209 34.5296 47.7407 35.0478 47.7407H44.9168C45.4351 47.7407 45.8552 47.3209 45.8552 46.8032V43.042C45.8552 42.5242 45.4351 42.1045 44.9168 42.1045ZM43.9783 45.8657H35.9862V43.9795H43.9783V45.8657Z" fill="#2E3A59"/>
</g>
<circle opacity="0.5" cx="40" cy="40" r="39.5" stroke="#8F9BB3" stroke-dasharray="2 2"/>
<defs>
<clipPath id="clip0">
<rect width="32" height="32" fill="white" transform="translate(24 24)"/>
</clipPath>
</defs>
</svg>
