<svg width="80" height="80" viewBox="0 0 80 80" fill="none" xmlns="http://www.w3.org/2000/svg">
<circle cx="40" cy="40" r="31.5" stroke="#2E3A59"/>
<g clip-path="url(#clip0)">
<path d="M52.3333 54.6668H27.6667C25.644 54.6668 24 53.0228 24 51.0002V29.0002C24 26.9775 25.644 25.3335 27.6667 25.3335H52.3333C54.356 25.3335 56 26.9775 56 29.0002V51.0002C56 53.0228 54.356 54.6668 52.3333 54.6668ZM27.6667 27.3335C26.748 27.3335 26 28.0815 26 29.0002V51.0002C26 51.9188 26.748 52.6668 27.6667 52.6668H52.3333C53.252 52.6668 54 51.9188 54 51.0002V29.0002C54 28.0815 53.252 27.3335 52.3333 27.3335H27.6667Z" fill="#2E3A59"/>
<path d="M55 32H25C24.448 32 24 31.552 24 31C24 30.448 24.448 30 25 30H55C55.552 30 56 30.448 56 31C56 31.552 55.552 32 55 32Z" fill="#2E3A59"/>
<path d="M37 50.6665C36.448 50.6665 36 50.2185 36 49.6665V35.6665C36 35.1145 36.448 34.6665 37 34.6665C37.552 34.6665 38 35.1145 38 35.6665V49.6665C38 50.2185 37.552 50.6665 37 50.6665Z" fill="#2E3A59"/>
<path d="M43 50.6665C42.448 50.6665 42 50.2185 42 49.6665V35.6665C42 35.1145 42.448 34.6665 43 34.6665C43.552 34.6665 44 35.1145 44 35.6665V49.6665C44 50.2185 43.552 50.6665 43 50.6665Z" fill="#2E3A59"/>
<path d="M47 40.6665H33C32.448 40.6665 32 40.2185 32 39.6665C32 39.1145 32.448 38.6665 33 38.6665H47C47.552 38.6665 48 39.1145 48 39.6665C48 40.2185 47.552 40.6665 47 40.6665Z" fill="#2E3A59"/>
<path d="M47 46.6665H33C32.448 46.6665 32 46.2185 32 45.6665C32 45.1145 32.448 44.6665 33 44.6665H47C47.552 44.6665 48 45.1145 48 45.6665C48 46.2185 47.552 46.6665 47 46.6665Z" fill="#2E3A59"/>
</g>
<circle opacity="0.5" cx="40" cy="40" r="39.5" stroke="#8F9BB3" stroke-dasharray="2 2"/>
<defs>
<clipPath id="clip0">
<rect width="32" height="32" fill="white" transform="translate(24 24)"/>
</clipPath>
</defs>
</svg>
