<svg width="80" height="80" viewBox="0 0 80 80" fill="none" xmlns="http://www.w3.org/2000/svg">
<circle cx="40" cy="40" r="31.5" stroke="#2E3A59"/>
<g clip-path="url(#clip0)">
<path d="M55.901 47.4458L54.5846 40.285C54.1615 37.0119 51.3604 34.5474 48.0576 34.5474H31.9421C28.6393 34.5474 25.8383 37.0119 25.4151 40.285L24.0987 47.4458C23.4441 51.0061 26.1281 54.331 29.7283 54.4755C33.1587 54.6128 35.9147 51.8123 35.9255 48.4705C35.9256 48.4586 35.5384 48.4627 44.0742 48.4627C44.0742 51.793 46.8305 54.6136 50.2715 54.4755C53.8553 54.3316 56.5588 51.0231 55.901 47.4458ZM52.3716 51.8593C50.8263 52.9475 48.6848 52.8551 47.2387 51.4659C46.4226 50.6819 45.9546 49.5832 45.9546 48.4512C45.9546 47.4409 45.1218 46.5823 44.0742 46.5823H35.9255C34.878 46.5823 34.045 47.4407 34.045 48.4512C34.045 50.7448 32.1614 52.6909 29.8036 52.5966C27.648 52.5101 25.9448 50.7459 25.877 48.6252C25.86 48.0943 25.8412 48.3673 27.2692 40.5994C27.2725 40.5818 27.2753 40.564 27.2774 40.546C27.5709 38.1982 29.5763 36.4278 31.942 36.4278H48.0576C50.4233 36.4278 52.4286 38.1982 52.7221 40.546C52.7272 40.5874 52.6341 40.0762 54.0515 47.7858C54.3517 49.4164 53.6199 50.9801 52.3716 51.8593Z" fill="#2E3A59"/>
<path d="M35.486 41.0664H33.919V39.4993C33.919 38.9801 33.498 38.5591 32.9788 38.5591C32.4595 38.5591 32.0385 38.9801 32.0385 39.4993V41.0664H30.4715C29.9522 41.0664 29.5312 41.4873 29.5312 42.0066C29.5312 42.5258 29.9522 42.9468 30.4715 42.9468H32.0385V44.5139C32.0385 45.0331 32.4595 45.4541 32.9788 45.4541C33.498 45.4541 33.919 45.0331 33.919 44.5139V42.9468H35.486C36.0053 42.9468 36.4263 42.5258 36.4263 42.0066C36.4263 41.4873 36.0053 41.0664 35.486 41.0664Z" fill="#2E3A59"/>
<path d="M47.942 39.3157C47.8256 38.7605 47.2753 38.4424 46.7466 38.5998C46.2042 38.7766 45.9815 39.3143 46.1204 39.772C46.2926 40.31 46.8321 40.5391 47.2926 40.3988C47.7791 40.2435 48.029 39.7804 47.942 39.3157Z" fill="#2E3A59"/>
<path d="M49.5281 41.0664C49.0089 41.0664 48.5879 41.4874 48.5879 42.0066V42.0693C48.5879 42.5886 49.0089 43.0095 49.5281 43.0095C50.0474 43.0095 50.4684 42.5886 50.4684 42.0693V42.0066C50.4684 41.4873 50.0474 41.0664 49.5281 41.0664Z" fill="#2E3A59"/>
<path d="M44.5125 41.0664C43.9932 41.0664 43.5723 41.4874 43.5723 42.0066V42.0693C43.5723 42.5886 43.9932 43.0095 44.5125 43.0095C45.0318 43.0095 45.4527 42.5886 45.4527 42.0693V42.0066C45.4527 41.4873 45.0318 41.0664 44.5125 41.0664Z" fill="#2E3A59"/>
<path d="M47.9435 44.3303C47.8271 43.7751 47.2768 43.457 46.7481 43.6145C46.208 43.7905 45.9836 44.3218 46.1219 44.7873C46.3015 45.3365 46.8423 45.5511 47.2941 45.4134C47.7788 45.2587 48.0308 44.7966 47.9435 44.3303Z" fill="#2E3A59"/>
<path d="M37.5625 30.5428C37.1953 30.91 37.1953 31.5053 37.5625 31.8725C37.9296 32.2396 38.525 32.2396 38.8922 31.8725C39.5046 31.2601 40.4958 31.26 41.1083 31.8725C41.4755 32.2397 42.0708 32.2397 42.438 31.8725C42.8052 31.5053 42.8052 30.91 42.438 30.5428C41.0939 29.1986 38.9067 29.1987 37.5625 30.5428Z" fill="#2E3A59"/>
<path d="M36.0562 29.0356C38.2364 26.8555 41.7653 26.8551 43.9457 29.0356C44.3128 29.4028 44.9082 29.4028 45.2754 29.0356C45.6426 28.6684 45.6426 28.0731 45.2754 27.7059C42.3604 24.7909 37.642 24.7905 34.7266 27.7059C34.3594 28.0731 34.3594 28.6684 34.7266 29.0356C35.0938 29.4028 35.6891 29.4028 36.0562 29.0356Z" fill="#2E3A59"/>
</g>
<circle opacity="0.5" cx="40" cy="40" r="39.5" stroke="#8F9BB3" stroke-dasharray="2 2"/>
<defs>
<clipPath id="clip0">
<rect width="32" height="32" fill="white" transform="translate(24 24)"/>
</clipPath>
</defs>
</svg>
