<svg width="80" height="80" viewBox="0 0 80 80" fill="none" xmlns="http://www.w3.org/2000/svg">
<circle cx="40" cy="40" r="31.5" stroke="#2E3A59"/>
<path d="M47.5625 44.7168C48.0803 44.7168 48.5 44.2971 48.5 43.7793C48.5 43.2615 48.0803 42.8418 47.5625 42.8418C47.0447 42.8418 46.625 43.2615 46.625 43.7793C46.625 44.2971 47.0447 44.7168 47.5625 44.7168Z" fill="#2E3A59"/>
<path d="M54.125 39.253V34.4042C54.125 33.8865 53.7052 33.4667 53.1875 33.4667H52.433C52.1815 32.7757 50.2104 27.3604 49.9066 26.5253C49.7297 26.0395 49.1928 25.7885 48.7066 25.9644L38.3365 29.7167H26.8125C25.2617 29.7167 24 30.9784 24 32.5292V51.2792C24 52.83 25.2617 54.0917 26.8125 54.0917H53.1875C53.7052 54.0917 54.125 53.6719 54.125 53.1542V48.3055C55.2162 47.9185 56 46.8764 56 45.6542V41.9042C56 40.682 55.2162 39.64 54.125 39.253ZM45.0246 29.2906C45.5004 30.0731 46.1958 30.6985 47.0446 31.0943C47.8591 31.4741 48.7739 31.6249 49.7156 31.4828L50.4377 33.4666H33.4833L45.0246 29.2906ZM49.052 29.6596C48.6374 29.6638 48.2238 29.5754 47.837 29.395C47.4485 29.2138 47.1138 28.9523 46.8501 28.6301L48.4647 28.0459L49.052 29.6596ZM26.8125 31.5917H33.1546L27.9726 33.4667H26.8125C26.2956 33.4667 25.875 33.0461 25.875 32.5292C25.875 32.0123 26.2956 31.5917 26.8125 31.5917ZM26.8125 52.2167C26.2956 52.2167 25.875 51.7961 25.875 51.2792V35.1805C26.1684 35.2845 26.4839 35.3417 26.8125 35.3417H52.25V39.0917H47.5625C44.9778 39.0917 42.875 41.1945 42.875 43.7792C42.875 46.3639 44.9778 48.4667 47.5625 48.4667H52.25V52.2167H26.8125ZM54.125 45.6542C54.125 46.1711 53.7044 46.5917 53.1875 46.5917H47.5625C46.0117 46.5917 44.75 45.33 44.75 43.7792C44.75 42.2284 46.0117 40.9667 47.5625 40.9667H53.1875C53.7044 40.9667 54.125 41.3873 54.125 41.9042V45.6542Z" fill="#2E3A59"/>
<path d="M36.331 43.5715C35.8125 43.1009 35.1178 42.8417 34.3751 42.8417C33.8932 42.8417 33.4376 42.3252 33.4376 41.779C33.4376 41.4274 33.6827 41.0964 34.0622 40.9357C34.298 40.8358 34.9198 40.6743 35.5977 41.3311C35.9696 41.6914 36.5631 41.682 36.9234 41.3102C37.2836 40.9384 37.2742 40.3448 36.9024 39.9845C36.4313 39.5281 35.8835 39.2198 35.3126 39.071V38.1543C35.3126 37.6365 34.8929 37.2168 34.3751 37.2168C33.8574 37.2168 33.4376 37.6365 33.4376 38.1543V39.1665C33.4019 39.1801 33.3664 39.1943 33.331 39.2093C32.2567 39.664 31.5626 40.6728 31.5626 41.7789C31.5626 43.3714 32.8505 44.7166 34.3751 44.7166C34.8266 44.7166 35.3126 44.9708 35.3126 45.5289C35.3126 45.9281 35.0719 46.284 34.7137 46.4144C34.2542 46.5817 33.7091 46.3423 33.2179 45.7575C32.8849 45.3611 32.2936 45.3096 31.8971 45.6426C31.5006 45.9756 31.4491 46.567 31.7821 46.9634C32.2741 47.5492 32.8427 47.9561 33.4375 48.1698V49.4041C33.4375 49.9219 33.8572 50.3416 34.375 50.3416C34.8927 50.3416 35.3125 49.9219 35.3125 49.4041V48.1908C35.3267 48.1859 35.3411 48.1814 35.3554 48.1762C36.4512 47.7771 37.1876 46.7132 37.1876 45.5289C37.1876 44.7681 36.8834 44.0729 36.331 43.5715Z" fill="#2E3A59"/>
<circle opacity="0.5" cx="40" cy="40" r="39.5" stroke="#8F9BB3" stroke-dasharray="2 2"/>
</svg>
