<svg width="250" height="250" viewBox="0 0 250 250" fill="none" xmlns="http://www.w3.org/2000/svg">
<path d="M200.512 174.797C179.987 221.918 139.038 235.387 92.0646 214.798C45.0915 194.209 9.34705 153.304 29.8713 106.183C50.3956 59.0621 119.416 23.5701 166.389 44.1589C216.674 66.199 221.036 127.677 200.512 174.797Z" fill="#6D02DD"/>
<path d="M156.584 212.503C111.269 236.542 70.8703 221.491 46.9071 176.033C22.944 130.576 20.3806 76.2397 65.696 52.2012C111.011 28.1627 187.045 43.5245 211.008 88.9823C236.661 137.645 201.9 188.465 156.584 212.503Z" fill="#83A3E7"/>
<g filter="url(#filter0_d)">
<path d="M211.113 112.363C230.428 161.825 204.923 187.813 155.64 207.19C106.356 226.568 60.9148 233.658 41.5991 184.196C22.2835 134.734 41.8193 61.307 91.1028 41.9294C143.86 21.1858 186.988 70.503 211.113 112.363Z" fill="#FAFAFA"/>
</g>
<defs>
<filter id="filter0_d" x="14.2505" y="17.0344" width="223.334" height="224.827" filterUnits="userSpaceOnUse" color-interpolation-filters="sRGB">
<feFlood flood-opacity="0" result="BackgroundImageFix"/>
<feColorMatrix in="SourceAlpha" type="matrix" values="0 0 0 0 0 0 0 0 0 0 0 0 0 0 0 0 0 0 127 0"/>
<feOffset/>
<feGaussianBlur stdDeviation="10"/>
<feColorMatrix type="matrix" values="0 0 0 0 0.172549 0 0 0 0 0.172549 0 0 0 0 0.172549 0 0 0 0.14 0"/>
<feBlend mode="normal" in2="BackgroundImageFix" result="effect1_dropShadow"/>
<feBlend mode="normal" in="SourceGraphic" in2="effect1_dropShadow" result="shape"/>
</filter>
</defs>
</svg>
